<?xml version="1.0" standalone="no"?>
 <!DOCTYPE svg PUBLIC "-//W3C//DTD SVG 1.1//EN" 
 "http://www.w3.org/Graphics/SVG/1.1/DTD/svg11.dtd"> 
<svg xmlns="http://www.w3.org/2000/svg" version="1.1" 
    width="29.7002cm" height="21.0007cm" viewBox="0 0 116930 82680 ">
<title>SVG Picture created as VGA-B_Mask.svg date 2019/12/13 15:11:35 </title>
  <desc>Picture generated by PCBNEW </desc>
<g style="fill:#000000; fill-opacity:1;stroke:#000000; stroke-opacity:1;
stroke-linecap:round; stroke-linejoin:round; "
 transform="translate(0 0) scale(1 1)">
</g>
<g style="fill:#000000; fill-opacity:0.0; 
stroke:#000000; stroke-width:-0.000393701; stroke-opacity:1; 
stroke-linecap:round; stroke-linejoin:round;">
</g>
<g style="fill:#000000; fill-opacity:0.0; 
stroke:#000000; stroke-width:19.685; stroke-opacity:1; 
stroke-linecap:round; stroke-linejoin:round;">
<path d="M54000 49250 A750 750 0.0 0 0 54750 48500 " />
<path d="M54000 49250 A1000 1000 0.0 0 0 53000 50250 " />
<path d="M67750 48500 A750 750 0.0 0 0 68500 49250 " />
<path d="M53000 52750
L53000 50250
" />
<path d="M69500 50250 A1000 1000 0.0 0 0 68500 49250 " />
<path d="M69500 52750
L69500 50250
" />
<path d="M55750 42000 A1000 1000 0.0 0 0 54750 43000 " />
<path d="M67750 43000 A1000 1000 0.0 0 0 66750 42000 " />
<path d="M69250 53000 A250 250 0.0 0 0 69500 52750 " />
<path d="M53000 52750 A250 250 0.0 0 0 53250 53000 " />
<path d="M54750 43000
L54750 48500
" />
<path d="M66750 42000
L55750 42000
" />
<path d="M67750 48500
L67750 43000
" />
<path d="M53250 53000
L69250 53000
" />
</g>
<g style="fill:#000000; fill-opacity:1.0; 
stroke:#000000; stroke-width:0; stroke-opacity:1; 
stroke-linecap:round; stroke-linejoin:round;">
<path style="fill:#000000; fill-opacity:1.0; 
stroke:#000000; stroke-width:0; stroke-opacity:1; 
stroke-linecap:round; stroke-linejoin:round;fill-rule:evenodd;"
d="M 68869.5,51492.9
68936.4,51513.2
68936.4,51513.2
68998,51546.2
69052,51590.5
69084.8,51630.4
69096.4,51644.5
69129.3,51706.1
69149.6,51773
69154.7,51825.1
69154.7,52174.9
69149.6,52227
69129.3,52293.9
69096.4,52355.5
69084.8,52369.6
69052,52409.5
69012.1,52442.3
68998,52453.8
68936.4,52486.8
68869.5,52507.1
68800,52513.9
68730.5,52507.1
68663.6,52486.8
68602,52453.8
68587.9,52442.3
68548,52409.5
68515.2,52369.6
68503.6,52355.5
68470.7,52293.9
68450.4,52227
68445.3,52174.9
68445.3,51825.1
68450.4,51773
68470.7,51706.1
68503.6,51644.5
68503.6,51644.5
68548,51590.5
68587.9,51557.7
68602,51546.2
68663.6,51513.2
68730.5,51492.9
68800,51486.1
Z" /> 
<path style="fill:#000000; fill-opacity:1.0; 
stroke:#000000; stroke-width:0; stroke-opacity:1; 
stroke-linecap:round; stroke-linejoin:round;fill-rule:evenodd;"
d="M 61869.5,51492.9
61936.4,51513.2
61936.4,51513.2
61998,51546.2
62052,51590.5
62084.8,51630.4
62096.4,51644.5
62129.3,51706.1
62149.6,51773
62154.7,51825.1
62154.7,52174.9
62149.6,52227
62129.3,52293.9
62096.4,52355.5
62084.8,52369.6
62052,52409.5
62012.1,52442.3
61998,52453.8
61936.4,52486.8
61869.5,52507.1
61800,52513.9
61730.5,52507.1
61663.6,52486.8
61602,52453.8
61587.9,52442.3
61548,52409.5
61515.2,52369.6
61503.6,52355.5
61470.7,52293.9
61450.4,52227
61445.3,52174.9
61445.3,51825.1
61450.4,51773
61470.7,51706.1
61503.6,51644.5
61503.6,51644.5
61548,51590.5
61587.9,51557.7
61602,51546.2
61663.6,51513.2
61730.5,51492.9
61800,51486.1
Z" /> 
<path style="fill:#000000; fill-opacity:1.0; 
stroke:#000000; stroke-width:0; stroke-opacity:1; 
stroke-linecap:round; stroke-linejoin:round;fill-rule:evenodd;"
d="M 60869.5,51492.9
60936.4,51513.2
60936.4,51513.2
60998,51546.2
61052,51590.5
61084.8,51630.4
61096.4,51644.5
61129.3,51706.1
61149.6,51773
61154.7,51825.1
61154.7,52174.9
61149.6,52227
61129.3,52293.9
61096.4,52355.5
61084.8,52369.6
61052,52409.5
61012.1,52442.3
60998,52453.8
60936.4,52486.8
60869.5,52507.1
60800,52513.9
60730.5,52507.1
60663.6,52486.8
60602,52453.8
60587.9,52442.3
60548,52409.5
60515.2,52369.6
60503.6,52355.5
60470.7,52293.9
60450.4,52227
60445.3,52174.9
60445.3,51825.1
60450.4,51773
60470.7,51706.1
60503.6,51644.5
60503.6,51644.5
60548,51590.5
60587.9,51557.7
60602,51546.2
60663.6,51513.2
60730.5,51492.9
60800,51486.1
Z" /> 
<path style="fill:#000000; fill-opacity:1.0; 
stroke:#000000; stroke-width:0; stroke-opacity:1; 
stroke-linecap:round; stroke-linejoin:round;fill-rule:evenodd;"
d="M 59869.5,51492.9
59936.4,51513.2
59936.4,51513.2
59998,51546.2
60052,51590.5
60084.8,51630.4
60096.4,51644.5
60129.3,51706.1
60149.6,51773
60154.7,51825.1
60154.7,52174.9
60149.6,52227
60129.3,52293.9
60096.4,52355.5
60084.8,52369.6
60052,52409.5
60012.1,52442.3
59998,52453.8
59936.4,52486.8
59869.5,52507.1
59800,52513.9
59730.5,52507.1
59663.6,52486.8
59602,52453.8
59587.9,52442.3
59548,52409.5
59515.2,52369.6
59503.6,52355.5
59470.7,52293.9
59450.4,52227
59445.3,52174.9
59445.3,51825.1
59450.4,51773
59470.7,51706.1
59503.6,51644.5
59503.6,51644.5
59548,51590.5
59587.9,51557.7
59602,51546.2
59663.6,51513.2
59730.5,51492.9
59800,51486.1
Z" /> 
<path style="fill:#000000; fill-opacity:1.0; 
stroke:#000000; stroke-width:0; stroke-opacity:1; 
stroke-linecap:round; stroke-linejoin:round;fill-rule:evenodd;"
d="M 58869.5,51492.9
58936.4,51513.2
58936.4,51513.2
58998,51546.2
59052,51590.5
59084.8,51630.4
59096.4,51644.5
59129.3,51706.1
59149.6,51773
59154.7,51825.1
59154.7,52174.9
59149.6,52227
59129.3,52293.9
59096.4,52355.5
59084.8,52369.6
59052,52409.5
59012.1,52442.3
58998,52453.8
58936.4,52486.8
58869.5,52507.1
58800,52513.9
58730.5,52507.1
58663.6,52486.8
58602,52453.8
58587.9,52442.3
58548,52409.5
58515.2,52369.6
58503.6,52355.5
58470.7,52293.9
58450.4,52227
58445.3,52174.9
58445.3,51825.1
58450.4,51773
58470.7,51706.1
58503.6,51644.5
58503.6,51644.5
58548,51590.5
58587.9,51557.7
58602,51546.2
58663.6,51513.2
58730.5,51492.9
58800,51486.1
Z" /> 
<path style="fill:#000000; fill-opacity:1.0; 
stroke:#000000; stroke-width:0; stroke-opacity:1; 
stroke-linecap:round; stroke-linejoin:round;fill-rule:evenodd;"
d="M 57869.5,51492.9
57936.4,51513.2
57936.4,51513.2
57998,51546.2
58052,51590.5
58084.8,51630.4
58096.4,51644.5
58129.3,51706.1
58149.6,51773
58154.7,51825.1
58154.7,52174.9
58149.6,52227
58129.3,52293.9
58096.4,52355.5
58084.8,52369.6
58052,52409.5
58012.1,52442.3
57998,52453.8
57936.4,52486.8
57869.5,52507.1
57800,52513.9
57730.5,52507.1
57663.6,52486.8
57602,52453.8
57587.9,52442.3
57548,52409.5
57515.2,52369.6
57503.6,52355.5
57470.7,52293.9
57450.4,52227
57445.3,52174.9
57445.3,51825.1
57450.4,51773
57470.7,51706.1
57503.6,51644.5
57503.6,51644.5
57548,51590.5
57587.9,51557.7
57602,51546.2
57663.6,51513.2
57730.5,51492.9
57800,51486.1
Z" /> 
<path style="fill:#000000; fill-opacity:1.0; 
stroke:#000000; stroke-width:0; stroke-opacity:1; 
stroke-linecap:round; stroke-linejoin:round;fill-rule:evenodd;"
d="M 56869.5,51492.9
56936.4,51513.2
56936.4,51513.2
56998,51546.2
57052,51590.5
57084.8,51630.4
57096.4,51644.5
57129.3,51706.1
57149.6,51773
57154.7,51825.1
57154.7,52174.9
57149.6,52227
57129.3,52293.9
57096.4,52355.5
57084.8,52369.6
57052,52409.5
57012.1,52442.3
56998,52453.8
56936.4,52486.8
56869.5,52507.1
56800,52513.9
56730.5,52507.1
56663.6,52486.8
56602,52453.8
56587.9,52442.3
56548,52409.5
56515.2,52369.6
56503.6,52355.5
56470.7,52293.9
56450.4,52227
56445.3,52174.9
56445.3,51825.1
56450.4,51773
56470.7,51706.1
56503.6,51644.5
56503.6,51644.5
56548,51590.5
56587.9,51557.7
56602,51546.2
56663.6,51513.2
56730.5,51492.9
56800,51486.1
Z" /> 
<path style="fill:#000000; fill-opacity:1.0; 
stroke:#000000; stroke-width:0; stroke-opacity:1; 
stroke-linecap:round; stroke-linejoin:round;fill-rule:evenodd;"
d="M 55869.5,51492.9
55936.4,51513.2
55936.4,51513.2
55998,51546.2
56052,51590.5
56084.8,51630.4
56096.4,51644.5
56129.3,51706.1
56149.6,51773
56154.7,51825.1
56154.7,52174.9
56149.6,52227
56129.3,52293.9
56096.4,52355.5
56084.8,52369.6
56052,52409.5
56012.1,52442.3
55998,52453.8
55936.4,52486.8
55869.5,52507.1
55800,52513.9
55730.5,52507.1
55663.6,52486.8
55602,52453.8
55587.9,52442.3
55548,52409.5
55515.2,52369.6
55503.6,52355.5
55470.7,52293.9
55450.4,52227
55445.3,52174.9
55445.3,51825.1
55450.4,51773
55470.7,51706.1
55503.6,51644.5
55503.6,51644.5
55548,51590.5
55587.9,51557.7
55602,51546.2
55663.6,51513.2
55730.5,51492.9
55800,51486.1
Z" /> 
<path style="fill:#000000; fill-opacity:1.0; 
stroke:#000000; stroke-width:0; stroke-opacity:1; 
stroke-linecap:round; stroke-linejoin:round;fill-rule:evenodd;"
d="M 54869.5,51492.9
54936.4,51513.2
54936.4,51513.2
54998,51546.2
55052,51590.5
55084.8,51630.4
55096.4,51644.5
55129.3,51706.1
55149.6,51773
55154.7,51825.1
55154.7,52174.9
55149.6,52227
55129.3,52293.9
55096.4,52355.5
55084.8,52369.6
55052,52409.5
55012.1,52442.3
54998,52453.8
54936.4,52486.8
54869.5,52507.1
54800,52513.9
54730.5,52507.1
54663.6,52486.8
54602,52453.8
54587.9,52442.3
54548,52409.5
54515.2,52369.6
54503.6,52355.5
54470.7,52293.9
54450.4,52227
54445.3,52174.9
54445.3,51825.1
54450.4,51773
54470.7,51706.1
54503.6,51644.5
54503.6,51644.5
54548,51590.5
54587.9,51557.7
54602,51546.2
54663.6,51513.2
54730.5,51492.9
54800,51486.1
Z" /> 
<path style="fill:#000000; fill-opacity:1.0; 
stroke:#000000; stroke-width:0; stroke-opacity:1; 
stroke-linecap:round; stroke-linejoin:round;fill-rule:evenodd;"
d="M 53869.5,51492.9
53936.4,51513.2
53936.4,51513.2
53998,51546.2
54052,51590.5
54084.8,51630.4
54096.4,51644.5
54129.3,51706.1
54149.6,51773
54154.7,51825.1
54154.7,52174.9
54149.6,52227
54129.3,52293.9
54096.4,52355.5
54084.8,52369.6
54052,52409.5
54012.1,52442.3
53998,52453.8
53936.4,52486.8
53869.5,52507.1
53800,52513.9
53730.5,52507.1
53663.6,52486.8
53602,52453.8
53587.9,52442.3
53548,52409.5
53515.2,52369.6
53503.6,52355.5
53470.7,52293.9
53450.4,52227
53445.3,52174.9
53445.3,51825.1
53450.4,51773
53470.7,51706.1
53503.6,51644.5
53503.6,51644.5
53548,51590.5
53587.9,51557.7
53602,51546.2
53663.6,51513.2
53730.5,51492.9
53800,51486.1
Z" /> 
<path style="fill:#000000; fill-opacity:1.0; 
stroke:#000000; stroke-width:0; stroke-opacity:1; 
stroke-linecap:round; stroke-linejoin:round;fill-rule:evenodd;"
d="M 62869.5,51492.9
62936.4,51513.2
62936.4,51513.2
62998,51546.2
63052,51590.5
63084.8,51630.4
63096.4,51644.5
63129.3,51706.1
63149.6,51773
63154.7,51825.1
63154.7,52174.9
63149.6,52227
63129.3,52293.9
63096.4,52355.5
63084.8,52369.6
63052,52409.5
63012.1,52442.3
62998,52453.8
62936.4,52486.8
62869.5,52507.1
62800,52513.9
62730.5,52507.1
62663.6,52486.8
62602,52453.8
62587.9,52442.3
62548,52409.5
62515.2,52369.6
62503.6,52355.5
62470.7,52293.9
62450.4,52227
62445.3,52174.9
62445.3,51825.1
62450.4,51773
62470.7,51706.1
62503.6,51644.5
62503.6,51644.5
62548,51590.5
62587.9,51557.7
62602,51546.2
62663.6,51513.2
62730.5,51492.9
62800,51486.1
Z" /> 
<path style="fill:#000000; fill-opacity:1.0; 
stroke:#000000; stroke-width:0; stroke-opacity:1; 
stroke-linecap:round; stroke-linejoin:round;fill-rule:evenodd;"
d="M 63869.5,51492.9
63936.4,51513.2
63936.4,51513.2
63998,51546.2
64052,51590.5
64084.8,51630.4
64096.4,51644.5
64129.3,51706.1
64149.6,51773
64154.7,51825.1
64154.7,52174.9
64149.6,52227
64129.3,52293.9
64096.4,52355.5
64084.8,52369.6
64052,52409.5
64012.1,52442.3
63998,52453.8
63936.4,52486.8
63869.5,52507.1
63800,52513.9
63730.5,52507.1
63663.6,52486.8
63602,52453.8
63587.9,52442.3
63548,52409.5
63515.2,52369.6
63503.6,52355.5
63470.7,52293.9
63450.4,52227
63445.3,52174.9
63445.3,51825.1
63450.4,51773
63470.7,51706.1
63503.6,51644.5
63503.6,51644.5
63548,51590.5
63587.9,51557.7
63602,51546.2
63663.6,51513.2
63730.5,51492.9
63800,51486.1
Z" /> 
<path style="fill:#000000; fill-opacity:1.0; 
stroke:#000000; stroke-width:0; stroke-opacity:1; 
stroke-linecap:round; stroke-linejoin:round;fill-rule:evenodd;"
d="M 64869.5,51492.9
64936.4,51513.2
64936.4,51513.2
64998,51546.2
65052,51590.5
65084.8,51630.4
65096.4,51644.5
65129.3,51706.1
65149.6,51773
65154.7,51825.1
65154.7,52174.9
65149.6,52227
65129.3,52293.9
65096.4,52355.5
65084.8,52369.6
65052,52409.5
65012.1,52442.3
64998,52453.8
64936.4,52486.8
64869.5,52507.1
64800,52513.9
64730.5,52507.1
64663.6,52486.8
64602,52453.8
64587.9,52442.3
64548,52409.5
64515.2,52369.6
64503.6,52355.5
64470.7,52293.9
64450.4,52227
64445.3,52174.9
64445.3,51825.1
64450.4,51773
64470.7,51706.1
64503.6,51644.5
64503.6,51644.5
64548,51590.5
64587.9,51557.7
64602,51546.2
64663.6,51513.2
64730.5,51492.9
64800,51486.1
Z" /> 
<path style="fill:#000000; fill-opacity:1.0; 
stroke:#000000; stroke-width:0; stroke-opacity:1; 
stroke-linecap:round; stroke-linejoin:round;fill-rule:evenodd;"
d="M 65869.5,51492.9
65936.4,51513.2
65936.4,51513.2
65998,51546.2
66052,51590.5
66084.8,51630.4
66096.4,51644.5
66129.3,51706.1
66149.6,51773
66154.7,51825.1
66154.7,52174.9
66149.6,52227
66129.3,52293.9
66096.4,52355.5
66084.8,52369.6
66052,52409.5
66012.1,52442.3
65998,52453.8
65936.4,52486.8
65869.5,52507.1
65800,52513.9
65730.5,52507.1
65663.6,52486.8
65602,52453.8
65587.9,52442.3
65548,52409.5
65515.2,52369.6
65503.6,52355.5
65470.7,52293.9
65450.4,52227
65445.3,52174.9
65445.3,51825.1
65450.4,51773
65470.7,51706.1
65503.6,51644.5
65503.6,51644.5
65548,51590.5
65587.9,51557.7
65602,51546.2
65663.6,51513.2
65730.5,51492.9
65800,51486.1
Z" /> 
<path style="fill:#000000; fill-opacity:1.0; 
stroke:#000000; stroke-width:0; stroke-opacity:1; 
stroke-linecap:round; stroke-linejoin:round;fill-rule:evenodd;"
d="M 66869.5,51492.9
66936.4,51513.2
66936.4,51513.2
66998,51546.2
67052,51590.5
67084.8,51630.4
67096.4,51644.5
67129.3,51706.1
67149.6,51773
67154.7,51825.1
67154.7,52174.9
67149.6,52227
67129.3,52293.9
67096.4,52355.5
67084.8,52369.6
67052,52409.5
67012.1,52442.3
66998,52453.8
66936.4,52486.8
66869.5,52507.1
66800,52513.9
66730.5,52507.1
66663.6,52486.8
66602,52453.8
66587.9,52442.3
66548,52409.5
66515.2,52369.6
66503.6,52355.5
66470.7,52293.9
66450.4,52227
66445.3,52174.9
66445.3,51825.1
66450.4,51773
66470.7,51706.1
66503.6,51644.5
66503.6,51644.5
66548,51590.5
66587.9,51557.7
66602,51546.2
66663.6,51513.2
66730.5,51492.9
66800,51486.1
Z" /> 
<path style="fill:#000000; fill-opacity:1.0; 
stroke:#000000; stroke-width:0; stroke-opacity:1; 
stroke-linecap:round; stroke-linejoin:round;fill-rule:evenodd;"
d="M 67869.5,51492.9
67936.4,51513.2
67936.4,51513.2
67998,51546.2
68052,51590.5
68084.8,51630.4
68096.4,51644.5
68129.3,51706.1
68149.6,51773
68154.7,51825.1
68154.7,52174.9
68149.6,52227
68129.3,52293.9
68096.4,52355.5
68084.8,52369.6
68052,52409.5
68012.1,52442.3
67998,52453.8
67936.4,52486.8
67869.5,52507.1
67800,52513.9
67730.5,52507.1
67663.6,52486.8
67602,52453.8
67587.9,52442.3
67548,52409.5
67515.2,52369.6
67503.6,52355.5
67470.7,52293.9
67450.4,52227
67445.3,52174.9
67445.3,51825.1
67450.4,51773
67470.7,51706.1
67503.6,51644.5
67503.6,51644.5
67548,51590.5
67587.9,51557.7
67602,51546.2
67663.6,51513.2
67730.5,51492.9
67800,51486.1
Z" /> 
<path style="fill:#000000; fill-opacity:1.0; 
stroke:#000000; stroke-width:0; stroke-opacity:1; 
stroke-linecap:round; stroke-linejoin:round;fill-rule:evenodd;"
d="M 60499.3,47477.8
60560.3,47503.1
60615.2,47539.8
60661.8,47586.4
60698.5,47641.3
60723.7,47702.3
60736.6,47767
60736.6,47833
60723.7,47897.7
60698.5,47958.7
60661.8,48013.6
60615.2,48060.2
60560.3,48096.9
60499.3,48122.2
60434.6,48135
60368.6,48135
60303.8,48122.2
60242.9,48096.9
60188,48060.2
60141.3,48013.6
60104.7,47958.7
60079.4,47897.7
60066.5,47833
60066.5,47767
60079.4,47702.3
60104.7,47641.3
60141.3,47586.4
60188,47539.8
60242.9,47503.1
60303.8,47477.8
60368.6,47465
60434.6,47465
Z" /> 
<path style="fill:#000000; fill-opacity:1.0; 
stroke:#000000; stroke-width:0; stroke-opacity:1; 
stroke-linecap:round; stroke-linejoin:round;fill-rule:evenodd;"
d="M 61400.9,47477.8
61461.9,47503.1
61516.7,47539.8
61563.4,47586.4
61600.1,47641.3
61625.3,47702.3
61638.2,47767
61638.2,47833
61625.3,47897.7
61600.1,47958.7
61563.4,48013.6
61516.7,48060.2
61461.9,48096.9
61400.9,48122.2
61336.1,48135
61270.2,48135
61205.4,48122.2
61144.4,48096.9
61089.6,48060.2
61042.9,48013.6
61006.2,47958.7
60981,47897.7
60968.1,47833
60968.1,47767
60981,47702.3
61006.2,47641.3
61042.9,47586.4
61089.6,47539.8
61144.4,47503.1
61205.4,47477.8
61270.2,47465
61336.1,47465
Z" /> 
<path style="fill:#000000; fill-opacity:1.0; 
stroke:#000000; stroke-width:0; stroke-opacity:1; 
stroke-linecap:round; stroke-linejoin:round;fill-rule:evenodd;"
d="M 59835,48135
59165,48135
59165,47465
59835,47465
Z" /> 
<path style="fill:#000000; fill-opacity:1.0; 
stroke:#000000; stroke-width:0; stroke-opacity:1; 
stroke-linecap:round; stroke-linejoin:round;fill-rule:evenodd;"
d="M 62302.5,47477.8
62363.4,47503.1
62418.3,47539.8
62465,47586.4
62501.6,47641.3
62526.9,47702.3
62539.8,47767
62539.8,47833
62526.9,47897.7
62501.6,47958.7
62465,48013.6
62418.3,48060.2
62363.4,48096.9
62302.5,48122.2
62237.7,48135
62171.7,48135
62107,48122.2
62046,48096.9
61991.1,48060.2
61944.5,48013.6
61907.8,47958.7
61882.6,47897.7
61869.7,47833
61869.7,47767
61882.6,47702.3
61907.8,47641.3
61944.5,47586.4
61991.1,47539.8
62046,47503.1
62107,47477.8
62171.7,47465
62237.7,47465
Z" /> 
<path style="fill:#000000; fill-opacity:1.0; 
stroke:#000000; stroke-width:0; stroke-opacity:1; 
stroke-linecap:round; stroke-linejoin:round;fill-rule:evenodd;"
d="M 63204,47477.8
63265,47503.1
63319.9,47539.8
63366.5,47586.4
63403.2,47641.3
63428.5,47702.3
63441.3,47767
63441.3,47833
63428.5,47897.7
63403.2,47958.7
63366.5,48013.6
63319.9,48060.2
63265,48096.9
63204,48122.2
63139.3,48135
63073.3,48135
63008.6,48122.2
62947.6,48096.9
62892.7,48060.2
62846.1,48013.6
62809.4,47958.7
62784.1,47897.7
62771.3,47833
62771.3,47767
62784.1,47702.3
62809.4,47641.3
62846.1,47586.4
62892.7,47539.8
62947.6,47503.1
63008.6,47477.8
63073.3,47465
63139.3,47465
Z" /> 
<path style="fill:#000000; fill-opacity:1.0; 
stroke:#000000; stroke-width:0; stroke-opacity:1; 
stroke-linecap:round; stroke-linejoin:round;fill-rule:evenodd;"
d="M 66550.4,45645
66769,45735.5
66769,45735.5
66965.7,45867
67133,46034.3
67191.7,46122.2
67264.5,46231
67355,46449.6
67401.2,46681.7
67401.2,46918.3
67355,47150.4
67264.5,47369
67264.5,47369
67133,47565.7
66965.7,47733
66866.7,47799.2
66769,47864.5
66550.4,47955
66318.3,48001.2
66081.7,48001.2
65849.6,47955
65631,47864.5
65533.3,47799.2
65434.3,47733
65267,47565.7
65135.5,47369
65135.5,47369
65045,47150.4
64998.8,46918.3
64998.8,46681.7
65045,46449.6
65135.5,46231
65208.3,46122.2
65267,46034.3
65434.3,45867
65631,45735.5
65631,45735.5
65849.6,45645
66081.7,45598.8
66318.3,45598.8
Z" /> 
<path style="fill:#000000; fill-opacity:1.0; 
stroke:#000000; stroke-width:0; stroke-opacity:1; 
stroke-linecap:round; stroke-linejoin:round;fill-rule:evenodd;"
d="M 56750.4,45645
56969,45735.5
56969,45735.5
57165.7,45867
57333,46034.3
57391.7,46122.2
57464.5,46231
57555,46449.6
57601.2,46681.7
57601.2,46918.3
57555,47150.4
57464.5,47369
57464.5,47369
57333,47565.7
57165.7,47733
57066.7,47799.2
56969,47864.5
56750.4,47955
56518.3,48001.2
56281.7,48001.2
56049.6,47955
55831,47864.5
55733.3,47799.2
55634.3,47733
55467,47565.7
55335.5,47369
55335.5,47369
55245,47150.4
55198.8,46918.3
55198.8,46681.7
55245,46449.6
55335.5,46231
55408.3,46122.2
55467,46034.3
55634.3,45867
55831,45735.5
55831,45735.5
56049.6,45645
56281.7,45598.8
56518.3,45598.8
Z" /> 
<path style="fill:#000000; fill-opacity:1.0; 
stroke:#000000; stroke-width:0; stroke-opacity:1; 
stroke-linecap:round; stroke-linejoin:round;fill-rule:evenodd;"
d="M 62753.2,46477.8
62814.2,46503.1
62869.1,46539.8
62915.8,46586.4
62952.4,46641.3
62977.7,46702.3
62990.6,46767
62990.6,46833
62977.7,46897.7
62952.4,46958.7
62915.8,47013.6
62869.1,47060.2
62814.2,47096.9
62753.2,47122.2
62688.5,47135
62622.5,47135
62557.8,47122.2
62496.8,47096.9
62441.9,47060.2
62395.3,47013.6
62358.6,46958.7
62333.3,46897.7
62320.5,46833
62320.5,46767
62333.3,46702.3
62358.6,46641.3
62395.3,46586.4
62441.9,46539.8
62496.8,46503.1
62557.8,46477.8
62622.5,46465
62688.5,46465
Z" /> 
<path style="fill:#000000; fill-opacity:1.0; 
stroke:#000000; stroke-width:0; stroke-opacity:1; 
stroke-linecap:round; stroke-linejoin:round;fill-rule:evenodd;"
d="M 61851.7,46477.8
61912.6,46503.1
61967.5,46539.8
62014.2,46586.4
62050.8,46641.3
62076.1,46702.3
62089,46767
62089,46833
62076.1,46897.7
62050.8,46958.7
62014.2,47013.6
61967.5,47060.2
61912.6,47096.9
61851.7,47122.2
61786.9,47135
61720.9,47135
61656.2,47122.2
61595.2,47096.9
61540.4,47060.2
61493.7,47013.6
61457,46958.7
61431.8,46897.7
61418.9,46833
61418.9,46767
61431.8,46702.3
61457,46641.3
61493.7,46586.4
61540.4,46539.8
61595.2,46503.1
61656.2,46477.8
61720.9,46465
61786.9,46465
Z" /> 
<path style="fill:#000000; fill-opacity:1.0; 
stroke:#000000; stroke-width:0; stroke-opacity:1; 
stroke-linecap:round; stroke-linejoin:round;fill-rule:evenodd;"
d="M 60950.1,46477.8
61011.1,46503.1
61065.9,46539.8
61112.6,46586.4
61149.3,46641.3
61174.5,46702.3
61187.4,46767
61187.4,46833
61174.5,46897.7
61149.3,46958.7
61112.6,47013.6
61065.9,47060.2
61011.1,47096.9
60950.1,47122.2
60885.4,47135
60819.4,47135
60754.6,47122.2
60693.7,47096.9
60638.8,47060.2
60592.1,47013.6
60555.5,46958.7
60530.2,46897.7
60517.3,46833
60517.3,46767
60530.2,46702.3
60555.5,46641.3
60592.1,46586.4
60638.8,46539.8
60693.7,46503.1
60754.6,46477.8
60819.4,46465
60885.4,46465
Z" /> 
<path style="fill:#000000; fill-opacity:1.0; 
stroke:#000000; stroke-width:0; stroke-opacity:1; 
stroke-linecap:round; stroke-linejoin:round;fill-rule:evenodd;"
d="M 60048.5,46477.8
60109.5,46503.1
60164.4,46539.8
60211,46586.4
60247.7,46641.3
60273,46702.3
60285.8,46767
60285.8,46833
60273,46897.7
60247.7,46958.7
60211,47013.6
60164.4,47060.2
60109.5,47096.9
60048.5,47122.2
59983.8,47135
59917.8,47135
59853.1,47122.2
59792.1,47096.9
59737.2,47060.2
59690.5,47013.6
59653.9,46958.7
59628.6,46897.7
59615.7,46833
59615.7,46767
59628.6,46702.3
59653.9,46641.3
59690.5,46586.4
59737.2,46539.8
59792.1,46503.1
59853.1,46477.8
59917.8,46465
59983.8,46465
Z" /> 
<path style="fill:#000000; fill-opacity:1.0; 
stroke:#000000; stroke-width:0; stroke-opacity:1; 
stroke-linecap:round; stroke-linejoin:round;fill-rule:evenodd;"
d="M 59146.9,46477.8
59207.9,46503.1
59262.8,46539.8
59309.5,46586.4
59346.1,46641.3
59371.4,46702.3
59384.3,46767
59384.3,46833
59371.4,46897.7
59346.1,46958.7
59309.5,47013.6
59262.8,47060.2
59207.9,47096.9
59146.9,47122.2
59082.2,47135
59016.2,47135
58951.5,47122.2
58890.5,47096.9
58835.6,47060.2
58789,47013.6
58752.3,46958.7
58727,46897.7
58714.2,46833
58714.2,46767
58727,46702.3
58752.3,46641.3
58789,46586.4
58835.6,46539.8
58890.5,46503.1
58951.5,46477.8
59016.2,46465
59082.2,46465
Z" /> 
<path style="fill:#000000; fill-opacity:1.0; 
stroke:#000000; stroke-width:0; stroke-opacity:1; 
stroke-linecap:round; stroke-linejoin:round;fill-rule:evenodd;"
d="M 59597.7,45477.8
59658.7,45503.1
59713.6,45539.8
59760.2,45586.4
59796.9,45641.3
59822.2,45702.3
59835,45767
59835,45833
59822.2,45897.7
59796.9,45958.7
59760.2,46013.6
59713.6,46060.2
59658.7,46096.9
59597.7,46122.2
59533,46135
59467,46135
59402.3,46122.2
59341.3,46096.9
59286.4,46060.2
59239.8,46013.6
59203.1,45958.7
59177.8,45897.7
59165,45833
59165,45767
59177.8,45702.3
59203.1,45641.3
59239.8,45586.4
59286.4,45539.8
59341.3,45503.1
59402.3,45477.8
59467,45465
59533,45465
Z" /> 
<path style="fill:#000000; fill-opacity:1.0; 
stroke:#000000; stroke-width:0; stroke-opacity:1; 
stroke-linecap:round; stroke-linejoin:round;fill-rule:evenodd;"
d="M 60499.3,45477.8
60560.3,45503.1
60615.2,45539.8
60661.8,45586.4
60698.5,45641.3
60723.7,45702.3
60736.6,45767
60736.6,45833
60723.7,45897.7
60698.5,45958.7
60661.8,46013.6
60615.2,46060.2
60560.3,46096.9
60499.3,46122.2
60434.6,46135
60368.6,46135
60303.8,46122.2
60242.9,46096.9
60188,46060.2
60141.3,46013.6
60104.7,45958.7
60079.4,45897.7
60066.5,45833
60066.5,45767
60079.4,45702.3
60104.7,45641.3
60141.3,45586.4
60188,45539.8
60242.9,45503.1
60303.8,45477.8
60368.6,45465
60434.6,45465
Z" /> 
<path style="fill:#000000; fill-opacity:1.0; 
stroke:#000000; stroke-width:0; stroke-opacity:1; 
stroke-linecap:round; stroke-linejoin:round;fill-rule:evenodd;"
d="M 61400.9,45477.8
61461.9,45503.1
61516.7,45539.8
61563.4,45586.4
61600.1,45641.3
61625.3,45702.3
61638.2,45767
61638.2,45833
61625.3,45897.7
61600.1,45958.7
61563.4,46013.6
61516.7,46060.2
61461.9,46096.9
61400.9,46122.2
61336.1,46135
61270.2,46135
61205.4,46122.2
61144.4,46096.9
61089.6,46060.2
61042.9,46013.6
61006.2,45958.7
60981,45897.7
60968.1,45833
60968.1,45767
60981,45702.3
61006.2,45641.3
61042.9,45586.4
61089.6,45539.8
61144.4,45503.1
61205.4,45477.8
61270.2,45465
61336.1,45465
Z" /> 
<path style="fill:#000000; fill-opacity:1.0; 
stroke:#000000; stroke-width:0; stroke-opacity:1; 
stroke-linecap:round; stroke-linejoin:round;fill-rule:evenodd;"
d="M 62302.5,45477.8
62363.4,45503.1
62418.3,45539.8
62465,45586.4
62501.6,45641.3
62526.9,45702.3
62539.8,45767
62539.8,45833
62526.9,45897.7
62501.6,45958.7
62465,46013.6
62418.3,46060.2
62363.4,46096.9
62302.5,46122.2
62237.7,46135
62171.7,46135
62107,46122.2
62046,46096.9
61991.1,46060.2
61944.5,46013.6
61907.8,45958.7
61882.6,45897.7
61869.7,45833
61869.7,45767
61882.6,45702.3
61907.8,45641.3
61944.5,45586.4
61991.1,45539.8
62046,45503.1
62107,45477.8
62171.7,45465
62237.7,45465
Z" /> 
<path style="fill:#000000; fill-opacity:1.0; 
stroke:#000000; stroke-width:0; stroke-opacity:1; 
stroke-linecap:round; stroke-linejoin:round;fill-rule:evenodd;"
d="M 63204,45477.8
63265,45503.1
63319.9,45539.8
63366.5,45586.4
63403.2,45641.3
63428.5,45702.3
63441.3,45767
63441.3,45833
63428.5,45897.7
63403.2,45958.7
63366.5,46013.6
63319.9,46060.2
63265,46096.9
63204,46122.2
63139.3,46135
63073.3,46135
63008.6,46122.2
62947.6,46096.9
62892.7,46060.2
62846.1,46013.6
62809.4,45958.7
62784.1,45897.7
62771.3,45833
62771.3,45767
62784.1,45702.3
62809.4,45641.3
62846.1,45586.4
62892.7,45539.8
62947.6,45503.1
63008.6,45477.8
63073.3,45465
63139.3,45465
Z" /> 
</g> 
</svg>
