<?xml version="1.0" standalone="no"?>
 <!DOCTYPE svg PUBLIC "-//W3C//DTD SVG 1.1//EN" 
 "http://www.w3.org/Graphics/SVG/1.1/DTD/svg11.dtd"> 
<svg xmlns="http://www.w3.org/2000/svg" version="1.1" 
    width="29.7002cm" height="21.0007cm" viewBox="0 0 116930 82680 ">
<title>SVG Picture created as VGA-F_Paste.svg date 2019/12/13 15:11:35 </title>
  <desc>Picture generated by PCBNEW </desc>
<g style="fill:#000000; fill-opacity:1;stroke:#000000; stroke-opacity:1;
stroke-linecap:round; stroke-linejoin:round; "
 transform="translate(0 0) scale(1 1)">
</g>
<g style="fill:#000000; fill-opacity:0.0; 
stroke:#000000; stroke-width:-0.000393701; stroke-opacity:1; 
stroke-linecap:round; stroke-linejoin:round;">
</g>
<g style="fill:#000000; fill-opacity:0.0; 
stroke:#000000; stroke-width:19.685; stroke-opacity:1; 
stroke-linecap:round; stroke-linejoin:round;">
<path d="M54000 49250 A750 750 0.0 0 0 54750 48500 " />
<path d="M54000 49250 A1000 1000 0.0 0 0 53000 50250 " />
<path d="M67750 48500 A750 750 0.0 0 0 68500 49250 " />
<path d="M53000 52750
L53000 50250
" />
<path d="M69500 50250 A1000 1000 0.0 0 0 68500 49250 " />
<path d="M69500 52750
L69500 50250
" />
<path d="M55750 42000 A1000 1000 0.0 0 0 54750 43000 " />
<path d="M67750 43000 A1000 1000 0.0 0 0 66750 42000 " />
<path d="M69250 53000 A250 250 0.0 0 0 69500 52750 " />
<path d="M53000 52750 A250 250 0.0 0 0 53250 53000 " />
<path d="M54750 43000
L54750 48500
" />
<path d="M66750 42000
L55750 42000
" />
<path d="M67750 48500
L67750 43000
" />
<path d="M53250 53000
L69250 53000
" />
<g >
</g>
<g >
</g>
<g >
</g>
<g >
</g>
<g >
</g>
<g >
</g>
<g >
</g>
<g style="fill:#000000; fill-opacity:0.0; 
stroke:#000000; stroke-width:19.685; stroke-opacity:1; 
stroke-linecap:round; stroke-linejoin:round;">
</g>
<g style="fill:#000000; fill-opacity:0.0; 
stroke:#000000; stroke-width:0; stroke-opacity:1; 
stroke-linecap:round; stroke-linejoin:round;">
</g>
<g style="fill:#000000; fill-opacity:1.0; 
stroke:#000000; stroke-width:0; stroke-opacity:1; 
stroke-linecap:round; stroke-linejoin:round;">
<path style="fill:#000000; fill-opacity:1.0; 
stroke:#000000; stroke-width:0; stroke-opacity:1; 
stroke-linecap:round; stroke-linejoin:round;fill-rule:evenodd;"
d="M 67902.7,50887.5
67911.7,50888.8
67920.6,50891
67929.3,50894.1
67937.6,50898
67945.5,50902.8
67952.8,50908.2
67959.6,50914.4
67965.8,50921.2
67971.2,50928.6
67976,50936.4
67979.9,50944.7
67983,50953.4
67985.2,50962.3
67986.6,50971.3
67987,50980.5
67987,51206.9
67986.6,51216.1
67985.2,51225.1
67983,51234
67979.9,51242.7
67976,51251
67971.2,51258.8
67965.8,51266.2
67959.6,51273
67952.8,51279.2
67945.5,51284.6
67937.6,51289.4
67929.3,51293.3
67920.6,51296.4
67911.7,51298.6
67902.7,51299.9
67893.5,51300.4
67706.5,51300.4
67697.3,51299.9
67688.3,51298.6
67679.4,51296.4
67670.7,51293.3
67662.4,51289.4
67654.5,51284.6
67647.2,51279.2
67640.4,51273
67634.2,51266.2
67628.8,51258.8
67624,51251
67620.1,51242.7
67617,51234
67614.8,51225.1
67613.4,51216.1
67613,51206.9
67613,50980.5
67613.4,50971.3
67614.8,50962.3
67617,50953.4
67620.1,50944.7
67624,50936.4
67628.8,50928.6
67634.2,50921.2
67640.4,50914.4
67647.2,50908.2
67654.5,50902.8
67662.4,50898
67670.7,50894.1
67679.4,50891
67688.3,50888.8
67697.3,50887.5
67706.5,50887
67893.5,50887
Z" /> 
<path style="fill:#000000; fill-opacity:1.0; 
stroke:#000000; stroke-width:0; stroke-opacity:1; 
stroke-linecap:round; stroke-linejoin:round;fill-rule:evenodd;"
d="M 67902.7,50198.5
67911.7,50199.8
67920.6,50202.1
67929.3,50205.1
67937.6,50209.1
67945.5,50213.8
67952.8,50219.3
67959.6,50225.4
67965.8,50232.2
67971.2,50239.6
67976,50247.5
67979.9,50255.8
67983,50264.4
67985.2,50273.3
67986.6,50282.4
67987,50291.5
67987,50517.9
67986.6,50527.1
67985.2,50536.2
67983,50545.1
67979.9,50553.7
67976,50562
67971.2,50569.9
67965.8,50577.2
67959.6,50584
67952.8,50590.2
67945.5,50595.7
67937.6,50600.4
67929.3,50604.3
67920.6,50607.4
67911.7,50609.6
67902.7,50611
67893.5,50611.4
67706.5,50611.4
67697.3,50611
67688.3,50609.6
67679.4,50607.4
67670.7,50604.3
67662.4,50600.4
67654.5,50595.7
67647.2,50590.2
67640.4,50584
67634.2,50577.2
67628.8,50569.9
67624,50562
67620.1,50553.7
67617,50545.1
67614.8,50536.2
67613.4,50527.1
67613,50517.9
67613,50291.5
67613.4,50282.4
67614.8,50273.3
67617,50264.4
67620.1,50255.8
67624,50247.5
67628.8,50239.6
67634.2,50232.2
67640.4,50225.4
67647.2,50219.3
67654.5,50213.8
67662.4,50209.1
67670.7,50205.1
67679.4,50202.1
67688.3,50199.8
67697.3,50198.5
67706.5,50198
67893.5,50198
Z" /> 
</g>
<g >
</g>
<g style="fill:#000000; fill-opacity:1.0; 
stroke:#000000; stroke-width:0; stroke-opacity:1; 
stroke-linecap:round; stroke-linejoin:round;">
<path style="fill:#000000; fill-opacity:1.0; 
stroke:#000000; stroke-width:0; stroke-opacity:1; 
stroke-linecap:round; stroke-linejoin:round;fill-rule:evenodd;"
d="M 66902.7,50888.2
66911.7,50889.6
66920.6,50891.8
66929.3,50894.9
66937.6,50898.8
66945.5,50903.6
66952.8,50909
66959.6,50915.2
66965.8,50922
66971.2,50929.4
66976,50937.2
66979.9,50945.5
66983,50954.2
66985.2,50963.1
66986.6,50972.1
66987,50981.3
66987,51207.7
66986.6,51216.8
66985.2,51225.9
66983,51234.8
66979.9,51243.5
66976,51251.8
66971.2,51259.6
66965.8,51267
66959.6,51273.8
66952.8,51280
66945.5,51285.4
66937.6,51290.1
66929.3,51294.1
66920.6,51297.2
66911.7,51299.4
66902.7,51300.7
66893.5,51301.2
66706.5,51301.2
66697.3,51300.7
66688.3,51299.4
66679.4,51297.2
66670.7,51294.1
66662.4,51290.1
66654.5,51285.4
66647.2,51280
66640.4,51273.8
66634.2,51267
66628.8,51259.6
66624,51251.8
66620.1,51243.5
66617,51234.8
66614.8,51225.9
66613.4,51216.8
66613,51207.7
66613,50981.3
66613.4,50972.1
66614.8,50963.1
66617,50954.2
66620.1,50945.5
66624,50937.2
66628.8,50929.4
66634.2,50922
66640.4,50915.2
66647.2,50909
66654.5,50903.6
66662.4,50898.8
66670.7,50894.9
66679.4,50891.8
66688.3,50889.6
66697.3,50888.2
66706.5,50887.8
66893.5,50887.8
Z" /> 
<path style="fill:#000000; fill-opacity:1.0; 
stroke:#000000; stroke-width:0; stroke-opacity:1; 
stroke-linecap:round; stroke-linejoin:round;fill-rule:evenodd;"
d="M 66902.7,50199.3
66911.7,50200.6
66920.6,50202.8
66929.3,50205.9
66937.6,50209.9
66945.5,50214.6
66952.8,50220
66959.6,50226.2
66965.8,50233
66971.2,50240.4
66976,50248.2
66979.9,50256.5
66983,50265.2
66985.2,50274.1
66986.6,50283.2
66987,50292.3
66987,50518.7
66986.6,50527.9
66985.2,50536.9
66983,50545.8
66979.9,50554.5
66976,50562.8
66971.2,50570.6
66965.8,50578
66959.6,50584.8
66952.8,50591
66945.5,50596.4
66937.6,50601.2
66929.3,50605.1
66920.6,50608.2
66911.7,50610.4
66902.7,50611.8
66893.5,50612.2
66706.5,50612.2
66697.3,50611.8
66688.3,50610.4
66679.4,50608.2
66670.7,50605.1
66662.4,50601.2
66654.5,50596.4
66647.2,50591
66640.4,50584.8
66634.2,50578
66628.8,50570.6
66624,50562.8
66620.1,50554.5
66617,50545.8
66614.8,50536.9
66613.4,50527.9
66613,50518.7
66613,50292.3
66613.4,50283.2
66614.8,50274.1
66617,50265.2
66620.1,50256.5
66624,50248.2
66628.8,50240.4
66634.2,50233
66640.4,50226.2
66647.2,50220
66654.5,50214.6
66662.4,50209.9
66670.7,50205.9
66679.4,50202.8
66688.3,50200.6
66697.3,50199.3
66706.5,50198.8
66893.5,50198.8
Z" /> 
</g>
<g >
</g>
<g style="fill:#000000; fill-opacity:1.0; 
stroke:#000000; stroke-width:0; stroke-opacity:1; 
stroke-linecap:round; stroke-linejoin:round;">
<path style="fill:#000000; fill-opacity:1.0; 
stroke:#000000; stroke-width:0; stroke-opacity:1; 
stroke-linecap:round; stroke-linejoin:round;fill-rule:evenodd;"
d="M 65902.7,50888.2
65911.7,50889.6
65920.6,50891.8
65929.3,50894.9
65937.6,50898.8
65945.5,50903.6
65952.8,50909
65959.6,50915.2
65965.8,50922
65971.2,50929.4
65976,50937.2
65979.9,50945.5
65983,50954.2
65985.2,50963.1
65986.6,50972.1
65987,50981.3
65987,51207.7
65986.6,51216.8
65985.2,51225.9
65983,51234.8
65979.9,51243.5
65976,51251.8
65971.2,51259.6
65965.8,51267
65959.6,51273.8
65952.8,51280
65945.5,51285.4
65937.6,51290.1
65929.3,51294.1
65920.6,51297.2
65911.7,51299.4
65902.7,51300.7
65893.5,51301.2
65706.5,51301.2
65697.3,51300.7
65688.3,51299.4
65679.4,51297.2
65670.7,51294.1
65662.4,51290.1
65654.5,51285.4
65647.2,51280
65640.4,51273.8
65634.2,51267
65628.8,51259.6
65624,51251.8
65620.1,51243.5
65617,51234.8
65614.8,51225.9
65613.4,51216.8
65613,51207.7
65613,50981.3
65613.4,50972.1
65614.8,50963.1
65617,50954.2
65620.1,50945.5
65624,50937.2
65628.8,50929.4
65634.2,50922
65640.4,50915.2
65647.2,50909
65654.5,50903.6
65662.4,50898.8
65670.7,50894.9
65679.4,50891.8
65688.3,50889.6
65697.3,50888.2
65706.5,50887.8
65893.5,50887.8
Z" /> 
<path style="fill:#000000; fill-opacity:1.0; 
stroke:#000000; stroke-width:0; stroke-opacity:1; 
stroke-linecap:round; stroke-linejoin:round;fill-rule:evenodd;"
d="M 65902.7,50199.3
65911.7,50200.6
65920.6,50202.8
65929.3,50205.9
65937.6,50209.9
65945.5,50214.6
65952.8,50220
65959.6,50226.2
65965.8,50233
65971.2,50240.4
65976,50248.2
65979.9,50256.5
65983,50265.2
65985.2,50274.1
65986.6,50283.2
65987,50292.3
65987,50518.7
65986.6,50527.9
65985.2,50536.9
65983,50545.8
65979.9,50554.5
65976,50562.8
65971.2,50570.6
65965.8,50578
65959.6,50584.8
65952.8,50591
65945.5,50596.4
65937.6,50601.2
65929.3,50605.1
65920.6,50608.2
65911.7,50610.4
65902.7,50611.8
65893.5,50612.2
65706.5,50612.2
65697.3,50611.8
65688.3,50610.4
65679.4,50608.2
65670.7,50605.1
65662.4,50601.2
65654.5,50596.4
65647.2,50591
65640.4,50584.8
65634.2,50578
65628.8,50570.6
65624,50562.8
65620.1,50554.5
65617,50545.8
65614.8,50536.9
65613.4,50527.9
65613,50518.7
65613,50292.3
65613.4,50283.2
65614.8,50274.1
65617,50265.2
65620.1,50256.5
65624,50248.2
65628.8,50240.4
65634.2,50233
65640.4,50226.2
65647.2,50220
65654.5,50214.6
65662.4,50209.9
65670.7,50205.9
65679.4,50202.8
65688.3,50200.6
65697.3,50199.3
65706.5,50198.8
65893.5,50198.8
Z" /> 
</g>
<g >
</g>
<g style="fill:#000000; fill-opacity:1.0; 
stroke:#000000; stroke-width:0; stroke-opacity:1; 
stroke-linecap:round; stroke-linejoin:round;">
<path style="fill:#000000; fill-opacity:1.0; 
stroke:#000000; stroke-width:0; stroke-opacity:1; 
stroke-linecap:round; stroke-linejoin:round;fill-rule:evenodd;"
d="M 64902.7,50888.2
64911.7,50889.6
64920.6,50891.8
64929.3,50894.9
64937.6,50898.8
64945.5,50903.6
64952.8,50909
64959.6,50915.2
64965.8,50922
64971.2,50929.4
64976,50937.2
64979.9,50945.5
64983,50954.2
64985.2,50963.1
64986.6,50972.1
64987,50981.3
64987,51207.7
64986.6,51216.8
64985.2,51225.9
64983,51234.8
64979.9,51243.5
64976,51251.8
64971.2,51259.6
64965.8,51267
64959.6,51273.8
64952.8,51280
64945.5,51285.4
64937.6,51290.1
64929.3,51294.1
64920.6,51297.2
64911.7,51299.4
64902.7,51300.7
64893.5,51301.2
64706.5,51301.2
64697.3,51300.7
64688.3,51299.4
64679.4,51297.2
64670.7,51294.1
64662.4,51290.1
64654.5,51285.4
64647.2,51280
64640.4,51273.8
64634.2,51267
64628.8,51259.6
64624,51251.8
64620.1,51243.5
64617,51234.8
64614.8,51225.9
64613.4,51216.8
64613,51207.7
64613,50981.3
64613.4,50972.1
64614.8,50963.1
64617,50954.2
64620.1,50945.5
64624,50937.2
64628.8,50929.4
64634.2,50922
64640.4,50915.2
64647.2,50909
64654.5,50903.6
64662.4,50898.8
64670.7,50894.9
64679.4,50891.8
64688.3,50889.6
64697.3,50888.2
64706.5,50887.8
64893.5,50887.8
Z" /> 
<path style="fill:#000000; fill-opacity:1.0; 
stroke:#000000; stroke-width:0; stroke-opacity:1; 
stroke-linecap:round; stroke-linejoin:round;fill-rule:evenodd;"
d="M 64902.7,50199.3
64911.7,50200.6
64920.6,50202.8
64929.3,50205.9
64937.6,50209.9
64945.5,50214.6
64952.8,50220
64959.6,50226.2
64965.8,50233
64971.2,50240.4
64976,50248.2
64979.9,50256.5
64983,50265.2
64985.2,50274.1
64986.6,50283.2
64987,50292.3
64987,50518.7
64986.6,50527.9
64985.2,50536.9
64983,50545.8
64979.9,50554.5
64976,50562.8
64971.2,50570.6
64965.8,50578
64959.6,50584.8
64952.8,50591
64945.5,50596.4
64937.6,50601.2
64929.3,50605.1
64920.6,50608.2
64911.7,50610.4
64902.7,50611.8
64893.5,50612.2
64706.5,50612.2
64697.3,50611.8
64688.3,50610.4
64679.4,50608.2
64670.7,50605.1
64662.4,50601.2
64654.5,50596.4
64647.2,50591
64640.4,50584.8
64634.2,50578
64628.8,50570.6
64624,50562.8
64620.1,50554.5
64617,50545.8
64614.8,50536.9
64613.4,50527.9
64613,50518.7
64613,50292.3
64613.4,50283.2
64614.8,50274.1
64617,50265.2
64620.1,50256.5
64624,50248.2
64628.8,50240.4
64634.2,50233
64640.4,50226.2
64647.2,50220
64654.5,50214.6
64662.4,50209.9
64670.7,50205.9
64679.4,50202.8
64688.3,50200.6
64697.3,50199.3
64706.5,50198.8
64893.5,50198.8
Z" /> 
</g>
<g >
</g>
<g style="fill:#000000; fill-opacity:1.0; 
stroke:#000000; stroke-width:0; stroke-opacity:1; 
stroke-linecap:round; stroke-linejoin:round;">
<path style="fill:#000000; fill-opacity:1.0; 
stroke:#000000; stroke-width:0; stroke-opacity:1; 
stroke-linecap:round; stroke-linejoin:round;fill-rule:evenodd;"
d="M 63902.7,50888.2
63911.7,50889.6
63920.6,50891.8
63929.3,50894.9
63937.6,50898.8
63945.5,50903.6
63952.8,50909
63959.6,50915.2
63965.8,50922
63971.2,50929.4
63976,50937.2
63979.9,50945.5
63983,50954.2
63985.2,50963.1
63986.6,50972.1
63987,50981.3
63987,51207.7
63986.6,51216.8
63985.2,51225.9
63983,51234.8
63979.9,51243.5
63976,51251.8
63971.2,51259.6
63965.8,51267
63959.6,51273.8
63952.8,51280
63945.5,51285.4
63937.6,51290.1
63929.3,51294.1
63920.6,51297.2
63911.7,51299.4
63902.7,51300.7
63893.5,51301.2
63706.5,51301.2
63697.3,51300.7
63688.3,51299.4
63679.4,51297.2
63670.7,51294.1
63662.4,51290.1
63654.5,51285.4
63647.2,51280
63640.4,51273.8
63634.2,51267
63628.8,51259.6
63624,51251.8
63620.1,51243.5
63617,51234.8
63614.8,51225.9
63613.4,51216.8
63613,51207.7
63613,50981.3
63613.4,50972.1
63614.8,50963.1
63617,50954.2
63620.1,50945.5
63624,50937.2
63628.8,50929.4
63634.2,50922
63640.4,50915.2
63647.2,50909
63654.5,50903.6
63662.4,50898.8
63670.7,50894.9
63679.4,50891.8
63688.3,50889.6
63697.3,50888.2
63706.5,50887.8
63893.5,50887.8
Z" /> 
<path style="fill:#000000; fill-opacity:1.0; 
stroke:#000000; stroke-width:0; stroke-opacity:1; 
stroke-linecap:round; stroke-linejoin:round;fill-rule:evenodd;"
d="M 63902.7,50199.3
63911.7,50200.6
63920.6,50202.8
63929.3,50205.9
63937.6,50209.9
63945.5,50214.6
63952.8,50220
63959.6,50226.2
63965.8,50233
63971.2,50240.4
63976,50248.2
63979.9,50256.5
63983,50265.2
63985.2,50274.1
63986.6,50283.2
63987,50292.3
63987,50518.7
63986.6,50527.9
63985.2,50536.9
63983,50545.8
63979.9,50554.5
63976,50562.8
63971.2,50570.6
63965.8,50578
63959.6,50584.8
63952.8,50591
63945.5,50596.4
63937.6,50601.2
63929.3,50605.1
63920.6,50608.2
63911.7,50610.4
63902.7,50611.8
63893.5,50612.2
63706.5,50612.2
63697.3,50611.8
63688.3,50610.4
63679.4,50608.2
63670.7,50605.1
63662.4,50601.2
63654.5,50596.4
63647.2,50591
63640.4,50584.8
63634.2,50578
63628.8,50570.6
63624,50562.8
63620.1,50554.5
63617,50545.8
63614.8,50536.9
63613.4,50527.9
63613,50518.7
63613,50292.3
63613.4,50283.2
63614.8,50274.1
63617,50265.2
63620.1,50256.5
63624,50248.2
63628.8,50240.4
63634.2,50233
63640.4,50226.2
63647.2,50220
63654.5,50214.6
63662.4,50209.9
63670.7,50205.9
63679.4,50202.8
63688.3,50200.6
63697.3,50199.3
63706.5,50198.8
63893.5,50198.8
Z" /> 
</g>
<g >
</g>
<g style="fill:#000000; fill-opacity:1.0; 
stroke:#000000; stroke-width:0; stroke-opacity:1; 
stroke-linecap:round; stroke-linejoin:round;">
<path style="fill:#000000; fill-opacity:1.0; 
stroke:#000000; stroke-width:0; stroke-opacity:1; 
stroke-linecap:round; stroke-linejoin:round;fill-rule:evenodd;"
d="M 62902.7,50888.2
62911.7,50889.6
62920.6,50891.8
62929.3,50894.9
62937.6,50898.8
62945.5,50903.6
62952.8,50909
62959.6,50915.2
62965.8,50922
62971.2,50929.4
62976,50937.2
62979.9,50945.5
62983,50954.2
62985.2,50963.1
62986.6,50972.1
62987,50981.3
62987,51207.7
62986.6,51216.8
62985.2,51225.9
62983,51234.8
62979.9,51243.5
62976,51251.8
62971.2,51259.6
62965.8,51267
62959.6,51273.8
62952.8,51280
62945.5,51285.4
62937.6,51290.1
62929.3,51294.1
62920.6,51297.2
62911.7,51299.4
62902.7,51300.7
62893.5,51301.2
62706.5,51301.2
62697.3,51300.7
62688.3,51299.4
62679.4,51297.2
62670.7,51294.1
62662.4,51290.1
62654.5,51285.4
62647.2,51280
62640.4,51273.8
62634.2,51267
62628.8,51259.6
62624,51251.8
62620.1,51243.5
62617,51234.8
62614.8,51225.9
62613.4,51216.8
62613,51207.7
62613,50981.3
62613.4,50972.1
62614.8,50963.1
62617,50954.2
62620.1,50945.5
62624,50937.2
62628.8,50929.4
62634.2,50922
62640.4,50915.2
62647.2,50909
62654.5,50903.6
62662.4,50898.8
62670.7,50894.9
62679.4,50891.8
62688.3,50889.6
62697.3,50888.2
62706.5,50887.8
62893.5,50887.8
Z" /> 
<path style="fill:#000000; fill-opacity:1.0; 
stroke:#000000; stroke-width:0; stroke-opacity:1; 
stroke-linecap:round; stroke-linejoin:round;fill-rule:evenodd;"
d="M 62902.7,50199.3
62911.7,50200.6
62920.6,50202.8
62929.3,50205.9
62937.6,50209.9
62945.5,50214.6
62952.8,50220
62959.6,50226.2
62965.8,50233
62971.2,50240.4
62976,50248.2
62979.9,50256.5
62983,50265.2
62985.2,50274.1
62986.6,50283.2
62987,50292.3
62987,50518.7
62986.6,50527.9
62985.2,50536.9
62983,50545.8
62979.9,50554.5
62976,50562.8
62971.2,50570.6
62965.8,50578
62959.6,50584.8
62952.8,50591
62945.5,50596.4
62937.6,50601.2
62929.3,50605.1
62920.6,50608.2
62911.7,50610.4
62902.7,50611.8
62893.5,50612.2
62706.5,50612.2
62697.3,50611.8
62688.3,50610.4
62679.4,50608.2
62670.7,50605.1
62662.4,50601.2
62654.5,50596.4
62647.2,50591
62640.4,50584.8
62634.2,50578
62628.8,50570.6
62624,50562.8
62620.1,50554.5
62617,50545.8
62614.8,50536.9
62613.4,50527.9
62613,50518.7
62613,50292.3
62613.4,50283.2
62614.8,50274.1
62617,50265.2
62620.1,50256.5
62624,50248.2
62628.8,50240.4
62634.2,50233
62640.4,50226.2
62647.2,50220
62654.5,50214.6
62662.4,50209.9
62670.7,50205.9
62679.4,50202.8
62688.3,50200.6
62697.3,50199.3
62706.5,50198.8
62893.5,50198.8
Z" /> 
</g>
<g >
</g>
<g style="fill:#000000; fill-opacity:1.0; 
stroke:#000000; stroke-width:0; stroke-opacity:1; 
stroke-linecap:round; stroke-linejoin:round;">
<path style="fill:#000000; fill-opacity:1.0; 
stroke:#000000; stroke-width:0; stroke-opacity:1; 
stroke-linecap:round; stroke-linejoin:round;fill-rule:evenodd;"
d="M 61902.7,50888.2
61911.7,50889.6
61920.6,50891.8
61929.3,50894.9
61937.6,50898.8
61945.5,50903.6
61952.8,50909
61959.6,50915.2
61965.8,50922
61971.2,50929.4
61976,50937.2
61979.9,50945.5
61983,50954.2
61985.2,50963.1
61986.6,50972.1
61987,50981.3
61987,51207.7
61986.6,51216.8
61985.2,51225.9
61983,51234.8
61979.9,51243.5
61976,51251.8
61971.2,51259.6
61965.8,51267
61959.6,51273.8
61952.8,51280
61945.5,51285.4
61937.6,51290.1
61929.3,51294.1
61920.6,51297.2
61911.7,51299.4
61902.7,51300.7
61893.5,51301.2
61706.5,51301.2
61697.3,51300.7
61688.3,51299.4
61679.4,51297.2
61670.7,51294.1
61662.4,51290.1
61654.5,51285.4
61647.2,51280
61640.4,51273.8
61634.2,51267
61628.8,51259.6
61624,51251.8
61620.1,51243.5
61617,51234.8
61614.8,51225.9
61613.4,51216.8
61613,51207.7
61613,50981.3
61613.4,50972.1
61614.8,50963.1
61617,50954.2
61620.1,50945.5
61624,50937.2
61628.8,50929.4
61634.2,50922
61640.4,50915.2
61647.2,50909
61654.5,50903.6
61662.4,50898.8
61670.7,50894.9
61679.4,50891.8
61688.3,50889.6
61697.3,50888.2
61706.5,50887.8
61893.5,50887.8
Z" /> 
<path style="fill:#000000; fill-opacity:1.0; 
stroke:#000000; stroke-width:0; stroke-opacity:1; 
stroke-linecap:round; stroke-linejoin:round;fill-rule:evenodd;"
d="M 61902.7,50199.3
61911.7,50200.6
61920.6,50202.8
61929.3,50205.9
61937.6,50209.9
61945.5,50214.6
61952.8,50220
61959.6,50226.2
61965.8,50233
61971.2,50240.4
61976,50248.2
61979.9,50256.5
61983,50265.2
61985.2,50274.1
61986.6,50283.2
61987,50292.3
61987,50518.7
61986.6,50527.9
61985.2,50536.9
61983,50545.8
61979.9,50554.5
61976,50562.8
61971.2,50570.6
61965.8,50578
61959.6,50584.8
61952.8,50591
61945.5,50596.4
61937.6,50601.2
61929.3,50605.1
61920.6,50608.2
61911.7,50610.4
61902.7,50611.8
61893.5,50612.2
61706.5,50612.2
61697.3,50611.8
61688.3,50610.4
61679.4,50608.2
61670.7,50605.1
61662.4,50601.2
61654.5,50596.4
61647.2,50591
61640.4,50584.8
61634.2,50578
61628.8,50570.6
61624,50562.8
61620.1,50554.5
61617,50545.8
61614.8,50536.9
61613.4,50527.9
61613,50518.7
61613,50292.3
61613.4,50283.2
61614.8,50274.1
61617,50265.2
61620.1,50256.5
61624,50248.2
61628.8,50240.4
61634.2,50233
61640.4,50226.2
61647.2,50220
61654.5,50214.6
61662.4,50209.9
61670.7,50205.9
61679.4,50202.8
61688.3,50200.6
61697.3,50199.3
61706.5,50198.8
61893.5,50198.8
Z" /> 
</g>
<g >
</g>
<g style="fill:#000000; fill-opacity:1.0; 
stroke:#000000; stroke-width:0; stroke-opacity:1; 
stroke-linecap:round; stroke-linejoin:round;">
<path style="fill:#000000; fill-opacity:1.0; 
stroke:#000000; stroke-width:0; stroke-opacity:1; 
stroke-linecap:round; stroke-linejoin:round;fill-rule:evenodd;"
d="M 60902.7,50888.2
60911.7,50889.6
60920.6,50891.8
60929.3,50894.9
60937.6,50898.8
60945.5,50903.6
60952.8,50909
60959.6,50915.2
60965.8,50922
60971.2,50929.4
60976,50937.2
60979.9,50945.5
60983,50954.2
60985.2,50963.1
60986.6,50972.1
60987,50981.3
60987,51207.7
60986.6,51216.8
60985.2,51225.9
60983,51234.8
60979.9,51243.5
60976,51251.8
60971.2,51259.6
60965.8,51267
60959.6,51273.8
60952.8,51280
60945.5,51285.4
60937.6,51290.1
60929.3,51294.1
60920.6,51297.2
60911.7,51299.4
60902.7,51300.7
60893.5,51301.2
60706.5,51301.2
60697.3,51300.7
60688.3,51299.4
60679.4,51297.2
60670.7,51294.1
60662.4,51290.1
60654.5,51285.4
60647.2,51280
60640.4,51273.8
60634.2,51267
60628.8,51259.6
60624,51251.8
60620.1,51243.5
60617,51234.8
60614.8,51225.9
60613.4,51216.8
60613,51207.7
60613,50981.3
60613.4,50972.1
60614.8,50963.1
60617,50954.2
60620.1,50945.5
60624,50937.2
60628.8,50929.4
60634.2,50922
60640.4,50915.2
60647.2,50909
60654.5,50903.6
60662.4,50898.8
60670.7,50894.9
60679.4,50891.8
60688.3,50889.6
60697.3,50888.2
60706.5,50887.8
60893.5,50887.8
Z" /> 
<path style="fill:#000000; fill-opacity:1.0; 
stroke:#000000; stroke-width:0; stroke-opacity:1; 
stroke-linecap:round; stroke-linejoin:round;fill-rule:evenodd;"
d="M 60902.7,50199.3
60911.7,50200.6
60920.6,50202.8
60929.3,50205.9
60937.6,50209.9
60945.5,50214.6
60952.8,50220
60959.6,50226.2
60965.8,50233
60971.2,50240.4
60976,50248.2
60979.9,50256.5
60983,50265.2
60985.2,50274.1
60986.6,50283.2
60987,50292.3
60987,50518.7
60986.6,50527.9
60985.2,50536.9
60983,50545.8
60979.9,50554.5
60976,50562.8
60971.2,50570.6
60965.8,50578
60959.6,50584.8
60952.8,50591
60945.5,50596.4
60937.6,50601.2
60929.3,50605.1
60920.6,50608.2
60911.7,50610.4
60902.7,50611.8
60893.5,50612.2
60706.5,50612.2
60697.3,50611.8
60688.3,50610.4
60679.4,50608.2
60670.7,50605.1
60662.4,50601.2
60654.5,50596.4
60647.2,50591
60640.4,50584.8
60634.2,50578
60628.8,50570.6
60624,50562.8
60620.1,50554.5
60617,50545.8
60614.8,50536.9
60613.4,50527.9
60613,50518.7
60613,50292.3
60613.4,50283.2
60614.8,50274.1
60617,50265.2
60620.1,50256.5
60624,50248.2
60628.8,50240.4
60634.2,50233
60640.4,50226.2
60647.2,50220
60654.5,50214.6
60662.4,50209.9
60670.7,50205.9
60679.4,50202.8
60688.3,50200.6
60697.3,50199.3
60706.5,50198.8
60893.5,50198.8
Z" /> 
</g>
<g >
</g>
<g style="fill:#000000; fill-opacity:1.0; 
stroke:#000000; stroke-width:0; stroke-opacity:1; 
stroke-linecap:round; stroke-linejoin:round;">
<path style="fill:#000000; fill-opacity:1.0; 
stroke:#000000; stroke-width:0; stroke-opacity:1; 
stroke-linecap:round; stroke-linejoin:round;fill-rule:evenodd;"
d="M 59902.7,50888.2
59911.7,50889.6
59920.6,50891.8
59929.3,50894.9
59937.6,50898.8
59945.5,50903.6
59952.8,50909
59959.6,50915.2
59965.8,50922
59971.2,50929.4
59976,50937.2
59979.9,50945.5
59983,50954.2
59985.2,50963.1
59986.6,50972.1
59987,50981.3
59987,51207.7
59986.6,51216.8
59985.2,51225.9
59983,51234.8
59979.9,51243.5
59976,51251.8
59971.2,51259.6
59965.8,51267
59959.6,51273.8
59952.8,51280
59945.5,51285.4
59937.6,51290.1
59929.3,51294.1
59920.6,51297.2
59911.7,51299.4
59902.7,51300.7
59893.5,51301.2
59706.5,51301.2
59697.3,51300.7
59688.3,51299.4
59679.4,51297.2
59670.7,51294.1
59662.4,51290.1
59654.5,51285.4
59647.2,51280
59640.4,51273.8
59634.2,51267
59628.8,51259.6
59624,51251.8
59620.1,51243.5
59617,51234.8
59614.8,51225.9
59613.4,51216.8
59613,51207.7
59613,50981.3
59613.4,50972.1
59614.8,50963.1
59617,50954.2
59620.1,50945.5
59624,50937.2
59628.8,50929.4
59634.2,50922
59640.4,50915.2
59647.2,50909
59654.5,50903.6
59662.4,50898.8
59670.7,50894.9
59679.4,50891.8
59688.3,50889.6
59697.3,50888.2
59706.5,50887.8
59893.5,50887.8
Z" /> 
<path style="fill:#000000; fill-opacity:1.0; 
stroke:#000000; stroke-width:0; stroke-opacity:1; 
stroke-linecap:round; stroke-linejoin:round;fill-rule:evenodd;"
d="M 59902.7,50199.3
59911.7,50200.6
59920.6,50202.8
59929.3,50205.9
59937.6,50209.9
59945.5,50214.6
59952.8,50220
59959.6,50226.2
59965.8,50233
59971.2,50240.4
59976,50248.2
59979.9,50256.5
59983,50265.2
59985.2,50274.1
59986.6,50283.2
59987,50292.3
59987,50518.7
59986.6,50527.9
59985.2,50536.9
59983,50545.8
59979.9,50554.5
59976,50562.8
59971.2,50570.6
59965.8,50578
59959.6,50584.8
59952.8,50591
59945.5,50596.4
59937.6,50601.2
59929.3,50605.1
59920.6,50608.2
59911.7,50610.4
59902.7,50611.8
59893.5,50612.2
59706.5,50612.2
59697.3,50611.8
59688.3,50610.4
59679.4,50608.2
59670.7,50605.1
59662.4,50601.2
59654.5,50596.4
59647.2,50591
59640.4,50584.8
59634.2,50578
59628.8,50570.6
59624,50562.8
59620.1,50554.5
59617,50545.8
59614.8,50536.9
59613.4,50527.9
59613,50518.7
59613,50292.3
59613.4,50283.2
59614.8,50274.1
59617,50265.2
59620.1,50256.5
59624,50248.2
59628.8,50240.4
59634.2,50233
59640.4,50226.2
59647.2,50220
59654.5,50214.6
59662.4,50209.9
59670.7,50205.9
59679.4,50202.8
59688.3,50200.6
59697.3,50199.3
59706.5,50198.8
59893.5,50198.8
Z" /> 
</g>
<g >
</g>
<g style="fill:#000000; fill-opacity:1.0; 
stroke:#000000; stroke-width:0; stroke-opacity:1; 
stroke-linecap:round; stroke-linejoin:round;">
<path style="fill:#000000; fill-opacity:1.0; 
stroke:#000000; stroke-width:0; stroke-opacity:1; 
stroke-linecap:round; stroke-linejoin:round;fill-rule:evenodd;"
d="M 58902.7,50888.2
58911.7,50889.6
58920.6,50891.8
58929.3,50894.9
58937.6,50898.8
58945.5,50903.6
58952.8,50909
58959.6,50915.2
58965.8,50922
58971.2,50929.4
58976,50937.2
58979.9,50945.5
58983,50954.2
58985.2,50963.1
58986.6,50972.1
58987,50981.3
58987,51207.7
58986.6,51216.8
58985.2,51225.9
58983,51234.8
58979.9,51243.5
58976,51251.8
58971.2,51259.6
58965.8,51267
58959.6,51273.8
58952.8,51280
58945.5,51285.4
58937.6,51290.1
58929.3,51294.1
58920.6,51297.2
58911.7,51299.4
58902.7,51300.7
58893.5,51301.2
58706.5,51301.2
58697.3,51300.7
58688.3,51299.4
58679.4,51297.2
58670.7,51294.1
58662.4,51290.1
58654.5,51285.4
58647.2,51280
58640.4,51273.8
58634.2,51267
58628.8,51259.6
58624,51251.8
58620.1,51243.5
58617,51234.8
58614.8,51225.9
58613.4,51216.8
58613,51207.7
58613,50981.3
58613.4,50972.1
58614.8,50963.1
58617,50954.2
58620.1,50945.5
58624,50937.2
58628.8,50929.4
58634.2,50922
58640.4,50915.2
58647.2,50909
58654.5,50903.6
58662.4,50898.8
58670.7,50894.9
58679.4,50891.8
58688.3,50889.6
58697.3,50888.2
58706.5,50887.8
58893.5,50887.8
Z" /> 
<path style="fill:#000000; fill-opacity:1.0; 
stroke:#000000; stroke-width:0; stroke-opacity:1; 
stroke-linecap:round; stroke-linejoin:round;fill-rule:evenodd;"
d="M 58902.7,50199.3
58911.7,50200.6
58920.6,50202.8
58929.3,50205.9
58937.6,50209.9
58945.5,50214.6
58952.8,50220
58959.6,50226.2
58965.8,50233
58971.2,50240.4
58976,50248.2
58979.9,50256.5
58983,50265.2
58985.2,50274.1
58986.6,50283.2
58987,50292.3
58987,50518.7
58986.6,50527.9
58985.2,50536.9
58983,50545.8
58979.9,50554.5
58976,50562.8
58971.2,50570.6
58965.8,50578
58959.6,50584.8
58952.8,50591
58945.5,50596.4
58937.6,50601.2
58929.3,50605.1
58920.6,50608.2
58911.7,50610.4
58902.7,50611.8
58893.5,50612.2
58706.5,50612.2
58697.3,50611.8
58688.3,50610.4
58679.4,50608.2
58670.7,50605.1
58662.4,50601.2
58654.5,50596.4
58647.2,50591
58640.4,50584.8
58634.2,50578
58628.8,50570.6
58624,50562.8
58620.1,50554.5
58617,50545.8
58614.8,50536.9
58613.4,50527.9
58613,50518.7
58613,50292.3
58613.4,50283.2
58614.8,50274.1
58617,50265.2
58620.1,50256.5
58624,50248.2
58628.8,50240.4
58634.2,50233
58640.4,50226.2
58647.2,50220
58654.5,50214.6
58662.4,50209.9
58670.7,50205.9
58679.4,50202.8
58688.3,50200.6
58697.3,50199.3
58706.5,50198.8
58893.5,50198.8
Z" /> 
</g>
<g >
</g>
<g style="fill:#000000; fill-opacity:1.0; 
stroke:#000000; stroke-width:0; stroke-opacity:1; 
stroke-linecap:round; stroke-linejoin:round;">
<path style="fill:#000000; fill-opacity:1.0; 
stroke:#000000; stroke-width:0; stroke-opacity:1; 
stroke-linecap:round; stroke-linejoin:round;fill-rule:evenodd;"
d="M 57902.7,50888.2
57911.7,50889.6
57920.6,50891.8
57929.3,50894.9
57937.6,50898.8
57945.5,50903.6
57952.8,50909
57959.6,50915.2
57965.8,50922
57971.2,50929.4
57976,50937.2
57979.9,50945.5
57983,50954.2
57985.2,50963.1
57986.6,50972.1
57987,50981.3
57987,51207.7
57986.6,51216.8
57985.2,51225.9
57983,51234.8
57979.9,51243.5
57976,51251.8
57971.2,51259.6
57965.8,51267
57959.6,51273.8
57952.8,51280
57945.5,51285.4
57937.6,51290.1
57929.3,51294.1
57920.6,51297.2
57911.7,51299.4
57902.7,51300.7
57893.5,51301.2
57706.5,51301.2
57697.3,51300.7
57688.3,51299.4
57679.4,51297.2
57670.7,51294.1
57662.4,51290.1
57654.5,51285.4
57647.2,51280
57640.4,51273.8
57634.2,51267
57628.8,51259.6
57624,51251.8
57620.1,51243.5
57617,51234.8
57614.8,51225.9
57613.4,51216.8
57613,51207.7
57613,50981.3
57613.4,50972.1
57614.8,50963.1
57617,50954.2
57620.1,50945.5
57624,50937.2
57628.8,50929.4
57634.2,50922
57640.4,50915.2
57647.2,50909
57654.5,50903.6
57662.4,50898.8
57670.7,50894.9
57679.4,50891.8
57688.3,50889.6
57697.3,50888.2
57706.5,50887.8
57893.5,50887.8
Z" /> 
<path style="fill:#000000; fill-opacity:1.0; 
stroke:#000000; stroke-width:0; stroke-opacity:1; 
stroke-linecap:round; stroke-linejoin:round;fill-rule:evenodd;"
d="M 57902.7,50199.3
57911.7,50200.6
57920.6,50202.8
57929.3,50205.9
57937.6,50209.9
57945.5,50214.6
57952.8,50220
57959.6,50226.2
57965.8,50233
57971.2,50240.4
57976,50248.2
57979.9,50256.5
57983,50265.2
57985.2,50274.1
57986.6,50283.2
57987,50292.3
57987,50518.7
57986.6,50527.9
57985.2,50536.9
57983,50545.8
57979.9,50554.5
57976,50562.8
57971.2,50570.6
57965.8,50578
57959.6,50584.8
57952.8,50591
57945.5,50596.4
57937.6,50601.2
57929.3,50605.1
57920.6,50608.2
57911.7,50610.4
57902.7,50611.8
57893.5,50612.2
57706.5,50612.2
57697.3,50611.8
57688.3,50610.4
57679.4,50608.2
57670.7,50605.1
57662.4,50601.2
57654.5,50596.4
57647.2,50591
57640.4,50584.8
57634.2,50578
57628.8,50570.6
57624,50562.8
57620.1,50554.5
57617,50545.8
57614.8,50536.9
57613.4,50527.9
57613,50518.7
57613,50292.3
57613.4,50283.2
57614.8,50274.1
57617,50265.2
57620.1,50256.5
57624,50248.2
57628.8,50240.4
57634.2,50233
57640.4,50226.2
57647.2,50220
57654.5,50214.6
57662.4,50209.9
57670.7,50205.9
57679.4,50202.8
57688.3,50200.6
57697.3,50199.3
57706.5,50198.8
57893.5,50198.8
Z" /> 
</g>
<g >
</g>
<g style="fill:#000000; fill-opacity:1.0; 
stroke:#000000; stroke-width:0; stroke-opacity:1; 
stroke-linecap:round; stroke-linejoin:round;">
<path style="fill:#000000; fill-opacity:1.0; 
stroke:#000000; stroke-width:0; stroke-opacity:1; 
stroke-linecap:round; stroke-linejoin:round;fill-rule:evenodd;"
d="M 56902.7,50888.2
56911.7,50889.6
56920.6,50891.8
56929.3,50894.9
56937.6,50898.8
56945.5,50903.6
56952.8,50909
56959.6,50915.2
56965.8,50922
56971.2,50929.4
56976,50937.2
56979.9,50945.5
56983,50954.2
56985.2,50963.1
56986.6,50972.1
56987,50981.3
56987,51207.7
56986.6,51216.8
56985.2,51225.9
56983,51234.8
56979.9,51243.5
56976,51251.8
56971.2,51259.6
56965.8,51267
56959.6,51273.8
56952.8,51280
56945.5,51285.4
56937.6,51290.1
56929.3,51294.1
56920.6,51297.2
56911.7,51299.4
56902.7,51300.7
56893.5,51301.2
56706.5,51301.2
56697.3,51300.7
56688.3,51299.4
56679.4,51297.2
56670.7,51294.1
56662.4,51290.1
56654.5,51285.4
56647.2,51280
56640.4,51273.8
56634.2,51267
56628.8,51259.6
56624,51251.8
56620.1,51243.5
56617,51234.8
56614.8,51225.9
56613.4,51216.8
56613,51207.7
56613,50981.3
56613.4,50972.1
56614.8,50963.1
56617,50954.2
56620.1,50945.5
56624,50937.2
56628.8,50929.4
56634.2,50922
56640.4,50915.2
56647.2,50909
56654.5,50903.6
56662.4,50898.8
56670.7,50894.9
56679.4,50891.8
56688.3,50889.6
56697.3,50888.2
56706.5,50887.8
56893.5,50887.8
Z" /> 
<path style="fill:#000000; fill-opacity:1.0; 
stroke:#000000; stroke-width:0; stroke-opacity:1; 
stroke-linecap:round; stroke-linejoin:round;fill-rule:evenodd;"
d="M 56902.7,50199.3
56911.7,50200.6
56920.6,50202.8
56929.3,50205.9
56937.6,50209.9
56945.5,50214.6
56952.8,50220
56959.6,50226.2
56965.8,50233
56971.2,50240.4
56976,50248.2
56979.9,50256.5
56983,50265.2
56985.2,50274.1
56986.6,50283.2
56987,50292.3
56987,50518.7
56986.6,50527.9
56985.2,50536.9
56983,50545.8
56979.9,50554.5
56976,50562.8
56971.2,50570.6
56965.8,50578
56959.6,50584.8
56952.8,50591
56945.5,50596.4
56937.6,50601.2
56929.3,50605.1
56920.6,50608.2
56911.7,50610.4
56902.7,50611.8
56893.5,50612.2
56706.5,50612.2
56697.3,50611.8
56688.3,50610.4
56679.4,50608.2
56670.7,50605.1
56662.4,50601.2
56654.5,50596.4
56647.2,50591
56640.4,50584.8
56634.2,50578
56628.8,50570.6
56624,50562.8
56620.1,50554.5
56617,50545.8
56614.8,50536.9
56613.4,50527.9
56613,50518.7
56613,50292.3
56613.4,50283.2
56614.8,50274.1
56617,50265.2
56620.1,50256.5
56624,50248.2
56628.8,50240.4
56634.2,50233
56640.4,50226.2
56647.2,50220
56654.5,50214.6
56662.4,50209.9
56670.7,50205.9
56679.4,50202.8
56688.3,50200.6
56697.3,50199.3
56706.5,50198.8
56893.5,50198.8
Z" /> 
</g>
<g >
</g>
<g style="fill:#000000; fill-opacity:1.0; 
stroke:#000000; stroke-width:0; stroke-opacity:1; 
stroke-linecap:round; stroke-linejoin:round;">
<path style="fill:#000000; fill-opacity:1.0; 
stroke:#000000; stroke-width:0; stroke-opacity:1; 
stroke-linecap:round; stroke-linejoin:round;fill-rule:evenodd;"
d="M 55902.7,50888.2
55911.7,50889.6
55920.6,50891.8
55929.3,50894.9
55937.6,50898.8
55945.5,50903.6
55952.8,50909
55959.6,50915.2
55965.8,50922
55971.2,50929.4
55976,50937.2
55979.9,50945.5
55983,50954.2
55985.2,50963.1
55986.6,50972.1
55987,50981.3
55987,51207.7
55986.6,51216.8
55985.2,51225.9
55983,51234.8
55979.9,51243.5
55976,51251.8
55971.2,51259.6
55965.8,51267
55959.6,51273.8
55952.8,51280
55945.5,51285.4
55937.6,51290.1
55929.3,51294.1
55920.6,51297.2
55911.7,51299.4
55902.7,51300.7
55893.5,51301.2
55706.5,51301.2
55697.3,51300.7
55688.3,51299.4
55679.4,51297.2
55670.7,51294.1
55662.4,51290.1
55654.5,51285.4
55647.2,51280
55640.4,51273.8
55634.2,51267
55628.8,51259.6
55624,51251.8
55620.1,51243.5
55617,51234.8
55614.8,51225.9
55613.4,51216.8
55613,51207.7
55613,50981.3
55613.4,50972.1
55614.8,50963.1
55617,50954.2
55620.1,50945.5
55624,50937.2
55628.8,50929.4
55634.2,50922
55640.4,50915.2
55647.2,50909
55654.5,50903.6
55662.4,50898.8
55670.7,50894.9
55679.4,50891.8
55688.3,50889.6
55697.3,50888.2
55706.5,50887.8
55893.5,50887.8
Z" /> 
<path style="fill:#000000; fill-opacity:1.0; 
stroke:#000000; stroke-width:0; stroke-opacity:1; 
stroke-linecap:round; stroke-linejoin:round;fill-rule:evenodd;"
d="M 55902.7,50199.3
55911.7,50200.6
55920.6,50202.8
55929.3,50205.9
55937.6,50209.9
55945.5,50214.6
55952.8,50220
55959.6,50226.2
55965.8,50233
55971.2,50240.4
55976,50248.2
55979.9,50256.5
55983,50265.2
55985.2,50274.1
55986.6,50283.2
55987,50292.3
55987,50518.7
55986.6,50527.9
55985.2,50536.9
55983,50545.8
55979.9,50554.5
55976,50562.8
55971.2,50570.6
55965.8,50578
55959.6,50584.8
55952.8,50591
55945.5,50596.4
55937.6,50601.2
55929.3,50605.1
55920.6,50608.2
55911.7,50610.4
55902.7,50611.8
55893.5,50612.2
55706.5,50612.2
55697.3,50611.8
55688.3,50610.4
55679.4,50608.2
55670.7,50605.1
55662.4,50601.2
55654.5,50596.4
55647.2,50591
55640.4,50584.8
55634.2,50578
55628.8,50570.6
55624,50562.8
55620.1,50554.5
55617,50545.8
55614.8,50536.9
55613.4,50527.9
55613,50518.7
55613,50292.3
55613.4,50283.2
55614.8,50274.1
55617,50265.2
55620.1,50256.5
55624,50248.2
55628.8,50240.4
55634.2,50233
55640.4,50226.2
55647.2,50220
55654.5,50214.6
55662.4,50209.9
55670.7,50205.9
55679.4,50202.8
55688.3,50200.6
55697.3,50199.3
55706.5,50198.8
55893.5,50198.8
Z" /> 
</g>
<g >
</g>
<g style="fill:#000000; fill-opacity:1.0; 
stroke:#000000; stroke-width:0; stroke-opacity:1; 
stroke-linecap:round; stroke-linejoin:round;">
<path style="fill:#000000; fill-opacity:1.0; 
stroke:#000000; stroke-width:0; stroke-opacity:1; 
stroke-linecap:round; stroke-linejoin:round;fill-rule:evenodd;"
d="M 54902.7,50888.2
54911.7,50889.6
54920.6,50891.8
54929.3,50894.9
54937.6,50898.8
54945.5,50903.6
54952.8,50909
54959.6,50915.2
54965.8,50922
54971.2,50929.4
54976,50937.2
54979.9,50945.5
54983,50954.2
54985.2,50963.1
54986.6,50972.1
54987,50981.3
54987,51207.7
54986.6,51216.8
54985.2,51225.9
54983,51234.8
54979.9,51243.5
54976,51251.8
54971.2,51259.6
54965.8,51267
54959.6,51273.8
54952.8,51280
54945.5,51285.4
54937.6,51290.1
54929.3,51294.1
54920.6,51297.2
54911.7,51299.4
54902.7,51300.7
54893.5,51301.2
54706.5,51301.2
54697.3,51300.7
54688.3,51299.4
54679.4,51297.2
54670.7,51294.1
54662.4,51290.1
54654.5,51285.4
54647.2,51280
54640.4,51273.8
54634.2,51267
54628.8,51259.6
54624,51251.8
54620.1,51243.5
54617,51234.8
54614.8,51225.9
54613.4,51216.8
54613,51207.7
54613,50981.3
54613.4,50972.1
54614.8,50963.1
54617,50954.2
54620.1,50945.5
54624,50937.2
54628.8,50929.4
54634.2,50922
54640.4,50915.2
54647.2,50909
54654.5,50903.6
54662.4,50898.8
54670.7,50894.9
54679.4,50891.8
54688.3,50889.6
54697.3,50888.2
54706.5,50887.8
54893.5,50887.8
Z" /> 
<path style="fill:#000000; fill-opacity:1.0; 
stroke:#000000; stroke-width:0; stroke-opacity:1; 
stroke-linecap:round; stroke-linejoin:round;fill-rule:evenodd;"
d="M 54902.7,50199.3
54911.7,50200.6
54920.6,50202.8
54929.3,50205.9
54937.6,50209.9
54945.5,50214.6
54952.8,50220
54959.6,50226.2
54965.8,50233
54971.2,50240.4
54976,50248.2
54979.9,50256.5
54983,50265.2
54985.2,50274.1
54986.6,50283.2
54987,50292.3
54987,50518.7
54986.6,50527.9
54985.2,50536.9
54983,50545.8
54979.9,50554.5
54976,50562.8
54971.2,50570.6
54965.8,50578
54959.6,50584.8
54952.8,50591
54945.5,50596.4
54937.6,50601.2
54929.3,50605.1
54920.6,50608.2
54911.7,50610.4
54902.7,50611.8
54893.5,50612.2
54706.5,50612.2
54697.3,50611.8
54688.3,50610.4
54679.4,50608.2
54670.7,50605.1
54662.4,50601.2
54654.5,50596.4
54647.2,50591
54640.4,50584.8
54634.2,50578
54628.8,50570.6
54624,50562.8
54620.1,50554.5
54617,50545.8
54614.8,50536.9
54613.4,50527.9
54613,50518.7
54613,50292.3
54613.4,50283.2
54614.8,50274.1
54617,50265.2
54620.1,50256.5
54624,50248.2
54628.8,50240.4
54634.2,50233
54640.4,50226.2
54647.2,50220
54654.5,50214.6
54662.4,50209.9
54670.7,50205.9
54679.4,50202.8
54688.3,50200.6
54697.3,50199.3
54706.5,50198.8
54893.5,50198.8
Z" /> 
</g>
<g >
</g>
<g >
</g>
<g >
</g>
</g> 
</svg>
