<?xml version="1.0" standalone="no"?>
 <!DOCTYPE svg PUBLIC "-//W3C//DTD SVG 1.1//EN" 
 "http://www.w3.org/Graphics/SVG/1.1/DTD/svg11.dtd"> 
<svg xmlns="http://www.w3.org/2000/svg" version="1.1" 
    width="29.7002cm" height="21.0007cm" viewBox="0 0 116930 82680 ">
<title>SVG Picture created as VGA-B_Cu.svg date 2019/12/13 15:11:35 </title>
  <desc>Picture generated by PCBNEW </desc>
<g style="fill:#000000; fill-opacity:1;stroke:#000000; stroke-opacity:1;
stroke-linecap:round; stroke-linejoin:round; "
 transform="translate(0 0) scale(1 1)">
</g>
<g style="fill:#000000; fill-opacity:0.0; 
stroke:#000000; stroke-width:-0.000393701; stroke-opacity:1; 
stroke-linecap:round; stroke-linejoin:round;">
</g>
<g style="fill:#000000; fill-opacity:0.0; 
stroke:#000000; stroke-width:19.685; stroke-opacity:1; 
stroke-linecap:round; stroke-linejoin:round;">
<path d="M54000 49250 A750 750 0.0 0 0 54750 48500 " />
<path d="M54000 49250 A1000 1000 0.0 0 0 53000 50250 " />
<path d="M67750 48500 A750 750 0.0 0 0 68500 49250 " />
<path d="M53000 52750
L53000 50250
" />
<path d="M69500 50250 A1000 1000 0.0 0 0 68500 49250 " />
<path d="M69500 52750
L69500 50250
" />
<path d="M55750 42000 A1000 1000 0.0 0 0 54750 43000 " />
<path d="M67750 43000 A1000 1000 0.0 0 0 66750 42000 " />
<path d="M69250 53000 A250 250 0.0 0 0 69500 52750 " />
<path d="M53000 52750 A250 250 0.0 0 0 53250 53000 " />
<path d="M54750 43000
L54750 48500
" />
<path d="M66750 42000
L55750 42000
" />
<path d="M67750 48500
L67750 43000
" />
<path d="M53250 53000
L69250 53000
" />
<g >
</g>
<g >
</g>
<g >
</g>
<g style="fill:#000000; fill-opacity:0.0; 
stroke:#000000; stroke-width:19.685; stroke-opacity:1; 
stroke-linecap:round; stroke-linejoin:round;">
</g>
<g style="fill:#000000; fill-opacity:1.0; 
stroke:#000000; stroke-width:0; stroke-opacity:1; 
stroke-linecap:round; stroke-linejoin:round;">
<circle cx="66200" cy="46800" r="1181.1" /> 
</g>
<g style="fill:#000000; fill-opacity:1.0; 
stroke:#000000; stroke-width:39.3701; stroke-opacity:1; 
stroke-linecap:round; stroke-linejoin:round;">
</g>
<g >
</g>
<g style="fill:#000000; fill-opacity:1.0; 
stroke:#000000; stroke-width:39.3701; stroke-opacity:1; 
stroke-linecap:round; stroke-linejoin:round;">
</g>
<g style="fill:#000000; fill-opacity:1.0; 
stroke:#000000; stroke-width:0; stroke-opacity:1; 
stroke-linecap:round; stroke-linejoin:round;">
<circle cx="56400" cy="46800" r="1181.1" /> 
</g>
<g style="fill:#000000; fill-opacity:1.0; 
stroke:#000000; stroke-width:39.3701; stroke-opacity:1; 
stroke-linecap:round; stroke-linejoin:round;">
</g>
<g >
</g>
<g style="fill:#000000; fill-opacity:1.0; 
stroke:#000000; stroke-width:39.3701; stroke-opacity:1; 
stroke-linecap:round; stroke-linejoin:round;">
</g>
<g style="fill:#000000; fill-opacity:1.0; 
stroke:#000000; stroke-width:669.291; stroke-opacity:1; 
stroke-linecap:round; stroke-linejoin:round;">
</g>
<g style="fill:#000000; fill-opacity:0.0; 
stroke:#000000; stroke-width:669.291; stroke-opacity:1; 
stroke-linecap:round; stroke-linejoin:round;">
<path d="M53800 52157
L53800 51842
" />
<path d="M54800 52157
L54800 51842
" />
<path d="M55800 52157
L55800 51842
" />
<path d="M56800 52157
L56800 51842
" />
<path d="M57800 52157
L57800 51842
" />
<path d="M58800 52157
L58800 51842
" />
<path d="M59800 52157
L59800 51842
" />
<path d="M60800 52157
L60800 51842
" />
<path d="M61800 52157
L61800 51842
" />
<path d="M62800 52157
L62800 51842
" />
<path d="M63800 52157
L63800 51842
" />
<path d="M64800 52157
L64800 51842
" />
<path d="M65800 52157
L65800 51842
" />
<path d="M66800 52157
L66800 51842
" />
<path d="M67800 52157
L67800 51842
" />
<path d="M68800 52157
L68800 51842
" />
</g>
<g >
</g>
<g style="fill:#000000; fill-opacity:0.0; 
stroke:#000000; stroke-width:669.291; stroke-opacity:1; 
stroke-linecap:round; stroke-linejoin:round;">
</g>
<g style="fill:#000000; fill-opacity:0.0; 
stroke:#000000; stroke-width:0; stroke-opacity:1; 
stroke-linecap:round; stroke-linejoin:round;">
</g>
<g style="fill:#000000; fill-opacity:1.0; 
stroke:#000000; stroke-width:0; stroke-opacity:1; 
stroke-linecap:round; stroke-linejoin:round;">
<path style="fill:#000000; fill-opacity:1.0; 
stroke:#000000; stroke-width:0; stroke-opacity:1; 
stroke-linecap:round; stroke-linejoin:round;fill-rule:evenodd;"
d="M 59815,47485
59815,48115
59185,48115
59185,47485
Z" /> 
<circle cx="60401.6" cy="47800" r="314.961" /> 
</g>
<g style="fill:#000000; fill-opacity:1.0; 
stroke:#000000; stroke-width:39.3701; stroke-opacity:1; 
stroke-linecap:round; stroke-linejoin:round;">
</g>
<g style="fill:#000000; fill-opacity:1.0; 
stroke:#000000; stroke-width:0; stroke-opacity:1; 
stroke-linecap:round; stroke-linejoin:round;">
<circle cx="61303.1" cy="47800" r="314.961" /> 
</g>
<g style="fill:#000000; fill-opacity:1.0; 
stroke:#000000; stroke-width:39.3701; stroke-opacity:1; 
stroke-linecap:round; stroke-linejoin:round;">
</g>
<g style="fill:#000000; fill-opacity:1.0; 
stroke:#000000; stroke-width:0; stroke-opacity:1; 
stroke-linecap:round; stroke-linejoin:round;">
<circle cx="62204.7" cy="47800" r="314.961" /> 
</g>
<g style="fill:#000000; fill-opacity:1.0; 
stroke:#000000; stroke-width:39.3701; stroke-opacity:1; 
stroke-linecap:round; stroke-linejoin:round;">
</g>
<g style="fill:#000000; fill-opacity:1.0; 
stroke:#000000; stroke-width:0; stroke-opacity:1; 
stroke-linecap:round; stroke-linejoin:round;">
<circle cx="63106.3" cy="47800" r="314.961" /> 
</g>
<g style="fill:#000000; fill-opacity:1.0; 
stroke:#000000; stroke-width:39.3701; stroke-opacity:1; 
stroke-linecap:round; stroke-linejoin:round;">
</g>
<g style="fill:#000000; fill-opacity:1.0; 
stroke:#000000; stroke-width:0; stroke-opacity:1; 
stroke-linecap:round; stroke-linejoin:round;">
<circle cx="59049.2" cy="46800" r="314.961" /> 
</g>
<g style="fill:#000000; fill-opacity:1.0; 
stroke:#000000; stroke-width:39.3701; stroke-opacity:1; 
stroke-linecap:round; stroke-linejoin:round;">
</g>
<g style="fill:#000000; fill-opacity:1.0; 
stroke:#000000; stroke-width:0; stroke-opacity:1; 
stroke-linecap:round; stroke-linejoin:round;">
<circle cx="59950.8" cy="46800" r="314.961" /> 
</g>
<g style="fill:#000000; fill-opacity:1.0; 
stroke:#000000; stroke-width:39.3701; stroke-opacity:1; 
stroke-linecap:round; stroke-linejoin:round;">
</g>
<g style="fill:#000000; fill-opacity:1.0; 
stroke:#000000; stroke-width:0; stroke-opacity:1; 
stroke-linecap:round; stroke-linejoin:round;">
<circle cx="60852.4" cy="46800" r="314.961" /> 
</g>
<g style="fill:#000000; fill-opacity:1.0; 
stroke:#000000; stroke-width:39.3701; stroke-opacity:1; 
stroke-linecap:round; stroke-linejoin:round;">
</g>
<g style="fill:#000000; fill-opacity:1.0; 
stroke:#000000; stroke-width:0; stroke-opacity:1; 
stroke-linecap:round; stroke-linejoin:round;">
<circle cx="61753.9" cy="46800" r="314.961" /> 
</g>
<g style="fill:#000000; fill-opacity:1.0; 
stroke:#000000; stroke-width:39.3701; stroke-opacity:1; 
stroke-linecap:round; stroke-linejoin:round;">
</g>
<g style="fill:#000000; fill-opacity:1.0; 
stroke:#000000; stroke-width:0; stroke-opacity:1; 
stroke-linecap:round; stroke-linejoin:round;">
<circle cx="62655.5" cy="46800" r="314.961" /> 
</g>
<g style="fill:#000000; fill-opacity:1.0; 
stroke:#000000; stroke-width:39.3701; stroke-opacity:1; 
stroke-linecap:round; stroke-linejoin:round;">
</g>
<g style="fill:#000000; fill-opacity:1.0; 
stroke:#000000; stroke-width:0; stroke-opacity:1; 
stroke-linecap:round; stroke-linejoin:round;">
<circle cx="59500" cy="45800" r="314.961" /> 
</g>
<g style="fill:#000000; fill-opacity:1.0; 
stroke:#000000; stroke-width:39.3701; stroke-opacity:1; 
stroke-linecap:round; stroke-linejoin:round;">
</g>
<g style="fill:#000000; fill-opacity:1.0; 
stroke:#000000; stroke-width:0; stroke-opacity:1; 
stroke-linecap:round; stroke-linejoin:round;">
<circle cx="60401.6" cy="45800" r="314.961" /> 
</g>
<g style="fill:#000000; fill-opacity:1.0; 
stroke:#000000; stroke-width:39.3701; stroke-opacity:1; 
stroke-linecap:round; stroke-linejoin:round;">
</g>
<g style="fill:#000000; fill-opacity:1.0; 
stroke:#000000; stroke-width:0; stroke-opacity:1; 
stroke-linecap:round; stroke-linejoin:round;">
<circle cx="61303.1" cy="45800" r="314.961" /> 
</g>
<g style="fill:#000000; fill-opacity:1.0; 
stroke:#000000; stroke-width:39.3701; stroke-opacity:1; 
stroke-linecap:round; stroke-linejoin:round;">
</g>
<g style="fill:#000000; fill-opacity:1.0; 
stroke:#000000; stroke-width:0; stroke-opacity:1; 
stroke-linecap:round; stroke-linejoin:round;">
<circle cx="62204.7" cy="45800" r="314.961" /> 
</g>
<g style="fill:#000000; fill-opacity:1.0; 
stroke:#000000; stroke-width:39.3701; stroke-opacity:1; 
stroke-linecap:round; stroke-linejoin:round;">
</g>
<g style="fill:#000000; fill-opacity:1.0; 
stroke:#000000; stroke-width:0; stroke-opacity:1; 
stroke-linecap:round; stroke-linejoin:round;">
<circle cx="63106.3" cy="45800" r="314.961" /> 
</g>
<g style="fill:#000000; fill-opacity:1.0; 
stroke:#000000; stroke-width:39.3701; stroke-opacity:1; 
stroke-linecap:round; stroke-linejoin:round;">
</g>
<g >
</g>
<g >
</g>
<g >
</g>
<g >
</g>
<g >
</g>
<g >
</g>
<g >
</g>
<g >
</g>
<g >
</g>
<g >
</g>
<g >
</g>
<g >
</g>
<g >
</g>
<g >
</g>
<g >
</g>
<g >
</g>
<g >
</g>
<g style="fill:#000000; fill-opacity:1.0; 
stroke:#000000; stroke-width:39.3701; stroke-opacity:1; 
stroke-linecap:round; stroke-linejoin:round;">
<path style="fill:#000000; fill-opacity:1.0; 
stroke:#000000; stroke-width:39.3701; stroke-opacity:1; 
stroke-linecap:round; stroke-linejoin:round;fill-rule:evenodd;"
d="M 66899.4,42245.3
67043.2,42288.7
67175.8,42359.2
67292.1,42454.1
67387.8,42569.8
67459.3,42701.9
67503.7,42845.3
67520.5,43005.3
67520.5,46330.7
67490.6,46238.3
67384.1,46039
67211.6,45902
66313.6,46800
67211.6,47698
67384.1,47561
67509.8,47315.4
67520.5,47277.9
67520.5,48511.3
67521.5,48521.4
67521.4,48526
67521.7,48529.2
67537,48674.8
67541.2,48695.2
67545.1,48715.6
67546.1,48718.7
67589.3,48858.5
67597.4,48877.7
67605.2,48897
67606.7,48899.8
67606.7,48899.8
67606.7,48899.8
67676.3,49028.6
67688,49045.8
67699.3,49063.2
67701.4,49065.7
67794.7,49178.5
67809.4,49193.1
67824,49208
67826.5,49210
67939.9,49302.6
67957.2,49314.1
67974.4,49325.8
67977.2,49327.4
68106.4,49396.1
68125.7,49404
68144.8,49412.2
68147.9,49413.1
68147.9,49413.1
68147.9,49413.1
68288,49455.4
68308.4,49459.5
68328.7,49463.8
68331.9,49464.1
68331.9,49464.1
68477.6,49478.4
68649.4,49495.3
68793.2,49538.7
68925.8,49609.2
69042.1,49704.1
69137.8,49819.8
69209.3,49951.9
69253.7,50095.3
69270.5,50255.3
69270.5,51531.5
69263.5,51519.1
69191.5,51434.9
69104.5,51366.4
69005.7,51316.1
68965.1,51313.4
68880.3,51349.6
68880.3,51919.7
68888.2,51919.7
68888.2,52080.3
68880.3,52080.3
68880.3,52650.4
68965.1,52686.6
69005.7,52683.9
69104.5,52633.6
69191.5,52565.1
69263.5,52480.9
69270.5,52468.5
69270.5,52738.8
69269,52753.8
69267.9,52757.4
69266.1,52760.7
69263.7,52763.6
69260.8,52766.1
69257.5,52767.9
69253.9,52769
69239.7,52770.5
53261.2,52770.5
53246.2,52769
53242.6,52767.9
53239.3,52766.1
53236.4,52763.7
53233.9,52760.8
53232.1,52757.5
53231,52753.9
53229.5,52739.7
53229.5,52168.9
53234.9,52168.9
53248,52278.9
53282.3,52384.2
53336.5,52480.9
53408.5,52565.1
53495.5,52633.6
53594.3,52683.9
53634.9,52686.6
53719.7,52650.4
53719.7,52080.3
53295,52080.3
53234.9,52168.9
53229.5,52168.9
53229.5,51831.1
53234.9,51831.1
53295,51919.7
53719.7,51919.7
53719.7,51349.6
53880.3,51349.6
53880.3,51919.7
53888.2,51919.7
53888.2,52080.3
53880.3,52080.3
53880.3,52650.4
53965.1,52686.6
54005.7,52683.9
54104.5,52633.6
54191.5,52565.1
54263.5,52480.9
54304.9,52407.1
54336.9,52466.9
54406.1,52551.3
54490.5,52620.6
54586.8,52672.1
54691.3,52703.8
54800,52714.5
54908.7,52703.8
55013.2,52672.1
55109.5,52620.6
55193.9,52551.3
55263.1,52466.9
55300,52398
55336.9,52466.9
55406.1,52551.3
55490.5,52620.6
55586.8,52672.1
55691.3,52703.8
55800,52714.5
55908.7,52703.8
56013.2,52672.1
56109.5,52620.6
56193.9,52551.3
56263.1,52466.9
56300,52398
56336.9,52466.9
56406.1,52551.3
56490.5,52620.6
56586.8,52672.1
56691.3,52703.8
56800,52714.5
56908.7,52703.8
57013.2,52672.1
57109.5,52620.6
57193.9,52551.3
57263.1,52466.9
57300,52398
57336.9,52466.9
57406.1,52551.3
57490.5,52620.6
57586.8,52672.1
57691.3,52703.8
57800,52714.5
57908.7,52703.8
58013.2,52672.1
58109.5,52620.6
58193.9,52551.3
58263.1,52466.9
58300,52398
58336.9,52466.9
58406.1,52551.3
58490.5,52620.6
58586.8,52672.1
58691.3,52703.8
58800,52714.5
58908.7,52703.8
59013.2,52672.1
59109.5,52620.6
59193.9,52551.3
59263.1,52466.9
59300,52398
59336.9,52466.9
59406.1,52551.3
59490.5,52620.6
59586.8,52672.1
59691.3,52703.8
59800,52714.5
59908.7,52703.8
60013.2,52672.1
60109.5,52620.6
60193.9,52551.3
60263.1,52466.9
60300,52398
60336.9,52466.9
60406.1,52551.3
60490.5,52620.6
60586.8,52672.1
60691.3,52703.8
60800,52714.5
60908.7,52703.8
61013.2,52672.1
61109.5,52620.6
61193.9,52551.3
61263.1,52466.9
61300,52398
61336.9,52466.9
61406.1,52551.3
61490.5,52620.6
61586.8,52672.1
61691.3,52703.8
61800,52714.5
61908.7,52703.8
62013.2,52672.1
62109.5,52620.6
62193.9,52551.3
62263.1,52466.9
62300,52398
62336.9,52466.9
62406.1,52551.3
62490.5,52620.6
62586.8,52672.1
62691.3,52703.8
62800,52714.5
62908.7,52703.8
63013.2,52672.1
63109.5,52620.6
63193.9,52551.3
63263.1,52466.9
63300,52398
63336.9,52466.9
63406.1,52551.3
63490.5,52620.6
63586.8,52672.1
63691.3,52703.8
63800,52714.5
63908.7,52703.8
64013.2,52672.1
64109.5,52620.6
64193.9,52551.3
64263.1,52466.9
64300,52398
64336.9,52466.9
64406.1,52551.3
64490.5,52620.6
64586.8,52672.1
64691.3,52703.8
64800,52714.5
64908.7,52703.8
65013.2,52672.1
65109.5,52620.6
65193.9,52551.3
65263.1,52466.9
65300,52398
65336.9,52466.9
65406.1,52551.3
65490.5,52620.6
65586.8,52672.1
65691.3,52703.8
65800,52714.5
65908.7,52703.8
66013.2,52672.1
66109.5,52620.6
66193.9,52551.3
66263.1,52466.9
66300,52398
66336.9,52466.9
66406.1,52551.3
66490.5,52620.6
66586.8,52672.1
66691.3,52703.8
66800,52714.5
66908.7,52703.8
67013.2,52672.1
67109.5,52620.6
67193.9,52551.3
67263.1,52466.9
67300,52398
67336.9,52466.9
67406.1,52551.3
67490.5,52620.6
67586.8,52672.1
67691.3,52703.8
67800,52714.5
67908.7,52703.8
68013.2,52672.1
68109.5,52620.6
68193.9,52551.3
68263.1,52466.9
68295.1,52407.1
68336.5,52480.9
68408.5,52565.1
68495.5,52633.6
68594.3,52683.9
68634.9,52686.6
68719.7,52650.4
68719.7,52080.3
68711.8,52080.3
68711.8,51919.7
68719.7,51919.7
68719.7,51349.6
68634.9,51313.4
68594.3,51316.1
68495.5,51366.4
68408.5,51434.9
68336.5,51519.1
68295.1,51592.9
68263.1,51533.1
68193.9,51448.7
68109.5,51379.4
68013.2,51327.9
67908.7,51296.2
67800,51285.5
67691.3,51296.2
67586.8,51327.9
67490.5,51379.4
67406.1,51448.7
67336.9,51533.1
67300,51602
67263.1,51533.1
67193.9,51448.7
67109.5,51379.4
67013.2,51327.9
66908.7,51296.2
66800,51285.5
66691.3,51296.2
66586.8,51327.9
66490.5,51379.4
66406.1,51448.7
66336.9,51533.1
66300,51602
66263.1,51533.1
66193.9,51448.7
66109.5,51379.4
66013.2,51327.9
65908.7,51296.2
65800,51285.5
65691.3,51296.2
65586.8,51327.9
65490.5,51379.4
65406.1,51448.7
65336.9,51533.1
65300,51602
65263.1,51533.1
65193.9,51448.7
65109.5,51379.4
65013.2,51327.9
64908.7,51296.2
64800,51285.5
64691.3,51296.2
64586.8,51327.9
64490.5,51379.4
64406.1,51448.7
64336.9,51533.1
64300,51602
64263.1,51533.1
64193.9,51448.7
64109.5,51379.4
64013.2,51327.9
63908.7,51296.2
63800,51285.5
63691.3,51296.2
63586.8,51327.9
63490.5,51379.4
63406.1,51448.7
63336.9,51533.1
63300,51602
63263.1,51533.1
63193.9,51448.7
63109.5,51379.4
63013.2,51327.9
62908.7,51296.2
62800,51285.5
62691.3,51296.2
62586.8,51327.9
62490.5,51379.4
62406.1,51448.7
62336.9,51533.1
62300,51602
62263.1,51533.1
62193.9,51448.7
62109.5,51379.4
62013.2,51327.9
61908.7,51296.2
61800,51285.5
61691.3,51296.2
61586.8,51327.9
61490.5,51379.4
61406.1,51448.7
61336.9,51533.1
61300,51602
61263.1,51533.1
61193.9,51448.7
61109.5,51379.4
61013.2,51327.9
60908.7,51296.2
60800,51285.5
60691.3,51296.2
60586.8,51327.9
60490.5,51379.4
60406.1,51448.7
60336.9,51533.1
60300,51602
60263.1,51533.1
60193.9,51448.7
60109.5,51379.4
60013.2,51327.9
59908.7,51296.2
59800,51285.5
59691.3,51296.2
59586.8,51327.9
59490.5,51379.4
59406.1,51448.7
59336.9,51533.1
59300,51602
59263.1,51533.1
59193.9,51448.7
59109.5,51379.4
59013.2,51327.9
58908.7,51296.2
58800,51285.5
58691.3,51296.2
58586.8,51327.9
58490.5,51379.4
58406.1,51448.7
58336.9,51533.1
58300,51602
58263.1,51533.1
58193.9,51448.7
58109.5,51379.4
58013.2,51327.9
57908.7,51296.2
57800,51285.5
57691.3,51296.2
57586.8,51327.9
57490.5,51379.4
57406.1,51448.7
57336.9,51533.1
57300,51602
57263.1,51533.1
57193.9,51448.7
57109.5,51379.4
57013.2,51327.9
56908.7,51296.2
56800,51285.5
56691.3,51296.2
56586.8,51327.9
56490.5,51379.4
56406.1,51448.7
56336.9,51533.1
56300,51602
56263.1,51533.1
56193.9,51448.7
56109.5,51379.4
56013.2,51327.9
55908.7,51296.2
55800,51285.5
55691.3,51296.2
55586.8,51327.9
55490.5,51379.4
55406.1,51448.7
55336.9,51533.1
55300,51602
55263.1,51533.1
55193.9,51448.7
55109.5,51379.4
55013.2,51327.9
54908.7,51296.2
54800,51285.5
54691.3,51296.2
54586.8,51327.9
54490.5,51379.4
54406.1,51448.7
54336.9,51533.1
54304.9,51592.9
54263.5,51519.1
54191.5,51434.9
54104.5,51366.4
54005.7,51316.1
53965.1,51313.4
53880.3,51349.6
53719.7,51349.6
53634.9,51313.4
53594.3,51316.1
53495.5,51366.4
53408.5,51434.9
53336.5,51519.1
53282.3,51615.8
53248,51721.1
53234.9,51831.1
53229.5,51831.1
53229.5,50261.2
53245.3,50100.6
53288.7,49956.8
53359.2,49824.2
53454.1,49707.9
53569.8,49612.2
53701.9,49540.7
53845.3,49496.3
54005.4,49479.5
54006,49479.5
54016,49478.5
54026,49478.6
54029.2,49478.3
54174.8,49463
54195.2,49458.8
54215.6,49454.9
54218.7,49453.9
54218.7,49453.9
54358.5,49410.7
54377.7,49402.6
54397,49394.8
54399.8,49393.3
54399.8,49393.3
54399.8,49393.3
54528.6,49323.7
54545.8,49312
54563.2,49300.7
54565.7,49298.6
54678.5,49205.3
54693.1,49190.6
54708,49176
54710,49173.5
54802.6,49060.1
54814.1,49042.8
54825.8,49025.6
54827.4,49022.8
54896.1,48893.6
54904,48874.3
54912.2,48855.2
54913.1,48852.1
54913.1,48852.1
54913.1,48852.1
54955.4,48712
54959.5,48691.6
54963.8,48671.3
54964.1,48668.1
54978.4,48522.4
54978.4,48522.4
54979.5,48511.3
54979.5,47811.6
55502,47811.6
55639,47984.1
55884.6,48109.8
56150,48185.2
56425.1,48207.3
56699.2,48175.4
56961.7,48090.6
57161,47984.1
57298,47811.6
56400,46913.6
55502,47811.6
54979.5,47811.6
54979.5,46825.1
54992.7,46825.1
55024.6,47099.2
55109.4,47361.7
55215.9,47561
55388.4,47698
56286.4,46800
56513.6,46800
57411.6,47698
57584.1,47561
57709.8,47315.4
57744.5,47193.1
58769.7,47193.1
58802,47277
58899.8,47316
59003.3,47335.3
59024,47335
59001.5,47362.4
58981.1,47400.6
58968.5,47442
58964.3,47485
58964.3,48115
58968.5,48158
58981.1,48199.4
59001.5,48237.6
59028.9,48271.1
59062.4,48298.5
59100.6,48318.9
59142,48331.5
59185,48335.7
59815,48335.7
59858,48331.5
59899.4,48318.9
59937.6,48298.5
59971.1,48271.1
59998.5,48237.6
60018.9,48199.4
60025,48179.5
60060.8,48215.3
60148.3,48273.8
60245.6,48314.1
60348.9,48334.6
60454.2,48334.6
60557.5,48314.1
60654.8,48273.8
60742.4,48215.3
60816.9,48140.8
60852.4,48087.7
60887.9,48140.8
60962.3,48215.3
61049.9,48273.8
61147.2,48314.1
61250.5,48334.6
61355.8,48334.6
61459.1,48314.1
61556.4,48273.8
61644,48215.3
61718.4,48140.8
61753.9,48087.7
61789.4,48140.8
61863.9,48215.3
61951.5,48273.8
62048.8,48314.1
62152.1,48334.6
62257.4,48334.6
62360.7,48314.1
62458,48273.8
62545.5,48215.3
62567.8,48193.1
62826.8,48193.1
62859,48277
62956.8,48316
63060.4,48335.3
63165.7,48333.9
63268.7,48312.1
63353.6,48277
63385.8,48193.1
63106.3,47913.6
62826.8,48193.1
62567.8,48193.1
62620,48140.8
62671.7,48063.5
62713.2,48079.5
62992.7,47800
63219.9,47800
63499.4,48079.5
63583.3,48047.3
63622.3,47949.5
63641.6,47845.9
63641.1,47811.6
65302,47811.6
65439,47984.1
65684.6,48109.8
65950,48185.2
66225.1,48207.3
66499.2,48175.4
66761.7,48090.6
66961,47984.1
67098,47811.6
66200,46913.6
65302,47811.6
63641.1,47811.6
63640.2,47740.6
63618.4,47637.6
63583.3,47552.7
63499.4,47520.5
63219.9,47800
62992.7,47800
62713.2,47520.5
62671.7,47536.5
62620,47459.2
62567.8,47406.9
62826.8,47406.9
63106.3,47686.4
63385.8,47406.9
63353.6,47323
63255.8,47284
63152.2,47264.7
63046.9,47266.1
62943.9,47287.9
62859,47323
62826.8,47406.9
62567.8,47406.9
62545.5,47384.7
62458,47326.2
62360.7,47285.9
62257.4,47265.4
62152.1,47265.4
62048.8,47285.9
61951.5,47326.2
61863.9,47384.7
61789.4,47459.2
61753.9,47512.3
61718.4,47459.2
61644,47384.7
61556.4,47326.2
61459.1,47285.9
61355.8,47265.4
61250.5,47265.4
61147.2,47285.9
61049.9,47326.2
60962.3,47384.7
60887.9,47459.2
60852.4,47512.3
60816.9,47459.2
60742.4,47384.7
60654.8,47326.2
60557.5,47285.9
60454.2,47265.4
60348.9,47265.4
60245.6,47285.9
60148.3,47326.2
60060.8,47384.7
60025,47420.5
60018.9,47400.6
59998.5,47362.4
59975.5,47334.4
60010.2,47333.9
60113.2,47312.1
60198,47277
60230.3,47193.1
60572.9,47193.1
60605.1,47277
60702.9,47316
60806.5,47335.3
60911.8,47333.9
61014.8,47312.1
61099.6,47277
61131.9,47193.1
60852.4,46913.6
60572.9,47193.1
60230.3,47193.1
59950.8,46913.6
59671.3,47193.1
59698.7,47264.3
59301.3,47264.3
59328.7,47193.1
59049.2,46913.6
58769.7,47193.1
57744.5,47193.1
57785.2,47050
57807.3,46774.9
57804.9,46754.1
58513.9,46754.1
58515.3,46859.4
58537.1,46962.4
58572.3,47047.3
58656.1,47079.5
58935.6,46800
59162.8,46800
59442.3,47079.5
59500,47057.3
59557.7,47079.5
59837.2,46800
60064.4,46800
60343.9,47079.5
60401.6,47057.3
60459.3,47079.5
60738.8,46800
60965.9,46800
61245.4,47079.5
61287,47063.5
61338.7,47140.8
61413.1,47215.3
61500.7,47273.8
61598,47314.1
61701.3,47334.6
61806.6,47334.6
61909.9,47314.1
62007.2,47273.8
62094.8,47215.3
62117,47193.1
62376,47193.1
62408.3,47277
62506.1,47316
62609.6,47335.3
62714.9,47333.9
62817.9,47312.1
62902.8,47277
62935,47193.1
62655.5,46913.6
62376,47193.1
62117,47193.1
62169.2,47140.8
62220.9,47063.5
62262.4,47079.5
62541.9,46800
62769.1,46800
63048.6,47079.5
63132.5,47047.3
63171.5,46949.5
63190.8,46845.9
63190.5,46825.1
64792.7,46825.1
64824.6,47099.2
64909.4,47361.7
65015.9,47561
65188.4,47698
66086.4,46800
65188.4,45902
65015.9,46039
64890.2,46284.6
64814.8,46550
64792.7,46825.1
63190.5,46825.1
63189.5,46740.6
63167.6,46637.6
63132.5,46552.7
63048.6,46520.5
62769.1,46800
62541.9,46800
62262.4,46520.5
62220.9,46536.5
62169.2,46459.2
62117,46406.9
62376,46406.9
62655.5,46686.4
62935,46406.9
62902.8,46323
62805,46284
62701.4,46264.7
62596.1,46266.1
62493.1,46287.9
62408.3,46323
62376,46406.9
62117,46406.9
62094.8,46384.7
62007.2,46326.2
61909.9,46285.9
61806.6,46265.4
61701.3,46265.4
61598,46285.9
61500.7,46326.2
61413.1,46384.7
61338.7,46459.2
61287,46536.5
61245.4,46520.5
60965.9,46800
60738.8,46800
60459.3,46520.5
60401.6,46542.7
60343.9,46520.5
60064.4,46800
59837.2,46800
59557.7,46520.5
59500,46542.7
59442.3,46520.5
59162.8,46800
58935.6,46800
58656.1,46520.5
58572.3,46552.7
58533.2,46650.5
58513.9,46754.1
57804.9,46754.1
57775.4,46500.8
57745.1,46406.9
58769.7,46406.9
59049.2,46686.4
59328.7,46406.9
59671.3,46406.9
59950.8,46686.4
60230.3,46406.9
60572.9,46406.9
60852.4,46686.4
61131.9,46406.9
61099.6,46323
61001.8,46284
60898.3,46264.7
60793,46266.1
60689.9,46287.9
60605.1,46323
60572.9,46406.9
60230.3,46406.9
60198,46323
60100.2,46284
59996.7,46264.7
59891.4,46266.1
59788.4,46287.9
59703.5,46323
59671.3,46406.9
59328.7,46406.9
59296.5,46323
59198.7,46284
59095.1,46264.7
58989.8,46266.1
58886.8,46287.9
58802,46323
58769.7,46406.9
57745.1,46406.9
57690.6,46238.3
57584.1,46039
57411.6,45902
56513.6,46800
56286.4,46800
55388.4,45902
55215.9,46039
55090.2,46284.6
55014.8,46550
54992.7,46825.1
54979.5,46825.1
54979.5,45788.4
55502,45788.4
56400,46686.4
57298,45788.4
57265.4,45747.3
58965.4,45747.3
58965.4,45852.7
58985.9,45956
59026.2,46053.2
59084.7,46140.8
59159.2,46215.3
59246.8,46273.8
59344,46314.1
59447.3,46334.6
59552.7,46334.6
59656,46314.1
59753.2,46273.8
59840.8,46215.3
59915.3,46140.8
59950.8,46087.7
59986.3,46140.8
60060.8,46215.3
60148.3,46273.8
60245.6,46314.1
60348.9,46334.6
60454.2,46334.6
60557.5,46314.1
60654.8,46273.8
60742.4,46215.3
60816.9,46140.8
60852.4,46087.7
60887.9,46140.8
60962.3,46215.3
61049.9,46273.8
61147.2,46314.1
61250.5,46334.6
61355.8,46334.6
61459.1,46314.1
61556.4,46273.8
61644,46215.3
61718.4,46140.8
61753.9,46087.7
61789.4,46140.8
61863.9,46215.3
61951.5,46273.8
62048.8,46314.1
62152.1,46334.6
62257.4,46334.6
62360.7,46314.1
62458,46273.8
62545.5,46215.3
62620,46140.8
62655.5,46087.7
62691,46140.8
62765.5,46215.3
62853,46273.8
62950.3,46314.1
63053.6,46334.6
63159,46334.6
63262.2,46314.1
63359.5,46273.8
63447.1,46215.3
63521.6,46140.8
63580.1,46053.2
63620.4,45956
63640.9,45852.7
63640.9,45788.4
65302,45788.4
66200,46686.4
67098,45788.4
66961,45615.9
66715.4,45490.2
66450,45414.8
66174.9,45392.7
65900.8,45424.6
65638.3,45509.4
65439,45615.9
65302,45788.4
63640.9,45788.4
63640.9,45747.3
63620.4,45644
63580.1,45546.8
63521.6,45459.2
63447.1,45384.7
63359.5,45326.2
63262.2,45285.9
63159,45265.4
63053.6,45265.4
62950.3,45285.9
62853,45326.2
62765.5,45384.7
62691,45459.2
62655.5,45512.3
62620,45459.2
62545.5,45384.7
62458,45326.2
62360.7,45285.9
62257.4,45265.4
62152.1,45265.4
62048.8,45285.9
61951.5,45326.2
61863.9,45384.7
61789.4,45459.2
61753.9,45512.3
61718.4,45459.2
61644,45384.7
61556.4,45326.2
61459.1,45285.9
61355.8,45265.4
61250.5,45265.4
61147.2,45285.9
61049.9,45326.2
60962.3,45384.7
60887.9,45459.2
60852.4,45512.3
60816.9,45459.2
60742.4,45384.7
60654.8,45326.2
60557.5,45285.9
60454.2,45265.4
60348.9,45265.4
60245.6,45285.9
60148.3,45326.2
60060.8,45384.7
59986.3,45459.2
59950.8,45512.3
59915.3,45459.2
59840.8,45384.7
59753.2,45326.2
59656,45285.9
59552.7,45265.4
59447.3,45265.4
59344,45285.9
59246.8,45326.2
59159.2,45384.7
59084.7,45459.2
59026.2,45546.8
58985.9,45644
58965.4,45747.3
57265.4,45747.3
57161,45615.9
56915.4,45490.2
56650,45414.8
56374.9,45392.7
56100.8,45424.6
55838.3,45509.4
55639,45615.9
55502,45788.4
54979.5,45788.4
54979.5,43011.2
54995.3,42850.6
55038.7,42706.8
55109.2,42574.2
55204.1,42457.9
55319.8,42362.2
55451.9,42290.7
55595.3,42246.3
55755.3,42229.5
66738.8,42229.5
Z" /> 
</g>
</g>
<g style="fill:#FFFFFF; fill-opacity:1.0; 
stroke:#FFFFFF; stroke-width:39.3701; stroke-opacity:1; 
stroke-linecap:round; stroke-linejoin:round;">
</g>
<g style="fill:#FFFFFF; fill-opacity:1.0; 
stroke:#FFFFFF; stroke-width:0; stroke-opacity:1; 
stroke-linecap:round; stroke-linejoin:round;">
<circle cx="66200" cy="46800" r="68.8976" /> 
</g>
<g style="fill:#FFFFFF; fill-opacity:1.0; 
stroke:#FFFFFF; stroke-width:39.3701; stroke-opacity:1; 
stroke-linecap:round; stroke-linejoin:round;">
</g>
<g style="fill:#FFFFFF; fill-opacity:1.0; 
stroke:#FFFFFF; stroke-width:0; stroke-opacity:1; 
stroke-linecap:round; stroke-linejoin:round;">
<circle cx="56400" cy="46800" r="68.8976" /> 
</g>
<g style="fill:#FFFFFF; fill-opacity:1.0; 
stroke:#FFFFFF; stroke-width:39.3701; stroke-opacity:1; 
stroke-linecap:round; stroke-linejoin:round;">
</g>
<g style="fill:#FFFFFF; fill-opacity:1.0; 
stroke:#FFFFFF; stroke-width:0; stroke-opacity:1; 
stroke-linecap:round; stroke-linejoin:round;">
<circle cx="53800" cy="52000" r="68.8976" /> 
</g>
<g style="fill:#FFFFFF; fill-opacity:1.0; 
stroke:#FFFFFF; stroke-width:39.3701; stroke-opacity:1; 
stroke-linecap:round; stroke-linejoin:round;">
</g>
<g style="fill:#FFFFFF; fill-opacity:1.0; 
stroke:#FFFFFF; stroke-width:0; stroke-opacity:1; 
stroke-linecap:round; stroke-linejoin:round;">
<circle cx="54800" cy="52000" r="68.8976" /> 
</g>
<g style="fill:#FFFFFF; fill-opacity:1.0; 
stroke:#FFFFFF; stroke-width:39.3701; stroke-opacity:1; 
stroke-linecap:round; stroke-linejoin:round;">
</g>
<g style="fill:#FFFFFF; fill-opacity:1.0; 
stroke:#FFFFFF; stroke-width:0; stroke-opacity:1; 
stroke-linecap:round; stroke-linejoin:round;">
<circle cx="55800" cy="52000" r="68.8976" /> 
</g>
<g style="fill:#FFFFFF; fill-opacity:1.0; 
stroke:#FFFFFF; stroke-width:39.3701; stroke-opacity:1; 
stroke-linecap:round; stroke-linejoin:round;">
</g>
<g style="fill:#FFFFFF; fill-opacity:1.0; 
stroke:#FFFFFF; stroke-width:0; stroke-opacity:1; 
stroke-linecap:round; stroke-linejoin:round;">
<circle cx="56800" cy="52000" r="68.8976" /> 
</g>
<g style="fill:#FFFFFF; fill-opacity:1.0; 
stroke:#FFFFFF; stroke-width:39.3701; stroke-opacity:1; 
stroke-linecap:round; stroke-linejoin:round;">
</g>
<g style="fill:#FFFFFF; fill-opacity:1.0; 
stroke:#FFFFFF; stroke-width:0; stroke-opacity:1; 
stroke-linecap:round; stroke-linejoin:round;">
<circle cx="57800" cy="52000" r="68.8976" /> 
</g>
<g style="fill:#FFFFFF; fill-opacity:1.0; 
stroke:#FFFFFF; stroke-width:39.3701; stroke-opacity:1; 
stroke-linecap:round; stroke-linejoin:round;">
</g>
<g style="fill:#FFFFFF; fill-opacity:1.0; 
stroke:#FFFFFF; stroke-width:0; stroke-opacity:1; 
stroke-linecap:round; stroke-linejoin:round;">
<circle cx="58800" cy="52000" r="68.8976" /> 
</g>
<g style="fill:#FFFFFF; fill-opacity:1.0; 
stroke:#FFFFFF; stroke-width:39.3701; stroke-opacity:1; 
stroke-linecap:round; stroke-linejoin:round;">
</g>
<g style="fill:#FFFFFF; fill-opacity:1.0; 
stroke:#FFFFFF; stroke-width:0; stroke-opacity:1; 
stroke-linecap:round; stroke-linejoin:round;">
<circle cx="59800" cy="52000" r="68.8976" /> 
</g>
<g style="fill:#FFFFFF; fill-opacity:1.0; 
stroke:#FFFFFF; stroke-width:39.3701; stroke-opacity:1; 
stroke-linecap:round; stroke-linejoin:round;">
</g>
<g style="fill:#FFFFFF; fill-opacity:1.0; 
stroke:#FFFFFF; stroke-width:0; stroke-opacity:1; 
stroke-linecap:round; stroke-linejoin:round;">
<circle cx="60800" cy="52000" r="68.8976" /> 
</g>
<g style="fill:#FFFFFF; fill-opacity:1.0; 
stroke:#FFFFFF; stroke-width:39.3701; stroke-opacity:1; 
stroke-linecap:round; stroke-linejoin:round;">
</g>
<g style="fill:#FFFFFF; fill-opacity:1.0; 
stroke:#FFFFFF; stroke-width:0; stroke-opacity:1; 
stroke-linecap:round; stroke-linejoin:round;">
<circle cx="61800" cy="52000" r="68.8976" /> 
</g>
<g style="fill:#FFFFFF; fill-opacity:1.0; 
stroke:#FFFFFF; stroke-width:39.3701; stroke-opacity:1; 
stroke-linecap:round; stroke-linejoin:round;">
</g>
<g style="fill:#FFFFFF; fill-opacity:1.0; 
stroke:#FFFFFF; stroke-width:0; stroke-opacity:1; 
stroke-linecap:round; stroke-linejoin:round;">
<circle cx="62800" cy="52000" r="68.8976" /> 
</g>
<g style="fill:#FFFFFF; fill-opacity:1.0; 
stroke:#FFFFFF; stroke-width:39.3701; stroke-opacity:1; 
stroke-linecap:round; stroke-linejoin:round;">
</g>
<g style="fill:#FFFFFF; fill-opacity:1.0; 
stroke:#FFFFFF; stroke-width:0; stroke-opacity:1; 
stroke-linecap:round; stroke-linejoin:round;">
<circle cx="63800" cy="52000" r="68.8976" /> 
</g>
<g style="fill:#FFFFFF; fill-opacity:1.0; 
stroke:#FFFFFF; stroke-width:39.3701; stroke-opacity:1; 
stroke-linecap:round; stroke-linejoin:round;">
</g>
<g style="fill:#FFFFFF; fill-opacity:1.0; 
stroke:#FFFFFF; stroke-width:0; stroke-opacity:1; 
stroke-linecap:round; stroke-linejoin:round;">
<circle cx="64800" cy="52000" r="68.8976" /> 
</g>
<g style="fill:#FFFFFF; fill-opacity:1.0; 
stroke:#FFFFFF; stroke-width:39.3701; stroke-opacity:1; 
stroke-linecap:round; stroke-linejoin:round;">
</g>
<g style="fill:#FFFFFF; fill-opacity:1.0; 
stroke:#FFFFFF; stroke-width:0; stroke-opacity:1; 
stroke-linecap:round; stroke-linejoin:round;">
<circle cx="65800" cy="52000" r="68.8976" /> 
</g>
<g style="fill:#FFFFFF; fill-opacity:1.0; 
stroke:#FFFFFF; stroke-width:39.3701; stroke-opacity:1; 
stroke-linecap:round; stroke-linejoin:round;">
</g>
<g style="fill:#FFFFFF; fill-opacity:1.0; 
stroke:#FFFFFF; stroke-width:0; stroke-opacity:1; 
stroke-linecap:round; stroke-linejoin:round;">
<circle cx="66800" cy="52000" r="68.8976" /> 
</g>
<g style="fill:#FFFFFF; fill-opacity:1.0; 
stroke:#FFFFFF; stroke-width:39.3701; stroke-opacity:1; 
stroke-linecap:round; stroke-linejoin:round;">
</g>
<g style="fill:#FFFFFF; fill-opacity:1.0; 
stroke:#FFFFFF; stroke-width:0; stroke-opacity:1; 
stroke-linecap:round; stroke-linejoin:round;">
<circle cx="67800" cy="52000" r="68.8976" /> 
</g>
<g style="fill:#FFFFFF; fill-opacity:1.0; 
stroke:#FFFFFF; stroke-width:39.3701; stroke-opacity:1; 
stroke-linecap:round; stroke-linejoin:round;">
</g>
<g style="fill:#FFFFFF; fill-opacity:1.0; 
stroke:#FFFFFF; stroke-width:0; stroke-opacity:1; 
stroke-linecap:round; stroke-linejoin:round;">
<circle cx="68800" cy="52000" r="68.8976" /> 
</g>
<g style="fill:#FFFFFF; fill-opacity:1.0; 
stroke:#FFFFFF; stroke-width:39.3701; stroke-opacity:1; 
stroke-linecap:round; stroke-linejoin:round;">
</g>
<g style="fill:#FFFFFF; fill-opacity:1.0; 
stroke:#FFFFFF; stroke-width:0; stroke-opacity:1; 
stroke-linecap:round; stroke-linejoin:round;">
<circle cx="59500" cy="47800" r="68.8976" /> 
</g>
<g style="fill:#FFFFFF; fill-opacity:1.0; 
stroke:#FFFFFF; stroke-width:39.3701; stroke-opacity:1; 
stroke-linecap:round; stroke-linejoin:round;">
</g>
<g style="fill:#FFFFFF; fill-opacity:1.0; 
stroke:#FFFFFF; stroke-width:0; stroke-opacity:1; 
stroke-linecap:round; stroke-linejoin:round;">
<circle cx="60401.6" cy="47800" r="68.8976" /> 
</g>
<g style="fill:#FFFFFF; fill-opacity:1.0; 
stroke:#FFFFFF; stroke-width:39.3701; stroke-opacity:1; 
stroke-linecap:round; stroke-linejoin:round;">
</g>
<g style="fill:#FFFFFF; fill-opacity:1.0; 
stroke:#FFFFFF; stroke-width:0; stroke-opacity:1; 
stroke-linecap:round; stroke-linejoin:round;">
<circle cx="61303.1" cy="47800" r="68.8976" /> 
</g>
<g style="fill:#FFFFFF; fill-opacity:1.0; 
stroke:#FFFFFF; stroke-width:39.3701; stroke-opacity:1; 
stroke-linecap:round; stroke-linejoin:round;">
</g>
<g style="fill:#FFFFFF; fill-opacity:1.0; 
stroke:#FFFFFF; stroke-width:0; stroke-opacity:1; 
stroke-linecap:round; stroke-linejoin:round;">
<circle cx="62204.7" cy="47800" r="68.8976" /> 
</g>
<g style="fill:#FFFFFF; fill-opacity:1.0; 
stroke:#FFFFFF; stroke-width:39.3701; stroke-opacity:1; 
stroke-linecap:round; stroke-linejoin:round;">
</g>
<g style="fill:#FFFFFF; fill-opacity:1.0; 
stroke:#FFFFFF; stroke-width:0; stroke-opacity:1; 
stroke-linecap:round; stroke-linejoin:round;">
<circle cx="63106.3" cy="47800" r="68.8976" /> 
</g>
<g style="fill:#FFFFFF; fill-opacity:1.0; 
stroke:#FFFFFF; stroke-width:39.3701; stroke-opacity:1; 
stroke-linecap:round; stroke-linejoin:round;">
</g>
<g style="fill:#FFFFFF; fill-opacity:1.0; 
stroke:#FFFFFF; stroke-width:0; stroke-opacity:1; 
stroke-linecap:round; stroke-linejoin:round;">
<circle cx="59049.2" cy="46800" r="68.8976" /> 
</g>
<g style="fill:#FFFFFF; fill-opacity:1.0; 
stroke:#FFFFFF; stroke-width:39.3701; stroke-opacity:1; 
stroke-linecap:round; stroke-linejoin:round;">
</g>
<g style="fill:#FFFFFF; fill-opacity:1.0; 
stroke:#FFFFFF; stroke-width:0; stroke-opacity:1; 
stroke-linecap:round; stroke-linejoin:round;">
<circle cx="59950.8" cy="46800" r="68.8976" /> 
</g>
<g style="fill:#FFFFFF; fill-opacity:1.0; 
stroke:#FFFFFF; stroke-width:39.3701; stroke-opacity:1; 
stroke-linecap:round; stroke-linejoin:round;">
</g>
<g style="fill:#FFFFFF; fill-opacity:1.0; 
stroke:#FFFFFF; stroke-width:0; stroke-opacity:1; 
stroke-linecap:round; stroke-linejoin:round;">
<circle cx="60852.4" cy="46800" r="68.8976" /> 
</g>
<g style="fill:#FFFFFF; fill-opacity:1.0; 
stroke:#FFFFFF; stroke-width:39.3701; stroke-opacity:1; 
stroke-linecap:round; stroke-linejoin:round;">
</g>
<g style="fill:#FFFFFF; fill-opacity:1.0; 
stroke:#FFFFFF; stroke-width:0; stroke-opacity:1; 
stroke-linecap:round; stroke-linejoin:round;">
<circle cx="61753.9" cy="46800" r="68.8976" /> 
</g>
<g style="fill:#FFFFFF; fill-opacity:1.0; 
stroke:#FFFFFF; stroke-width:39.3701; stroke-opacity:1; 
stroke-linecap:round; stroke-linejoin:round;">
</g>
<g style="fill:#FFFFFF; fill-opacity:1.0; 
stroke:#FFFFFF; stroke-width:0; stroke-opacity:1; 
stroke-linecap:round; stroke-linejoin:round;">
<circle cx="62655.5" cy="46800" r="68.8976" /> 
</g>
<g style="fill:#FFFFFF; fill-opacity:1.0; 
stroke:#FFFFFF; stroke-width:39.3701; stroke-opacity:1; 
stroke-linecap:round; stroke-linejoin:round;">
</g>
<g style="fill:#FFFFFF; fill-opacity:1.0; 
stroke:#FFFFFF; stroke-width:0; stroke-opacity:1; 
stroke-linecap:round; stroke-linejoin:round;">
<circle cx="59500" cy="45800" r="68.8976" /> 
</g>
<g style="fill:#FFFFFF; fill-opacity:1.0; 
stroke:#FFFFFF; stroke-width:39.3701; stroke-opacity:1; 
stroke-linecap:round; stroke-linejoin:round;">
</g>
<g style="fill:#FFFFFF; fill-opacity:1.0; 
stroke:#FFFFFF; stroke-width:0; stroke-opacity:1; 
stroke-linecap:round; stroke-linejoin:round;">
<circle cx="60401.6" cy="45800" r="68.8976" /> 
</g>
<g style="fill:#FFFFFF; fill-opacity:1.0; 
stroke:#FFFFFF; stroke-width:39.3701; stroke-opacity:1; 
stroke-linecap:round; stroke-linejoin:round;">
</g>
<g style="fill:#FFFFFF; fill-opacity:1.0; 
stroke:#FFFFFF; stroke-width:0; stroke-opacity:1; 
stroke-linecap:round; stroke-linejoin:round;">
<circle cx="61303.1" cy="45800" r="68.8976" /> 
</g>
<g style="fill:#FFFFFF; fill-opacity:1.0; 
stroke:#FFFFFF; stroke-width:39.3701; stroke-opacity:1; 
stroke-linecap:round; stroke-linejoin:round;">
</g>
<g style="fill:#FFFFFF; fill-opacity:1.0; 
stroke:#FFFFFF; stroke-width:0; stroke-opacity:1; 
stroke-linecap:round; stroke-linejoin:round;">
<circle cx="62204.7" cy="45800" r="68.8976" /> 
</g>
<g style="fill:#FFFFFF; fill-opacity:1.0; 
stroke:#FFFFFF; stroke-width:39.3701; stroke-opacity:1; 
stroke-linecap:round; stroke-linejoin:round;">
</g>
<g style="fill:#FFFFFF; fill-opacity:1.0; 
stroke:#FFFFFF; stroke-width:0; stroke-opacity:1; 
stroke-linecap:round; stroke-linejoin:round;">
<circle cx="63106.3" cy="45800" r="68.8976" /> 
</g>
<g style="fill:#FFFFFF; fill-opacity:1.0; 
stroke:#FFFFFF; stroke-width:39.3701; stroke-opacity:1; 
stroke-linecap:round; stroke-linejoin:round;">
</g>
<g style="fill:#000000; fill-opacity:1.0; 
stroke:#000000; stroke-width:39.3701; stroke-opacity:1; 
stroke-linecap:round; stroke-linejoin:round;">
</g> 
</svg>
