<?xml version="1.0" standalone="no"?>
 <!DOCTYPE svg PUBLIC "-//W3C//DTD SVG 1.1//EN" 
 "http://www.w3.org/Graphics/SVG/1.1/DTD/svg11.dtd"> 
<svg xmlns="http://www.w3.org/2000/svg" version="1.1" 
    width="29.7002cm" height="21.0007cm" viewBox="0 0 116930 82680 ">
<title>SVG Picture created as VGA-F_SilkS.svg date 2019/12/13 15:11:35 </title>
  <desc>Picture generated by PCBNEW </desc>
<g style="fill:#000000; fill-opacity:1;stroke:#000000; stroke-opacity:1;
stroke-linecap:round; stroke-linejoin:round; "
 transform="translate(0 0) scale(1 1)">
</g>
<g style="fill:#000000; fill-opacity:0.0; 
stroke:#000000; stroke-width:-0.000393701; stroke-opacity:1; 
stroke-linecap:round; stroke-linejoin:round;">
</g>
<g style="fill:#000000; fill-opacity:0.0; 
stroke:#000000; stroke-width:19.685; stroke-opacity:1; 
stroke-linecap:round; stroke-linejoin:round;">
<path d="M54000 49250 A750 750 0.0 0 0 54750 48500 " />
<path d="M54000 49250 A1000 1000 0.0 0 0 53000 50250 " />
<path d="M67750 48500 A750 750 0.0 0 0 68500 49250 " />
<path d="M53000 52750
L53000 50250
" />
<path d="M69500 50250 A1000 1000 0.0 0 0 68500 49250 " />
<path d="M69500 52750
L69500 50250
" />
</g>
<g style="fill:#000000; fill-opacity:0.0; 
stroke:#000000; stroke-width:118.11; stroke-opacity:1; 
stroke-linecap:round; stroke-linejoin:round;">
<text x="61100" y="44793.7"
textLength="4777.37" font-size="1049.87" lengthAdjust="spacingAndGlyphs"
text-anchor="middle" opacity="0">DE-15F</text>
<path d="M58962 44756
L58962 43968
L59150 43968
L59262 44006
L59337 44081
L59375 44156
L59412 44306
L59412 44418
L59375 44568
L59337 44643
L59262 44718
L59150 44756
L58962 44756
" />
<path d="M59750 44343
L60012 44343
" />
<path d="M60125 44756
L59750 44756
L59750 43968
L60125 43968
" />
<path d="M60462 44456
L61062 44456
" />
<path d="M61849 44756
L61399 44756
" />
<path d="M61624 44756
L61624 43968
L61549 44081
L61474 44156
L61399 44193
" />
<path d="M62562 43968
L62187 43968
L62149 44343
L62187 44306
L62262 44268
L62449 44268
L62524 44306
L62562 44343
L62599 44418
L62599 44606
L62562 44681
L62524 44718
L62449 44756
L62262 44756
L62187 44718
L62149 44681
" />
<path d="M63199 44343
L62937 44343
" />
<path d="M62937 44756
L62937 43968
L63312 43968
" />
</g>
<g style="fill:#000000; fill-opacity:0.0; 
stroke:#000000; stroke-width:59.0551; stroke-opacity:1; 
stroke-linecap:round; stroke-linejoin:round;">
<g transform="rotate(-90 53800 50500)">
<text x="53800" y="50696.9"
textLength="1353.39" font-size="524.934" lengthAdjust="spacingAndGlyphs"
text-anchor="middle" opacity="0">GND</text>
</g>
<path d="M53603 50799
L53584 50837
L53584 50893
L53603 50949
L53640 50987
L53678 51006
L53753 51024
L53809 51024
L53884 51006
L53921 50987
L53959 50949
L53978 50893
L53978 50856
L53959 50799
L53940 50781
L53809 50781
L53809 50856
" />
<path d="M53978 50612
L53584 50612
L53978 50387
L53584 50387
" />
<path d="M53978 50200
L53584 50200
L53584 50106
L53603 50050
L53640 50012
L53678 49993
L53753 49975
L53809 49975
L53884 49993
L53921 50012
L53959 50050
L53978 50106
L53978 50200
" />
<g transform="rotate(-90 68800 50500)">
<text x="68800" y="50696.9"
textLength="1276.62" font-size="524.934" lengthAdjust="spacingAndGlyphs"
text-anchor="middle" opacity="0">GND</text>
</g>
<path d="M68603 50799
L68584 50837
L68584 50893
L68603 50949
L68640 50987
L68678 51006
L68753 51024
L68809 51024
L68884 51006
L68921 50987
L68959 50949
L68978 50893
L68978 50856
L68959 50799
L68940 50781
L68809 50781
L68809 50856
" />
<path d="M68978 50612
L68584 50612
L68978 50387
L68584 50387
" />
<path d="M68978 50200
L68584 50200
L68584 50106
L68603 50050
L68640 50012
L68678 49993
L68753 49975
L68809 49975
L68884 49993
L68921 50012
L68959 50050
L68978 50106
L68978 50200
" />
</g>
<g style="fill:#000000; fill-opacity:0.0; 
stroke:#000000; stroke-width:19.685; stroke-opacity:1; 
stroke-linecap:round; stroke-linejoin:round;">
<path d="M55750 42000 A1000 1000 0.0 0 0 54750 43000 " />
<path d="M67750 43000 A1000 1000 0.0 0 0 66750 42000 " />
<path d="M69250 53000 A250 250 0.0 0 0 69500 52750 " />
<path d="M53000 52750 A250 250 0.0 0 0 53250 53000 " />
</g>
<g style="fill:#000000; fill-opacity:0.0; 
stroke:#000000; stroke-width:59.0551; stroke-opacity:1; 
stroke-linecap:round; stroke-linejoin:round;">
<text x="65800" y="49796.9"
textLength="845.426" font-size="524.934" lengthAdjust="spacingAndGlyphs"
text-anchor="middle" opacity="0">B0</text>
<path d="M65640 49571
L65696 49590
L65715 49609
L65734 49646
L65734 49703
L65715 49740
L65696 49759
L65659 49778
L65509 49778
L65509 49384
L65640 49384
L65678 49403
L65696 49421
L65715 49459
L65715 49496
L65696 49534
L65678 49553
L65640 49571
L65509 49571
" />
<path d="M65978 49384
L66015 49384
L66053 49403
L66071 49421
L66090 49459
L66109 49534
L66109 49628
L66090 49703
L66071 49740
L66053 49759
L66015 49778
L65978 49778
L65940 49759
L65921 49740
L65903 49703
L65884 49628
L65884 49534
L65903 49459
L65921 49421
L65940 49403
L65978 49384
" />
<text x="64800" y="49796.9"
textLength="845.426" font-size="524.934" lengthAdjust="spacingAndGlyphs"
text-anchor="middle" opacity="0">B1</text>
<path d="M64640 49571
L64696 49590
L64715 49609
L64734 49646
L64734 49703
L64715 49740
L64696 49759
L64659 49778
L64509 49778
L64509 49384
L64640 49384
L64678 49403
L64696 49421
L64715 49459
L64715 49496
L64696 49534
L64678 49553
L64640 49571
L64509 49571
" />
<path d="M65109 49778
L64884 49778
" />
<path d="M64996 49778
L64996 49384
L64959 49440
L64921 49478
L64884 49496
" />
<text x="63800" y="49796.9"
textLength="845.426" font-size="524.934" lengthAdjust="spacingAndGlyphs"
text-anchor="middle" opacity="0">B2</text>
<path d="M63640 49571
L63696 49590
L63715 49609
L63734 49646
L63734 49703
L63715 49740
L63696 49759
L63659 49778
L63509 49778
L63509 49384
L63640 49384
L63678 49403
L63696 49421
L63715 49459
L63715 49496
L63696 49534
L63678 49553
L63640 49571
L63509 49571
" />
<path d="M63884 49421
L63903 49403
L63940 49384
L64034 49384
L64071 49403
L64090 49421
L64109 49459
L64109 49496
L64090 49553
L63865 49778
L64109 49778
" />
<text x="62800" y="49796.9"
textLength="845.426" font-size="524.934" lengthAdjust="spacingAndGlyphs"
text-anchor="middle" opacity="0">B3</text>
<path d="M62640 49571
L62696 49590
L62715 49609
L62734 49646
L62734 49703
L62715 49740
L62696 49759
L62659 49778
L62509 49778
L62509 49384
L62640 49384
L62678 49403
L62696 49421
L62715 49459
L62715 49496
L62696 49534
L62678 49553
L62640 49571
L62509 49571
" />
<path d="M62865 49384
L63109 49384
L62978 49534
L63034 49534
L63071 49553
L63090 49571
L63109 49609
L63109 49703
L63090 49740
L63071 49759
L63034 49778
L62921 49778
L62884 49759
L62865 49740
" />
<text x="61800" y="49796.9"
textLength="845.426" font-size="524.934" lengthAdjust="spacingAndGlyphs"
text-anchor="middle" opacity="0">G0</text>
<path d="M61715 49403
L61678 49384
L61621 49384
L61565 49403
L61528 49440
L61509 49478
L61490 49553
L61490 49609
L61509 49684
L61528 49721
L61565 49759
L61621 49778
L61659 49778
L61715 49759
L61734 49740
L61734 49609
L61659 49609
" />
<path d="M61978 49384
L62015 49384
L62053 49403
L62071 49421
L62090 49459
L62109 49534
L62109 49628
L62090 49703
L62071 49740
L62053 49759
L62015 49778
L61978 49778
L61940 49759
L61921 49740
L61903 49703
L61884 49628
L61884 49534
L61903 49459
L61921 49421
L61940 49403
L61978 49384
" />
<text x="60800" y="49796.9"
textLength="845.426" font-size="524.934" lengthAdjust="spacingAndGlyphs"
text-anchor="middle" opacity="0">G1</text>
<path d="M60715 49403
L60678 49384
L60621 49384
L60565 49403
L60528 49440
L60509 49478
L60490 49553
L60490 49609
L60509 49684
L60528 49721
L60565 49759
L60621 49778
L60659 49778
L60715 49759
L60734 49740
L60734 49609
L60659 49609
" />
<path d="M61109 49778
L60884 49778
" />
<path d="M60996 49778
L60996 49384
L60959 49440
L60921 49478
L60884 49496
" />
<text x="59800" y="49796.9"
textLength="845.426" font-size="524.934" lengthAdjust="spacingAndGlyphs"
text-anchor="middle" opacity="0">G2</text>
<path d="M59715 49403
L59678 49384
L59621 49384
L59565 49403
L59528 49440
L59509 49478
L59490 49553
L59490 49609
L59509 49684
L59528 49721
L59565 49759
L59621 49778
L59659 49778
L59715 49759
L59734 49740
L59734 49609
L59659 49609
" />
<path d="M59884 49421
L59903 49403
L59940 49384
L60034 49384
L60071 49403
L60090 49421
L60109 49459
L60109 49496
L60090 49553
L59865 49778
L60109 49778
" />
<text x="58800" y="49796.9"
textLength="845.426" font-size="524.934" lengthAdjust="spacingAndGlyphs"
text-anchor="middle" opacity="0">G3</text>
<path d="M58715 49403
L58678 49384
L58621 49384
L58565 49403
L58528 49440
L58509 49478
L58490 49553
L58490 49609
L58509 49684
L58528 49721
L58565 49759
L58621 49778
L58659 49778
L58715 49759
L58734 49740
L58734 49609
L58659 49609
" />
<path d="M58865 49384
L59109 49384
L58978 49534
L59034 49534
L59071 49553
L59090 49571
L59109 49609
L59109 49703
L59090 49740
L59071 49759
L59034 49778
L58921 49778
L58884 49759
L58865 49740
" />
<text x="57800" y="49796.9"
textLength="845.426" font-size="524.934" lengthAdjust="spacingAndGlyphs"
text-anchor="middle" opacity="0">R0</text>
<path d="M57734 49778
L57603 49590
" />
<path d="M57509 49778
L57509 49384
L57659 49384
L57696 49403
L57715 49421
L57734 49459
L57734 49515
L57715 49553
L57696 49571
L57659 49590
L57509 49590
" />
<path d="M57978 49384
L58015 49384
L58053 49403
L58071 49421
L58090 49459
L58109 49534
L58109 49628
L58090 49703
L58071 49740
L58053 49759
L58015 49778
L57978 49778
L57940 49759
L57921 49740
L57903 49703
L57884 49628
L57884 49534
L57903 49459
L57921 49421
L57940 49403
L57978 49384
" />
<text x="56800" y="49796.9"
textLength="845.426" font-size="524.934" lengthAdjust="spacingAndGlyphs"
text-anchor="middle" opacity="0">R1</text>
<path d="M56734 49778
L56603 49590
" />
<path d="M56509 49778
L56509 49384
L56659 49384
L56696 49403
L56715 49421
L56734 49459
L56734 49515
L56715 49553
L56696 49571
L56659 49590
L56509 49590
" />
<path d="M57109 49778
L56884 49778
" />
<path d="M56996 49778
L56996 49384
L56959 49440
L56921 49478
L56884 49496
" />
<text x="55800" y="49796.9"
textLength="845.426" font-size="524.934" lengthAdjust="spacingAndGlyphs"
text-anchor="middle" opacity="0">R2</text>
<path d="M55734 49778
L55603 49590
" />
<path d="M55509 49778
L55509 49384
L55659 49384
L55696 49403
L55715 49421
L55734 49459
L55734 49515
L55715 49553
L55696 49571
L55659 49590
L55509 49590
" />
<path d="M55884 49421
L55903 49403
L55940 49384
L56034 49384
L56071 49403
L56090 49421
L56109 49459
L56109 49496
L56090 49553
L55865 49778
L56109 49778
" />
<text x="54800" y="49796.9"
textLength="845.426" font-size="524.934" lengthAdjust="spacingAndGlyphs"
text-anchor="middle" opacity="0">R3</text>
<path d="M54734 49778
L54603 49590
" />
<path d="M54509 49778
L54509 49384
L54659 49384
L54696 49403
L54715 49421
L54734 49459
L54734 49515
L54715 49553
L54696 49571
L54659 49590
L54509 49590
" />
<path d="M54865 49384
L55109 49384
L54978 49534
L55034 49534
L55071 49553
L55090 49571
L55109 49609
L55109 49703
L55090 49740
L55071 49759
L55034 49778
L54921 49778
L54884 49759
L54865 49740
" />
<text x="66800" y="49796.9"
textLength="489.22" font-size="524.934" lengthAdjust="spacingAndGlyphs"
text-anchor="middle" opacity="0">H</text>
<path d="M66687 49778
L66687 49384
" />
<path d="M66687 49571
L66912 49571
" />
<path d="M66912 49778
L66912 49384
" />
<text x="67800" y="49796.9"
textLength="414.23" font-size="524.934" lengthAdjust="spacingAndGlyphs"
text-anchor="middle" opacity="0">V</text>
<path d="M67668 49384
L67800 49778
L67931 49384
" />
</g>
<g style="fill:#000000; fill-opacity:0.0; 
stroke:#000000; stroke-width:19.685; stroke-opacity:1; 
stroke-linecap:round; stroke-linejoin:round;">
<path d="M54750 43000
L54750 48500
" />
<path d="M66750 42000
L55750 42000
" />
<path d="M67750 48500
L67750 43000
" />
<path d="M53250 53000
L69250 53000
" />
</g>
<g style="fill:#000000; fill-opacity:0.0; 
stroke:#000000; stroke-width:47.2441; stroke-opacity:1; 
stroke-linecap:round; stroke-linejoin:round;">
<path d="M64588 42122
L64588 43737
" />
<path d="M64588 43737
L63523 43737
" />
<path d="M63523 43737
L63523 48217
" />
<path d="M63523 48217
L58631 48217
" />
<path d="M58631 48217
L58631 43737
" />
<path d="M58631 43737
L57809 43737
" />
<path d="M57809 43737
L57809 42122
" />
<path d="M59598 48490
L59401 48490
" />
<path d="M59401 48490
L59500 48320
" />
<path d="M59500 48320
L59598 48490
" />
<path d="M67599 50681
L67599 50816
" />
<path d="M68000 50681
L68000 50816
" />
<path d="M66599 50682
L66599 50817
" />
<path d="M67000 50682
L67000 50817
" />
<path d="M65599 50682
L65599 50817
" />
<path d="M66000 50682
L66000 50817
" />
<path d="M64599 50682
L64599 50817
" />
<path d="M65000 50682
L65000 50817
" />
<path d="M63599 50682
L63599 50817
" />
<path d="M64000 50682
L64000 50817
" />
<path d="M62599 50682
L62599 50817
" />
<path d="M63000 50682
L63000 50817
" />
<path d="M61599 50682
L61599 50817
" />
<path d="M62000 50682
L62000 50817
" />
<path d="M60599 50682
L60599 50817
" />
<path d="M61000 50682
L61000 50817
" />
<path d="M59599 50682
L59599 50817
" />
<path d="M60000 50682
L60000 50817
" />
<path d="M58599 50682
L58599 50817
" />
<path d="M59000 50682
L59000 50817
" />
<path d="M57599 50682
L57599 50817
" />
<path d="M58000 50682
L58000 50817
" />
<path d="M56599 50682
L56599 50817
" />
<path d="M57000 50682
L57000 50817
" />
<path d="M55599 50682
L55599 50817
" />
<path d="M56000 50682
L56000 50817
" />
<path d="M54599 50682
L54599 50817
" />
<path d="M55000 50682
L55000 50817
" />
<g >
</g>
<g >
</g>
<g >
</g>
<g >
</g>
<g >
</g>
<g >
</g>
<g >
</g>
<g >
</g>
<g >
</g>
<g >
</g>
<g >
</g>
<g >
</g>
<g >
</g>
<g >
</g>
<g >
</g>
<g >
</g>
<g >
</g>
<g >
</g>
<g >
</g>
<g >
</g>
</g>
<g style="fill:#000000; fill-opacity:0.0; 
stroke:#000000; stroke-width:47.2441; stroke-opacity:1; 
stroke-linecap:round; stroke-linejoin:round;">
</g>
<g style="fill:#000000; fill-opacity:0.0; 
stroke:#000000; stroke-width:59.0551; stroke-opacity:1; 
stroke-linecap:round; stroke-linejoin:round;">
<text x="66200" y="45422"
textLength="1501.59" font-size="524.934" lengthAdjust="spacingAndGlyphs"
text-anchor="middle" opacity="0">3mm</text>
<path d="M65543 45009
L65787 45009
L65656 45159
L65712 45159
L65750 45178
L65768 45197
L65787 45234
L65787 45328
L65768 45365
L65750 45384
L65712 45403
L65600 45403
L65562 45384
L65543 45365
" />
<path d="M65956 45403
L65956 45140
" />
<path d="M65956 45178
L65975 45159
L66012 45140
L66068 45140
L66106 45159
L66125 45197
L66125 45403
" />
<path d="M66125 45197
L66143 45159
L66181 45140
L66237 45140
L66274 45159
L66293 45197
L66293 45403
" />
<path d="M66481 45403
L66481 45140
" />
<path d="M66481 45178
L66499 45159
L66537 45140
L66593 45140
L66631 45159
L66649 45197
L66649 45403
" />
<path d="M66649 45197
L66668 45159
L66706 45140
L66762 45140
L66799 45159
L66818 45197
L66818 45403
" />
<text x="56400" y="45422"
textLength="1501.59" font-size="524.934" lengthAdjust="spacingAndGlyphs"
text-anchor="middle" opacity="0">3mm</text>
<path d="M55743 45009
L55987 45009
L55856 45159
L55912 45159
L55950 45178
L55968 45197
L55987 45234
L55987 45328
L55968 45365
L55950 45384
L55912 45403
L55800 45403
L55762 45384
L55743 45365
" />
<path d="M56156 45403
L56156 45140
" />
<path d="M56156 45178
L56175 45159
L56212 45140
L56268 45140
L56306 45159
L56325 45197
L56325 45403
" />
<path d="M56325 45197
L56343 45159
L56381 45140
L56437 45140
L56474 45159
L56493 45197
L56493 45403
" />
<path d="M56681 45403
L56681 45140
" />
<path d="M56681 45178
L56699 45159
L56737 45140
L56793 45140
L56831 45159
L56849 45197
L56849 45403
" />
<path d="M56849 45197
L56868 45159
L56906 45140
L56962 45140
L56999 45159
L57018 45197
L57018 45403
" />
<text x="61198.8" y="48705.5"
textLength="751.687" font-size="524.934" lengthAdjust="spacingAndGlyphs"
text-anchor="middle" opacity="0">J2</text>
<path d="M61067 48293
L61067 48574
L61048 48630
L61011 48668
L60955 48686
L60917 48686
" />
<path d="M61236 48330
L61255 48311
L61292 48293
L61386 48293
L61423 48311
L61442 48330
L61461 48368
L61461 48405
L61442 48461
L61217 48686
L61461 48686
" />
<g >
</g>
</g> 
</svg>
