<?xml version="1.0" standalone="no"?>
 <!DOCTYPE svg PUBLIC "-//W3C//DTD SVG 1.1//EN" 
 "http://www.w3.org/Graphics/SVG/1.1/DTD/svg11.dtd"> 
<svg xmlns="http://www.w3.org/2000/svg" version="1.1" 
    width="29.7002cm" height="21.0007cm" viewBox="0 0 116930 82680 ">
<title>SVG Picture created as VGA-F_Cu.svg date 2019/12/13 15:11:35 </title>
  <desc>Picture generated by PCBNEW </desc>
<g style="fill:#000000; fill-opacity:1;stroke:#000000; stroke-opacity:1;
stroke-linecap:round; stroke-linejoin:round; "
 transform="translate(0 0) scale(1 1)">
</g>
<g style="fill:#000000; fill-opacity:0.0; 
stroke:#000000; stroke-width:-0.000393701; stroke-opacity:1; 
stroke-linecap:round; stroke-linejoin:round;">
</g>
<g style="fill:#000000; fill-opacity:0.0; 
stroke:#000000; stroke-width:19.685; stroke-opacity:1; 
stroke-linecap:round; stroke-linejoin:round;">
<path d="M54000 49250 A750 750 0.0 0 0 54750 48500 " />
<path d="M54000 49250 A1000 1000 0.0 0 0 53000 50250 " />
<path d="M67750 48500 A750 750 0.0 0 0 68500 49250 " />
<path d="M53000 52750
L53000 50250
" />
<path d="M69500 50250 A1000 1000 0.0 0 0 68500 49250 " />
<path d="M69500 52750
L69500 50250
" />
<path d="M55750 42000 A1000 1000 0.0 0 0 54750 43000 " />
<path d="M67750 43000 A1000 1000 0.0 0 0 66750 42000 " />
<path d="M69250 53000 A250 250 0.0 0 0 69500 52750 " />
<path d="M53000 52750 A250 250 0.0 0 0 53250 53000 " />
<path d="M54750 43000
L54750 48500
" />
<path d="M66750 42000
L55750 42000
" />
<path d="M67750 48500
L67750 43000
" />
<path d="M53250 53000
L69250 53000
" />
<g >
</g>
<g >
</g>
<g >
</g>
<g style="fill:#000000; fill-opacity:0.0; 
stroke:#000000; stroke-width:19.685; stroke-opacity:1; 
stroke-linecap:round; stroke-linejoin:round;">
</g>
<g style="fill:#000000; fill-opacity:1.0; 
stroke:#000000; stroke-width:0; stroke-opacity:1; 
stroke-linecap:round; stroke-linejoin:round;">
<circle cx="66200" cy="46800" r="1181.1" /> 
</g>
<g style="fill:#000000; fill-opacity:1.0; 
stroke:#000000; stroke-width:39.3701; stroke-opacity:1; 
stroke-linecap:round; stroke-linejoin:round;">
</g>
<g >
</g>
<g style="fill:#000000; fill-opacity:1.0; 
stroke:#000000; stroke-width:39.3701; stroke-opacity:1; 
stroke-linecap:round; stroke-linejoin:round;">
</g>
<g style="fill:#000000; fill-opacity:1.0; 
stroke:#000000; stroke-width:0; stroke-opacity:1; 
stroke-linecap:round; stroke-linejoin:round;">
<circle cx="56400" cy="46800" r="1181.1" /> 
</g>
<g style="fill:#000000; fill-opacity:1.0; 
stroke:#000000; stroke-width:39.3701; stroke-opacity:1; 
stroke-linecap:round; stroke-linejoin:round;">
</g>
<g >
</g>
<g style="fill:#000000; fill-opacity:1.0; 
stroke:#000000; stroke-width:39.3701; stroke-opacity:1; 
stroke-linecap:round; stroke-linejoin:round;">
</g>
<g style="fill:#000000; fill-opacity:1.0; 
stroke:#000000; stroke-width:669.291; stroke-opacity:1; 
stroke-linecap:round; stroke-linejoin:round;">
</g>
<g style="fill:#000000; fill-opacity:0.0; 
stroke:#000000; stroke-width:669.291; stroke-opacity:1; 
stroke-linecap:round; stroke-linejoin:round;">
<path d="M53800 52157
L53800 51842
" />
<path d="M54800 52157
L54800 51842
" />
<path d="M55800 52157
L55800 51842
" />
<path d="M56800 52157
L56800 51842
" />
<path d="M57800 52157
L57800 51842
" />
<path d="M58800 52157
L58800 51842
" />
<path d="M59800 52157
L59800 51842
" />
<path d="M60800 52157
L60800 51842
" />
<path d="M61800 52157
L61800 51842
" />
<path d="M62800 52157
L62800 51842
" />
<path d="M63800 52157
L63800 51842
" />
<path d="M64800 52157
L64800 51842
" />
<path d="M65800 52157
L65800 51842
" />
<path d="M66800 52157
L66800 51842
" />
<path d="M67800 52157
L67800 51842
" />
<path d="M68800 52157
L68800 51842
" />
</g>
<g >
</g>
<g style="fill:#000000; fill-opacity:0.0; 
stroke:#000000; stroke-width:669.291; stroke-opacity:1; 
stroke-linecap:round; stroke-linejoin:round;">
</g>
<g style="fill:#000000; fill-opacity:0.0; 
stroke:#000000; stroke-width:0; stroke-opacity:1; 
stroke-linecap:round; stroke-linejoin:round;">
</g>
<g style="fill:#000000; fill-opacity:1.0; 
stroke:#000000; stroke-width:0; stroke-opacity:1; 
stroke-linecap:round; stroke-linejoin:round;">
<path style="fill:#000000; fill-opacity:1.0; 
stroke:#000000; stroke-width:0; stroke-opacity:1; 
stroke-linecap:round; stroke-linejoin:round;fill-rule:evenodd;"
d="M 59815,47485
59815,48115
59185,48115
59185,47485
Z" /> 
<circle cx="60401.6" cy="47800" r="314.961" /> 
</g>
<g style="fill:#000000; fill-opacity:1.0; 
stroke:#000000; stroke-width:39.3701; stroke-opacity:1; 
stroke-linecap:round; stroke-linejoin:round;">
</g>
<g style="fill:#000000; fill-opacity:1.0; 
stroke:#000000; stroke-width:0; stroke-opacity:1; 
stroke-linecap:round; stroke-linejoin:round;">
<circle cx="61303.1" cy="47800" r="314.961" /> 
</g>
<g style="fill:#000000; fill-opacity:1.0; 
stroke:#000000; stroke-width:39.3701; stroke-opacity:1; 
stroke-linecap:round; stroke-linejoin:round;">
</g>
<g style="fill:#000000; fill-opacity:1.0; 
stroke:#000000; stroke-width:0; stroke-opacity:1; 
stroke-linecap:round; stroke-linejoin:round;">
<circle cx="62204.7" cy="47800" r="314.961" /> 
</g>
<g style="fill:#000000; fill-opacity:1.0; 
stroke:#000000; stroke-width:39.3701; stroke-opacity:1; 
stroke-linecap:round; stroke-linejoin:round;">
</g>
<g style="fill:#000000; fill-opacity:1.0; 
stroke:#000000; stroke-width:0; stroke-opacity:1; 
stroke-linecap:round; stroke-linejoin:round;">
<circle cx="63106.3" cy="47800" r="314.961" /> 
</g>
<g style="fill:#000000; fill-opacity:1.0; 
stroke:#000000; stroke-width:39.3701; stroke-opacity:1; 
stroke-linecap:round; stroke-linejoin:round;">
</g>
<g style="fill:#000000; fill-opacity:1.0; 
stroke:#000000; stroke-width:0; stroke-opacity:1; 
stroke-linecap:round; stroke-linejoin:round;">
<circle cx="59049.2" cy="46800" r="314.961" /> 
</g>
<g style="fill:#000000; fill-opacity:1.0; 
stroke:#000000; stroke-width:39.3701; stroke-opacity:1; 
stroke-linecap:round; stroke-linejoin:round;">
</g>
<g style="fill:#000000; fill-opacity:1.0; 
stroke:#000000; stroke-width:0; stroke-opacity:1; 
stroke-linecap:round; stroke-linejoin:round;">
<circle cx="59950.8" cy="46800" r="314.961" /> 
</g>
<g style="fill:#000000; fill-opacity:1.0; 
stroke:#000000; stroke-width:39.3701; stroke-opacity:1; 
stroke-linecap:round; stroke-linejoin:round;">
</g>
<g style="fill:#000000; fill-opacity:1.0; 
stroke:#000000; stroke-width:0; stroke-opacity:1; 
stroke-linecap:round; stroke-linejoin:round;">
<circle cx="60852.4" cy="46800" r="314.961" /> 
</g>
<g style="fill:#000000; fill-opacity:1.0; 
stroke:#000000; stroke-width:39.3701; stroke-opacity:1; 
stroke-linecap:round; stroke-linejoin:round;">
</g>
<g style="fill:#000000; fill-opacity:1.0; 
stroke:#000000; stroke-width:0; stroke-opacity:1; 
stroke-linecap:round; stroke-linejoin:round;">
<circle cx="61753.9" cy="46800" r="314.961" /> 
</g>
<g style="fill:#000000; fill-opacity:1.0; 
stroke:#000000; stroke-width:39.3701; stroke-opacity:1; 
stroke-linecap:round; stroke-linejoin:round;">
</g>
<g style="fill:#000000; fill-opacity:1.0; 
stroke:#000000; stroke-width:0; stroke-opacity:1; 
stroke-linecap:round; stroke-linejoin:round;">
<circle cx="62655.5" cy="46800" r="314.961" /> 
</g>
<g style="fill:#000000; fill-opacity:1.0; 
stroke:#000000; stroke-width:39.3701; stroke-opacity:1; 
stroke-linecap:round; stroke-linejoin:round;">
</g>
<g style="fill:#000000; fill-opacity:1.0; 
stroke:#000000; stroke-width:0; stroke-opacity:1; 
stroke-linecap:round; stroke-linejoin:round;">
<circle cx="59500" cy="45800" r="314.961" /> 
</g>
<g style="fill:#000000; fill-opacity:1.0; 
stroke:#000000; stroke-width:39.3701; stroke-opacity:1; 
stroke-linecap:round; stroke-linejoin:round;">
</g>
<g style="fill:#000000; fill-opacity:1.0; 
stroke:#000000; stroke-width:0; stroke-opacity:1; 
stroke-linecap:round; stroke-linejoin:round;">
<circle cx="60401.6" cy="45800" r="314.961" /> 
</g>
<g style="fill:#000000; fill-opacity:1.0; 
stroke:#000000; stroke-width:39.3701; stroke-opacity:1; 
stroke-linecap:round; stroke-linejoin:round;">
</g>
<g style="fill:#000000; fill-opacity:1.0; 
stroke:#000000; stroke-width:0; stroke-opacity:1; 
stroke-linecap:round; stroke-linejoin:round;">
<circle cx="61303.1" cy="45800" r="314.961" /> 
</g>
<g style="fill:#000000; fill-opacity:1.0; 
stroke:#000000; stroke-width:39.3701; stroke-opacity:1; 
stroke-linecap:round; stroke-linejoin:round;">
</g>
<g style="fill:#000000; fill-opacity:1.0; 
stroke:#000000; stroke-width:0; stroke-opacity:1; 
stroke-linecap:round; stroke-linejoin:round;">
<circle cx="62204.7" cy="45800" r="314.961" /> 
</g>
<g style="fill:#000000; fill-opacity:1.0; 
stroke:#000000; stroke-width:39.3701; stroke-opacity:1; 
stroke-linecap:round; stroke-linejoin:round;">
</g>
<g style="fill:#000000; fill-opacity:1.0; 
stroke:#000000; stroke-width:0; stroke-opacity:1; 
stroke-linecap:round; stroke-linejoin:round;">
<circle cx="63106.3" cy="45800" r="314.961" /> 
</g>
<g style="fill:#000000; fill-opacity:1.0; 
stroke:#000000; stroke-width:39.3701; stroke-opacity:1; 
stroke-linecap:round; stroke-linejoin:round;">
</g>
<g >
</g>
<g style="fill:#000000; fill-opacity:1.0; 
stroke:#000000; stroke-width:39.3701; stroke-opacity:1; 
stroke-linecap:round; stroke-linejoin:round;">
</g>
<g style="fill:#000000; fill-opacity:1.0; 
stroke:#000000; stroke-width:0; stroke-opacity:1; 
stroke-linecap:round; stroke-linejoin:round;">
<path style="fill:#000000; fill-opacity:1.0; 
stroke:#000000; stroke-width:0; stroke-opacity:1; 
stroke-linecap:round; stroke-linejoin:round;fill-rule:evenodd;"
d="M 67902.7,50887.5
67911.7,50888.8
67920.6,50891
67929.3,50894.1
67937.6,50898
67945.5,50902.8
67952.8,50908.2
67959.6,50914.4
67965.8,50921.2
67971.2,50928.6
67976,50936.4
67979.9,50944.7
67983,50953.4
67985.2,50962.3
67986.6,50971.3
67987,50980.5
67987,51206.9
67986.6,51216.1
67985.2,51225.1
67983,51234
67979.9,51242.7
67976,51251
67971.2,51258.8
67965.8,51266.2
67959.6,51273
67952.8,51279.2
67945.5,51284.6
67937.6,51289.4
67929.3,51293.3
67920.6,51296.4
67911.7,51298.6
67902.7,51299.9
67893.5,51300.4
67706.5,51300.4
67697.3,51299.9
67688.3,51298.6
67679.4,51296.4
67670.7,51293.3
67662.4,51289.4
67654.5,51284.6
67647.2,51279.2
67640.4,51273
67634.2,51266.2
67628.8,51258.8
67624,51251
67620.1,51242.7
67617,51234
67614.8,51225.1
67613.4,51216.1
67613,51206.9
67613,50980.5
67613.4,50971.3
67614.8,50962.3
67617,50953.4
67620.1,50944.7
67624,50936.4
67628.8,50928.6
67634.2,50921.2
67640.4,50914.4
67647.2,50908.2
67654.5,50902.8
67662.4,50898
67670.7,50894.1
67679.4,50891
67688.3,50888.8
67697.3,50887.5
67706.5,50887
67893.5,50887
Z" /> 
<path style="fill:#000000; fill-opacity:1.0; 
stroke:#000000; stroke-width:0; stroke-opacity:1; 
stroke-linecap:round; stroke-linejoin:round;fill-rule:evenodd;"
d="M 67902.7,50198.5
67911.7,50199.8
67920.6,50202.1
67929.3,50205.1
67937.6,50209.1
67945.5,50213.8
67952.8,50219.3
67959.6,50225.4
67965.8,50232.2
67971.2,50239.6
67976,50247.5
67979.9,50255.8
67983,50264.4
67985.2,50273.3
67986.6,50282.4
67987,50291.5
67987,50517.9
67986.6,50527.1
67985.2,50536.2
67983,50545.1
67979.9,50553.7
67976,50562
67971.2,50569.9
67965.8,50577.2
67959.6,50584
67952.8,50590.2
67945.5,50595.7
67937.6,50600.4
67929.3,50604.3
67920.6,50607.4
67911.7,50609.6
67902.7,50611
67893.5,50611.4
67706.5,50611.4
67697.3,50611
67688.3,50609.6
67679.4,50607.4
67670.7,50604.3
67662.4,50600.4
67654.5,50595.7
67647.2,50590.2
67640.4,50584
67634.2,50577.2
67628.8,50569.9
67624,50562
67620.1,50553.7
67617,50545.1
67614.8,50536.2
67613.4,50527.1
67613,50517.9
67613,50291.5
67613.4,50282.4
67614.8,50273.3
67617,50264.4
67620.1,50255.8
67624,50247.5
67628.8,50239.6
67634.2,50232.2
67640.4,50225.4
67647.2,50219.3
67654.5,50213.8
67662.4,50209.1
67670.7,50205.1
67679.4,50202.1
67688.3,50199.8
67697.3,50198.5
67706.5,50198
67893.5,50198
Z" /> 
</g>
<g >
</g>
<g style="fill:#000000; fill-opacity:1.0; 
stroke:#000000; stroke-width:0; stroke-opacity:1; 
stroke-linecap:round; stroke-linejoin:round;">
<path style="fill:#000000; fill-opacity:1.0; 
stroke:#000000; stroke-width:0; stroke-opacity:1; 
stroke-linecap:round; stroke-linejoin:round;fill-rule:evenodd;"
d="M 66902.7,50888.2
66911.7,50889.6
66920.6,50891.8
66929.3,50894.9
66937.6,50898.8
66945.5,50903.6
66952.8,50909
66959.6,50915.2
66965.8,50922
66971.2,50929.4
66976,50937.2
66979.9,50945.5
66983,50954.2
66985.2,50963.1
66986.6,50972.1
66987,50981.3
66987,51207.7
66986.6,51216.8
66985.2,51225.9
66983,51234.8
66979.9,51243.5
66976,51251.8
66971.2,51259.6
66965.8,51267
66959.6,51273.8
66952.8,51280
66945.5,51285.4
66937.6,51290.1
66929.3,51294.1
66920.6,51297.2
66911.7,51299.4
66902.7,51300.7
66893.5,51301.2
66706.5,51301.2
66697.3,51300.7
66688.3,51299.4
66679.4,51297.2
66670.7,51294.1
66662.4,51290.1
66654.5,51285.4
66647.2,51280
66640.4,51273.8
66634.2,51267
66628.8,51259.6
66624,51251.8
66620.1,51243.5
66617,51234.8
66614.8,51225.9
66613.4,51216.8
66613,51207.7
66613,50981.3
66613.4,50972.1
66614.8,50963.1
66617,50954.2
66620.1,50945.5
66624,50937.2
66628.8,50929.4
66634.2,50922
66640.4,50915.2
66647.2,50909
66654.5,50903.6
66662.4,50898.8
66670.7,50894.9
66679.4,50891.8
66688.3,50889.6
66697.3,50888.2
66706.5,50887.8
66893.5,50887.8
Z" /> 
<path style="fill:#000000; fill-opacity:1.0; 
stroke:#000000; stroke-width:0; stroke-opacity:1; 
stroke-linecap:round; stroke-linejoin:round;fill-rule:evenodd;"
d="M 66902.7,50199.3
66911.7,50200.6
66920.6,50202.8
66929.3,50205.9
66937.6,50209.9
66945.5,50214.6
66952.8,50220
66959.6,50226.2
66965.8,50233
66971.2,50240.4
66976,50248.2
66979.9,50256.5
66983,50265.2
66985.2,50274.1
66986.6,50283.2
66987,50292.3
66987,50518.7
66986.6,50527.9
66985.2,50536.9
66983,50545.8
66979.9,50554.5
66976,50562.8
66971.2,50570.6
66965.8,50578
66959.6,50584.8
66952.8,50591
66945.5,50596.4
66937.6,50601.2
66929.3,50605.1
66920.6,50608.2
66911.7,50610.4
66902.7,50611.8
66893.5,50612.2
66706.5,50612.2
66697.3,50611.8
66688.3,50610.4
66679.4,50608.2
66670.7,50605.1
66662.4,50601.2
66654.5,50596.4
66647.2,50591
66640.4,50584.8
66634.2,50578
66628.8,50570.6
66624,50562.8
66620.1,50554.5
66617,50545.8
66614.8,50536.9
66613.4,50527.9
66613,50518.7
66613,50292.3
66613.4,50283.2
66614.8,50274.1
66617,50265.2
66620.1,50256.5
66624,50248.2
66628.8,50240.4
66634.2,50233
66640.4,50226.2
66647.2,50220
66654.5,50214.6
66662.4,50209.9
66670.7,50205.9
66679.4,50202.8
66688.3,50200.6
66697.3,50199.3
66706.5,50198.8
66893.5,50198.8
Z" /> 
</g>
<g >
</g>
<g style="fill:#000000; fill-opacity:1.0; 
stroke:#000000; stroke-width:0; stroke-opacity:1; 
stroke-linecap:round; stroke-linejoin:round;">
<path style="fill:#000000; fill-opacity:1.0; 
stroke:#000000; stroke-width:0; stroke-opacity:1; 
stroke-linecap:round; stroke-linejoin:round;fill-rule:evenodd;"
d="M 65902.7,50888.2
65911.7,50889.6
65920.6,50891.8
65929.3,50894.9
65937.6,50898.8
65945.5,50903.6
65952.8,50909
65959.6,50915.2
65965.8,50922
65971.2,50929.4
65976,50937.2
65979.9,50945.5
65983,50954.2
65985.2,50963.1
65986.6,50972.1
65987,50981.3
65987,51207.7
65986.6,51216.8
65985.2,51225.9
65983,51234.8
65979.9,51243.5
65976,51251.8
65971.2,51259.6
65965.8,51267
65959.6,51273.8
65952.8,51280
65945.5,51285.4
65937.6,51290.1
65929.3,51294.1
65920.6,51297.2
65911.7,51299.4
65902.7,51300.7
65893.5,51301.2
65706.5,51301.2
65697.3,51300.7
65688.3,51299.4
65679.4,51297.2
65670.7,51294.1
65662.4,51290.1
65654.5,51285.4
65647.2,51280
65640.4,51273.8
65634.2,51267
65628.8,51259.6
65624,51251.8
65620.1,51243.5
65617,51234.8
65614.8,51225.9
65613.4,51216.8
65613,51207.7
65613,50981.3
65613.4,50972.1
65614.8,50963.1
65617,50954.2
65620.1,50945.5
65624,50937.2
65628.8,50929.4
65634.2,50922
65640.4,50915.2
65647.2,50909
65654.5,50903.6
65662.4,50898.8
65670.7,50894.9
65679.4,50891.8
65688.3,50889.6
65697.3,50888.2
65706.5,50887.8
65893.5,50887.8
Z" /> 
<path style="fill:#000000; fill-opacity:1.0; 
stroke:#000000; stroke-width:0; stroke-opacity:1; 
stroke-linecap:round; stroke-linejoin:round;fill-rule:evenodd;"
d="M 65902.7,50199.3
65911.7,50200.6
65920.6,50202.8
65929.3,50205.9
65937.6,50209.9
65945.5,50214.6
65952.8,50220
65959.6,50226.2
65965.8,50233
65971.2,50240.4
65976,50248.2
65979.9,50256.5
65983,50265.2
65985.2,50274.1
65986.6,50283.2
65987,50292.3
65987,50518.7
65986.6,50527.9
65985.2,50536.9
65983,50545.8
65979.9,50554.5
65976,50562.8
65971.2,50570.6
65965.8,50578
65959.6,50584.8
65952.8,50591
65945.5,50596.4
65937.6,50601.2
65929.3,50605.1
65920.6,50608.2
65911.7,50610.4
65902.7,50611.8
65893.5,50612.2
65706.5,50612.2
65697.3,50611.8
65688.3,50610.4
65679.4,50608.2
65670.7,50605.1
65662.4,50601.2
65654.5,50596.4
65647.2,50591
65640.4,50584.8
65634.2,50578
65628.8,50570.6
65624,50562.8
65620.1,50554.5
65617,50545.8
65614.8,50536.9
65613.4,50527.9
65613,50518.7
65613,50292.3
65613.4,50283.2
65614.8,50274.1
65617,50265.2
65620.1,50256.5
65624,50248.2
65628.8,50240.4
65634.2,50233
65640.4,50226.2
65647.2,50220
65654.5,50214.6
65662.4,50209.9
65670.7,50205.9
65679.4,50202.8
65688.3,50200.6
65697.3,50199.3
65706.5,50198.8
65893.5,50198.8
Z" /> 
</g>
<g >
</g>
<g style="fill:#000000; fill-opacity:1.0; 
stroke:#000000; stroke-width:0; stroke-opacity:1; 
stroke-linecap:round; stroke-linejoin:round;">
<path style="fill:#000000; fill-opacity:1.0; 
stroke:#000000; stroke-width:0; stroke-opacity:1; 
stroke-linecap:round; stroke-linejoin:round;fill-rule:evenodd;"
d="M 64902.7,50888.2
64911.7,50889.6
64920.6,50891.8
64929.3,50894.9
64937.6,50898.8
64945.5,50903.6
64952.8,50909
64959.6,50915.2
64965.8,50922
64971.2,50929.4
64976,50937.2
64979.9,50945.5
64983,50954.2
64985.2,50963.1
64986.6,50972.1
64987,50981.3
64987,51207.7
64986.6,51216.8
64985.2,51225.9
64983,51234.8
64979.9,51243.5
64976,51251.8
64971.2,51259.6
64965.8,51267
64959.6,51273.8
64952.8,51280
64945.5,51285.4
64937.6,51290.1
64929.3,51294.1
64920.6,51297.2
64911.7,51299.4
64902.7,51300.7
64893.5,51301.2
64706.5,51301.2
64697.3,51300.7
64688.3,51299.4
64679.4,51297.2
64670.7,51294.1
64662.4,51290.1
64654.5,51285.4
64647.2,51280
64640.4,51273.8
64634.2,51267
64628.8,51259.6
64624,51251.8
64620.1,51243.5
64617,51234.8
64614.8,51225.9
64613.4,51216.8
64613,51207.7
64613,50981.3
64613.4,50972.1
64614.8,50963.1
64617,50954.2
64620.1,50945.5
64624,50937.2
64628.8,50929.4
64634.2,50922
64640.4,50915.2
64647.2,50909
64654.5,50903.6
64662.4,50898.8
64670.7,50894.9
64679.4,50891.8
64688.3,50889.6
64697.3,50888.2
64706.5,50887.8
64893.5,50887.8
Z" /> 
<path style="fill:#000000; fill-opacity:1.0; 
stroke:#000000; stroke-width:0; stroke-opacity:1; 
stroke-linecap:round; stroke-linejoin:round;fill-rule:evenodd;"
d="M 64902.7,50199.3
64911.7,50200.6
64920.6,50202.8
64929.3,50205.9
64937.6,50209.9
64945.5,50214.6
64952.8,50220
64959.6,50226.2
64965.8,50233
64971.2,50240.4
64976,50248.2
64979.9,50256.5
64983,50265.2
64985.2,50274.1
64986.6,50283.2
64987,50292.3
64987,50518.7
64986.6,50527.9
64985.2,50536.9
64983,50545.8
64979.9,50554.5
64976,50562.8
64971.2,50570.6
64965.8,50578
64959.6,50584.8
64952.8,50591
64945.5,50596.4
64937.6,50601.2
64929.3,50605.1
64920.6,50608.2
64911.7,50610.4
64902.7,50611.8
64893.5,50612.2
64706.5,50612.2
64697.3,50611.8
64688.3,50610.4
64679.4,50608.2
64670.7,50605.1
64662.4,50601.2
64654.5,50596.4
64647.2,50591
64640.4,50584.8
64634.2,50578
64628.8,50570.6
64624,50562.8
64620.1,50554.5
64617,50545.8
64614.8,50536.9
64613.4,50527.9
64613,50518.7
64613,50292.3
64613.4,50283.2
64614.8,50274.1
64617,50265.2
64620.1,50256.5
64624,50248.2
64628.8,50240.4
64634.2,50233
64640.4,50226.2
64647.2,50220
64654.5,50214.6
64662.4,50209.9
64670.7,50205.9
64679.4,50202.8
64688.3,50200.6
64697.3,50199.3
64706.5,50198.8
64893.5,50198.8
Z" /> 
</g>
<g >
</g>
<g style="fill:#000000; fill-opacity:1.0; 
stroke:#000000; stroke-width:0; stroke-opacity:1; 
stroke-linecap:round; stroke-linejoin:round;">
<path style="fill:#000000; fill-opacity:1.0; 
stroke:#000000; stroke-width:0; stroke-opacity:1; 
stroke-linecap:round; stroke-linejoin:round;fill-rule:evenodd;"
d="M 63902.7,50888.2
63911.7,50889.6
63920.6,50891.8
63929.3,50894.9
63937.6,50898.8
63945.5,50903.6
63952.8,50909
63959.6,50915.2
63965.8,50922
63971.2,50929.4
63976,50937.2
63979.9,50945.5
63983,50954.2
63985.2,50963.1
63986.6,50972.1
63987,50981.3
63987,51207.7
63986.6,51216.8
63985.2,51225.9
63983,51234.8
63979.9,51243.5
63976,51251.8
63971.2,51259.6
63965.8,51267
63959.6,51273.8
63952.8,51280
63945.5,51285.4
63937.6,51290.1
63929.3,51294.1
63920.6,51297.2
63911.7,51299.4
63902.7,51300.7
63893.5,51301.2
63706.5,51301.2
63697.3,51300.7
63688.3,51299.4
63679.4,51297.2
63670.7,51294.1
63662.4,51290.1
63654.5,51285.4
63647.2,51280
63640.4,51273.8
63634.2,51267
63628.8,51259.6
63624,51251.8
63620.1,51243.5
63617,51234.8
63614.8,51225.9
63613.4,51216.8
63613,51207.7
63613,50981.3
63613.4,50972.1
63614.8,50963.1
63617,50954.2
63620.1,50945.5
63624,50937.2
63628.8,50929.4
63634.2,50922
63640.4,50915.2
63647.2,50909
63654.5,50903.6
63662.4,50898.8
63670.7,50894.9
63679.4,50891.8
63688.3,50889.6
63697.3,50888.2
63706.5,50887.8
63893.5,50887.8
Z" /> 
<path style="fill:#000000; fill-opacity:1.0; 
stroke:#000000; stroke-width:0; stroke-opacity:1; 
stroke-linecap:round; stroke-linejoin:round;fill-rule:evenodd;"
d="M 63902.7,50199.3
63911.7,50200.6
63920.6,50202.8
63929.3,50205.9
63937.6,50209.9
63945.5,50214.6
63952.8,50220
63959.6,50226.2
63965.8,50233
63971.2,50240.4
63976,50248.2
63979.9,50256.5
63983,50265.2
63985.2,50274.1
63986.6,50283.2
63987,50292.3
63987,50518.7
63986.6,50527.9
63985.2,50536.9
63983,50545.8
63979.9,50554.5
63976,50562.8
63971.2,50570.6
63965.8,50578
63959.6,50584.8
63952.8,50591
63945.5,50596.4
63937.6,50601.2
63929.3,50605.1
63920.6,50608.2
63911.7,50610.4
63902.7,50611.8
63893.5,50612.2
63706.5,50612.2
63697.3,50611.8
63688.3,50610.4
63679.4,50608.2
63670.7,50605.1
63662.4,50601.2
63654.5,50596.4
63647.2,50591
63640.4,50584.8
63634.2,50578
63628.8,50570.6
63624,50562.8
63620.1,50554.5
63617,50545.8
63614.8,50536.9
63613.4,50527.9
63613,50518.7
63613,50292.3
63613.4,50283.2
63614.8,50274.1
63617,50265.2
63620.1,50256.5
63624,50248.2
63628.8,50240.4
63634.2,50233
63640.4,50226.2
63647.2,50220
63654.5,50214.6
63662.4,50209.9
63670.7,50205.9
63679.4,50202.8
63688.3,50200.6
63697.3,50199.3
63706.5,50198.8
63893.5,50198.8
Z" /> 
</g>
<g >
</g>
<g style="fill:#000000; fill-opacity:1.0; 
stroke:#000000; stroke-width:0; stroke-opacity:1; 
stroke-linecap:round; stroke-linejoin:round;">
<path style="fill:#000000; fill-opacity:1.0; 
stroke:#000000; stroke-width:0; stroke-opacity:1; 
stroke-linecap:round; stroke-linejoin:round;fill-rule:evenodd;"
d="M 62902.7,50888.2
62911.7,50889.6
62920.6,50891.8
62929.3,50894.9
62937.6,50898.8
62945.5,50903.6
62952.8,50909
62959.6,50915.2
62965.8,50922
62971.2,50929.4
62976,50937.2
62979.9,50945.5
62983,50954.2
62985.2,50963.1
62986.6,50972.1
62987,50981.3
62987,51207.7
62986.6,51216.8
62985.2,51225.9
62983,51234.8
62979.9,51243.5
62976,51251.8
62971.2,51259.6
62965.8,51267
62959.6,51273.8
62952.8,51280
62945.5,51285.4
62937.6,51290.1
62929.3,51294.1
62920.6,51297.2
62911.7,51299.4
62902.7,51300.7
62893.5,51301.2
62706.5,51301.2
62697.3,51300.7
62688.3,51299.4
62679.4,51297.2
62670.7,51294.1
62662.4,51290.1
62654.5,51285.4
62647.2,51280
62640.4,51273.8
62634.2,51267
62628.8,51259.6
62624,51251.8
62620.1,51243.5
62617,51234.8
62614.8,51225.9
62613.4,51216.8
62613,51207.7
62613,50981.3
62613.4,50972.1
62614.8,50963.1
62617,50954.2
62620.1,50945.5
62624,50937.2
62628.8,50929.4
62634.2,50922
62640.4,50915.2
62647.2,50909
62654.5,50903.6
62662.4,50898.8
62670.7,50894.9
62679.4,50891.8
62688.3,50889.6
62697.3,50888.2
62706.5,50887.8
62893.5,50887.8
Z" /> 
<path style="fill:#000000; fill-opacity:1.0; 
stroke:#000000; stroke-width:0; stroke-opacity:1; 
stroke-linecap:round; stroke-linejoin:round;fill-rule:evenodd;"
d="M 62902.7,50199.3
62911.7,50200.6
62920.6,50202.8
62929.3,50205.9
62937.6,50209.9
62945.5,50214.6
62952.8,50220
62959.6,50226.2
62965.8,50233
62971.2,50240.4
62976,50248.2
62979.9,50256.5
62983,50265.2
62985.2,50274.1
62986.6,50283.2
62987,50292.3
62987,50518.7
62986.6,50527.9
62985.2,50536.9
62983,50545.8
62979.9,50554.5
62976,50562.8
62971.2,50570.6
62965.8,50578
62959.6,50584.8
62952.8,50591
62945.5,50596.4
62937.6,50601.2
62929.3,50605.1
62920.6,50608.2
62911.7,50610.4
62902.7,50611.8
62893.5,50612.2
62706.5,50612.2
62697.3,50611.8
62688.3,50610.4
62679.4,50608.2
62670.7,50605.1
62662.4,50601.2
62654.5,50596.4
62647.2,50591
62640.4,50584.8
62634.2,50578
62628.8,50570.6
62624,50562.8
62620.1,50554.5
62617,50545.8
62614.8,50536.9
62613.4,50527.9
62613,50518.7
62613,50292.3
62613.4,50283.2
62614.8,50274.1
62617,50265.2
62620.1,50256.5
62624,50248.2
62628.8,50240.4
62634.2,50233
62640.4,50226.2
62647.2,50220
62654.5,50214.6
62662.4,50209.9
62670.7,50205.9
62679.4,50202.8
62688.3,50200.6
62697.3,50199.3
62706.5,50198.8
62893.5,50198.8
Z" /> 
</g>
<g >
</g>
<g style="fill:#000000; fill-opacity:1.0; 
stroke:#000000; stroke-width:0; stroke-opacity:1; 
stroke-linecap:round; stroke-linejoin:round;">
<path style="fill:#000000; fill-opacity:1.0; 
stroke:#000000; stroke-width:0; stroke-opacity:1; 
stroke-linecap:round; stroke-linejoin:round;fill-rule:evenodd;"
d="M 61902.7,50888.2
61911.7,50889.6
61920.6,50891.8
61929.3,50894.9
61937.6,50898.8
61945.5,50903.6
61952.8,50909
61959.6,50915.2
61965.8,50922
61971.2,50929.4
61976,50937.2
61979.9,50945.5
61983,50954.2
61985.2,50963.1
61986.6,50972.1
61987,50981.3
61987,51207.7
61986.6,51216.8
61985.2,51225.9
61983,51234.8
61979.9,51243.5
61976,51251.8
61971.2,51259.6
61965.8,51267
61959.6,51273.8
61952.8,51280
61945.5,51285.4
61937.6,51290.1
61929.3,51294.1
61920.6,51297.2
61911.7,51299.4
61902.7,51300.7
61893.5,51301.2
61706.5,51301.2
61697.3,51300.7
61688.3,51299.4
61679.4,51297.2
61670.7,51294.1
61662.4,51290.1
61654.5,51285.4
61647.2,51280
61640.4,51273.8
61634.2,51267
61628.8,51259.6
61624,51251.8
61620.1,51243.5
61617,51234.8
61614.8,51225.9
61613.4,51216.8
61613,51207.7
61613,50981.3
61613.4,50972.1
61614.8,50963.1
61617,50954.2
61620.1,50945.5
61624,50937.2
61628.8,50929.4
61634.2,50922
61640.4,50915.2
61647.2,50909
61654.5,50903.6
61662.4,50898.8
61670.7,50894.9
61679.4,50891.8
61688.3,50889.6
61697.3,50888.2
61706.5,50887.8
61893.5,50887.8
Z" /> 
<path style="fill:#000000; fill-opacity:1.0; 
stroke:#000000; stroke-width:0; stroke-opacity:1; 
stroke-linecap:round; stroke-linejoin:round;fill-rule:evenodd;"
d="M 61902.7,50199.3
61911.7,50200.6
61920.6,50202.8
61929.3,50205.9
61937.6,50209.9
61945.5,50214.6
61952.8,50220
61959.6,50226.2
61965.8,50233
61971.2,50240.4
61976,50248.2
61979.9,50256.5
61983,50265.2
61985.2,50274.1
61986.6,50283.2
61987,50292.3
61987,50518.7
61986.6,50527.9
61985.2,50536.9
61983,50545.8
61979.9,50554.5
61976,50562.8
61971.2,50570.6
61965.8,50578
61959.6,50584.8
61952.8,50591
61945.5,50596.4
61937.6,50601.2
61929.3,50605.1
61920.6,50608.2
61911.7,50610.4
61902.7,50611.8
61893.5,50612.2
61706.5,50612.2
61697.3,50611.8
61688.3,50610.4
61679.4,50608.2
61670.7,50605.1
61662.4,50601.2
61654.5,50596.4
61647.2,50591
61640.4,50584.8
61634.2,50578
61628.8,50570.6
61624,50562.8
61620.1,50554.5
61617,50545.8
61614.8,50536.9
61613.4,50527.9
61613,50518.7
61613,50292.3
61613.4,50283.2
61614.8,50274.1
61617,50265.2
61620.1,50256.5
61624,50248.2
61628.8,50240.4
61634.2,50233
61640.4,50226.2
61647.2,50220
61654.5,50214.6
61662.4,50209.9
61670.7,50205.9
61679.4,50202.8
61688.3,50200.6
61697.3,50199.3
61706.5,50198.8
61893.5,50198.8
Z" /> 
</g>
<g >
</g>
<g style="fill:#000000; fill-opacity:1.0; 
stroke:#000000; stroke-width:0; stroke-opacity:1; 
stroke-linecap:round; stroke-linejoin:round;">
<path style="fill:#000000; fill-opacity:1.0; 
stroke:#000000; stroke-width:0; stroke-opacity:1; 
stroke-linecap:round; stroke-linejoin:round;fill-rule:evenodd;"
d="M 60902.7,50888.2
60911.7,50889.6
60920.6,50891.8
60929.3,50894.9
60937.6,50898.8
60945.5,50903.6
60952.8,50909
60959.6,50915.2
60965.8,50922
60971.2,50929.4
60976,50937.2
60979.9,50945.5
60983,50954.2
60985.2,50963.1
60986.6,50972.1
60987,50981.3
60987,51207.7
60986.6,51216.8
60985.2,51225.9
60983,51234.8
60979.9,51243.5
60976,51251.8
60971.2,51259.6
60965.8,51267
60959.6,51273.8
60952.8,51280
60945.5,51285.4
60937.6,51290.1
60929.3,51294.1
60920.6,51297.2
60911.7,51299.4
60902.7,51300.7
60893.5,51301.2
60706.5,51301.2
60697.3,51300.7
60688.3,51299.4
60679.4,51297.2
60670.7,51294.1
60662.4,51290.1
60654.5,51285.4
60647.2,51280
60640.4,51273.8
60634.2,51267
60628.8,51259.6
60624,51251.8
60620.1,51243.5
60617,51234.8
60614.8,51225.9
60613.4,51216.8
60613,51207.7
60613,50981.3
60613.4,50972.1
60614.8,50963.1
60617,50954.2
60620.1,50945.5
60624,50937.2
60628.8,50929.4
60634.2,50922
60640.4,50915.2
60647.2,50909
60654.5,50903.6
60662.4,50898.8
60670.7,50894.9
60679.4,50891.8
60688.3,50889.6
60697.3,50888.2
60706.5,50887.8
60893.5,50887.8
Z" /> 
<path style="fill:#000000; fill-opacity:1.0; 
stroke:#000000; stroke-width:0; stroke-opacity:1; 
stroke-linecap:round; stroke-linejoin:round;fill-rule:evenodd;"
d="M 60902.7,50199.3
60911.7,50200.6
60920.6,50202.8
60929.3,50205.9
60937.6,50209.9
60945.5,50214.6
60952.8,50220
60959.6,50226.2
60965.8,50233
60971.2,50240.4
60976,50248.2
60979.9,50256.5
60983,50265.2
60985.2,50274.1
60986.6,50283.2
60987,50292.3
60987,50518.7
60986.6,50527.9
60985.2,50536.9
60983,50545.8
60979.9,50554.5
60976,50562.8
60971.2,50570.6
60965.8,50578
60959.6,50584.8
60952.8,50591
60945.5,50596.4
60937.6,50601.2
60929.3,50605.1
60920.6,50608.2
60911.7,50610.4
60902.7,50611.8
60893.5,50612.2
60706.5,50612.2
60697.3,50611.8
60688.3,50610.4
60679.4,50608.2
60670.7,50605.1
60662.4,50601.2
60654.5,50596.4
60647.2,50591
60640.4,50584.8
60634.2,50578
60628.8,50570.6
60624,50562.8
60620.1,50554.5
60617,50545.8
60614.8,50536.9
60613.4,50527.9
60613,50518.7
60613,50292.3
60613.4,50283.2
60614.8,50274.1
60617,50265.2
60620.1,50256.5
60624,50248.2
60628.8,50240.4
60634.2,50233
60640.4,50226.2
60647.2,50220
60654.5,50214.6
60662.4,50209.9
60670.7,50205.9
60679.4,50202.8
60688.3,50200.6
60697.3,50199.3
60706.5,50198.8
60893.5,50198.8
Z" /> 
</g>
<g >
</g>
<g style="fill:#000000; fill-opacity:1.0; 
stroke:#000000; stroke-width:0; stroke-opacity:1; 
stroke-linecap:round; stroke-linejoin:round;">
<path style="fill:#000000; fill-opacity:1.0; 
stroke:#000000; stroke-width:0; stroke-opacity:1; 
stroke-linecap:round; stroke-linejoin:round;fill-rule:evenodd;"
d="M 59902.7,50888.2
59911.7,50889.6
59920.6,50891.8
59929.3,50894.9
59937.6,50898.8
59945.5,50903.6
59952.8,50909
59959.6,50915.2
59965.8,50922
59971.2,50929.4
59976,50937.2
59979.9,50945.5
59983,50954.2
59985.2,50963.1
59986.6,50972.1
59987,50981.3
59987,51207.7
59986.6,51216.8
59985.2,51225.9
59983,51234.8
59979.9,51243.5
59976,51251.8
59971.2,51259.6
59965.8,51267
59959.6,51273.8
59952.8,51280
59945.5,51285.4
59937.6,51290.1
59929.3,51294.1
59920.6,51297.2
59911.7,51299.4
59902.7,51300.7
59893.5,51301.2
59706.5,51301.2
59697.3,51300.7
59688.3,51299.4
59679.4,51297.2
59670.7,51294.1
59662.4,51290.1
59654.5,51285.4
59647.2,51280
59640.4,51273.8
59634.2,51267
59628.8,51259.6
59624,51251.8
59620.1,51243.5
59617,51234.8
59614.8,51225.9
59613.4,51216.8
59613,51207.7
59613,50981.3
59613.4,50972.1
59614.8,50963.1
59617,50954.2
59620.1,50945.5
59624,50937.2
59628.8,50929.4
59634.2,50922
59640.4,50915.2
59647.2,50909
59654.5,50903.6
59662.4,50898.8
59670.7,50894.9
59679.4,50891.8
59688.3,50889.6
59697.3,50888.2
59706.5,50887.8
59893.5,50887.8
Z" /> 
<path style="fill:#000000; fill-opacity:1.0; 
stroke:#000000; stroke-width:0; stroke-opacity:1; 
stroke-linecap:round; stroke-linejoin:round;fill-rule:evenodd;"
d="M 59902.7,50199.3
59911.7,50200.6
59920.6,50202.8
59929.3,50205.9
59937.6,50209.9
59945.5,50214.6
59952.8,50220
59959.6,50226.2
59965.8,50233
59971.2,50240.4
59976,50248.2
59979.9,50256.5
59983,50265.2
59985.2,50274.1
59986.6,50283.2
59987,50292.3
59987,50518.7
59986.6,50527.9
59985.2,50536.9
59983,50545.8
59979.9,50554.5
59976,50562.8
59971.2,50570.6
59965.8,50578
59959.6,50584.8
59952.8,50591
59945.5,50596.4
59937.6,50601.2
59929.3,50605.1
59920.6,50608.2
59911.7,50610.4
59902.7,50611.8
59893.5,50612.2
59706.5,50612.2
59697.3,50611.8
59688.3,50610.4
59679.4,50608.2
59670.7,50605.1
59662.4,50601.2
59654.5,50596.4
59647.2,50591
59640.4,50584.8
59634.2,50578
59628.8,50570.6
59624,50562.8
59620.1,50554.5
59617,50545.8
59614.8,50536.9
59613.4,50527.9
59613,50518.7
59613,50292.3
59613.4,50283.2
59614.8,50274.1
59617,50265.2
59620.1,50256.5
59624,50248.2
59628.8,50240.4
59634.2,50233
59640.4,50226.2
59647.2,50220
59654.5,50214.6
59662.4,50209.9
59670.7,50205.9
59679.4,50202.8
59688.3,50200.6
59697.3,50199.3
59706.5,50198.8
59893.5,50198.8
Z" /> 
</g>
<g >
</g>
<g style="fill:#000000; fill-opacity:1.0; 
stroke:#000000; stroke-width:0; stroke-opacity:1; 
stroke-linecap:round; stroke-linejoin:round;">
<path style="fill:#000000; fill-opacity:1.0; 
stroke:#000000; stroke-width:0; stroke-opacity:1; 
stroke-linecap:round; stroke-linejoin:round;fill-rule:evenodd;"
d="M 58902.7,50888.2
58911.7,50889.6
58920.6,50891.8
58929.3,50894.9
58937.6,50898.8
58945.5,50903.6
58952.8,50909
58959.6,50915.2
58965.8,50922
58971.2,50929.4
58976,50937.2
58979.9,50945.5
58983,50954.2
58985.2,50963.1
58986.6,50972.1
58987,50981.3
58987,51207.7
58986.6,51216.8
58985.2,51225.9
58983,51234.8
58979.9,51243.5
58976,51251.8
58971.2,51259.6
58965.8,51267
58959.6,51273.8
58952.8,51280
58945.5,51285.4
58937.6,51290.1
58929.3,51294.1
58920.6,51297.2
58911.7,51299.4
58902.7,51300.7
58893.5,51301.2
58706.5,51301.2
58697.3,51300.7
58688.3,51299.4
58679.4,51297.2
58670.7,51294.1
58662.4,51290.1
58654.5,51285.4
58647.2,51280
58640.4,51273.8
58634.2,51267
58628.8,51259.6
58624,51251.8
58620.1,51243.5
58617,51234.8
58614.8,51225.9
58613.4,51216.8
58613,51207.7
58613,50981.3
58613.4,50972.1
58614.8,50963.1
58617,50954.2
58620.1,50945.5
58624,50937.2
58628.8,50929.4
58634.2,50922
58640.4,50915.2
58647.2,50909
58654.5,50903.6
58662.4,50898.8
58670.7,50894.9
58679.4,50891.8
58688.3,50889.6
58697.3,50888.2
58706.5,50887.8
58893.5,50887.8
Z" /> 
<path style="fill:#000000; fill-opacity:1.0; 
stroke:#000000; stroke-width:0; stroke-opacity:1; 
stroke-linecap:round; stroke-linejoin:round;fill-rule:evenodd;"
d="M 58902.7,50199.3
58911.7,50200.6
58920.6,50202.8
58929.3,50205.9
58937.6,50209.9
58945.5,50214.6
58952.8,50220
58959.6,50226.2
58965.8,50233
58971.2,50240.4
58976,50248.2
58979.9,50256.5
58983,50265.2
58985.2,50274.1
58986.6,50283.2
58987,50292.3
58987,50518.7
58986.6,50527.9
58985.2,50536.9
58983,50545.8
58979.9,50554.5
58976,50562.8
58971.2,50570.6
58965.8,50578
58959.6,50584.8
58952.8,50591
58945.5,50596.4
58937.6,50601.2
58929.3,50605.1
58920.6,50608.2
58911.7,50610.4
58902.7,50611.8
58893.5,50612.2
58706.5,50612.2
58697.3,50611.8
58688.3,50610.4
58679.4,50608.2
58670.7,50605.1
58662.4,50601.2
58654.5,50596.4
58647.2,50591
58640.4,50584.8
58634.2,50578
58628.8,50570.6
58624,50562.8
58620.1,50554.5
58617,50545.8
58614.8,50536.9
58613.4,50527.9
58613,50518.7
58613,50292.3
58613.4,50283.2
58614.8,50274.1
58617,50265.2
58620.1,50256.5
58624,50248.2
58628.8,50240.4
58634.2,50233
58640.4,50226.2
58647.2,50220
58654.5,50214.6
58662.4,50209.9
58670.7,50205.9
58679.4,50202.8
58688.3,50200.6
58697.3,50199.3
58706.5,50198.8
58893.5,50198.8
Z" /> 
</g>
<g >
</g>
<g style="fill:#000000; fill-opacity:1.0; 
stroke:#000000; stroke-width:0; stroke-opacity:1; 
stroke-linecap:round; stroke-linejoin:round;">
<path style="fill:#000000; fill-opacity:1.0; 
stroke:#000000; stroke-width:0; stroke-opacity:1; 
stroke-linecap:round; stroke-linejoin:round;fill-rule:evenodd;"
d="M 57902.7,50888.2
57911.7,50889.6
57920.6,50891.8
57929.3,50894.9
57937.6,50898.8
57945.5,50903.6
57952.8,50909
57959.6,50915.2
57965.8,50922
57971.2,50929.4
57976,50937.2
57979.9,50945.5
57983,50954.2
57985.2,50963.1
57986.6,50972.1
57987,50981.3
57987,51207.7
57986.6,51216.8
57985.2,51225.9
57983,51234.8
57979.9,51243.5
57976,51251.8
57971.2,51259.6
57965.8,51267
57959.6,51273.8
57952.8,51280
57945.5,51285.4
57937.6,51290.1
57929.3,51294.1
57920.6,51297.2
57911.7,51299.4
57902.7,51300.7
57893.5,51301.2
57706.5,51301.2
57697.3,51300.7
57688.3,51299.4
57679.4,51297.2
57670.7,51294.1
57662.4,51290.1
57654.5,51285.4
57647.2,51280
57640.4,51273.8
57634.2,51267
57628.8,51259.6
57624,51251.8
57620.1,51243.5
57617,51234.8
57614.8,51225.9
57613.4,51216.8
57613,51207.7
57613,50981.3
57613.4,50972.1
57614.8,50963.1
57617,50954.2
57620.1,50945.5
57624,50937.2
57628.8,50929.4
57634.2,50922
57640.4,50915.2
57647.2,50909
57654.5,50903.6
57662.4,50898.8
57670.7,50894.9
57679.4,50891.8
57688.3,50889.6
57697.3,50888.2
57706.5,50887.8
57893.5,50887.8
Z" /> 
<path style="fill:#000000; fill-opacity:1.0; 
stroke:#000000; stroke-width:0; stroke-opacity:1; 
stroke-linecap:round; stroke-linejoin:round;fill-rule:evenodd;"
d="M 57902.7,50199.3
57911.7,50200.6
57920.6,50202.8
57929.3,50205.9
57937.6,50209.9
57945.5,50214.6
57952.8,50220
57959.6,50226.2
57965.8,50233
57971.2,50240.4
57976,50248.2
57979.9,50256.5
57983,50265.2
57985.2,50274.1
57986.6,50283.2
57987,50292.3
57987,50518.7
57986.6,50527.9
57985.2,50536.9
57983,50545.8
57979.9,50554.5
57976,50562.8
57971.2,50570.6
57965.8,50578
57959.6,50584.8
57952.8,50591
57945.5,50596.4
57937.6,50601.2
57929.3,50605.1
57920.6,50608.2
57911.7,50610.4
57902.7,50611.8
57893.5,50612.2
57706.5,50612.2
57697.3,50611.8
57688.3,50610.4
57679.4,50608.2
57670.7,50605.1
57662.4,50601.2
57654.5,50596.4
57647.2,50591
57640.4,50584.8
57634.2,50578
57628.8,50570.6
57624,50562.8
57620.1,50554.5
57617,50545.8
57614.8,50536.9
57613.4,50527.9
57613,50518.7
57613,50292.3
57613.4,50283.2
57614.8,50274.1
57617,50265.2
57620.1,50256.5
57624,50248.2
57628.8,50240.4
57634.2,50233
57640.4,50226.2
57647.2,50220
57654.5,50214.6
57662.4,50209.9
57670.7,50205.9
57679.4,50202.8
57688.3,50200.6
57697.3,50199.3
57706.5,50198.8
57893.5,50198.8
Z" /> 
</g>
<g >
</g>
<g style="fill:#000000; fill-opacity:1.0; 
stroke:#000000; stroke-width:0; stroke-opacity:1; 
stroke-linecap:round; stroke-linejoin:round;">
<path style="fill:#000000; fill-opacity:1.0; 
stroke:#000000; stroke-width:0; stroke-opacity:1; 
stroke-linecap:round; stroke-linejoin:round;fill-rule:evenodd;"
d="M 56902.7,50888.2
56911.7,50889.6
56920.6,50891.8
56929.3,50894.9
56937.6,50898.8
56945.5,50903.6
56952.8,50909
56959.6,50915.2
56965.8,50922
56971.2,50929.4
56976,50937.2
56979.9,50945.5
56983,50954.2
56985.2,50963.1
56986.6,50972.1
56987,50981.3
56987,51207.7
56986.6,51216.8
56985.2,51225.9
56983,51234.8
56979.9,51243.5
56976,51251.8
56971.2,51259.6
56965.8,51267
56959.6,51273.8
56952.8,51280
56945.5,51285.4
56937.6,51290.1
56929.3,51294.1
56920.6,51297.2
56911.7,51299.4
56902.7,51300.7
56893.5,51301.2
56706.5,51301.2
56697.3,51300.7
56688.3,51299.4
56679.4,51297.2
56670.7,51294.1
56662.4,51290.1
56654.5,51285.4
56647.2,51280
56640.4,51273.8
56634.2,51267
56628.8,51259.6
56624,51251.8
56620.1,51243.5
56617,51234.8
56614.8,51225.9
56613.4,51216.8
56613,51207.7
56613,50981.3
56613.4,50972.1
56614.8,50963.1
56617,50954.2
56620.1,50945.5
56624,50937.2
56628.8,50929.4
56634.2,50922
56640.4,50915.2
56647.2,50909
56654.5,50903.6
56662.4,50898.8
56670.7,50894.9
56679.4,50891.8
56688.3,50889.6
56697.3,50888.2
56706.5,50887.8
56893.5,50887.8
Z" /> 
<path style="fill:#000000; fill-opacity:1.0; 
stroke:#000000; stroke-width:0; stroke-opacity:1; 
stroke-linecap:round; stroke-linejoin:round;fill-rule:evenodd;"
d="M 56902.7,50199.3
56911.7,50200.6
56920.6,50202.8
56929.3,50205.9
56937.6,50209.9
56945.5,50214.6
56952.8,50220
56959.6,50226.2
56965.8,50233
56971.2,50240.4
56976,50248.2
56979.9,50256.5
56983,50265.2
56985.2,50274.1
56986.6,50283.2
56987,50292.3
56987,50518.7
56986.6,50527.9
56985.2,50536.9
56983,50545.8
56979.9,50554.5
56976,50562.8
56971.2,50570.6
56965.8,50578
56959.6,50584.8
56952.8,50591
56945.5,50596.4
56937.6,50601.2
56929.3,50605.1
56920.6,50608.2
56911.7,50610.4
56902.7,50611.8
56893.5,50612.2
56706.5,50612.2
56697.3,50611.8
56688.3,50610.4
56679.4,50608.2
56670.7,50605.1
56662.4,50601.2
56654.5,50596.4
56647.2,50591
56640.4,50584.8
56634.2,50578
56628.8,50570.6
56624,50562.8
56620.1,50554.5
56617,50545.8
56614.8,50536.9
56613.4,50527.9
56613,50518.7
56613,50292.3
56613.4,50283.2
56614.8,50274.1
56617,50265.2
56620.1,50256.5
56624,50248.2
56628.8,50240.4
56634.2,50233
56640.4,50226.2
56647.2,50220
56654.5,50214.6
56662.4,50209.9
56670.7,50205.9
56679.4,50202.8
56688.3,50200.6
56697.3,50199.3
56706.5,50198.8
56893.5,50198.8
Z" /> 
</g>
<g >
</g>
<g style="fill:#000000; fill-opacity:1.0; 
stroke:#000000; stroke-width:0; stroke-opacity:1; 
stroke-linecap:round; stroke-linejoin:round;">
<path style="fill:#000000; fill-opacity:1.0; 
stroke:#000000; stroke-width:0; stroke-opacity:1; 
stroke-linecap:round; stroke-linejoin:round;fill-rule:evenodd;"
d="M 55902.7,50888.2
55911.7,50889.6
55920.6,50891.8
55929.3,50894.9
55937.6,50898.8
55945.5,50903.6
55952.8,50909
55959.6,50915.2
55965.8,50922
55971.2,50929.4
55976,50937.2
55979.9,50945.5
55983,50954.2
55985.2,50963.1
55986.6,50972.1
55987,50981.3
55987,51207.7
55986.6,51216.8
55985.2,51225.9
55983,51234.8
55979.9,51243.5
55976,51251.8
55971.2,51259.6
55965.8,51267
55959.6,51273.8
55952.8,51280
55945.5,51285.4
55937.6,51290.1
55929.3,51294.1
55920.6,51297.2
55911.7,51299.4
55902.7,51300.7
55893.5,51301.2
55706.5,51301.2
55697.3,51300.7
55688.3,51299.4
55679.4,51297.2
55670.7,51294.1
55662.4,51290.1
55654.5,51285.4
55647.2,51280
55640.4,51273.8
55634.2,51267
55628.8,51259.6
55624,51251.8
55620.1,51243.5
55617,51234.8
55614.8,51225.9
55613.4,51216.8
55613,51207.7
55613,50981.3
55613.4,50972.1
55614.8,50963.1
55617,50954.2
55620.1,50945.5
55624,50937.2
55628.8,50929.4
55634.2,50922
55640.4,50915.2
55647.2,50909
55654.5,50903.6
55662.4,50898.8
55670.7,50894.9
55679.4,50891.8
55688.3,50889.6
55697.3,50888.2
55706.5,50887.8
55893.5,50887.8
Z" /> 
<path style="fill:#000000; fill-opacity:1.0; 
stroke:#000000; stroke-width:0; stroke-opacity:1; 
stroke-linecap:round; stroke-linejoin:round;fill-rule:evenodd;"
d="M 55902.7,50199.3
55911.7,50200.6
55920.6,50202.8
55929.3,50205.9
55937.6,50209.9
55945.5,50214.6
55952.8,50220
55959.6,50226.2
55965.8,50233
55971.2,50240.4
55976,50248.2
55979.9,50256.5
55983,50265.2
55985.2,50274.1
55986.6,50283.2
55987,50292.3
55987,50518.7
55986.6,50527.9
55985.2,50536.9
55983,50545.8
55979.9,50554.5
55976,50562.8
55971.2,50570.6
55965.8,50578
55959.6,50584.8
55952.8,50591
55945.5,50596.4
55937.6,50601.2
55929.3,50605.1
55920.6,50608.2
55911.7,50610.4
55902.7,50611.8
55893.5,50612.2
55706.5,50612.2
55697.3,50611.8
55688.3,50610.4
55679.4,50608.2
55670.7,50605.1
55662.4,50601.2
55654.5,50596.4
55647.2,50591
55640.4,50584.8
55634.2,50578
55628.8,50570.6
55624,50562.8
55620.1,50554.5
55617,50545.8
55614.8,50536.9
55613.4,50527.9
55613,50518.7
55613,50292.3
55613.4,50283.2
55614.8,50274.1
55617,50265.2
55620.1,50256.5
55624,50248.2
55628.8,50240.4
55634.2,50233
55640.4,50226.2
55647.2,50220
55654.5,50214.6
55662.4,50209.9
55670.7,50205.9
55679.4,50202.8
55688.3,50200.6
55697.3,50199.3
55706.5,50198.8
55893.5,50198.8
Z" /> 
</g>
<g >
</g>
<g style="fill:#000000; fill-opacity:1.0; 
stroke:#000000; stroke-width:0; stroke-opacity:1; 
stroke-linecap:round; stroke-linejoin:round;">
<path style="fill:#000000; fill-opacity:1.0; 
stroke:#000000; stroke-width:0; stroke-opacity:1; 
stroke-linecap:round; stroke-linejoin:round;fill-rule:evenodd;"
d="M 54902.7,50888.2
54911.7,50889.6
54920.6,50891.8
54929.3,50894.9
54937.6,50898.8
54945.5,50903.6
54952.8,50909
54959.6,50915.2
54965.8,50922
54971.2,50929.4
54976,50937.2
54979.9,50945.5
54983,50954.2
54985.2,50963.1
54986.6,50972.1
54987,50981.3
54987,51207.7
54986.6,51216.8
54985.2,51225.9
54983,51234.8
54979.9,51243.5
54976,51251.8
54971.2,51259.6
54965.8,51267
54959.6,51273.8
54952.8,51280
54945.5,51285.4
54937.6,51290.1
54929.3,51294.1
54920.6,51297.2
54911.7,51299.4
54902.7,51300.7
54893.5,51301.2
54706.5,51301.2
54697.3,51300.7
54688.3,51299.4
54679.4,51297.2
54670.7,51294.1
54662.4,51290.1
54654.5,51285.4
54647.2,51280
54640.4,51273.8
54634.2,51267
54628.8,51259.6
54624,51251.8
54620.1,51243.5
54617,51234.8
54614.8,51225.9
54613.4,51216.8
54613,51207.7
54613,50981.3
54613.4,50972.1
54614.8,50963.1
54617,50954.2
54620.1,50945.5
54624,50937.2
54628.8,50929.4
54634.2,50922
54640.4,50915.2
54647.2,50909
54654.5,50903.6
54662.4,50898.8
54670.7,50894.9
54679.4,50891.8
54688.3,50889.6
54697.3,50888.2
54706.5,50887.8
54893.5,50887.8
Z" /> 
<path style="fill:#000000; fill-opacity:1.0; 
stroke:#000000; stroke-width:0; stroke-opacity:1; 
stroke-linecap:round; stroke-linejoin:round;fill-rule:evenodd;"
d="M 54902.7,50199.3
54911.7,50200.6
54920.6,50202.8
54929.3,50205.9
54937.6,50209.9
54945.5,50214.6
54952.8,50220
54959.6,50226.2
54965.8,50233
54971.2,50240.4
54976,50248.2
54979.9,50256.5
54983,50265.2
54985.2,50274.1
54986.6,50283.2
54987,50292.3
54987,50518.7
54986.6,50527.9
54985.2,50536.9
54983,50545.8
54979.9,50554.5
54976,50562.8
54971.2,50570.6
54965.8,50578
54959.6,50584.8
54952.8,50591
54945.5,50596.4
54937.6,50601.2
54929.3,50605.1
54920.6,50608.2
54911.7,50610.4
54902.7,50611.8
54893.5,50612.2
54706.5,50612.2
54697.3,50611.8
54688.3,50610.4
54679.4,50608.2
54670.7,50605.1
54662.4,50601.2
54654.5,50596.4
54647.2,50591
54640.4,50584.8
54634.2,50578
54628.8,50570.6
54624,50562.8
54620.1,50554.5
54617,50545.8
54614.8,50536.9
54613.4,50527.9
54613,50518.7
54613,50292.3
54613.4,50283.2
54614.8,50274.1
54617,50265.2
54620.1,50256.5
54624,50248.2
54628.8,50240.4
54634.2,50233
54640.4,50226.2
54647.2,50220
54654.5,50214.6
54662.4,50209.9
54670.7,50205.9
54679.4,50202.8
54688.3,50200.6
54697.3,50199.3
54706.5,50198.8
54893.5,50198.8
Z" /> 
</g>
<g >
</g>
<g >
</g>
<g style="fill:#000000; fill-opacity:1.0; 
stroke:#000000; stroke-width:0; stroke-opacity:1; 
stroke-linecap:round; stroke-linejoin:round;">
</g>
<g style="fill:#000000; fill-opacity:1.0; 
stroke:#000000; stroke-width:98.4252; stroke-opacity:1; 
stroke-linecap:round; stroke-linejoin:round;">
</g>
<g style="fill:#000000; fill-opacity:0.0; 
stroke:#000000; stroke-width:98.4252; stroke-opacity:1; 
stroke-linecap:round; stroke-linejoin:round;">
<path d="M55800 51094
L55800 52000
" />
<path d="M56800 51094
L56800 52000
" />
<path d="M57800 51094
L57800 52000
" />
<path d="M58800 51094
L58800 52000
" />
<path d="M59800 51094
L59800 52000
" />
<path d="M60800 51094
L60800 52000
" />
<path d="M61800 51094
L61800 52000
" />
<path d="M62800 51094
L62800 52000
" />
<path d="M63800 51094
L63800 52000
" />
<path d="M64800 51094
L64800 52000
" />
<path d="M65800 51094
L65800 52000
" />
<path d="M66800 51094
L66800 52000
" />
<path d="M67800 51093
L67800 52000
" />
<path d="M62800 50405
L63800 50405
" />
<path d="M64800 50405
L65800 50405
" />
<path d="M63800 50405
L64800 50405
" />
<path d="M61303 48245
L61303 47800
" />
<path d="M61303 49095
L61303 48245
" />
<path d="M62612 50405
L61303 49095
" />
<path d="M62800 50405
L62612 50405
" />
<path d="M60401 50405
L60800 50405
" />
<path d="M59800 50405
L60401 50405
" />
<path d="M60401 50405
L60401 47800
" />
<path d="M58800 50405
L59800 50405
" />
<path d="M60800 50405
L61800 50405
" />
<path d="M57300 50405
L57800 50405
" />
<path d="M56800 50405
L57300 50405
" />
<path d="M55800 50405
L56800 50405
" />
<path d="M54800 50405
L55800 50405
" />
<path d="M59500 48213
L59500 47800
" />
<path d="M59500 48892
L59500 48213
" />
<path d="M57987 50405
L59500 48892
" />
<path d="M57800 50405
L57987 50405
" />
<path d="M67800 50404
L63752 46356
" />
<path d="M63752 46356
L62761 46356
" />
<path d="M62761 46356
L62204 45800
" />
<path d="M66800 50405
L63743 47349
" />
<path d="M63743 47349
L62577 47349
" />
<path d="M62577 47349
L62204 46976
" />
<path d="M62204 46976
L62204 46604
" />
<path d="M62204 46604
L61400 45800
" />
<path d="M61400 45800
L61303 45800
" />
<path d="M54800 51094
L54800 52000
" />
</g>
<g >
</g>
<g style="fill:#000000; fill-opacity:0.0; 
stroke:#000000; stroke-width:98.4252; stroke-opacity:1; 
stroke-linecap:round; stroke-linejoin:round;">
</g>
<g style="fill:#000000; fill-opacity:1.0; 
stroke:#000000; stroke-width:39.3701; stroke-opacity:1; 
stroke-linecap:round; stroke-linejoin:round;">
<path style="fill:#000000; fill-opacity:1.0; 
stroke:#000000; stroke-width:39.3701; stroke-opacity:1; 
stroke-linecap:round; stroke-linejoin:round;fill-rule:evenodd;"
d="M 66899.4,42245.3
67043.2,42288.7
67175.8,42359.2
67292.1,42454.1
67387.8,42569.8
67459.3,42701.9
67503.7,42845.3
67520.5,43005.3
67520.5,46330.7
67490.6,46238.3
67384.1,46039
67211.6,45902
66313.6,46800
67211.6,47698
67384.1,47561
67509.8,47315.4
67520.5,47277.9
67520.5,48511.3
67521.5,48521.4
67521.4,48526
67521.7,48529.2
67537,48674.8
67541.2,48695.2
67545.1,48715.6
67546.1,48718.7
67589.3,48858.5
67597.4,48877.7
67605.2,48897
67606.7,48899.8
67606.7,48899.8
67606.7,48899.8
67676.3,49028.6
67688,49045.8
67699.3,49063.2
67701.4,49065.7
67794.7,49178.5
67809.4,49193.1
67824,49208
67826.5,49210
67939.9,49302.6
67957.2,49314.1
67974.4,49325.8
67977.2,49327.4
68106.4,49396.1
68125.7,49404
68144.8,49412.2
68147.9,49413.1
68147.9,49413.1
68147.9,49413.1
68288,49455.4
68308.4,49459.5
68328.7,49463.8
68331.9,49464.1
68331.9,49464.1
68477.6,49478.4
68649.4,49495.3
68793.2,49538.7
68925.8,49609.2
69042.1,49704.1
69137.8,49819.8
69209.3,49951.9
69253.7,50095.3
69270.5,50255.3
69270.5,51531.5
69263.5,51519.1
69191.5,51434.9
69104.5,51366.4
69005.7,51316.1
68965.1,51313.4
68880.3,51349.6
68880.3,51919.7
68888.2,51919.7
68888.2,52080.3
68880.3,52080.3
68880.3,52650.4
68965.1,52686.6
69005.7,52683.9
69104.5,52633.6
69191.5,52565.1
69263.5,52480.9
69270.5,52468.5
69270.5,52738.8
69269,52753.8
69267.9,52757.4
69266.1,52760.7
69263.7,52763.6
69260.8,52766.1
69257.5,52767.9
69253.9,52769
69239.7,52770.5
53261.2,52770.5
53246.2,52769
53242.6,52767.9
53239.3,52766.1
53236.4,52763.7
53233.9,52760.8
53232.1,52757.5
53231,52753.9
53229.5,52739.7
53229.5,52168.9
53234.9,52168.9
53248,52278.9
53282.3,52384.2
53336.5,52480.9
53408.5,52565.1
53495.5,52633.6
53594.3,52683.9
53634.9,52686.6
53719.7,52650.4
53719.7,52080.3
53295,52080.3
53234.9,52168.9
53229.5,52168.9
53229.5,51831.1
53234.9,51831.1
53295,51919.7
53719.7,51919.7
53719.7,51349.6
53880.3,51349.6
53880.3,51919.7
53888.2,51919.7
53888.2,52080.3
53880.3,52080.3
53880.3,52650.4
53965.1,52686.6
54005.7,52683.9
54104.5,52633.6
54191.5,52565.1
54263.5,52480.9
54304.9,52407.1
54336.9,52466.9
54406.1,52551.3
54490.5,52620.6
54586.8,52672.1
54691.3,52703.8
54800,52714.5
54908.7,52703.8
55013.2,52672.1
55109.5,52620.6
55193.9,52551.3
55263.1,52466.9
55300,52398
55336.9,52466.9
55406.1,52551.3
55490.5,52620.6
55586.8,52672.1
55691.3,52703.8
55800,52714.5
55908.7,52703.8
56013.2,52672.1
56109.5,52620.6
56193.9,52551.3
56263.1,52466.9
56300,52398
56336.9,52466.9
56406.1,52551.3
56490.5,52620.6
56586.8,52672.1
56691.3,52703.8
56800,52714.5
56908.7,52703.8
57013.2,52672.1
57109.5,52620.6
57193.9,52551.3
57263.1,52466.9
57300,52398
57336.9,52466.9
57406.1,52551.3
57490.5,52620.6
57586.8,52672.1
57691.3,52703.8
57800,52714.5
57908.7,52703.8
58013.2,52672.1
58109.5,52620.6
58193.9,52551.3
58263.1,52466.9
58300,52398
58336.9,52466.9
58406.1,52551.3
58490.5,52620.6
58586.8,52672.1
58691.3,52703.8
58800,52714.5
58908.7,52703.8
59013.2,52672.1
59109.5,52620.6
59193.9,52551.3
59263.1,52466.9
59300,52398
59336.9,52466.9
59406.1,52551.3
59490.5,52620.6
59586.8,52672.1
59691.3,52703.8
59800,52714.5
59908.7,52703.8
60013.2,52672.1
60109.5,52620.6
60193.9,52551.3
60263.1,52466.9
60300,52398
60336.9,52466.9
60406.1,52551.3
60490.5,52620.6
60586.8,52672.1
60691.3,52703.8
60800,52714.5
60908.7,52703.8
61013.2,52672.1
61109.5,52620.6
61193.9,52551.3
61263.1,52466.9
61300,52398
61336.9,52466.9
61406.1,52551.3
61490.5,52620.6
61586.8,52672.1
61691.3,52703.8
61800,52714.5
61908.7,52703.8
62013.2,52672.1
62109.5,52620.6
62193.9,52551.3
62263.1,52466.9
62300,52398
62336.9,52466.9
62406.1,52551.3
62490.5,52620.6
62586.8,52672.1
62691.3,52703.8
62800,52714.5
62908.7,52703.8
63013.2,52672.1
63109.5,52620.6
63193.9,52551.3
63263.1,52466.9
63300,52398
63336.9,52466.9
63406.1,52551.3
63490.5,52620.6
63586.8,52672.1
63691.3,52703.8
63800,52714.5
63908.7,52703.8
64013.2,52672.1
64109.5,52620.6
64193.9,52551.3
64263.1,52466.9
64300,52398
64336.9,52466.9
64406.1,52551.3
64490.5,52620.6
64586.8,52672.1
64691.3,52703.8
64800,52714.5
64908.7,52703.8
65013.2,52672.1
65109.5,52620.6
65193.9,52551.3
65263.1,52466.9
65300,52398
65336.9,52466.9
65406.1,52551.3
65490.5,52620.6
65586.8,52672.1
65691.3,52703.8
65800,52714.5
65908.7,52703.8
66013.2,52672.1
66109.5,52620.6
66193.9,52551.3
66263.1,52466.9
66300,52398
66336.9,52466.9
66406.1,52551.3
66490.5,52620.6
66586.8,52672.1
66691.3,52703.8
66800,52714.5
66908.7,52703.8
67013.2,52672.1
67109.5,52620.6
67193.9,52551.3
67263.1,52466.9
67300,52398
67336.9,52466.9
67406.1,52551.3
67490.5,52620.6
67586.8,52672.1
67691.3,52703.8
67800,52714.5
67908.7,52703.8
68013.2,52672.1
68109.5,52620.6
68193.9,52551.3
68263.1,52466.9
68295.1,52407.1
68336.5,52480.9
68408.5,52565.1
68495.5,52633.6
68594.3,52683.9
68634.9,52686.6
68719.7,52650.4
68719.7,52080.3
68711.8,52080.3
68711.8,51919.7
68719.7,51919.7
68719.7,51349.6
68634.9,51313.4
68594.3,51316.1
68495.5,51366.4
68408.5,51434.9
68336.5,51519.1
68295.1,51592.9
68263.1,51533.1
68193.9,51448.7
68137.6,51402.5
68154.8,51381.5
68183.8,51327.1
68201.7,51268.2
68207.8,51206.9
68207.8,50980.5
68201.7,50919.2
68183.8,50860.3
68154.8,50805.9
68115.7,50758.3
68104.6,50749.2
68115.7,50740.1
68154.8,50692.5
68183.8,50638.2
68201.7,50579.2
68207.8,50517.9
68207.8,50291.5
68201.7,50230.2
68183.8,50171.3
68154.8,50116.9
68115.7,50069.3
68068.1,50030.2
68013.8,50001.2
67954.8,49983.3
67893.5,49977.3
67752.8,49977.3
65961.7,48186.1
66225.1,48207.3
66499.2,48175.4
66761.7,48090.6
66961,47984.1
67098,47811.6
66200,46913.6
66194.4,46919.2
66080.8,46805.6
66086.4,46800
65188.4,45902
65015.9,46039
64890.2,46284.6
64814.8,46550
64792.7,46825.1
64818,47042.4
63951.7,46176.1
63943.3,46165.9
63902.3,46132.3
63855.6,46107.3
63804.9,46091.9
63765.4,46088
63765.4,46088
63752.2,46086.7
63739,46088
63556.9,46088
63580.1,46053.2
63620.4,45956
63640.9,45852.7
63640.9,45788.4
65302,45788.4
66200,46686.4
67098,45788.4
66961,45615.9
66715.4,45490.2
66450,45414.8
66174.9,45392.7
65900.8,45424.6
65638.3,45509.4
65439,45615.9
65302,45788.4
63640.9,45788.4
63640.9,45747.3
63620.4,45644
63580.1,45546.8
63521.6,45459.2
63447.1,45384.7
63359.5,45326.2
63262.2,45285.9
63159,45265.4
63053.6,45265.4
62950.3,45285.9
62853,45326.2
62765.5,45384.7
62691,45459.2
62655.5,45512.3
62620,45459.2
62545.5,45384.7
62458,45326.2
62360.7,45285.9
62257.4,45265.4
62152.1,45265.4
62048.8,45285.9
61951.5,45326.2
61863.9,45384.7
61789.4,45459.2
61753.9,45512.3
61718.4,45459.2
61644,45384.7
61556.4,45326.2
61459.1,45285.9
61355.8,45265.4
61250.5,45265.4
61147.2,45285.9
61049.9,45326.2
60962.3,45384.7
60887.9,45459.2
60852.4,45512.3
60816.9,45459.2
60742.4,45384.7
60654.8,45326.2
60557.5,45285.9
60454.2,45265.4
60348.9,45265.4
60245.6,45285.9
60148.3,45326.2
60060.8,45384.7
59986.3,45459.2
59950.8,45512.3
59915.3,45459.2
59840.8,45384.7
59753.2,45326.2
59656,45285.9
59552.7,45265.4
59447.3,45265.4
59344,45285.9
59246.8,45326.2
59159.2,45384.7
59084.7,45459.2
59026.2,45546.8
58985.9,45644
58965.4,45747.3
58965.4,45852.7
58985.9,45956
59026.2,46053.2
59084.7,46140.8
59159.2,46215.3
59246.8,46273.8
59344,46314.1
59447.3,46334.6
59552.7,46334.6
59656,46314.1
59753.2,46273.8
59840.8,46215.3
59915.3,46140.8
59950.8,46087.7
59986.3,46140.8
60060.8,46215.3
60148.3,46273.8
60245.6,46314.1
60348.9,46334.6
60454.2,46334.6
60557.5,46314.1
60654.8,46273.8
60742.4,46215.3
60816.9,46140.8
60852.4,46087.7
60887.9,46140.8
60962.3,46215.3
61049.9,46273.8
61147.2,46314.1
61250.5,46334.6
61355.8,46334.6
61459.1,46314.1
61512.1,46292.2
61532.8,46312.9
61500.7,46326.2
61413.1,46384.7
61338.7,46459.2
61287,46536.5
61245.4,46520.5
60965.9,46800
61245.4,47079.5
61287,47063.5
61338.7,47140.8
61413.1,47215.3
61500.7,47273.8
61598,47314.1
61701.3,47334.6
61806.6,47334.6
61909.9,47314.1
62007.2,47273.8
62075.8,47228
62119.6,47271.8
62048.8,47285.9
61951.5,47326.2
61863.9,47384.7
61789.4,47459.2
61753.9,47512.3
61718.4,47459.2
61644,47384.7
61556.4,47326.2
61459.1,47285.9
61355.8,47265.4
61250.5,47265.4
61147.2,47285.9
61049.9,47326.2
60962.3,47384.7
60887.9,47459.2
60852.4,47512.3
60816.9,47459.2
60742.4,47384.7
60654.8,47326.2
60557.5,47285.9
60454.2,47265.4
60348.9,47265.4
60245.6,47285.9
60148.3,47326.2
60060.8,47384.7
60025,47420.5
60018.9,47400.6
59998.5,47362.4
59975.5,47334.4
60010.2,47333.9
60113.2,47312.1
60198,47277
60230.3,47193.1
60572.9,47193.1
60605.1,47277
60702.9,47316
60806.5,47335.3
60911.8,47333.9
61014.8,47312.1
61099.6,47277
61131.9,47193.1
60852.4,46913.6
60572.9,47193.1
60230.3,47193.1
59950.8,46913.6
59671.3,47193.1
59698.7,47264.3
59301.3,47264.3
59328.7,47193.1
59049.2,46913.6
58769.7,47193.1
58802,47277
58899.8,47316
59003.3,47335.3
59024,47335
59001.5,47362.4
58981.1,47400.6
58968.5,47442
58964.3,47485
58964.3,48115
58968.5,48158
58981.1,48199.4
59001.5,48237.6
59028.9,48271.1
59062.4,48298.5
59100.6,48318.9
59142,48331.5
59185,48335.7
59231.1,48335.7
59231.1,48781.1
58011.1,50001.2
57954.8,49984.1
57893.5,49978.1
57706.5,49978.1
57645.2,49984.1
57586.2,50002
57531.9,50031
57484.3,50070.1
57445.2,50117.7
57435.1,50136.6
57164.9,50136.6
57154.8,50117.7
57115.7,50070.1
57068.1,50031
57013.8,50002
56954.8,49984.1
56893.5,49978.1
56706.5,49978.1
56645.2,49984.1
56586.2,50002
56531.9,50031
56484.3,50070.1
56445.2,50117.7
56435.1,50136.6
56164.9,50136.6
56154.8,50117.7
56115.7,50070.1
56068.1,50031
56013.8,50002
55954.8,49984.1
55893.5,49978.1
55706.5,49978.1
55645.2,49984.1
55586.2,50002
55531.9,50031
55484.3,50070.1
55445.2,50117.7
55435.1,50136.6
55164.9,50136.6
55154.8,50117.7
55115.7,50070.1
55068.1,50031
55013.8,50002
54954.8,49984.1
54893.5,49978.1
54706.5,49978.1
54645.2,49984.1
54586.2,50002
54531.9,50031
54484.3,50070.1
54445.2,50117.7
54416.2,50172.1
54398.3,50231
54392.2,50292.3
54392.2,50518.7
54398.3,50580
54416.2,50639
54445.2,50693.3
54484.3,50740.9
54495.4,50750
54484.3,50759.1
54445.2,50806.7
54416.2,50861
54398.3,50920
54392.2,50981.3
54392.2,51207.7
54398.3,51269
54416.2,51327.9
54445.2,51382.3
54462,51402.8
54406.1,51448.7
54336.9,51533.1
54304.9,51592.9
54263.5,51519.1
54191.5,51434.9
54104.5,51366.4
54005.7,51316.1
53965.1,51313.4
53880.3,51349.6
53719.7,51349.6
53634.9,51313.4
53594.3,51316.1
53495.5,51366.4
53408.5,51434.9
53336.5,51519.1
53282.3,51615.8
53248,51721.1
53234.9,51831.1
53229.5,51831.1
53229.5,50261.2
53245.3,50100.6
53288.7,49956.8
53359.2,49824.2
53454.1,49707.9
53569.8,49612.2
53701.9,49540.7
53845.3,49496.3
54005.4,49479.5
54006,49479.5
54016,49478.5
54026,49478.6
54029.2,49478.3
54174.8,49463
54195.2,49458.8
54215.6,49454.9
54218.7,49453.9
54218.7,49453.9
54358.5,49410.7
54377.7,49402.6
54397,49394.8
54399.8,49393.3
54399.8,49393.3
54399.8,49393.3
54528.6,49323.7
54545.8,49312
54563.2,49300.7
54565.7,49298.6
54678.5,49205.3
54693.1,49190.6
54708,49176
54710,49173.5
54802.6,49060.1
54814.1,49042.8
54825.8,49025.6
54827.4,49022.8
54896.1,48893.6
54904,48874.3
54912.2,48855.2
54913.1,48852.1
54913.1,48852.1
54913.1,48852.1
54955.4,48712
54959.5,48691.6
54963.8,48671.3
54964.1,48668.1
54978.4,48522.4
54978.4,48522.4
54979.5,48511.3
54979.5,47811.6
55502,47811.6
55639,47984.1
55884.6,48109.8
56150,48185.2
56425.1,48207.3
56699.2,48175.4
56961.7,48090.6
57161,47984.1
57298,47811.6
56400,46913.6
55502,47811.6
54979.5,47811.6
54979.5,46825.1
54992.7,46825.1
55024.6,47099.2
55109.4,47361.7
55215.9,47561
55388.4,47698
56286.4,46800
56513.6,46800
57411.6,47698
57584.1,47561
57709.8,47315.4
57785.2,47050
57807.3,46774.9
57804.9,46754.1
58513.9,46754.1
58515.3,46859.4
58537.1,46962.4
58572.3,47047.3
58656.1,47079.5
58935.6,46800
59162.8,46800
59442.3,47079.5
59500,47057.3
59557.7,47079.5
59837.2,46800
60064.4,46800
60343.9,47079.5
60401.6,47057.3
60459.3,47079.5
60738.8,46800
60459.3,46520.5
60401.6,46542.7
60343.9,46520.5
60064.4,46800
59837.2,46800
59557.7,46520.5
59500,46542.7
59442.3,46520.5
59162.8,46800
58935.6,46800
58656.1,46520.5
58572.3,46552.7
58533.2,46650.5
58513.9,46754.1
57804.9,46754.1
57775.4,46500.8
57745.1,46406.9
58769.7,46406.9
59049.2,46686.4
59328.7,46406.9
59671.3,46406.9
59950.8,46686.4
60230.3,46406.9
60572.9,46406.9
60852.4,46686.4
61131.9,46406.9
61099.6,46323
61001.8,46284
60898.3,46264.7
60793,46266.1
60689.9,46287.9
60605.1,46323
60572.9,46406.9
60230.3,46406.9
60198,46323
60100.2,46284
59996.7,46264.7
59891.4,46266.1
59788.4,46287.9
59703.5,46323
59671.3,46406.9
59328.7,46406.9
59296.5,46323
59198.7,46284
59095.1,46264.7
58989.8,46266.1
58886.8,46287.9
58802,46323
58769.7,46406.9
57745.1,46406.9
57690.6,46238.3
57584.1,46039
57411.6,45902
56513.6,46800
56286.4,46800
55388.4,45902
55215.9,46039
55090.2,46284.6
55014.8,46550
54992.7,46825.1
54979.5,46825.1
54979.5,45788.4
55502,45788.4
56400,46686.4
57298,45788.4
57161,45615.9
56915.4,45490.2
56650,45414.8
56374.9,45392.7
56100.8,45424.6
55838.3,45509.4
55639,45615.9
55502,45788.4
54979.5,45788.4
54979.5,43011.2
54995.3,42850.6
55038.7,42706.8
55109.2,42574.2
55204.1,42457.9
55319.8,42362.2
55451.9,42290.7
55595.3,42246.3
55755.3,42229.5
66738.8,42229.5
Z" /> 
<path style="fill:#000000; fill-opacity:1.0; 
stroke:#000000; stroke-width:39.3701; stroke-opacity:1; 
stroke-linecap:round; stroke-linejoin:round;fill-rule:evenodd;"
d="M 66019,50004.8
66013.8,50002
65954.8,49984.1
65893.5,49978.1
65706.5,49978.1
65645.2,49984.1
65586.2,50002
65531.9,50031
65484.3,50070.1
65445.2,50117.7
65435.1,50136.6
65164.9,50136.6
65154.8,50117.7
65115.7,50070.1
65068.1,50031
65013.8,50002
64954.8,49984.1
64893.5,49978.1
64706.5,49978.1
64645.2,49984.1
64586.2,50002
64531.9,50031
64484.3,50070.1
64445.2,50117.7
64435.1,50136.6
64164.9,50136.6
64154.8,50117.7
64115.7,50070.1
64068.1,50031
64013.8,50002
63954.8,49984.1
63893.5,49978.1
63706.5,49978.1
63645.2,49984.1
63586.2,50002
63531.9,50031
63484.3,50070.1
63445.2,50117.7
63435.1,50136.6
63164.9,50136.6
63154.8,50117.7
63115.7,50070.1
63068.1,50031
63013.8,50002
62954.8,49984.1
62893.5,49978.1
62706.5,49978.1
62645.2,49984.1
62588.9,50001.2
61572,48984.3
61572,48263.3
61644,48215.3
61718.4,48140.8
61753.9,48087.7
61789.4,48140.8
61863.9,48215.3
61951.5,48273.8
62048.8,48314.1
62152.1,48334.6
62257.4,48334.6
62360.7,48314.1
62458,48273.8
62545.5,48215.3
62567.8,48193.1
62826.8,48193.1
62859,48277
62956.8,48316
63060.4,48335.3
63165.7,48333.9
63268.7,48312.1
63353.6,48277
63385.8,48193.1
63106.3,47913.6
62826.8,48193.1
62567.8,48193.1
62620,48140.8
62671.7,48063.5
62713.2,48079.5
62992.7,47800
62987.1,47794.4
63100.7,47680.8
63106.3,47686.4
63111.9,47680.8
63225.4,47794.4
63219.9,47800
63499.4,48079.5
63583.3,48047.3
63622.3,47949.5
63641.6,47845.9
63640.2,47740.6
63618.4,47637.6
63610.3,47618.1
63632.3,47618.1
Z" /> 
<path style="fill:#000000; fill-opacity:1.0; 
stroke:#000000; stroke-width:39.3701; stroke-opacity:1; 
stroke-linecap:round; stroke-linejoin:round;fill-rule:evenodd;"
d="M 62774.7,46794.4
62769.1,46800
62774.7,46805.6
62661.1,46919.2
62655.5,46913.6
62649.9,46919.2
62536.4,46805.6
62541.9,46800
62536.4,46794.4
62649.9,46680.8
62655.5,46686.4
62661.1,46680.8
Z" /> 
</g>
</g>
<g style="fill:#FFFFFF; fill-opacity:1.0; 
stroke:#FFFFFF; stroke-width:39.3701; stroke-opacity:1; 
stroke-linecap:round; stroke-linejoin:round;">
</g>
<g style="fill:#FFFFFF; fill-opacity:1.0; 
stroke:#FFFFFF; stroke-width:0; stroke-opacity:1; 
stroke-linecap:round; stroke-linejoin:round;">
<circle cx="66200" cy="46800" r="68.8976" /> 
</g>
<g style="fill:#FFFFFF; fill-opacity:1.0; 
stroke:#FFFFFF; stroke-width:39.3701; stroke-opacity:1; 
stroke-linecap:round; stroke-linejoin:round;">
</g>
<g style="fill:#FFFFFF; fill-opacity:1.0; 
stroke:#FFFFFF; stroke-width:0; stroke-opacity:1; 
stroke-linecap:round; stroke-linejoin:round;">
<circle cx="56400" cy="46800" r="68.8976" /> 
</g>
<g style="fill:#FFFFFF; fill-opacity:1.0; 
stroke:#FFFFFF; stroke-width:39.3701; stroke-opacity:1; 
stroke-linecap:round; stroke-linejoin:round;">
</g>
<g style="fill:#FFFFFF; fill-opacity:1.0; 
stroke:#FFFFFF; stroke-width:0; stroke-opacity:1; 
stroke-linecap:round; stroke-linejoin:round;">
<circle cx="53800" cy="52000" r="68.8976" /> 
</g>
<g style="fill:#FFFFFF; fill-opacity:1.0; 
stroke:#FFFFFF; stroke-width:39.3701; stroke-opacity:1; 
stroke-linecap:round; stroke-linejoin:round;">
</g>
<g style="fill:#FFFFFF; fill-opacity:1.0; 
stroke:#FFFFFF; stroke-width:0; stroke-opacity:1; 
stroke-linecap:round; stroke-linejoin:round;">
<circle cx="54800" cy="52000" r="68.8976" /> 
</g>
<g style="fill:#FFFFFF; fill-opacity:1.0; 
stroke:#FFFFFF; stroke-width:39.3701; stroke-opacity:1; 
stroke-linecap:round; stroke-linejoin:round;">
</g>
<g style="fill:#FFFFFF; fill-opacity:1.0; 
stroke:#FFFFFF; stroke-width:0; stroke-opacity:1; 
stroke-linecap:round; stroke-linejoin:round;">
<circle cx="55800" cy="52000" r="68.8976" /> 
</g>
<g style="fill:#FFFFFF; fill-opacity:1.0; 
stroke:#FFFFFF; stroke-width:39.3701; stroke-opacity:1; 
stroke-linecap:round; stroke-linejoin:round;">
</g>
<g style="fill:#FFFFFF; fill-opacity:1.0; 
stroke:#FFFFFF; stroke-width:0; stroke-opacity:1; 
stroke-linecap:round; stroke-linejoin:round;">
<circle cx="56800" cy="52000" r="68.8976" /> 
</g>
<g style="fill:#FFFFFF; fill-opacity:1.0; 
stroke:#FFFFFF; stroke-width:39.3701; stroke-opacity:1; 
stroke-linecap:round; stroke-linejoin:round;">
</g>
<g style="fill:#FFFFFF; fill-opacity:1.0; 
stroke:#FFFFFF; stroke-width:0; stroke-opacity:1; 
stroke-linecap:round; stroke-linejoin:round;">
<circle cx="57800" cy="52000" r="68.8976" /> 
</g>
<g style="fill:#FFFFFF; fill-opacity:1.0; 
stroke:#FFFFFF; stroke-width:39.3701; stroke-opacity:1; 
stroke-linecap:round; stroke-linejoin:round;">
</g>
<g style="fill:#FFFFFF; fill-opacity:1.0; 
stroke:#FFFFFF; stroke-width:0; stroke-opacity:1; 
stroke-linecap:round; stroke-linejoin:round;">
<circle cx="58800" cy="52000" r="68.8976" /> 
</g>
<g style="fill:#FFFFFF; fill-opacity:1.0; 
stroke:#FFFFFF; stroke-width:39.3701; stroke-opacity:1; 
stroke-linecap:round; stroke-linejoin:round;">
</g>
<g style="fill:#FFFFFF; fill-opacity:1.0; 
stroke:#FFFFFF; stroke-width:0; stroke-opacity:1; 
stroke-linecap:round; stroke-linejoin:round;">
<circle cx="59800" cy="52000" r="68.8976" /> 
</g>
<g style="fill:#FFFFFF; fill-opacity:1.0; 
stroke:#FFFFFF; stroke-width:39.3701; stroke-opacity:1; 
stroke-linecap:round; stroke-linejoin:round;">
</g>
<g style="fill:#FFFFFF; fill-opacity:1.0; 
stroke:#FFFFFF; stroke-width:0; stroke-opacity:1; 
stroke-linecap:round; stroke-linejoin:round;">
<circle cx="60800" cy="52000" r="68.8976" /> 
</g>
<g style="fill:#FFFFFF; fill-opacity:1.0; 
stroke:#FFFFFF; stroke-width:39.3701; stroke-opacity:1; 
stroke-linecap:round; stroke-linejoin:round;">
</g>
<g style="fill:#FFFFFF; fill-opacity:1.0; 
stroke:#FFFFFF; stroke-width:0; stroke-opacity:1; 
stroke-linecap:round; stroke-linejoin:round;">
<circle cx="61800" cy="52000" r="68.8976" /> 
</g>
<g style="fill:#FFFFFF; fill-opacity:1.0; 
stroke:#FFFFFF; stroke-width:39.3701; stroke-opacity:1; 
stroke-linecap:round; stroke-linejoin:round;">
</g>
<g style="fill:#FFFFFF; fill-opacity:1.0; 
stroke:#FFFFFF; stroke-width:0; stroke-opacity:1; 
stroke-linecap:round; stroke-linejoin:round;">
<circle cx="62800" cy="52000" r="68.8976" /> 
</g>
<g style="fill:#FFFFFF; fill-opacity:1.0; 
stroke:#FFFFFF; stroke-width:39.3701; stroke-opacity:1; 
stroke-linecap:round; stroke-linejoin:round;">
</g>
<g style="fill:#FFFFFF; fill-opacity:1.0; 
stroke:#FFFFFF; stroke-width:0; stroke-opacity:1; 
stroke-linecap:round; stroke-linejoin:round;">
<circle cx="63800" cy="52000" r="68.8976" /> 
</g>
<g style="fill:#FFFFFF; fill-opacity:1.0; 
stroke:#FFFFFF; stroke-width:39.3701; stroke-opacity:1; 
stroke-linecap:round; stroke-linejoin:round;">
</g>
<g style="fill:#FFFFFF; fill-opacity:1.0; 
stroke:#FFFFFF; stroke-width:0; stroke-opacity:1; 
stroke-linecap:round; stroke-linejoin:round;">
<circle cx="64800" cy="52000" r="68.8976" /> 
</g>
<g style="fill:#FFFFFF; fill-opacity:1.0; 
stroke:#FFFFFF; stroke-width:39.3701; stroke-opacity:1; 
stroke-linecap:round; stroke-linejoin:round;">
</g>
<g style="fill:#FFFFFF; fill-opacity:1.0; 
stroke:#FFFFFF; stroke-width:0; stroke-opacity:1; 
stroke-linecap:round; stroke-linejoin:round;">
<circle cx="65800" cy="52000" r="68.8976" /> 
</g>
<g style="fill:#FFFFFF; fill-opacity:1.0; 
stroke:#FFFFFF; stroke-width:39.3701; stroke-opacity:1; 
stroke-linecap:round; stroke-linejoin:round;">
</g>
<g style="fill:#FFFFFF; fill-opacity:1.0; 
stroke:#FFFFFF; stroke-width:0; stroke-opacity:1; 
stroke-linecap:round; stroke-linejoin:round;">
<circle cx="66800" cy="52000" r="68.8976" /> 
</g>
<g style="fill:#FFFFFF; fill-opacity:1.0; 
stroke:#FFFFFF; stroke-width:39.3701; stroke-opacity:1; 
stroke-linecap:round; stroke-linejoin:round;">
</g>
<g style="fill:#FFFFFF; fill-opacity:1.0; 
stroke:#FFFFFF; stroke-width:0; stroke-opacity:1; 
stroke-linecap:round; stroke-linejoin:round;">
<circle cx="67800" cy="52000" r="68.8976" /> 
</g>
<g style="fill:#FFFFFF; fill-opacity:1.0; 
stroke:#FFFFFF; stroke-width:39.3701; stroke-opacity:1; 
stroke-linecap:round; stroke-linejoin:round;">
</g>
<g style="fill:#FFFFFF; fill-opacity:1.0; 
stroke:#FFFFFF; stroke-width:0; stroke-opacity:1; 
stroke-linecap:round; stroke-linejoin:round;">
<circle cx="68800" cy="52000" r="68.8976" /> 
</g>
<g style="fill:#FFFFFF; fill-opacity:1.0; 
stroke:#FFFFFF; stroke-width:39.3701; stroke-opacity:1; 
stroke-linecap:round; stroke-linejoin:round;">
</g>
<g style="fill:#FFFFFF; fill-opacity:1.0; 
stroke:#FFFFFF; stroke-width:0; stroke-opacity:1; 
stroke-linecap:round; stroke-linejoin:round;">
<circle cx="59500" cy="47800" r="68.8976" /> 
</g>
<g style="fill:#FFFFFF; fill-opacity:1.0; 
stroke:#FFFFFF; stroke-width:39.3701; stroke-opacity:1; 
stroke-linecap:round; stroke-linejoin:round;">
</g>
<g style="fill:#FFFFFF; fill-opacity:1.0; 
stroke:#FFFFFF; stroke-width:0; stroke-opacity:1; 
stroke-linecap:round; stroke-linejoin:round;">
<circle cx="60401.6" cy="47800" r="68.8976" /> 
</g>
<g style="fill:#FFFFFF; fill-opacity:1.0; 
stroke:#FFFFFF; stroke-width:39.3701; stroke-opacity:1; 
stroke-linecap:round; stroke-linejoin:round;">
</g>
<g style="fill:#FFFFFF; fill-opacity:1.0; 
stroke:#FFFFFF; stroke-width:0; stroke-opacity:1; 
stroke-linecap:round; stroke-linejoin:round;">
<circle cx="61303.1" cy="47800" r="68.8976" /> 
</g>
<g style="fill:#FFFFFF; fill-opacity:1.0; 
stroke:#FFFFFF; stroke-width:39.3701; stroke-opacity:1; 
stroke-linecap:round; stroke-linejoin:round;">
</g>
<g style="fill:#FFFFFF; fill-opacity:1.0; 
stroke:#FFFFFF; stroke-width:0; stroke-opacity:1; 
stroke-linecap:round; stroke-linejoin:round;">
<circle cx="62204.7" cy="47800" r="68.8976" /> 
</g>
<g style="fill:#FFFFFF; fill-opacity:1.0; 
stroke:#FFFFFF; stroke-width:39.3701; stroke-opacity:1; 
stroke-linecap:round; stroke-linejoin:round;">
</g>
<g style="fill:#FFFFFF; fill-opacity:1.0; 
stroke:#FFFFFF; stroke-width:0; stroke-opacity:1; 
stroke-linecap:round; stroke-linejoin:round;">
<circle cx="63106.3" cy="47800" r="68.8976" /> 
</g>
<g style="fill:#FFFFFF; fill-opacity:1.0; 
stroke:#FFFFFF; stroke-width:39.3701; stroke-opacity:1; 
stroke-linecap:round; stroke-linejoin:round;">
</g>
<g style="fill:#FFFFFF; fill-opacity:1.0; 
stroke:#FFFFFF; stroke-width:0; stroke-opacity:1; 
stroke-linecap:round; stroke-linejoin:round;">
<circle cx="59049.2" cy="46800" r="68.8976" /> 
</g>
<g style="fill:#FFFFFF; fill-opacity:1.0; 
stroke:#FFFFFF; stroke-width:39.3701; stroke-opacity:1; 
stroke-linecap:round; stroke-linejoin:round;">
</g>
<g style="fill:#FFFFFF; fill-opacity:1.0; 
stroke:#FFFFFF; stroke-width:0; stroke-opacity:1; 
stroke-linecap:round; stroke-linejoin:round;">
<circle cx="59950.8" cy="46800" r="68.8976" /> 
</g>
<g style="fill:#FFFFFF; fill-opacity:1.0; 
stroke:#FFFFFF; stroke-width:39.3701; stroke-opacity:1; 
stroke-linecap:round; stroke-linejoin:round;">
</g>
<g style="fill:#FFFFFF; fill-opacity:1.0; 
stroke:#FFFFFF; stroke-width:0; stroke-opacity:1; 
stroke-linecap:round; stroke-linejoin:round;">
<circle cx="60852.4" cy="46800" r="68.8976" /> 
</g>
<g style="fill:#FFFFFF; fill-opacity:1.0; 
stroke:#FFFFFF; stroke-width:39.3701; stroke-opacity:1; 
stroke-linecap:round; stroke-linejoin:round;">
</g>
<g style="fill:#FFFFFF; fill-opacity:1.0; 
stroke:#FFFFFF; stroke-width:0; stroke-opacity:1; 
stroke-linecap:round; stroke-linejoin:round;">
<circle cx="61753.9" cy="46800" r="68.8976" /> 
</g>
<g style="fill:#FFFFFF; fill-opacity:1.0; 
stroke:#FFFFFF; stroke-width:39.3701; stroke-opacity:1; 
stroke-linecap:round; stroke-linejoin:round;">
</g>
<g style="fill:#FFFFFF; fill-opacity:1.0; 
stroke:#FFFFFF; stroke-width:0; stroke-opacity:1; 
stroke-linecap:round; stroke-linejoin:round;">
<circle cx="62655.5" cy="46800" r="68.8976" /> 
</g>
<g style="fill:#FFFFFF; fill-opacity:1.0; 
stroke:#FFFFFF; stroke-width:39.3701; stroke-opacity:1; 
stroke-linecap:round; stroke-linejoin:round;">
</g>
<g style="fill:#FFFFFF; fill-opacity:1.0; 
stroke:#FFFFFF; stroke-width:0; stroke-opacity:1; 
stroke-linecap:round; stroke-linejoin:round;">
<circle cx="59500" cy="45800" r="68.8976" /> 
</g>
<g style="fill:#FFFFFF; fill-opacity:1.0; 
stroke:#FFFFFF; stroke-width:39.3701; stroke-opacity:1; 
stroke-linecap:round; stroke-linejoin:round;">
</g>
<g style="fill:#FFFFFF; fill-opacity:1.0; 
stroke:#FFFFFF; stroke-width:0; stroke-opacity:1; 
stroke-linecap:round; stroke-linejoin:round;">
<circle cx="60401.6" cy="45800" r="68.8976" /> 
</g>
<g style="fill:#FFFFFF; fill-opacity:1.0; 
stroke:#FFFFFF; stroke-width:39.3701; stroke-opacity:1; 
stroke-linecap:round; stroke-linejoin:round;">
</g>
<g style="fill:#FFFFFF; fill-opacity:1.0; 
stroke:#FFFFFF; stroke-width:0; stroke-opacity:1; 
stroke-linecap:round; stroke-linejoin:round;">
<circle cx="61303.1" cy="45800" r="68.8976" /> 
</g>
<g style="fill:#FFFFFF; fill-opacity:1.0; 
stroke:#FFFFFF; stroke-width:39.3701; stroke-opacity:1; 
stroke-linecap:round; stroke-linejoin:round;">
</g>
<g style="fill:#FFFFFF; fill-opacity:1.0; 
stroke:#FFFFFF; stroke-width:0; stroke-opacity:1; 
stroke-linecap:round; stroke-linejoin:round;">
<circle cx="62204.7" cy="45800" r="68.8976" /> 
</g>
<g style="fill:#FFFFFF; fill-opacity:1.0; 
stroke:#FFFFFF; stroke-width:39.3701; stroke-opacity:1; 
stroke-linecap:round; stroke-linejoin:round;">
</g>
<g style="fill:#FFFFFF; fill-opacity:1.0; 
stroke:#FFFFFF; stroke-width:0; stroke-opacity:1; 
stroke-linecap:round; stroke-linejoin:round;">
<circle cx="63106.3" cy="45800" r="68.8976" /> 
</g>
<g style="fill:#FFFFFF; fill-opacity:1.0; 
stroke:#FFFFFF; stroke-width:39.3701; stroke-opacity:1; 
stroke-linecap:round; stroke-linejoin:round;">
</g>
<g style="fill:#000000; fill-opacity:1.0; 
stroke:#000000; stroke-width:39.3701; stroke-opacity:1; 
stroke-linecap:round; stroke-linejoin:round;">
</g> 
</svg>
