<?xml version="1.0" standalone="no"?>
 <!DOCTYPE svg PUBLIC "-//W3C//DTD SVG 1.1//EN" 
 "http://www.w3.org/Graphics/SVG/1.1/DTD/svg11.dtd"> 
<svg xmlns="http://www.w3.org/2000/svg" version="1.1" 
    width="29.7002cm" height="21.0007cm" viewBox="0 0 116930 82680 ">
<title>SVG Picture created as VGA-B_SilkS.svg date 2019/12/13 15:11:35 </title>
  <desc>Picture generated by PCBNEW </desc>
<g style="fill:#000000; fill-opacity:1;stroke:#000000; stroke-opacity:1;
stroke-linecap:round; stroke-linejoin:round; "
 transform="translate(0 0) scale(1 1)">
</g>
<g style="fill:#000000; fill-opacity:0.0; 
stroke:#000000; stroke-width:-0.000393701; stroke-opacity:1; 
stroke-linecap:round; stroke-linejoin:round;">
</g>
<g style="fill:#000000; fill-opacity:0.0; 
stroke:#000000; stroke-width:59.0551; stroke-opacity:1; 
stroke-linecap:round; stroke-linejoin:round;">
<g transform="rotate(-270 53750 50500)">
<text x="53750" y="50696.9"
textLength="-1460.54" font-size="-524.934" lengthAdjust="spacingAndGlyphs"
text-anchor="middle" opacity="0">v 1.1</text>
</g>
<path d="M53834 51212
L53571 51118
L53834 51024
" />
<path d="M53571 50368
L53571 50593
" />
<path d="M53571 50481
L53965 50481
L53909 50518
L53871 50556
L53853 50593
" />
<path d="M53609 50200
L53590 50181
L53571 50200
L53590 50218
L53609 50200
L53571 50200
" />
<path d="M53571 49806
L53571 50031
" />
<path d="M53571 49918
L53965 49918
L53909 49956
L53871 49993
L53853 50031
" />
</g>
<g style="fill:#000000; fill-opacity:0.0; 
stroke:#000000; stroke-width:19.685; stroke-opacity:1; 
stroke-linecap:round; stroke-linejoin:round;">
<path d="M54000 49250 A750 750 0.0 0 0 54750 48500 " />
<path d="M54000 49250 A1000 1000 0.0 0 0 53000 50250 " />
<path d="M67750 48500 A750 750 0.0 0 0 68500 49250 " />
<path d="M53000 52750
L53000 50250
" />
<path d="M69500 50250 A1000 1000 0.0 0 0 68500 49250 " />
<path d="M69500 52750
L69500 50250
" />
</g>
<g style="fill:#000000; fill-opacity:0.0; 
stroke:#000000; stroke-width:59.0551; stroke-opacity:1; 
stroke-linecap:round; stroke-linejoin:round;">
<text x="57750" y="50446.9"
textLength="-2772.87" font-size="-524.934" lengthAdjust="spacingAndGlyphs"
text-anchor="middle" opacity="0">Ulices AH</text>
<path d="M59081 50034
L59081 50353
L59062 50390
L59043 50409
L59006 50428
L58931 50428
L58893 50409
L58874 50390
L58856 50353
L58856 50034
" />
<path d="M58612 50428
L58649 50409
L58668 50371
L58668 50034
" />
<path d="M58462 50428
L58462 50165
" />
<path d="M58462 50034
L58481 50053
L58462 50071
L58443 50053
L58462 50034
L58462 50071
" />
<path d="M58106 50409
L58143 50428
L58218 50428
L58256 50409
L58274 50390
L58293 50353
L58293 50240
L58274 50203
L58256 50184
L58218 50165
L58143 50165
L58106 50184
" />
<path d="M57787 50409
L57824 50428
L57899 50428
L57937 50409
L57956 50371
L57956 50221
L57937 50184
L57899 50165
L57824 50165
L57787 50184
L57768 50221
L57768 50259
L57956 50296
" />
<path d="M57618 50409
L57581 50428
L57506 50428
L57468 50409
L57450 50371
L57450 50353
L57468 50315
L57506 50296
L57562 50296
L57600 50278
L57618 50240
L57618 50221
L57600 50184
L57562 50165
L57506 50165
L57468 50184
" />
<path d="M57000 50315
L56812 50315
" />
<path d="M57037 50428
L56906 50034
L56775 50428
" />
<path d="M56643 50428
L56643 50034
" />
<path d="M56643 50221
L56418 50221
" />
<path d="M56418 50428
L56418 50034
" />
</g>
<g style="fill:#000000; fill-opacity:0.0; 
stroke:#000000; stroke-width:98.4252; stroke-opacity:1; 
stroke-linecap:round; stroke-linejoin:round;">
<text x="67500" y="49063.4"
textLength="-6334.93" font-size="-524.934" lengthAdjust="spacingAndGlyphs"
text-anchor="start" opacity="0">12-bit RGB color for</text>
<path d="M67136 49044
L67361 49044
" />
<path d="M67248 49044
L67248 48650
L67286 48707
L67323 48744
L67361 48763
" />
<path d="M66986 48688
L66967 48669
L66929 48650
L66836 48650
L66798 48669
L66779 48688
L66761 48725
L66761 48763
L66779 48819
L67004 49044
L66761 49044
" />
<path d="M66592 48894
L66292 48894
" />
<path d="M66104 49044
L66104 48650
" />
<path d="M66104 48800
L66067 48782
L65992 48782
L65954 48800
L65936 48819
L65917 48857
L65917 48969
L65936 49007
L65954 49025
L65992 49044
L66067 49044
L66104 49025
" />
<path d="M65748 49044
L65748 48782
" />
<path d="M65748 48650
L65767 48669
L65748 48688
L65729 48669
L65748 48650
L65748 48688
" />
<path d="M65617 48782
L65467 48782
" />
<path d="M65561 48650
L65561 48988
L65542 49025
L65505 49044
L65467 49044
" />
<path d="M64811 49044
L64942 48857
" />
<path d="M65036 49044
L65036 48650
L64886 48650
L64848 48669
L64830 48688
L64811 48725
L64811 48782
L64830 48819
L64848 48838
L64886 48857
L65036 48857
" />
<path d="M64436 48669
L64473 48650
L64530 48650
L64586 48669
L64623 48707
L64642 48744
L64661 48819
L64661 48875
L64642 48950
L64623 48988
L64586 49025
L64530 49044
L64492 49044
L64436 49025
L64417 49007
L64417 48875
L64492 48875
" />
<path d="M64117 48838
L64061 48857
L64042 48875
L64023 48913
L64023 48969
L64042 49007
L64061 49025
L64098 49044
L64248 49044
L64248 48650
L64117 48650
L64080 48669
L64061 48688
L64042 48725
L64042 48763
L64061 48800
L64080 48819
L64117 48838
L64248 48838
" />
<path d="M63386 49025
L63424 49044
L63499 49044
L63536 49025
L63555 49007
L63574 48969
L63574 48857
L63555 48819
L63536 48800
L63499 48782
L63424 48782
L63386 48800
" />
<path d="M63161 49044
L63199 49025
L63217 49007
L63236 48969
L63236 48857
L63217 48819
L63199 48800
L63161 48782
L63105 48782
L63067 48800
L63049 48819
L63030 48857
L63030 48969
L63049 49007
L63067 49025
L63105 49044
L63161 49044
" />
<path d="M62805 49044
L62842 49025
L62861 48988
L62861 48650
" />
<path d="M62599 49044
L62636 49025
L62655 49007
L62674 48969
L62674 48857
L62655 48819
L62636 48800
L62599 48782
L62542 48782
L62505 48800
L62486 48819
L62467 48857
L62467 48969
L62486 49007
L62505 49025
L62542 49044
L62599 49044
" />
<path d="M62299 49044
L62299 48782
" />
<path d="M62299 48857
L62280 48819
L62261 48800
L62224 48782
L62186 48782
" />
<path d="M61811 48782
L61661 48782
" />
<path d="M61755 49044
L61755 48707
L61736 48669
L61699 48650
L61661 48650
" />
<path d="M61474 49044
L61511 49025
L61530 49007
L61549 48969
L61549 48857
L61530 48819
L61511 48800
L61474 48782
L61418 48782
L61380 48800
L61361 48819
L61343 48857
L61343 48969
L61361 49007
L61380 49025
L61418 49044
L61474 49044
" />
<path d="M61174 49044
L61174 48782
" />
<path d="M61174 48857
L61155 48819
L61136 48800
L61099 48782
L61061 48782
" />
<text x="67500" y="49752.4"
textLength="-1446.85" font-size="-524.934" lengthAdjust="spacingAndGlyphs"
text-anchor="start" opacity="0">Video</text>
<path d="M67398 49339
L67267 49733
L67136 49339
" />
<path d="M67004 49733
L67004 49471
" />
<path d="M67004 49339
L67023 49358
L67004 49377
L66986 49358
L67004 49339
L67004 49377
" />
<path d="M66648 49733
L66648 49339
" />
<path d="M66648 49714
L66686 49733
L66761 49733
L66798 49714
L66817 49696
L66836 49658
L66836 49546
L66817 49508
L66798 49489
L66761 49471
L66686 49471
L66648 49489
" />
<path d="M66311 49714
L66348 49733
L66423 49733
L66461 49714
L66479 49677
L66479 49527
L66461 49489
L66423 49471
L66348 49471
L66311 49489
L66292 49527
L66292 49564
L66479 49602
" />
<path d="M66067 49733
L66104 49714
L66123 49696
L66142 49658
L66142 49546
L66123 49508
L66104 49489
L66067 49471
L66011 49471
L65973 49489
L65954 49508
L65936 49546
L65936 49658
L65954 49696
L65973 49714
L66011 49733
L66067 49733
" />
<text x="67500" y="50441.3"
textLength="-2421.73" font-size="-524.934" lengthAdjust="spacingAndGlyphs"
text-anchor="start" opacity="0">Graphics</text>
<path d="M67136 50047
L67173 50028
L67229 50028
L67286 50047
L67323 50085
L67342 50122
L67361 50197
L67361 50253
L67342 50328
L67323 50366
L67286 50403
L67229 50422
L67192 50422
L67136 50403
L67117 50385
L67117 50253
L67192 50253
" />
<path d="M66948 50422
L66948 50160
" />
<path d="M66948 50235
L66929 50197
L66911 50178
L66873 50160
L66836 50160
" />
<path d="M66536 50422
L66536 50216
L66554 50178
L66592 50160
L66667 50160
L66704 50178
" />
<path d="M66536 50403
L66573 50422
L66667 50422
L66704 50403
L66723 50366
L66723 50328
L66704 50291
L66667 50272
L66573 50272
L66536 50253
" />
<path d="M66348 50160
L66348 50553
" />
<path d="M66348 50178
L66311 50160
L66236 50160
L66198 50178
L66179 50197
L66161 50235
L66161 50347
L66179 50385
L66198 50403
L66236 50422
L66311 50422
L66348 50403
" />
<path d="M65992 50422
L65992 50028
" />
<path d="M65823 50422
L65823 50216
L65842 50178
L65879 50160
L65936 50160
L65973 50178
L65992 50197
" />
<path d="M65636 50422
L65636 50160
" />
<path d="M65636 50028
L65654 50047
L65636 50066
L65617 50047
L65636 50028
L65636 50066
" />
<path d="M65280 50403
L65317 50422
L65392 50422
L65430 50403
L65448 50385
L65467 50347
L65467 50235
L65448 50197
L65430 50178
L65392 50160
L65317 50160
L65280 50178
" />
<path d="M65130 50403
L65092 50422
L65017 50422
L64980 50403
L64961 50366
L64961 50347
L64980 50310
L65017 50291
L65073 50291
L65111 50272
L65130 50235
L65130 50216
L65111 50178
L65073 50160
L65017 50160
L64980 50178
" />
<text x="67500" y="51130.3"
textLength="-1353.11" font-size="-524.934" lengthAdjust="spacingAndGlyphs"
text-anchor="start" opacity="0">Array</text>
<path d="M67361 50999
L67173 50999
" />
<path d="M67398 51111
L67267 50717
L67136 51111
" />
<path d="M67004 51111
L67004 50849
" />
<path d="M67004 50924
L66986 50886
L66967 50867
L66929 50849
L66892 50849
" />
<path d="M66761 51111
L66761 50849
" />
<path d="M66761 50924
L66742 50886
L66723 50867
L66686 50849
L66648 50849
" />
<path d="M66348 51111
L66348 50905
L66367 50867
L66404 50849
L66479 50849
L66517 50867
" />
<path d="M66348 51092
L66386 51111
L66479 51111
L66517 51092
L66536 51055
L66536 51017
L66517 50980
L66479 50961
L66386 50961
L66348 50942
" />
<path d="M66198 50849
L66104 51111
" />
<path d="M66011 50849
L66104 51111
L66142 51205
L66161 51224
L66198 51242
" />
</g>
<g style="fill:#000000; fill-opacity:0.0; 
stroke:#000000; stroke-width:19.685; stroke-opacity:1; 
stroke-linecap:round; stroke-linejoin:round;">
<path d="M55750 42000 A1000 1000 0.0 0 0 54750 43000 " />
<path d="M67750 43000 A1000 1000 0.0 0 0 66750 42000 " />
<path d="M69250 53000 A250 250 0.0 0 0 69500 52750 " />
<path d="M53000 52750 A250 250 0.0 0 0 53250 53000 " />
<path d="M54750 43000
L54750 48500
" />
<path d="M66750 42000
L55750 42000
" />
<path d="M67750 48500
L67750 43000
" />
<path d="M53250 53000
L69250 53000
" />
</g>
<g style="fill:#000000; fill-opacity:1.0; 
stroke:#000000; stroke-width:3.93701; stroke-opacity:1; 
stroke-linecap:round; stroke-linejoin:round;">
<path style="fill:#000000; fill-opacity:1.0; 
stroke:#000000; stroke-width:3.93701; stroke-opacity:1; 
stroke-linecap:round; stroke-linejoin:round;fill-rule:evenodd;"
d="M 57904.8,43035.7
57952.4,43083.3
58000,43035.7
57952.4,42988.1
Z" /> 
<path style="fill:#000000; fill-opacity:1.0; 
stroke:#000000; stroke-width:3.93701; stroke-opacity:1; 
stroke-linecap:round; stroke-linejoin:round;fill-rule:evenodd;"
d="M 56591.9,43533.1
56564.8,44506.6
56808,44567.6
57095.3,44598.3
57287.5,44583.5
57474,44592.8
57524,44684.6
57437.9,44808.9
57285.7,44892.9
57109.9,44976
57047.6,45033.4
57135.8,45055.4
57371.9,45072.4
57713.5,45082.1
57904.8,45083.3
58282.2,45075.9
58574.9,45055.9
58740.2,45026.9
58761.9,45010.7
58686.1,44919.2
58558.4,44844
58520,44817.7
58162.1,44817.7
58047.6,44886
57960.3,44892.9
57769.1,44850.7
57714.3,44705.4
57746.2,44575
57876.4,44579.1
57923.7,44595.5
58119.1,44707.6
58162.1,44817.7
58520,44817.7
58390.4,44728.7
58398.8,44637.2
58569.7,44589
58739.5,44588.8
58996.7,44593.3
59167.1,44549
59267.1,44425.1
59305.9,44226.2
59142.9,44226.2
59056.8,44278.6
58835,44313.2
58624.7,44321.4
58326.4,44305.2
58112.5,44263.6
58047.6,44226.2
57857.1,44226.2
57736.2,44279.2
57488.2,44313.7
57280.1,44321.4
56995,44305.6
56806.8,44264.8
56761.9,44226.2
56848.7,44175.6
57076,44141.2
57339,44131
57667.3,44145
57839.8,44184.7
57857.1,44226.2
58047.6,44226.2
58098.3,44170.6
58318.7,44138
58565.8,44131
58872.5,44145.3
59080.6,44182.8
59142.9,44226.2
59305.9,44226.2
59312.8,44191.1
59320.4,43816.3
59313.2,43504
59289.9,42702.4
59142.9,42702.4
59142.9,43940.5
56761.9,43940.5
56761.9,42702.4
59142.9,42702.4
59289.9,42702.4
59285.7,42559.5
56619,42559.5
Z" /> 
<path style="fill:#000000; fill-opacity:1.0; 
stroke:#000000; stroke-width:3.93701; stroke-opacity:1; 
stroke-linecap:round; stroke-linejoin:round;fill-rule:evenodd;"
d="M 62047.7,44645.5
62035.4,44654.2
62024.4,44665.2
62024.4,44787
62024.5,44823.1
62024.6,44851.5
62024.9,44873.1
62025.5,44889.1
62026.4,44900.5
62027.7,44908.4
62029.5,44913.9
62031.8,44918
62033.7,44920.5
62045.8,44930.2
62059.6,44931.2
62072.3,44925.3
62076.5,44921.8
62079.3,44917.1
62081,44909.7
62081.9,44897.6
62082.2,44879.4
62082.2,44865.3
62082.2,44812.2
62277.8,44812.2
62277.8,44860.5
62278,44882.6
62278.8,44897.8
62280.5,44908
62283.4,44915.3
62287,44920.5
62299.2,44930.2
62312.9,44931.3
62326.1,44924.4
62329.7,44920.8
62332.2,44916.1
62333.9,44908.7
62334.9,44897.1
62335.4,44879.9
62335.7,44855.6
62335.7,44850
62335.9,44804.2
62336,44766.4
62335.9,44735.9
62335.7,44711.8
62335.3,44693.2
62334.7,44679.3
62333.7,44669.4
62332.5,44662.5
62330.9,44657.9
62328.9,44654.7
62326.7,44652.2
62314.1,44644.4
62301,44645.5
62288.7,44654.2
62283.7,44659.9
62280.5,44666.1
62278.7,44675
62278,44688.6
62277.8,44709
62277.8,44754.4
62082.2,44754.4
62082.2,44707.8
62082,44686.3
62081.2,44671.8
62079.5,44662.3
62076.6,44656.1
62073.3,44652.2
62060.8,44644.4
Z" /> 
<path style="fill:#000000; fill-opacity:1.0; 
stroke:#000000; stroke-width:3.93701; stroke-opacity:1; 
stroke-linecap:round; stroke-linejoin:round;fill-rule:evenodd;"
d="M 62546,44643.4
62515.1,44643.5
62491,44643.8
62472.9,44644.4
62459.8,44645.2
62450.7,44646.3
62444.6,44647.7
62440.6,44649.6
62438.7,44651.1
62428.6,44663.9
62427.3,44677.2
62433.6,44689.3
62437.7,44694.1
62442,44697.4
62448.4,44699.5
62458.4,44700.6
62473.7,44701
62496,44701.1
62500.3,44701.1
62557.8,44701.1
62557.8,44807.8
62557.8,44841.4
62558,44867.3
62558.4,44886.5
62559.1,44900.3
62560.2,44909.7
62561.8,44916
62563.9,44920.2
62566.7,44923.3
62579.6,44931.1
62593.2,44930.5
62605.4,44921.6
62606.3,44920.5
62609.3,44916.3
62611.5,44911.4
62613.1,44904.7
62614.3,44894.8
62615,44880.7
62615.4,44861.1
62615.5,44834.8
62615.6,44805
62615.6,44701.1
62670.4,44701.1
62694,44701
62710.3,44700.3
62721,44699
62727.7,44696.8
62732.1,44693.6
62732.6,44693
62739.1,44679.9
62738.5,44665.1
62731.1,44652.2
62728.2,44649.7
62724.6,44647.7
62719.1,44646.2
62710.7,44645.1
62698.7,44644.3
62681.8,44643.8
62659.2,44643.5
62629.9,44643.4
62592.8,44643.3
62584.9,44643.3
Z" /> 
<path style="fill:#000000; fill-opacity:1.0; 
stroke:#000000; stroke-width:3.93701; stroke-opacity:1; 
stroke-linecap:round; stroke-linejoin:round;fill-rule:evenodd;"
d="M 62850.9,44646
62841.6,44651.8
62831.1,44660.3
62831.1,44786.9
62831.1,44823.9
62831.3,44853.1
62831.6,44875.5
62832.2,44892
62833,44903.8
62834.2,44911.9
62835.9,44917.3
62838.1,44921
62839.6,44922.9
62852,44930.9
62866,44930.6
62878.4,44923.7
62888.9,44915.2
62888.9,44660.3
62878.4,44651.8
62868.3,44645.6
62860,44643.3
Z" /> 
<path style="fill:#000000; fill-opacity:1.0; 
stroke:#000000; stroke-width:3.93701; stroke-opacity:1; 
stroke-linecap:round; stroke-linejoin:round;fill-rule:evenodd;"
d="M 63025.7,44644.1
63018,44646.9
63017.7,44647
63007.2,44655
63001.5,44663.2
63000.3,44667.1
63000.4,44672.2
63002,44679.5
63005.5,44689.9
63011.2,44704.2
63019.4,44723.5
63030.6,44748.6
63045.1,44780.4
63053.1,44797.7
63067.5,44828.7
63081,44857.3
63093.1,44882.2
63103.3,44902.6
63111.1,44917.4
63115.9,44925.5
63116.8,44926.7
63129.1,44931.6
63142.9,44931
63153.9,44924.9
63154.4,44924.4
63158.8,44917.8
63166.2,44904.8
63175.6,44887.2
63186.3,44866.5
63190.1,44859
63218.9,44801.2
63250.3,44863.9
63261.5,44885.6
63271.9,44904.4
63280.7,44918.9
63286.9,44927.6
63289,44929.4
63305.4,44931.9
63319,44926.7
63322.9,44921
63329.8,44908.5
63339.1,44890.4
63350.1,44867.8
63362.4,44842.1
63375.3,44814.4
63388.3,44785.9
63400.8,44758
63412.4,44731.8
63422.3,44708.6
63430.1,44689.6
63435.1,44676
63436.9,44669
63436.9,44668.7
63432.5,44660
63423.9,44651.1
63423.3,44650.7
63412.7,44644.7
63402.8,44644.7
63399.1,44645.9
63394.6,44648.3
63389.8,44653.2
63384.1,44661.4
63377,44674
63367.9,44692
63356.3,44716.4
63345.8,44738.9
63333.7,44765
63322.8,44788.5
63313.8,44808.2
63307.2,44822.7
63303.5,44830.9
63302.9,44832.2
63300.5,44830.1
63295,44821.3
63287,44807.1
63277.4,44788.7
63273.5,44781.1
63260.5,44755.5
63250.5,44736.9
63242.7,44724.1
63236.1,44716.1
63230.1,44711.8
63223.8,44710.2
63219.6,44710
63212.3,44710.6
63205.9,44713.3
63199.6,44719.1
63192.4,44729.2
63183.6,44744.5
63172.2,44766.3
63165.9,44778.7
63155.7,44798.5
63146.8,44814.8
63140,44826.5
63136,44832
63135.5,44832.2
63133,44827.9
63127.3,44816.6
63119,44799.7
63108.7,44778.2
63097,44753.3
63091.3,44741
63076.3,44709.1
63064.2,44684.5
63054.4,44666.6
63046.3,44654.3
63039.3,44647
63032.6,44643.9
Z" /> 
<path style="fill:#000000; fill-opacity:1.0; 
stroke:#000000; stroke-width:3.93701; stroke-opacity:1; 
stroke-linecap:round; stroke-linejoin:round;fill-rule:evenodd;"
d="M 64099.1,44643.4
64048.3,44645.1
64005.1,44650.3
63968.8,44659.3
63938.7,44672.5
63914,44690
63894,44712.3
63878.1,44739.6
63877.8,44740.3
63868.3,44764.8
63864.9,44786.4
63867.6,44808.2
63876.5,44833.1
63878.2,44836.9
63889.7,44859
63902.6,44876.2
63919.3,44890.7
63942.1,44905.2
63943.4,44905.9
63963.2,44915.4
63985.6,44922.6
64012,44927.5
64043.9,44930.5
64082.6,44931.9
64096.3,44932
64161.6,44932.2
64170.8,44920.5
64173.5,44916.7
64175.7,44912.2
64177.3,44905.9
64178.4,44896.9
64179.2,44884
64179.4,44874.4
64117.8,44874.4
64080.8,44874.4
64059.2,44873.8
64037,44872.1
64018.8,44869.8
64017.7,44869.6
63985.3,44860.9
63960.2,44847.9
63941.6,44829.9
63928.6,44806.3
63926.3,44800
63924.1,44790.3
63925.1,44780.7
63929.7,44767.9
63932.5,44761.6
63941.7,44744.9
63952.8,44733.2
63965,44725
63989.4,44714.4
64020.6,44706.7
64057,44702.3
64083.3,44701.3
64117.8,44701.1
64117.8,44874.4
64179.4,44874.4
64179.7,44866.2
64179.9,44842.2
64180,44811.2
64180,44787
64180,44665.2
64169.1,44654.2
64164.2,44649.8
64159,44646.8
64151.7,44644.9
64140.6,44643.9
64124.1,44643.5
64100.5,44643.4
Z" /> 
<path style="fill:#000000; fill-opacity:1.0; 
stroke:#000000; stroke-width:3.93701; stroke-opacity:1; 
stroke-linecap:round; stroke-linejoin:round;fill-rule:evenodd;"
d="M 64409.3,44643.4
64379.3,44643.8
64356.2,44644.6
64339.3,44646.1
64327.5,44648.5
64319.9,44652
64315.7,44656.8
64313.8,44663
64313.3,44670.9
64313.3,44671.8
64313.7,44680.7
64315.6,44687.6
64319.9,44692.7
64327.8,44696.4
64340.2,44698.9
64358.2,44700.5
64382.7,44701.4
64414.8,44702
64424.7,44702.1
64520,44703.3
64521.3,44728.9
64522.7,44754.4
64456.5,44754.4
64430.6,44754.5
64412.1,44754.9
64399.6,44755.8
64391.4,44757.4
64386.2,44759.8
64382.4,44763.2
64382.4,44763.2
64375.5,44776.4
64375.7,44790.7
64382.9,44802.9
64384.4,44804.2
64389.5,44807.4
64396.4,44809.7
64406.9,44811.1
64422.3,44811.9
64444.2,44812.2
64458.3,44812.2
64522.2,44812.2
64522.2,44874.4
64425.1,44874.4
64393.1,44874.5
64368.7,44874.7
64350.9,44875.2
64338.5,44876.1
64330.2,44877.4
64325,44879.2
64321.6,44881.7
64320.7,44882.6
64314.3,44895
64313.9,44909.1
64319.1,44921.4
64323.2,44925.3
64327.5,44927.5
64334.2,44929.1
64344.2,44930.4
64358.8,44931.3
64378.8,44931.8
64405.5,44932.1
64439.7,44932.2
64447.5,44932.2
64482.3,44932.2
64509.4,44932.1
64529.7,44931.8
64544.4,44931.2
64554.6,44930.2
64561.4,44928.8
64565.9,44926.9
64569.2,44924.3
64570.9,44922.5
64573.6,44919.2
64575.7,44915.2
64577.3,44909.4
64578.4,44900.6
64579.2,44887.9
64579.7,44870.3
64579.9,44846.5
64580,44815.7
64580,44789.8
64580,44753.4
64579.8,44724.8
64579.5,44703
64579,44686.9
64578.1,44675.4
64576.8,44667.4
64575,44661.8
64572.7,44657.7
64570.8,44655
64561.6,44643.3
64447.3,44643.3
Z" /> 
<path style="fill:#000000; fill-opacity:1.0; 
stroke:#000000; stroke-width:3.93701; stroke-opacity:1; 
stroke-linecap:round; stroke-linejoin:round;fill-rule:evenodd;"
d="M 65011.9,44645.1
65002.6,44650.5
64990.4,44659.4
64974.8,44672.2
64955.1,44689.3
64930.6,44711
64900.8,44738
64866.7,44768.9
64795.6,44833.4
64793.3,44746.9
64792.5,44717.1
64791.8,44694.9
64790.8,44679
64789.6,44668.2
64787.9,44661.2
64785.5,44656.6
64782.3,44653.2
64780.6,44651.8
64767,44644.4
64754.1,44645.4
64743.8,44651.8
64733.3,44660.3
64732,44784.3
64731.7,44820.8
64731.5,44849.4
64731.5,44871.3
64731.9,44887.5
64732.6,44899.1
64733.8,44907.2
64735.5,44912.8
64737.7,44916.9
64740.1,44920.3
64745.4,44926.5
64750.7,44930.6
64756.7,44932.1
64764.2,44930.7
64773.8,44925.9
64786.3,44917.3
64802.5,44904.3
64823,44886.6
64848.7,44863.7
64877.8,44837.4
64982.2,44742.7
64984.4,44829
64985.2,44858.7
64986,44880.8
64986.9,44896.7
64988.2,44907.4
64989.9,44914.5
64992.3,44919
64995.5,44922.4
64997.2,44923.7
65011.7,44931.2
65025.5,44930.1
65037.5,44920.5
65040.2,44916.6
65042.3,44912.1
65043.9,44905.9
65045.1,44896.8
65045.9,44883.9
65046.3,44866
65046.6,44842
65046.7,44810.8
65046.7,44787.8
65046.6,44751.7
65046.5,44723.5
65046.2,44702
65045.6,44686.1
65044.7,44674.8
65043.4,44667
65041.6,44661.5
65039.2,44657.4
65037.5,44655
65033,44649.5
65028.9,44645.3
65024.4,44642.9
65018.9,44642.7
Z" /> 
<path style="fill:#000000; fill-opacity:1.0; 
stroke:#000000; stroke-width:3.93701; stroke-opacity:1; 
stroke-linecap:round; stroke-linejoin:round;fill-rule:evenodd;"
d="M 65267.7,44645.5
65240.8,44650
65220.1,44657.1
65206.6,44666.3
65202.9,44671.6
65199.2,44683.9
65201.7,44695
65209.6,44705.6
65221.9,44710.5
65239.8,44710.1
65253.7,44707.4
65284.4,44702.4
65315.8,44701.9
65351,44706
65360.7,44707.8
65393.4,44717
65419,44730.7
65437.2,44748.7
65447.7,44770.7
65449.9,44782
65448.4,44805.1
65439.3,44825.5
65423.2,44842.9
65401,44856.8
65373.5,44866.9
65341.7,44872.7
65306.2,44873.8
65268.1,44869.9
65265.9,44869.5
65250.7,44866.7
65242.3,44864
65238.7,44859.9
65237.8,44853.1
65237.8,44849.5
65237.8,44834.4
65264.7,44834.4
65288.5,44832.8
65304.8,44827.6
65314.2,44818.4
65317.7,44804.7
65317.7,44802.9
65315.7,44791.2
65308.8,44782.8
65296,44777.3
65276.3,44774.1
65257.1,44772.9
65229.3,44772.2
65209.1,44773.3
65195.4,44777.1
65186.8,44784.8
65182.2,44797.4
65180.3,44816.1
65180,44840.6
65180.6,44867.9
65182.2,44886.5
65185,44896.5
65185.6,44897.2
65200.9,44909.6
65223.3,44919.5
65251.5,44926.5
65284,44930.5
65319.3,44931.4
65356.1,44928.8
65377.8,44925.6
65411.7,44916
65443.3,44900.3
65469.7,44879.9
65473.7,44875.8
65486.7,44858.7
65498.5,44837.4
65507.6,44815.2
65512.7,44795
65513.3,44787.2
65510.7,44771
65503.8,44750.9
65493.8,44729.7
65482.2,44710.3
65471.9,44697.4
65447.9,44678.1
65416.9,44662.8
65380,44651.8
65338.2,44645.3
65300,44643.8
Z" /> 
<path style="fill:#000000; fill-opacity:1.0; 
stroke:#000000; stroke-width:3.93701; stroke-opacity:1; 
stroke-linecap:round; stroke-linejoin:round;fill-rule:evenodd;"
d="M 65651.1,44652.2
65648.5,44655.2
65646.5,44659.1
65644.9,44664.8
65643.8,44673.5
65643.1,44686.1
65642.6,44703.7
65642.3,44727.3
65642.2,44758
65642.2,44787.8
65642.2,44824.7
65642.4,44853.8
65642.7,44876.1
65643.2,44892.5
65644,44904.2
65645.2,44912.2
65646.9,44917.4
65649,44921
65651.1,44923.3
65664.1,44931.1
65677.9,44930.4
65690.3,44921.9
65693.2,44918.6
65695.4,44914.8
65697.1,44909.4
65698.3,44901.3
65699.1,44889.6
65699.6,44873
65699.9,44850.7
65700,44821.5
65700,44788.4
65700,44665.2
65689.1,44654.2
65675.6,44645.1
65662.6,44644.7
Z" /> 
<path style="fill:#000000; fill-opacity:1.0; 
stroke:#000000; stroke-width:3.93701; stroke-opacity:1; 
stroke-linecap:round; stroke-linejoin:round;fill-rule:evenodd;"
d="M 65953.4,44643.8
65924,44645.9
65896.6,44649.1
65872.8,44653.4
65854.3,44658.5
65842.7,44664.5
65840.9,44666.2
65834.7,44679.9
65836.6,44693.8
65846.2,44705.8
65846.7,44706.1
65852.3,44709.8
65858.3,44711.8
65866.5,44712
65879.2,44710.6
65898.5,44707.5
65900,44707.3
65928.6,44703.8
65959.5,44702
65990.5,44702
66019.4,44703.7
66044.1,44706.9
66062.4,44711.6
66063.5,44712.1
66076.8,44719.5
66081.4,44727
66077.8,44734.4
66066.2,44741.5
66046.8,44748
66020.1,44753.7
66002.2,44756.5
65965.1,44761.8
65935.6,44766.6
65912.5,44771.4
65894.4,44776.6
65880.1,44782.6
65868.4,44789.9
65858,44798.8
65849.7,44807.5
65839.8,44819.6
65834.9,44830.1
65833.4,44842.9
65833.3,44847.6
65834.5,44863.3
65839.1,44874.9
65847,44885.2
65863.1,44901
65881,44913.1
65902.2,44921.7
65927.8,44927.5
65959.3,44930.6
65998.1,44931.6
66004.4,44931.6
66030.3,44931
66055.9,44929.8
66078.4,44928.1
66095.2,44926
66096.6,44925.8
66113.3,44921.8
66127.5,44916.8
66135.5,44912.3
66143,44900.2
66143.5,44886.2
66137,44873.7
66135.6,44872.3
66129.7,44868.1
66122.2,44866.3
66110.7,44866.6
66096.7,44868.2
66081.1,44869.6
66059.2,44870.8
66033.6,44871.7
66007,44872.1
66000,44872.1
65973.3,44872
65953.7,44871.5
65939.6,44870.4
65929.2,44868.5
65920.8,44865.7
65915.8,44863.3
65904.7,44856.8
65897.7,44850.9
65896.6,44849.2
65898.8,44842.2
65909.2,44835.5
65927,44829.3
65951.5,44824
65958.7,44822.8
65996.5,44816.8
66026.6,44811.9
66050.3,44807.5
66068.7,44803.4
66082.9,44799.2
66094.2,44794.6
66103.7,44789.1
66112.5,44782.4
66121.8,44774.2
66125,44771.3
66136,44760.5
66141.8,44752
66144.1,44742.2
66144.4,44729.9
66140.4,44705.8
66128.2,44685.3
66108.1,44668.5
66080,44655.4
66060,44649.6
66038.2,44645.8
66012.1,44643.7
65983.3,44643.1
Z" /> 
<path style="fill:#000000; fill-opacity:1.0; 
stroke:#000000; stroke-width:3.93701; stroke-opacity:1; 
stroke-linecap:round; stroke-linejoin:round;fill-rule:evenodd;"
d="M 66355.4,44643.4
66328.1,44643.5
66307.5,44643.9
66292.5,44644.5
66282,44645.4
66274.9,44646.8
66270.1,44648.7
66266.6,44651.2
66265.3,44652.4
66257.5,44664.6
66256.1,44678.7
66261.2,44691.1
66263.6,44693.7
66267.4,44696.1
66273.6,44698
66283.2,44699.4
66297.5,44700.5
66317.5,44701.2
66344.5,44701.8
66369.1,44702.1
66466.7,44703.3
66468,44728.9
66469.3,44754.4
66403.1,44754.4
66374.4,44754.7
66353.4,44755.7
66338.8,44758
66329.6,44761.9
66324.6,44768
66322.5,44776.6
66322.2,44784.5
66323.2,44794.3
66326.9,44801.5
66334.4,44806.6
66346.9,44809.7
66365.5,44811.5
66391.3,44812.2
66405.4,44812.2
66468.9,44812.2
66468.9,44874.4
66371.1,44874.4
66339.1,44874.5
66314.7,44874.7
66296.8,44875.1
66284.3,44876
66275.8,44877.2
66270.3,44879
66266.4,44881.5
66264.4,44883.3
66257.7,44893.9
66255.6,44903.3
66258.6,44914.8
66264.4,44923.3
66267.5,44926
66271.5,44928.1
66277.5,44929.6
66286.5,44930.8
66299.6,44931.5
66318,44931.9
66342.6,44932.1
66374.5,44932.2
66391.1,44932.2
66426.6,44932.2
66454.3,44932
66475.2,44931.7
66490.5,44931.1
66501.2,44930.2
66508.4,44928.8
66513.1,44927
66516.5,44924.6
66517.8,44923.3
66520.4,44920.3
66522.4,44916.5
66524,44910.7
66525.1,44902
66525.8,44889.4
66526.3,44871.7
66526.6,44848
66526.7,44817.2
66526.7,44788.6
66526.7,44751.9
66526.6,44723
66526.3,44701
66525.8,44684.7
66525,44673.2
66523.8,44665.3
66522.2,44660.2
66519.9,44656.6
66517.1,44653.7
66516.4,44653
66513,44650.1
66509,44647.8
66503.4,44646.1
66495,44644.9
66482.8,44644.1
66465.7,44643.6
66442.5,44643.4
66412.1,44643.3
66390.6,44643.3
Z" /> 
<path style="fill:#000000; fill-opacity:1.0; 
stroke:#000000; stroke-width:3.93701; stroke-opacity:1; 
stroke-linecap:round; stroke-linejoin:round;fill-rule:evenodd;"
d="M 66910,44643.3
66894.4,44643.5
66848.9,44644.6
66810.8,44647.9
66778.7,44653.6
66751.5,44662.3
66727.7,44674.1
66706.2,44689.6
66698.5,44696.3
66685.7,44712
66674.2,44733.2
66665.4,44756.8
66660.5,44779.4
66660,44787.8
66663.2,44810.9
66671.6,44836.2
66683.9,44860.2
66698.4,44879.3
66700.7,44881.6
66720.7,44897.8
66742.6,44910.4
66767.6,44919.8
66797,44926.4
66832.2,44930.3
66874.2,44932.1
66893.5,44932.2
66918,44932.1
66935.2,44931.6
66946.8,44930.5
66954.4,44928.7
66959.5,44925.8
66962.2,44923.3
66964.8,44920.4
66966.8,44916.5
66968.4,44910.8
66969.5,44902.1
66970.3,44889.5
66970.7,44871.9
66971,44848.2
66971.1,44817.6
66971.1,44787.8
66971.2,44748
66971.2,44716.3
66970.8,44701.1
66913.3,44701.1
66913.3,44874.4
66876.7,44874.4
66854.6,44873.8
66831.5,44872.1
66812.2,44869.9
66811.6,44869.8
66780.5,44862.2
66756.3,44850.5
66737.9,44833.8
66726.2,44815.7
66719,44795.7
66719.6,44776.9
66727.9,44756.7
66744.3,44735.8
66766.9,44720.3
66796.4,44710
66816,44706.3
66838.4,44703.7
66862,44701.9
66882.1,44701.1
66883.3,44701.1
66913.3,44701.1
66970.8,44701.1
66970.6,44691.7
66968.9,44673.2
66965.7,44660.1
66960.5,44651.5
66952.7,44646.4
66942.1,44643.9
66928,44643.2
Z" /> 
<path style="fill:#000000; fill-opacity:1.0; 
stroke:#000000; stroke-width:3.93701; stroke-opacity:1; 
stroke-linecap:round; stroke-linejoin:round;fill-rule:evenodd;"
d="M 65394.9,42579.4
65357,42588.9
65322.9,42605.8
65293.5,42629.3
65269.5,42658.9
65251.7,42693.8
65241.4,42731.7
65239.1,42770
65244.9,42807
65258.2,42841.5
65278.2,42872.7
65304.1,42899.5
65335.2,42920.9
65370.8,42935.8
65391,42940.7
65408.5,42943.7
65422,42944.8
65435,42944.1
65451,42941.4
65464,42938.7
65500.8,42926.3
65533.7,42906.1
65562.1,42878.9
65585.1,42845.2
65590.6,42834.4
65597.1,42820.1
65601.1,42808.1
65603.3,42795.5
65604.2,42779.3
65604.3,42761.1
65602.7,42727.9
65597.4,42700.6
65587.5,42676.8
65572,42653.8
65556.8,42636.3
65528.5,42610.4
65498.9,42592.5
65466.4,42581.8
65435.8,42577.8
Z" /> 
<path style="fill:#000000; fill-opacity:1.0; 
stroke:#000000; stroke-width:3.93701; stroke-opacity:1; 
stroke-linecap:round; stroke-linejoin:round;fill-rule:evenodd;"
d="M 62064.4,43542.2
62064.4,43634.5
62064.3,43718.3
62064.3,43794.2
62064.3,43862.4
62064.1,43923.5
62064,43977.8
62063.7,44025.9
62063.4,44068.1
62062.9,44104.9
62062.3,44136.6
62061.6,44163.9
62060.7,44187
62059.7,44206.4
62058.4,44222.6
62057,44236
62055.3,44247
62053.4,44256
62051.3,44263.5
62048.9,44269.9
62046.2,44275.7
62043.2,44281.2
62039.9,44287
62037.9,44290.5
62024.4,44314.4
62362.2,44314.4
62362.2,44276.7
62362.5,44259.6
62363.3,44246.5
62364.4,44239.5
62364.9,44238.9
62369.4,44241.6
62378.3,44248.6
62387.2,44256.3
62408.7,44272.3
62436.1,44288.4
62466.4,44303.2
62496.9,44315.1
62509,44318.9
62536,44324.6
62568.6,44328.6
62603.8,44330.5
62638.5,44330.5
62669.6,44328.2
62684.4,44325.9
62738.8,44310.9
62788.9,44288.2
62834.5,44258
62875.3,44220.4
62911.1,44175.7
62937.4,44132
62959,44086.1
62975.5,44039.1
62987.3,43989.5
62994.8,43935.7
62998.1,43876
62998.4,43845.6
62997.6,43823.2
62671.2,43823.2
62671.1,43859.8
62669.9,43894.4
62667.7,43924.7
62664.4,43948.8
62663.4,43953.7
62650.9,43995.9
62634.4,44030.2
62614,44056.6
62589.5,44075.1
62560.6,44086
62527.3,44089.2
62489.4,44084.9
62464.4,44078.7
62445.1,44071.5
62423.8,44061.3
62407.8,44052
62380,44033.7
62380,43580.9
62406.5,43563.8
62437.5,43547.7
62470.6,43537.2
62504.1,43532.5
62536.1,43533.7
62564.8,43541.2
62577.4,43547.3
62600.2,43564.2
62619.5,43586.6
62635.7,43615.2
62649.3,43650.8
62660.7,43694.4
62661.2,43696.7
62665.2,43721.2
62668.2,43751.8
62670.2,43786.5
62671.2,43823.2
62997.6,43823.2
62995.3,43761.8
62986.7,43684.7
62972.5,43614.3
62952.9,43550.7
62927.7,43494
62897.1,43444.1
62861,43401.2
62819.5,43365.3
62801.7,43353.1
62762,43331
62721.3,43315.4
62678,43305.9
62630.2,43302.1
62593.8,43302.5
62542.7,43306.8
62498.4,43315.4
62459.5,43328.6
62424.8,43346.9
62405.5,43360.4
62394,43369
62385.4,43374.9
62382.2,43376.7
62381.5,43372.4
62381,43360.3
62380.7,43341.5
62380.4,43317.1
62380.2,43288.1
62380.2,43255.7
62380.2,43220.8
62380.4,43184.7
62380.6,43148.3
62381,43112.8
62381.4,43079.2
62381.9,43048.7
62382.5,43022.3
62383.1,43001
62383.8,42986.1
62384,42983.3
62387,42955.6
62391.5,42933.9
62398.5,42915.3
62408.8,42897.1
62411.3,42893.3
62420.9,42878.9
62064.4,42878.9
Z" /> 
<path style="fill:#000000; fill-opacity:1.0; 
stroke:#000000; stroke-width:3.93701; stroke-opacity:1; 
stroke-linecap:round; stroke-linejoin:round;fill-rule:evenodd;"
d="M 63447.4,43303.8
63387.6,43311.6
63334.3,43324.9
63287.3,43343.6
63246.1,43367.9
63215.6,43392.9
63188.5,43422.1
63167.3,43453.5
63150.4,43489.8
63144.3,43506.8
63139.3,43522.1
63134.9,43536.3
63131.1,43550.2
63127.8,43564.3
63125,43579.5
63122.7,43596.5
63120.8,43616
63119.2,43638.7
63118,43665.3
63116.9,43696.6
63116.1,43733.2
63115.4,43776
63114.8,43825.6
63114.3,43882.7
63113.8,43938.9
63113.2,44000.4
63112.8,44053.6
63112.3,44099.3
63111.8,44138
63111.1,44170.5
63110.4,44197.3
63109.4,44219.2
63108.2,44236.7
63106.6,44250.6
63104.8,44261.4
63102.5,44269.9
63099.8,44276.7
63096.6,44282.4
63092.8,44287.6
63088.5,44293.2
63086.8,44295.3
63080.6,44304.3
63077.8,44310.4
63077.8,44310.6
63082.1,44311.5
63094.3,44312.3
63113.4,44313
63138.5,44313.6
63168.6,44314
63202.8,44314.3
63240,44314.4
63244.3,44314.4
63410.8,44314.4
63412,44276.6
63413.3,44238.8
63437.8,44258.9
63476.1,44285.5
63519.4,44307
63553.4,44318.9
63580.6,44324.7
63613.4,44328.6
63648.8,44330.6
63683.5,44330.4
63714.6,44328.1
63728.9,44325.8
63784,44310.9
63833.8,44289.3
63877.9,44261.4
63915.8,44227.4
63947.4,44187.7
63972.2,44142.5
63989.6,44092.9
63994.5,44070.6
63997.5,44046.1
63998.9,44016.7
63999.1,44003.3
63999.1,44002.1
63699.9,44002.1
63696.2,44031.6
63685.1,44056.8
63666.1,44078.7
63664.1,44080.4
63645.1,44094.1
63624.7,44103
63600.8,44107.7
63571.1,44108.8
63564,44108.7
63542.8,44107.6
63527,44105.5
63513.3,44101.5
63498,44094.8
63493.8,44092.8
63469.9,44078.7
63451.5,44061.9
63446.5,44055.9
63428.9,44033.6
63428.9,43956.5
63429.1,43925.6
63429.8,43902.8
63430.9,43887.4
63432.7,43878.6
63434.3,43876.1
63440.5,43874.8
63453.8,43873.8
63472.3,43873.1
63494.1,43872.8
63497.6,43872.8
63545.1,43874.8
63585.6,43881.2
63619.6,43892.1
63648.2,43907.8
63669.8,43926.3
63687.3,43949.1
63697.1,43973.9
63699.9,44002.1
63999.1,44002.1
63998.4,43966.4
63995.1,43935.4
63988.7,43907.3
63978.6,43879.5
63969.1,43858.9
63946.1,43821.3
63915.3,43786.7
63877.8,43755.5
63834.6,43728.5
63786.4,43706.2
63734.3,43689.3
63708.9,43683.4
63655.3,43674.7
63596.8,43669
63537.2,43666.5
63487.4,43667.1
63423.6,43669.8
63426.6,43646.6
63434.2,43607.5
63446.4,43575.7
63463.7,43551
63486.3,43533
63514.5,43521.5
63548.8,43516.3
63589.5,43517.2
63604.4,43518.7
63660,43528.7
63713.9,43544.8
63751.1,43559.8
63768.9,43567.4
63784,43573.5
63794.4,43577.3
63797.4,43578.1
63801.3,43574.6
63807.8,43563.2
63817.2,43543.8
63829.5,43516.3
63844.7,43480.7
63847.3,43474.4
63859.1,43446
63869.7,43420.2
63878.7,43398.4
63885.5,43381.5
63889.7,43370.8
63891,43367.3
63887,43365.4
63876.7,43363.4
63865.6,43361.9
63853.7,43360
63834.9,43356.3
63810.8,43351.1
63783.1,43344.8
63753.5,43337.7
63742.2,43335
63700.9,43324.9
63666.3,43317
63637,43311
63611.1,43306.7
63586.9,43303.8
63562.8,43302.1
63537,43301.3
63514.1,43301.1
Z" /> 
<path style="fill:#000000; fill-opacity:1.0; 
stroke:#000000; stroke-width:3.93701; stroke-opacity:1; 
stroke-linecap:round; stroke-linejoin:round;fill-rule:evenodd;"
d="M 64370.7,42942.5
64307.6,42950.9
64243.1,42966.7
64176.3,42990.1
64106.3,43021.3
64101.8,43023.5
64079.1,43034.5
64058.8,43044
64042.4,43051.3
64031.4,43055.7
64027.7,43056.7
64020.1,43058.6
64018.3,43060.3
64020.3,43064.4
64026.6,43074.8
64036.5,43090.3
64049.2,43109.8
64064.1,43132.4
64080.4,43156.9
64097.3,43182.2
64114.2,43207.2
64130.3,43230.9
64144.9,43252.1
64157.2,43269.8
64166.6,43283
64172.3,43290.4
64173.1,43291.3
64177.1,43289.4
64185.9,43282.7
64197.9,43272.2
64204.1,43266.5
64242.1,43236.9
64284.1,43215.1
64329.6,43201.2
64378,43195.6
64405.3,43196.1
64453,43202.8
64496,43217
64534.4,43238.6
64568.4,43267.7
64598.1,43304.6
64623.6,43349.2
64638.3,43383.3
64655.6,43436.8
64668.3,43494.8
64676.6,43556
64680.3,43618.9
64679.6,43681.9
64674.5,43743.5
64665,43802.3
64651.2,43856.8
64633,43905.4
64626.6,43918.9
64599.8,43963.8
64568.1,44001.8
64532.1,44032.5
64492.2,44055.8
64448.9,44071.1
64402.6,44078.3
64386.3,44078.8
64338.4,44074.5
64291,44061.6
64244.6,44040.3
64199.9,44011
64163.9,43980.1
64145.6,43962.6
64074.2,44079.6
64056.5,44108.8
64040.2,44135.7
64026.1,44159.2
64014.6,44178.5
64006.4,44192.6
64002,44200.4
64001.4,44201.6
64004.7,44205.4
64014.7,44212.2
64030.4,44221.4
64050.3,44232.3
64073.2,44244.2
64097.9,44256.6
64123,44268.8
64147.3,44280.1
64169.5,44289.9
64188.4,44297.6
64197.6,44300.9
64250.3,44315.8
64304.6,44325.6
64362.7,44330.8
64412.7,44331.7
64439.4,44331.2
64465.2,44330.4
64487.9,44329.3
64505,44328
64510.5,44327.3
64565.2,44316
64621,44298.2
64675.1,44275.1
64725,44247.7
64755.6,44226.9
64805.7,44184.3
64852.3,44134.5
64894.4,44078.7
64931.2,44018.1
64961.9,43954
64979.2,43907.8
64998.9,43835.5
65012.1,43758.9
65018.7,43679.7
65018.7,43599.4
65012.2,43519.9
64999,43442.7
64979.3,43369.4
64977.8,43364.9
64953,43301.1
64922.8,43242.8
64886.1,43188.5
64841.9,43136.5
64824.6,43118.7
64771,43069.9
64715.9,43029.5
64658.5,42997.1
64597.9,42972.3
64533.2,42954.5
64495.6,42947.7
64433.1,42941.5
Z" /> 
<path style="fill:#000000; fill-opacity:1.0; 
stroke:#000000; stroke-width:3.93701; stroke-opacity:1; 
stroke-linecap:round; stroke-linejoin:round;fill-rule:evenodd;"
d="M 65660,42761.4
65655.7,42806.3
65643.3,42848.7
65623.2,42887.6
65596.2,42922.3
65562.7,42951.8
65524.5,42974.6
65482.7,42990.2
65440.5,42997.5
65398.9,42997
65358.7,42989.3
65320.7,42975
65285.7,42954.4
65254.5,42928.2
65228.1,42896.9
65207.2,42861
65192.6,42821.1
65185.2,42777.6
65184.4,42758
65184.4,42723.3
65164,42723.3
65149.7,42724.5
65139.1,42729.1
65128.4,42738.4
65113.3,42753.6
65113.3,43616.4
65113.3,43719.6
65113.3,43814.3
65113.4,43900.8
65113.4,43979.6
65113.5,44050.9
65113.6,44115.2
65113.7,44172.9
65113.8,44224.3
65114,44269.7
65114.2,44309.6
65114.4,44344.3
65114.7,44374.2
65115,44399.6
65115.4,44421
65115.8,44438.7
65116.3,44453
65116.8,44464.4
65117.4,44473.3
65118.1,44479.8
65118.8,44484.6
65119.6,44487.9
65120.5,44490
65120.9,44490.8
65122.5,44493.5
65123.9,44496.1
65125.4,44498.4
65127.4,44500.5
65130.3,44502.4
65134.3,44504.2
65139.9,44505.7
65147.4,44507.1
65157.3,44508.4
65169.8,44509.5
65185.3,44510.4
65204.2,44511.2
65226.9,44511.9
65253.6,44512.5
65284.9,44513
65321,44513.4
65362.3,44513.7
65409.1,44514
65461.9,44514.1
65521,44514.3
65586.8,44514.3
65659.5,44514.4
65739.7,44514.4
65827.6,44514.4
65923.6,44514.4
66028.1,44514.3
66043.2,44514.3
66148.3,44514.3
66244.9,44514.3
66333.3,44514.3
66413.9,44514.2
66487.1,44514.1
66553.2,44514
66612.6,44513.9
66665.6,44513.7
66712.6,44513.6
66754,44513.3
66790.1,44513.1
66821.4,44512.8
66848,44512.5
66870.5,44512.1
66889.2,44511.7
66904.4,44511.2
66916.6,44510.6
66925.9,44510.1
66933,44509.4
66938,44508.7
66941.3,44507.9
66943,44507.3
66946.3,44505.9
66949.4,44504.8
66952.2,44503.8
66954.8,44502.4
66957.1,44500.2
66959.1,44497
66961,44492.3
66962.7,44485.7
66964.2,44477
66965.4,44465.6
66966.6,44451.3
66967.5,44433.7
66968.4,44412.4
66969,44387.1
66969.6,44357.4
66970.1,44322.8
66970.4,44283.2
66970.7,44238
66970.9,44186.9
66971,44129.5
66971.1,44065.6
66971.1,43994.6
66971.1,43916.3
66971.1,43830.2
66971.1,43736.1
66971.1,43633.5
66971.1,43616.9
66971.1,43513.4
66971.1,43418.4
66971.1,43331.6
66971.1,43252.5
66971.1,43180.8
66971,43116.2
66970.9,43058.3
66970.7,43006.6
66970.5,42963.3
66851.3,42963.3
66835.6,42986.1
66831.2,42992.3
66827.2,42997.8
66823.7,43003.1
66820.5,43008.5
66817.7,43014.7
66815.3,43022
66813.1,43031
66811.3,43042
66809.7,43055.6
66808.4,43072.2
66807.3,43092.4
66806.5,43116.4
66805.8,43144.9
66805.3,43178.3
66804.9,43217.1
66804.7,43261.7
66804.5,43312.6
66804.4,43370.2
66804.4,43435.1
66804.4,43507.7
66804.4,43588.4
66804.4,43636.7
66804.4,43722.1
66804.4,43799.1
66804.4,43868.1
66804.5,43929.7
66804.6,43984.2
66804.8,44032.2
66805.1,44074.1
66805.5,44110.4
66806.1,44141.5
66806.8,44168
66807.8,44190.2
66808.9,44208.7
66810.3,44223.9
66812,44236.3
66814,44246.4
66816.2,44254.6
66818.8,44261.4
66821.7,44267.2
66825,44272.6
66828.7,44278
66832.8,44283.8
66835.2,44287.3
66850.5,44310
66641.2,44310
66592.7,44310
66552.4,44309.9
66519.5,44309.8
66493.3,44309.6
66473.1,44309.2
66458.3,44308.7
66448,44308
66441.6,44307.1
66438.3,44305.9
66437.5,44304.5
66438.3,44302.8
66438.8,44302.2
66448.7,44287.6
66458.9,44266.8
66468.2,44242.4
66471.4,44232
66473.3,44225
66474.8,44216.7
66476.1,44206.3
66477.2,44193.1
66478,44176.2
66478.8,44154.8
66479.4,44128.1
66479.9,44095.2
66480.4,44055.3
66480.8,44007.6
66481,43990
66481.4,43940.7
66481.7,43899.6
66481.9,43866
66481.9,43839.2
66481.7,43818.4
66481.4,43803
66480.8,43792.2
66480,43785.4
66479,43781.9
66477.7,43780.8
66476,43781.6
66474.2,43783.3
66470.2,43788.4
66461.5,43799.9
66448.8,43816.8
66432.7,43838.5
66413.9,43863.9
66393,43892.4
66370.4,43923
66347,43955
66323.3,43987.4
66299.9,44019.5
66277.4,44050.4
66256.4,44079.2
66237.6,44105.2
66221.5,44127.4
66208.9,44145.1
66200.2,44157.4
66198.4,44160
66189.4,44174.6
66178.8,44193.4
66168.8,44213
66167.5,44215.6
66159,44234.6
66154.1,44249.3
66151.8,44263.4
66151.4,44280
66151.6,44310
65697.1,44310
65733,44273.1
65751.4,44253.5
65771.2,44231.2
65789.3,44209.9
65797.4,44199.9
65809.4,44184.3
65825.1,44163.4
65844.2,44137.7
65866.2,44107.9
65890.6,44074.6
65916.9,44038.6
65944.6,44000.4
65973.4,43960.6
66002.8,43919.9
66032.3,43879
66061.4,43838.5
66089.6,43799.1
66116.6,43761.3
66141.8,43725.8
66164.9,43693.3
66185.2,43664.4
66202.5,43639.7
66216.1,43619.9
66225.7,43605.6
66230.8,43597.5
66231.4,43595.9
66228.3,43591.5
66220.1,43580.8
66207.4,43564.5
66190.7,43543.3
66170.6,43517.9
66147.6,43488.9
66122.2,43457.1
66094.9,43423
66066.4,43387.3
66037.1,43350.8
66013.6,43321.5
65615.6,43321.5
65613.2,43326.6
65607.6,43335.4
65607.2,43336
65599.8,43347.9
65592,43362.4
65590.5,43365.6
65589.1,43368.9
65587.9,43372.9
65586.8,43378.1
65585.9,43385
65585,43394.3
65584.3,43406.4
65583.7,43422
65583.2,43441.4
65582.8,43465.4
65582.4,43494.5
65582.1,43529.1
65581.9,43569.9
65581.6,43617.4
65581.4,43672.2
65581.2,43734.7
65581,43805.2
65580.8,43878
65580.6,43942.6
65580.5,43999.3
65580.5,44048.8
65580.6,44091.7
65580.9,44128.4
65581.3,44159.5
65581.9,44185.6
65582.8,44207.2
65583.9,44224.8
65585.3,44239.1
65587,44250.5
65589,44259.7
65591.4,44267.1
65594.2,44273.4
65597.4,44279
65601,44284.5
65604.3,44289.4
65611.1,44299.8
65615.1,44306.7
65615.6,44308
65611.3,44308.4
65599,44308.8
65579.6,44309.1
65554.1,44309.5
65523.2,44309.7
65488,44309.9
65449.4,44310
65422.2,44310
65380.9,44309.9
65342.8,44309.7
65308.7,44309.3
65279.6,44308.8
65256.2,44308.1
65239.6,44307.4
65230.4,44306.6
65228.9,44306.1
65231.9,44300.2
65235.1,44297.1
65240.3,44290.3
65247,44278.4
65251.7,44268.7
65262.2,44245.6
65263.4,43782.2
65264.6,43318.9
65440.1,43318.9
65478.6,43319
65514.2,43319.1
65545.9,43319.4
65572.8,43319.8
65594,43320.3
65608.4,43320.8
65615.2,43321.4
65615.6,43321.5
66013.6,43321.5
66007.6,43314.1
65978.4,43277.8
65950,43242.6
65923.1,43209.2
65898,43178.3
65875.4,43150.5
65855.8,43126.5
65839.8,43107
65833,43098.9
65799.1,43059.3
65768.9,43026.5
65741.8,42999.8
65717,42978.4
65713.3,42975.5
65697.8,42963.4
66143.4,42963.3
66141.3,42982.2
66142.6,43004.8
66151,43031.7
66166.8,43063.1
66184.6,43091.5
66191,43100.4
66202.1,43115.2
66217.1,43135
66235.5,43159
66256.6,43186.4
66279.7,43216.2
66304.1,43247.7
66329.3,43280
66354.5,43312.3
66379.1,43343.7
66402.5,43373.4
66423.9,43400.5
66442.8,43424.2
66458.4,43443.7
66470.1,43458
66477.2,43466.5
66478.4,43467.8
66479.6,43464.6
66480.4,43452.7
66481,43432.1
66481.4,43403
66481.5,43365.4
66481.3,43319.5
66481,43272.2
66480.5,43220.2
66479.9,43176.2
66479.1,43139.4
66478,43108.8
66476.6,43083.7
66474.7,43063.1
66472.2,43046.2
66469.1,43032.1
66465.2,43020
66460.4,43008.9
66454.7,42998
66448.9,42988.2
66434,42963.3
66851.3,42963.3
66970.5,42963.3
66970.5,42960.9
66970.2,42920.7
66969.8,42885.7
66969.3,42855.5
66968.6,42829.7
66967.9,42808.1
66967.1,42790.1
66966.1,42775.4
66965,42763.7
66963.7,42754.6
66962.2,42747.7
66960.6,42742.6
66958.8,42739.1
66956.7,42736.6
66954.5,42734.8
66952.1,42733.5
66949.4,42732.1
66947.1,42730.7
66945,42729.6
66941.8,42728.7
66937,42727.9
66930.1,42727.2
66920.9,42726.5
66908.7,42725.9
66893.2,42725.4
66874,42725
66850.6,42724.6
66822.6,42724.3
66789.6,42724.1
66751.1,42723.8
66706.7,42723.7
66655.9,42723.6
66598.4,42723.5
66533.7,42723.4
66461.4,42723.4
66381.1,42723.3
66297.9,42723.3
65660,42723.3
Z" /> 
</g>
<g style="fill:#000000; fill-opacity:1.0; 
stroke:#000000; stroke-width:47.2441; stroke-opacity:1; 
stroke-linecap:round; stroke-linejoin:round;">
</g>
<g style="fill:#000000; fill-opacity:0.0; 
stroke:#000000; stroke-width:47.2441; stroke-opacity:1; 
stroke-linecap:round; stroke-linejoin:round;">
<path d="M69323 52523
L69323 52000
" />
<path d="M68800 52523
L69323 52523
" />
<path d="M68300 52523
L68300 51476
" />
<path d="M68300 51476
L53276 51476
" />
<path d="M68300 52523
L53276 52523
" />
<path d="M53276 52523
L53276 51476
" />
<g >
</g>
<g >
</g>
<g >
</g>
<g >
</g>
<g >
</g>
<g >
</g>
<g >
</g>
<g >
</g>
<g >
</g>
<g >
</g>
<g >
</g>
<g >
</g>
<g >
</g>
<g >
</g>
<g >
</g>
<g >
</g>
<g >
</g>
<g >
</g>
<g >
</g>
<g >
</g>
<g >
</g>
</g> 
</svg>
