G04 #@! TF.GenerationSoftware,KiCad,Pcbnew,5.1.5-52549c5~84~ubuntu18.04.1*
G04 #@! TF.CreationDate,2019-12-13T14:59:01-06:00*
G04 #@! TF.ProjectId,VGA,5647412e-6b69-4636-9164-5f7063625858,rev?*
G04 #@! TF.SameCoordinates,Original*
G04 #@! TF.FileFunction,Copper,L1,Top*
G04 #@! TF.FilePolarity,Positive*
%FSLAX46Y46*%
G04 Gerber Fmt 4.6, Leading zero omitted, Abs format (unit mm)*
G04 Created by KiCad (PCBNEW 5.1.5-52549c5~84~ubuntu18.04.1) date 2019-12-13 14:59:01*
%MOMM*%
%LPD*%
G04 APERTURE LIST*
%ADD10C,6.000000*%
%ADD11O,1.700000X2.500000*%
%ADD12R,1.600000X1.600000*%
%ADD13C,1.600000*%
%ADD14C,0.100000*%
%ADD15C,0.250000*%
G04 APERTURE END LIST*
D10*
X168148000Y-118872000D03*
X143256000Y-118872000D03*
D11*
X136652000Y-132080000D03*
X139192000Y-132080000D03*
X141732000Y-132080000D03*
X144272000Y-132080000D03*
X146812000Y-132080000D03*
X149352000Y-132080000D03*
X151892000Y-132080000D03*
X154432000Y-132080000D03*
X156972000Y-132080000D03*
X159512000Y-132080000D03*
X162052000Y-132080000D03*
X164592000Y-132080000D03*
X167132000Y-132080000D03*
X169672000Y-132080000D03*
X172212000Y-132080000D03*
X174752000Y-132080000D03*
D12*
X151130000Y-121412000D03*
D13*
X153420000Y-121412000D03*
X155710000Y-121412000D03*
X158000000Y-121412000D03*
X160290000Y-121412000D03*
X149985000Y-118872000D03*
X152275000Y-118872000D03*
X154565000Y-118872000D03*
X156855000Y-118872000D03*
X159145000Y-118872000D03*
X151130000Y-116332000D03*
X153420000Y-116332000D03*
X155710000Y-116332000D03*
X158000000Y-116332000D03*
X160290000Y-116332000D03*
G04 #@! TA.AperFunction,SMDPad,CuDef*
D14*
G36*
X172472779Y-129254144D02*
G01*
X172495834Y-129257563D01*
X172518443Y-129263227D01*
X172540387Y-129271079D01*
X172561457Y-129281044D01*
X172581448Y-129293026D01*
X172600168Y-129306910D01*
X172617438Y-129322562D01*
X172633090Y-129339832D01*
X172646974Y-129358552D01*
X172658956Y-129378543D01*
X172668921Y-129399613D01*
X172676773Y-129421557D01*
X172682437Y-129444166D01*
X172685856Y-129467221D01*
X172687000Y-129490500D01*
X172687000Y-130065500D01*
X172685856Y-130088779D01*
X172682437Y-130111834D01*
X172676773Y-130134443D01*
X172668921Y-130156387D01*
X172658956Y-130177457D01*
X172646974Y-130197448D01*
X172633090Y-130216168D01*
X172617438Y-130233438D01*
X172600168Y-130249090D01*
X172581448Y-130262974D01*
X172561457Y-130274956D01*
X172540387Y-130284921D01*
X172518443Y-130292773D01*
X172495834Y-130298437D01*
X172472779Y-130301856D01*
X172449500Y-130303000D01*
X171974500Y-130303000D01*
X171951221Y-130301856D01*
X171928166Y-130298437D01*
X171905557Y-130292773D01*
X171883613Y-130284921D01*
X171862543Y-130274956D01*
X171842552Y-130262974D01*
X171823832Y-130249090D01*
X171806562Y-130233438D01*
X171790910Y-130216168D01*
X171777026Y-130197448D01*
X171765044Y-130177457D01*
X171755079Y-130156387D01*
X171747227Y-130134443D01*
X171741563Y-130111834D01*
X171738144Y-130088779D01*
X171737000Y-130065500D01*
X171737000Y-129490500D01*
X171738144Y-129467221D01*
X171741563Y-129444166D01*
X171747227Y-129421557D01*
X171755079Y-129399613D01*
X171765044Y-129378543D01*
X171777026Y-129358552D01*
X171790910Y-129339832D01*
X171806562Y-129322562D01*
X171823832Y-129306910D01*
X171842552Y-129293026D01*
X171862543Y-129281044D01*
X171883613Y-129271079D01*
X171905557Y-129263227D01*
X171928166Y-129257563D01*
X171951221Y-129254144D01*
X171974500Y-129253000D01*
X172449500Y-129253000D01*
X172472779Y-129254144D01*
G37*
G04 #@! TD.AperFunction*
G04 #@! TA.AperFunction,SMDPad,CuDef*
G36*
X172472779Y-127504144D02*
G01*
X172495834Y-127507563D01*
X172518443Y-127513227D01*
X172540387Y-127521079D01*
X172561457Y-127531044D01*
X172581448Y-127543026D01*
X172600168Y-127556910D01*
X172617438Y-127572562D01*
X172633090Y-127589832D01*
X172646974Y-127608552D01*
X172658956Y-127628543D01*
X172668921Y-127649613D01*
X172676773Y-127671557D01*
X172682437Y-127694166D01*
X172685856Y-127717221D01*
X172687000Y-127740500D01*
X172687000Y-128315500D01*
X172685856Y-128338779D01*
X172682437Y-128361834D01*
X172676773Y-128384443D01*
X172668921Y-128406387D01*
X172658956Y-128427457D01*
X172646974Y-128447448D01*
X172633090Y-128466168D01*
X172617438Y-128483438D01*
X172600168Y-128499090D01*
X172581448Y-128512974D01*
X172561457Y-128524956D01*
X172540387Y-128534921D01*
X172518443Y-128542773D01*
X172495834Y-128548437D01*
X172472779Y-128551856D01*
X172449500Y-128553000D01*
X171974500Y-128553000D01*
X171951221Y-128551856D01*
X171928166Y-128548437D01*
X171905557Y-128542773D01*
X171883613Y-128534921D01*
X171862543Y-128524956D01*
X171842552Y-128512974D01*
X171823832Y-128499090D01*
X171806562Y-128483438D01*
X171790910Y-128466168D01*
X171777026Y-128447448D01*
X171765044Y-128427457D01*
X171755079Y-128406387D01*
X171747227Y-128384443D01*
X171741563Y-128361834D01*
X171738144Y-128338779D01*
X171737000Y-128315500D01*
X171737000Y-127740500D01*
X171738144Y-127717221D01*
X171741563Y-127694166D01*
X171747227Y-127671557D01*
X171755079Y-127649613D01*
X171765044Y-127628543D01*
X171777026Y-127608552D01*
X171790910Y-127589832D01*
X171806562Y-127572562D01*
X171823832Y-127556910D01*
X171842552Y-127543026D01*
X171862543Y-127531044D01*
X171883613Y-127521079D01*
X171905557Y-127513227D01*
X171928166Y-127507563D01*
X171951221Y-127504144D01*
X171974500Y-127503000D01*
X172449500Y-127503000D01*
X172472779Y-127504144D01*
G37*
G04 #@! TD.AperFunction*
G04 #@! TA.AperFunction,SMDPad,CuDef*
G36*
X169932779Y-129256144D02*
G01*
X169955834Y-129259563D01*
X169978443Y-129265227D01*
X170000387Y-129273079D01*
X170021457Y-129283044D01*
X170041448Y-129295026D01*
X170060168Y-129308910D01*
X170077438Y-129324562D01*
X170093090Y-129341832D01*
X170106974Y-129360552D01*
X170118956Y-129380543D01*
X170128921Y-129401613D01*
X170136773Y-129423557D01*
X170142437Y-129446166D01*
X170145856Y-129469221D01*
X170147000Y-129492500D01*
X170147000Y-130067500D01*
X170145856Y-130090779D01*
X170142437Y-130113834D01*
X170136773Y-130136443D01*
X170128921Y-130158387D01*
X170118956Y-130179457D01*
X170106974Y-130199448D01*
X170093090Y-130218168D01*
X170077438Y-130235438D01*
X170060168Y-130251090D01*
X170041448Y-130264974D01*
X170021457Y-130276956D01*
X170000387Y-130286921D01*
X169978443Y-130294773D01*
X169955834Y-130300437D01*
X169932779Y-130303856D01*
X169909500Y-130305000D01*
X169434500Y-130305000D01*
X169411221Y-130303856D01*
X169388166Y-130300437D01*
X169365557Y-130294773D01*
X169343613Y-130286921D01*
X169322543Y-130276956D01*
X169302552Y-130264974D01*
X169283832Y-130251090D01*
X169266562Y-130235438D01*
X169250910Y-130218168D01*
X169237026Y-130199448D01*
X169225044Y-130179457D01*
X169215079Y-130158387D01*
X169207227Y-130136443D01*
X169201563Y-130113834D01*
X169198144Y-130090779D01*
X169197000Y-130067500D01*
X169197000Y-129492500D01*
X169198144Y-129469221D01*
X169201563Y-129446166D01*
X169207227Y-129423557D01*
X169215079Y-129401613D01*
X169225044Y-129380543D01*
X169237026Y-129360552D01*
X169250910Y-129341832D01*
X169266562Y-129324562D01*
X169283832Y-129308910D01*
X169302552Y-129295026D01*
X169322543Y-129283044D01*
X169343613Y-129273079D01*
X169365557Y-129265227D01*
X169388166Y-129259563D01*
X169411221Y-129256144D01*
X169434500Y-129255000D01*
X169909500Y-129255000D01*
X169932779Y-129256144D01*
G37*
G04 #@! TD.AperFunction*
G04 #@! TA.AperFunction,SMDPad,CuDef*
G36*
X169932779Y-127506144D02*
G01*
X169955834Y-127509563D01*
X169978443Y-127515227D01*
X170000387Y-127523079D01*
X170021457Y-127533044D01*
X170041448Y-127545026D01*
X170060168Y-127558910D01*
X170077438Y-127574562D01*
X170093090Y-127591832D01*
X170106974Y-127610552D01*
X170118956Y-127630543D01*
X170128921Y-127651613D01*
X170136773Y-127673557D01*
X170142437Y-127696166D01*
X170145856Y-127719221D01*
X170147000Y-127742500D01*
X170147000Y-128317500D01*
X170145856Y-128340779D01*
X170142437Y-128363834D01*
X170136773Y-128386443D01*
X170128921Y-128408387D01*
X170118956Y-128429457D01*
X170106974Y-128449448D01*
X170093090Y-128468168D01*
X170077438Y-128485438D01*
X170060168Y-128501090D01*
X170041448Y-128514974D01*
X170021457Y-128526956D01*
X170000387Y-128536921D01*
X169978443Y-128544773D01*
X169955834Y-128550437D01*
X169932779Y-128553856D01*
X169909500Y-128555000D01*
X169434500Y-128555000D01*
X169411221Y-128553856D01*
X169388166Y-128550437D01*
X169365557Y-128544773D01*
X169343613Y-128536921D01*
X169322543Y-128526956D01*
X169302552Y-128514974D01*
X169283832Y-128501090D01*
X169266562Y-128485438D01*
X169250910Y-128468168D01*
X169237026Y-128449448D01*
X169225044Y-128429457D01*
X169215079Y-128408387D01*
X169207227Y-128386443D01*
X169201563Y-128363834D01*
X169198144Y-128340779D01*
X169197000Y-128317500D01*
X169197000Y-127742500D01*
X169198144Y-127719221D01*
X169201563Y-127696166D01*
X169207227Y-127673557D01*
X169215079Y-127651613D01*
X169225044Y-127630543D01*
X169237026Y-127610552D01*
X169250910Y-127591832D01*
X169266562Y-127574562D01*
X169283832Y-127558910D01*
X169302552Y-127545026D01*
X169322543Y-127533044D01*
X169343613Y-127523079D01*
X169365557Y-127515227D01*
X169388166Y-127509563D01*
X169411221Y-127506144D01*
X169434500Y-127505000D01*
X169909500Y-127505000D01*
X169932779Y-127506144D01*
G37*
G04 #@! TD.AperFunction*
G04 #@! TA.AperFunction,SMDPad,CuDef*
G36*
X167392779Y-129256144D02*
G01*
X167415834Y-129259563D01*
X167438443Y-129265227D01*
X167460387Y-129273079D01*
X167481457Y-129283044D01*
X167501448Y-129295026D01*
X167520168Y-129308910D01*
X167537438Y-129324562D01*
X167553090Y-129341832D01*
X167566974Y-129360552D01*
X167578956Y-129380543D01*
X167588921Y-129401613D01*
X167596773Y-129423557D01*
X167602437Y-129446166D01*
X167605856Y-129469221D01*
X167607000Y-129492500D01*
X167607000Y-130067500D01*
X167605856Y-130090779D01*
X167602437Y-130113834D01*
X167596773Y-130136443D01*
X167588921Y-130158387D01*
X167578956Y-130179457D01*
X167566974Y-130199448D01*
X167553090Y-130218168D01*
X167537438Y-130235438D01*
X167520168Y-130251090D01*
X167501448Y-130264974D01*
X167481457Y-130276956D01*
X167460387Y-130286921D01*
X167438443Y-130294773D01*
X167415834Y-130300437D01*
X167392779Y-130303856D01*
X167369500Y-130305000D01*
X166894500Y-130305000D01*
X166871221Y-130303856D01*
X166848166Y-130300437D01*
X166825557Y-130294773D01*
X166803613Y-130286921D01*
X166782543Y-130276956D01*
X166762552Y-130264974D01*
X166743832Y-130251090D01*
X166726562Y-130235438D01*
X166710910Y-130218168D01*
X166697026Y-130199448D01*
X166685044Y-130179457D01*
X166675079Y-130158387D01*
X166667227Y-130136443D01*
X166661563Y-130113834D01*
X166658144Y-130090779D01*
X166657000Y-130067500D01*
X166657000Y-129492500D01*
X166658144Y-129469221D01*
X166661563Y-129446166D01*
X166667227Y-129423557D01*
X166675079Y-129401613D01*
X166685044Y-129380543D01*
X166697026Y-129360552D01*
X166710910Y-129341832D01*
X166726562Y-129324562D01*
X166743832Y-129308910D01*
X166762552Y-129295026D01*
X166782543Y-129283044D01*
X166803613Y-129273079D01*
X166825557Y-129265227D01*
X166848166Y-129259563D01*
X166871221Y-129256144D01*
X166894500Y-129255000D01*
X167369500Y-129255000D01*
X167392779Y-129256144D01*
G37*
G04 #@! TD.AperFunction*
G04 #@! TA.AperFunction,SMDPad,CuDef*
G36*
X167392779Y-127506144D02*
G01*
X167415834Y-127509563D01*
X167438443Y-127515227D01*
X167460387Y-127523079D01*
X167481457Y-127533044D01*
X167501448Y-127545026D01*
X167520168Y-127558910D01*
X167537438Y-127574562D01*
X167553090Y-127591832D01*
X167566974Y-127610552D01*
X167578956Y-127630543D01*
X167588921Y-127651613D01*
X167596773Y-127673557D01*
X167602437Y-127696166D01*
X167605856Y-127719221D01*
X167607000Y-127742500D01*
X167607000Y-128317500D01*
X167605856Y-128340779D01*
X167602437Y-128363834D01*
X167596773Y-128386443D01*
X167588921Y-128408387D01*
X167578956Y-128429457D01*
X167566974Y-128449448D01*
X167553090Y-128468168D01*
X167537438Y-128485438D01*
X167520168Y-128501090D01*
X167501448Y-128514974D01*
X167481457Y-128526956D01*
X167460387Y-128536921D01*
X167438443Y-128544773D01*
X167415834Y-128550437D01*
X167392779Y-128553856D01*
X167369500Y-128555000D01*
X166894500Y-128555000D01*
X166871221Y-128553856D01*
X166848166Y-128550437D01*
X166825557Y-128544773D01*
X166803613Y-128536921D01*
X166782543Y-128526956D01*
X166762552Y-128514974D01*
X166743832Y-128501090D01*
X166726562Y-128485438D01*
X166710910Y-128468168D01*
X166697026Y-128449448D01*
X166685044Y-128429457D01*
X166675079Y-128408387D01*
X166667227Y-128386443D01*
X166661563Y-128363834D01*
X166658144Y-128340779D01*
X166657000Y-128317500D01*
X166657000Y-127742500D01*
X166658144Y-127719221D01*
X166661563Y-127696166D01*
X166667227Y-127673557D01*
X166675079Y-127651613D01*
X166685044Y-127630543D01*
X166697026Y-127610552D01*
X166710910Y-127591832D01*
X166726562Y-127574562D01*
X166743832Y-127558910D01*
X166762552Y-127545026D01*
X166782543Y-127533044D01*
X166803613Y-127523079D01*
X166825557Y-127515227D01*
X166848166Y-127509563D01*
X166871221Y-127506144D01*
X166894500Y-127505000D01*
X167369500Y-127505000D01*
X167392779Y-127506144D01*
G37*
G04 #@! TD.AperFunction*
G04 #@! TA.AperFunction,SMDPad,CuDef*
G36*
X164852779Y-129256144D02*
G01*
X164875834Y-129259563D01*
X164898443Y-129265227D01*
X164920387Y-129273079D01*
X164941457Y-129283044D01*
X164961448Y-129295026D01*
X164980168Y-129308910D01*
X164997438Y-129324562D01*
X165013090Y-129341832D01*
X165026974Y-129360552D01*
X165038956Y-129380543D01*
X165048921Y-129401613D01*
X165056773Y-129423557D01*
X165062437Y-129446166D01*
X165065856Y-129469221D01*
X165067000Y-129492500D01*
X165067000Y-130067500D01*
X165065856Y-130090779D01*
X165062437Y-130113834D01*
X165056773Y-130136443D01*
X165048921Y-130158387D01*
X165038956Y-130179457D01*
X165026974Y-130199448D01*
X165013090Y-130218168D01*
X164997438Y-130235438D01*
X164980168Y-130251090D01*
X164961448Y-130264974D01*
X164941457Y-130276956D01*
X164920387Y-130286921D01*
X164898443Y-130294773D01*
X164875834Y-130300437D01*
X164852779Y-130303856D01*
X164829500Y-130305000D01*
X164354500Y-130305000D01*
X164331221Y-130303856D01*
X164308166Y-130300437D01*
X164285557Y-130294773D01*
X164263613Y-130286921D01*
X164242543Y-130276956D01*
X164222552Y-130264974D01*
X164203832Y-130251090D01*
X164186562Y-130235438D01*
X164170910Y-130218168D01*
X164157026Y-130199448D01*
X164145044Y-130179457D01*
X164135079Y-130158387D01*
X164127227Y-130136443D01*
X164121563Y-130113834D01*
X164118144Y-130090779D01*
X164117000Y-130067500D01*
X164117000Y-129492500D01*
X164118144Y-129469221D01*
X164121563Y-129446166D01*
X164127227Y-129423557D01*
X164135079Y-129401613D01*
X164145044Y-129380543D01*
X164157026Y-129360552D01*
X164170910Y-129341832D01*
X164186562Y-129324562D01*
X164203832Y-129308910D01*
X164222552Y-129295026D01*
X164242543Y-129283044D01*
X164263613Y-129273079D01*
X164285557Y-129265227D01*
X164308166Y-129259563D01*
X164331221Y-129256144D01*
X164354500Y-129255000D01*
X164829500Y-129255000D01*
X164852779Y-129256144D01*
G37*
G04 #@! TD.AperFunction*
G04 #@! TA.AperFunction,SMDPad,CuDef*
G36*
X164852779Y-127506144D02*
G01*
X164875834Y-127509563D01*
X164898443Y-127515227D01*
X164920387Y-127523079D01*
X164941457Y-127533044D01*
X164961448Y-127545026D01*
X164980168Y-127558910D01*
X164997438Y-127574562D01*
X165013090Y-127591832D01*
X165026974Y-127610552D01*
X165038956Y-127630543D01*
X165048921Y-127651613D01*
X165056773Y-127673557D01*
X165062437Y-127696166D01*
X165065856Y-127719221D01*
X165067000Y-127742500D01*
X165067000Y-128317500D01*
X165065856Y-128340779D01*
X165062437Y-128363834D01*
X165056773Y-128386443D01*
X165048921Y-128408387D01*
X165038956Y-128429457D01*
X165026974Y-128449448D01*
X165013090Y-128468168D01*
X164997438Y-128485438D01*
X164980168Y-128501090D01*
X164961448Y-128514974D01*
X164941457Y-128526956D01*
X164920387Y-128536921D01*
X164898443Y-128544773D01*
X164875834Y-128550437D01*
X164852779Y-128553856D01*
X164829500Y-128555000D01*
X164354500Y-128555000D01*
X164331221Y-128553856D01*
X164308166Y-128550437D01*
X164285557Y-128544773D01*
X164263613Y-128536921D01*
X164242543Y-128526956D01*
X164222552Y-128514974D01*
X164203832Y-128501090D01*
X164186562Y-128485438D01*
X164170910Y-128468168D01*
X164157026Y-128449448D01*
X164145044Y-128429457D01*
X164135079Y-128408387D01*
X164127227Y-128386443D01*
X164121563Y-128363834D01*
X164118144Y-128340779D01*
X164117000Y-128317500D01*
X164117000Y-127742500D01*
X164118144Y-127719221D01*
X164121563Y-127696166D01*
X164127227Y-127673557D01*
X164135079Y-127651613D01*
X164145044Y-127630543D01*
X164157026Y-127610552D01*
X164170910Y-127591832D01*
X164186562Y-127574562D01*
X164203832Y-127558910D01*
X164222552Y-127545026D01*
X164242543Y-127533044D01*
X164263613Y-127523079D01*
X164285557Y-127515227D01*
X164308166Y-127509563D01*
X164331221Y-127506144D01*
X164354500Y-127505000D01*
X164829500Y-127505000D01*
X164852779Y-127506144D01*
G37*
G04 #@! TD.AperFunction*
G04 #@! TA.AperFunction,SMDPad,CuDef*
G36*
X162312779Y-129256144D02*
G01*
X162335834Y-129259563D01*
X162358443Y-129265227D01*
X162380387Y-129273079D01*
X162401457Y-129283044D01*
X162421448Y-129295026D01*
X162440168Y-129308910D01*
X162457438Y-129324562D01*
X162473090Y-129341832D01*
X162486974Y-129360552D01*
X162498956Y-129380543D01*
X162508921Y-129401613D01*
X162516773Y-129423557D01*
X162522437Y-129446166D01*
X162525856Y-129469221D01*
X162527000Y-129492500D01*
X162527000Y-130067500D01*
X162525856Y-130090779D01*
X162522437Y-130113834D01*
X162516773Y-130136443D01*
X162508921Y-130158387D01*
X162498956Y-130179457D01*
X162486974Y-130199448D01*
X162473090Y-130218168D01*
X162457438Y-130235438D01*
X162440168Y-130251090D01*
X162421448Y-130264974D01*
X162401457Y-130276956D01*
X162380387Y-130286921D01*
X162358443Y-130294773D01*
X162335834Y-130300437D01*
X162312779Y-130303856D01*
X162289500Y-130305000D01*
X161814500Y-130305000D01*
X161791221Y-130303856D01*
X161768166Y-130300437D01*
X161745557Y-130294773D01*
X161723613Y-130286921D01*
X161702543Y-130276956D01*
X161682552Y-130264974D01*
X161663832Y-130251090D01*
X161646562Y-130235438D01*
X161630910Y-130218168D01*
X161617026Y-130199448D01*
X161605044Y-130179457D01*
X161595079Y-130158387D01*
X161587227Y-130136443D01*
X161581563Y-130113834D01*
X161578144Y-130090779D01*
X161577000Y-130067500D01*
X161577000Y-129492500D01*
X161578144Y-129469221D01*
X161581563Y-129446166D01*
X161587227Y-129423557D01*
X161595079Y-129401613D01*
X161605044Y-129380543D01*
X161617026Y-129360552D01*
X161630910Y-129341832D01*
X161646562Y-129324562D01*
X161663832Y-129308910D01*
X161682552Y-129295026D01*
X161702543Y-129283044D01*
X161723613Y-129273079D01*
X161745557Y-129265227D01*
X161768166Y-129259563D01*
X161791221Y-129256144D01*
X161814500Y-129255000D01*
X162289500Y-129255000D01*
X162312779Y-129256144D01*
G37*
G04 #@! TD.AperFunction*
G04 #@! TA.AperFunction,SMDPad,CuDef*
G36*
X162312779Y-127506144D02*
G01*
X162335834Y-127509563D01*
X162358443Y-127515227D01*
X162380387Y-127523079D01*
X162401457Y-127533044D01*
X162421448Y-127545026D01*
X162440168Y-127558910D01*
X162457438Y-127574562D01*
X162473090Y-127591832D01*
X162486974Y-127610552D01*
X162498956Y-127630543D01*
X162508921Y-127651613D01*
X162516773Y-127673557D01*
X162522437Y-127696166D01*
X162525856Y-127719221D01*
X162527000Y-127742500D01*
X162527000Y-128317500D01*
X162525856Y-128340779D01*
X162522437Y-128363834D01*
X162516773Y-128386443D01*
X162508921Y-128408387D01*
X162498956Y-128429457D01*
X162486974Y-128449448D01*
X162473090Y-128468168D01*
X162457438Y-128485438D01*
X162440168Y-128501090D01*
X162421448Y-128514974D01*
X162401457Y-128526956D01*
X162380387Y-128536921D01*
X162358443Y-128544773D01*
X162335834Y-128550437D01*
X162312779Y-128553856D01*
X162289500Y-128555000D01*
X161814500Y-128555000D01*
X161791221Y-128553856D01*
X161768166Y-128550437D01*
X161745557Y-128544773D01*
X161723613Y-128536921D01*
X161702543Y-128526956D01*
X161682552Y-128514974D01*
X161663832Y-128501090D01*
X161646562Y-128485438D01*
X161630910Y-128468168D01*
X161617026Y-128449448D01*
X161605044Y-128429457D01*
X161595079Y-128408387D01*
X161587227Y-128386443D01*
X161581563Y-128363834D01*
X161578144Y-128340779D01*
X161577000Y-128317500D01*
X161577000Y-127742500D01*
X161578144Y-127719221D01*
X161581563Y-127696166D01*
X161587227Y-127673557D01*
X161595079Y-127651613D01*
X161605044Y-127630543D01*
X161617026Y-127610552D01*
X161630910Y-127591832D01*
X161646562Y-127574562D01*
X161663832Y-127558910D01*
X161682552Y-127545026D01*
X161702543Y-127533044D01*
X161723613Y-127523079D01*
X161745557Y-127515227D01*
X161768166Y-127509563D01*
X161791221Y-127506144D01*
X161814500Y-127505000D01*
X162289500Y-127505000D01*
X162312779Y-127506144D01*
G37*
G04 #@! TD.AperFunction*
G04 #@! TA.AperFunction,SMDPad,CuDef*
G36*
X159772779Y-129256144D02*
G01*
X159795834Y-129259563D01*
X159818443Y-129265227D01*
X159840387Y-129273079D01*
X159861457Y-129283044D01*
X159881448Y-129295026D01*
X159900168Y-129308910D01*
X159917438Y-129324562D01*
X159933090Y-129341832D01*
X159946974Y-129360552D01*
X159958956Y-129380543D01*
X159968921Y-129401613D01*
X159976773Y-129423557D01*
X159982437Y-129446166D01*
X159985856Y-129469221D01*
X159987000Y-129492500D01*
X159987000Y-130067500D01*
X159985856Y-130090779D01*
X159982437Y-130113834D01*
X159976773Y-130136443D01*
X159968921Y-130158387D01*
X159958956Y-130179457D01*
X159946974Y-130199448D01*
X159933090Y-130218168D01*
X159917438Y-130235438D01*
X159900168Y-130251090D01*
X159881448Y-130264974D01*
X159861457Y-130276956D01*
X159840387Y-130286921D01*
X159818443Y-130294773D01*
X159795834Y-130300437D01*
X159772779Y-130303856D01*
X159749500Y-130305000D01*
X159274500Y-130305000D01*
X159251221Y-130303856D01*
X159228166Y-130300437D01*
X159205557Y-130294773D01*
X159183613Y-130286921D01*
X159162543Y-130276956D01*
X159142552Y-130264974D01*
X159123832Y-130251090D01*
X159106562Y-130235438D01*
X159090910Y-130218168D01*
X159077026Y-130199448D01*
X159065044Y-130179457D01*
X159055079Y-130158387D01*
X159047227Y-130136443D01*
X159041563Y-130113834D01*
X159038144Y-130090779D01*
X159037000Y-130067500D01*
X159037000Y-129492500D01*
X159038144Y-129469221D01*
X159041563Y-129446166D01*
X159047227Y-129423557D01*
X159055079Y-129401613D01*
X159065044Y-129380543D01*
X159077026Y-129360552D01*
X159090910Y-129341832D01*
X159106562Y-129324562D01*
X159123832Y-129308910D01*
X159142552Y-129295026D01*
X159162543Y-129283044D01*
X159183613Y-129273079D01*
X159205557Y-129265227D01*
X159228166Y-129259563D01*
X159251221Y-129256144D01*
X159274500Y-129255000D01*
X159749500Y-129255000D01*
X159772779Y-129256144D01*
G37*
G04 #@! TD.AperFunction*
G04 #@! TA.AperFunction,SMDPad,CuDef*
G36*
X159772779Y-127506144D02*
G01*
X159795834Y-127509563D01*
X159818443Y-127515227D01*
X159840387Y-127523079D01*
X159861457Y-127533044D01*
X159881448Y-127545026D01*
X159900168Y-127558910D01*
X159917438Y-127574562D01*
X159933090Y-127591832D01*
X159946974Y-127610552D01*
X159958956Y-127630543D01*
X159968921Y-127651613D01*
X159976773Y-127673557D01*
X159982437Y-127696166D01*
X159985856Y-127719221D01*
X159987000Y-127742500D01*
X159987000Y-128317500D01*
X159985856Y-128340779D01*
X159982437Y-128363834D01*
X159976773Y-128386443D01*
X159968921Y-128408387D01*
X159958956Y-128429457D01*
X159946974Y-128449448D01*
X159933090Y-128468168D01*
X159917438Y-128485438D01*
X159900168Y-128501090D01*
X159881448Y-128514974D01*
X159861457Y-128526956D01*
X159840387Y-128536921D01*
X159818443Y-128544773D01*
X159795834Y-128550437D01*
X159772779Y-128553856D01*
X159749500Y-128555000D01*
X159274500Y-128555000D01*
X159251221Y-128553856D01*
X159228166Y-128550437D01*
X159205557Y-128544773D01*
X159183613Y-128536921D01*
X159162543Y-128526956D01*
X159142552Y-128514974D01*
X159123832Y-128501090D01*
X159106562Y-128485438D01*
X159090910Y-128468168D01*
X159077026Y-128449448D01*
X159065044Y-128429457D01*
X159055079Y-128408387D01*
X159047227Y-128386443D01*
X159041563Y-128363834D01*
X159038144Y-128340779D01*
X159037000Y-128317500D01*
X159037000Y-127742500D01*
X159038144Y-127719221D01*
X159041563Y-127696166D01*
X159047227Y-127673557D01*
X159055079Y-127651613D01*
X159065044Y-127630543D01*
X159077026Y-127610552D01*
X159090910Y-127591832D01*
X159106562Y-127574562D01*
X159123832Y-127558910D01*
X159142552Y-127545026D01*
X159162543Y-127533044D01*
X159183613Y-127523079D01*
X159205557Y-127515227D01*
X159228166Y-127509563D01*
X159251221Y-127506144D01*
X159274500Y-127505000D01*
X159749500Y-127505000D01*
X159772779Y-127506144D01*
G37*
G04 #@! TD.AperFunction*
G04 #@! TA.AperFunction,SMDPad,CuDef*
G36*
X157232779Y-129256144D02*
G01*
X157255834Y-129259563D01*
X157278443Y-129265227D01*
X157300387Y-129273079D01*
X157321457Y-129283044D01*
X157341448Y-129295026D01*
X157360168Y-129308910D01*
X157377438Y-129324562D01*
X157393090Y-129341832D01*
X157406974Y-129360552D01*
X157418956Y-129380543D01*
X157428921Y-129401613D01*
X157436773Y-129423557D01*
X157442437Y-129446166D01*
X157445856Y-129469221D01*
X157447000Y-129492500D01*
X157447000Y-130067500D01*
X157445856Y-130090779D01*
X157442437Y-130113834D01*
X157436773Y-130136443D01*
X157428921Y-130158387D01*
X157418956Y-130179457D01*
X157406974Y-130199448D01*
X157393090Y-130218168D01*
X157377438Y-130235438D01*
X157360168Y-130251090D01*
X157341448Y-130264974D01*
X157321457Y-130276956D01*
X157300387Y-130286921D01*
X157278443Y-130294773D01*
X157255834Y-130300437D01*
X157232779Y-130303856D01*
X157209500Y-130305000D01*
X156734500Y-130305000D01*
X156711221Y-130303856D01*
X156688166Y-130300437D01*
X156665557Y-130294773D01*
X156643613Y-130286921D01*
X156622543Y-130276956D01*
X156602552Y-130264974D01*
X156583832Y-130251090D01*
X156566562Y-130235438D01*
X156550910Y-130218168D01*
X156537026Y-130199448D01*
X156525044Y-130179457D01*
X156515079Y-130158387D01*
X156507227Y-130136443D01*
X156501563Y-130113834D01*
X156498144Y-130090779D01*
X156497000Y-130067500D01*
X156497000Y-129492500D01*
X156498144Y-129469221D01*
X156501563Y-129446166D01*
X156507227Y-129423557D01*
X156515079Y-129401613D01*
X156525044Y-129380543D01*
X156537026Y-129360552D01*
X156550910Y-129341832D01*
X156566562Y-129324562D01*
X156583832Y-129308910D01*
X156602552Y-129295026D01*
X156622543Y-129283044D01*
X156643613Y-129273079D01*
X156665557Y-129265227D01*
X156688166Y-129259563D01*
X156711221Y-129256144D01*
X156734500Y-129255000D01*
X157209500Y-129255000D01*
X157232779Y-129256144D01*
G37*
G04 #@! TD.AperFunction*
G04 #@! TA.AperFunction,SMDPad,CuDef*
G36*
X157232779Y-127506144D02*
G01*
X157255834Y-127509563D01*
X157278443Y-127515227D01*
X157300387Y-127523079D01*
X157321457Y-127533044D01*
X157341448Y-127545026D01*
X157360168Y-127558910D01*
X157377438Y-127574562D01*
X157393090Y-127591832D01*
X157406974Y-127610552D01*
X157418956Y-127630543D01*
X157428921Y-127651613D01*
X157436773Y-127673557D01*
X157442437Y-127696166D01*
X157445856Y-127719221D01*
X157447000Y-127742500D01*
X157447000Y-128317500D01*
X157445856Y-128340779D01*
X157442437Y-128363834D01*
X157436773Y-128386443D01*
X157428921Y-128408387D01*
X157418956Y-128429457D01*
X157406974Y-128449448D01*
X157393090Y-128468168D01*
X157377438Y-128485438D01*
X157360168Y-128501090D01*
X157341448Y-128514974D01*
X157321457Y-128526956D01*
X157300387Y-128536921D01*
X157278443Y-128544773D01*
X157255834Y-128550437D01*
X157232779Y-128553856D01*
X157209500Y-128555000D01*
X156734500Y-128555000D01*
X156711221Y-128553856D01*
X156688166Y-128550437D01*
X156665557Y-128544773D01*
X156643613Y-128536921D01*
X156622543Y-128526956D01*
X156602552Y-128514974D01*
X156583832Y-128501090D01*
X156566562Y-128485438D01*
X156550910Y-128468168D01*
X156537026Y-128449448D01*
X156525044Y-128429457D01*
X156515079Y-128408387D01*
X156507227Y-128386443D01*
X156501563Y-128363834D01*
X156498144Y-128340779D01*
X156497000Y-128317500D01*
X156497000Y-127742500D01*
X156498144Y-127719221D01*
X156501563Y-127696166D01*
X156507227Y-127673557D01*
X156515079Y-127651613D01*
X156525044Y-127630543D01*
X156537026Y-127610552D01*
X156550910Y-127591832D01*
X156566562Y-127574562D01*
X156583832Y-127558910D01*
X156602552Y-127545026D01*
X156622543Y-127533044D01*
X156643613Y-127523079D01*
X156665557Y-127515227D01*
X156688166Y-127509563D01*
X156711221Y-127506144D01*
X156734500Y-127505000D01*
X157209500Y-127505000D01*
X157232779Y-127506144D01*
G37*
G04 #@! TD.AperFunction*
G04 #@! TA.AperFunction,SMDPad,CuDef*
G36*
X154692779Y-129256144D02*
G01*
X154715834Y-129259563D01*
X154738443Y-129265227D01*
X154760387Y-129273079D01*
X154781457Y-129283044D01*
X154801448Y-129295026D01*
X154820168Y-129308910D01*
X154837438Y-129324562D01*
X154853090Y-129341832D01*
X154866974Y-129360552D01*
X154878956Y-129380543D01*
X154888921Y-129401613D01*
X154896773Y-129423557D01*
X154902437Y-129446166D01*
X154905856Y-129469221D01*
X154907000Y-129492500D01*
X154907000Y-130067500D01*
X154905856Y-130090779D01*
X154902437Y-130113834D01*
X154896773Y-130136443D01*
X154888921Y-130158387D01*
X154878956Y-130179457D01*
X154866974Y-130199448D01*
X154853090Y-130218168D01*
X154837438Y-130235438D01*
X154820168Y-130251090D01*
X154801448Y-130264974D01*
X154781457Y-130276956D01*
X154760387Y-130286921D01*
X154738443Y-130294773D01*
X154715834Y-130300437D01*
X154692779Y-130303856D01*
X154669500Y-130305000D01*
X154194500Y-130305000D01*
X154171221Y-130303856D01*
X154148166Y-130300437D01*
X154125557Y-130294773D01*
X154103613Y-130286921D01*
X154082543Y-130276956D01*
X154062552Y-130264974D01*
X154043832Y-130251090D01*
X154026562Y-130235438D01*
X154010910Y-130218168D01*
X153997026Y-130199448D01*
X153985044Y-130179457D01*
X153975079Y-130158387D01*
X153967227Y-130136443D01*
X153961563Y-130113834D01*
X153958144Y-130090779D01*
X153957000Y-130067500D01*
X153957000Y-129492500D01*
X153958144Y-129469221D01*
X153961563Y-129446166D01*
X153967227Y-129423557D01*
X153975079Y-129401613D01*
X153985044Y-129380543D01*
X153997026Y-129360552D01*
X154010910Y-129341832D01*
X154026562Y-129324562D01*
X154043832Y-129308910D01*
X154062552Y-129295026D01*
X154082543Y-129283044D01*
X154103613Y-129273079D01*
X154125557Y-129265227D01*
X154148166Y-129259563D01*
X154171221Y-129256144D01*
X154194500Y-129255000D01*
X154669500Y-129255000D01*
X154692779Y-129256144D01*
G37*
G04 #@! TD.AperFunction*
G04 #@! TA.AperFunction,SMDPad,CuDef*
G36*
X154692779Y-127506144D02*
G01*
X154715834Y-127509563D01*
X154738443Y-127515227D01*
X154760387Y-127523079D01*
X154781457Y-127533044D01*
X154801448Y-127545026D01*
X154820168Y-127558910D01*
X154837438Y-127574562D01*
X154853090Y-127591832D01*
X154866974Y-127610552D01*
X154878956Y-127630543D01*
X154888921Y-127651613D01*
X154896773Y-127673557D01*
X154902437Y-127696166D01*
X154905856Y-127719221D01*
X154907000Y-127742500D01*
X154907000Y-128317500D01*
X154905856Y-128340779D01*
X154902437Y-128363834D01*
X154896773Y-128386443D01*
X154888921Y-128408387D01*
X154878956Y-128429457D01*
X154866974Y-128449448D01*
X154853090Y-128468168D01*
X154837438Y-128485438D01*
X154820168Y-128501090D01*
X154801448Y-128514974D01*
X154781457Y-128526956D01*
X154760387Y-128536921D01*
X154738443Y-128544773D01*
X154715834Y-128550437D01*
X154692779Y-128553856D01*
X154669500Y-128555000D01*
X154194500Y-128555000D01*
X154171221Y-128553856D01*
X154148166Y-128550437D01*
X154125557Y-128544773D01*
X154103613Y-128536921D01*
X154082543Y-128526956D01*
X154062552Y-128514974D01*
X154043832Y-128501090D01*
X154026562Y-128485438D01*
X154010910Y-128468168D01*
X153997026Y-128449448D01*
X153985044Y-128429457D01*
X153975079Y-128408387D01*
X153967227Y-128386443D01*
X153961563Y-128363834D01*
X153958144Y-128340779D01*
X153957000Y-128317500D01*
X153957000Y-127742500D01*
X153958144Y-127719221D01*
X153961563Y-127696166D01*
X153967227Y-127673557D01*
X153975079Y-127651613D01*
X153985044Y-127630543D01*
X153997026Y-127610552D01*
X154010910Y-127591832D01*
X154026562Y-127574562D01*
X154043832Y-127558910D01*
X154062552Y-127545026D01*
X154082543Y-127533044D01*
X154103613Y-127523079D01*
X154125557Y-127515227D01*
X154148166Y-127509563D01*
X154171221Y-127506144D01*
X154194500Y-127505000D01*
X154669500Y-127505000D01*
X154692779Y-127506144D01*
G37*
G04 #@! TD.AperFunction*
G04 #@! TA.AperFunction,SMDPad,CuDef*
G36*
X152152779Y-129256144D02*
G01*
X152175834Y-129259563D01*
X152198443Y-129265227D01*
X152220387Y-129273079D01*
X152241457Y-129283044D01*
X152261448Y-129295026D01*
X152280168Y-129308910D01*
X152297438Y-129324562D01*
X152313090Y-129341832D01*
X152326974Y-129360552D01*
X152338956Y-129380543D01*
X152348921Y-129401613D01*
X152356773Y-129423557D01*
X152362437Y-129446166D01*
X152365856Y-129469221D01*
X152367000Y-129492500D01*
X152367000Y-130067500D01*
X152365856Y-130090779D01*
X152362437Y-130113834D01*
X152356773Y-130136443D01*
X152348921Y-130158387D01*
X152338956Y-130179457D01*
X152326974Y-130199448D01*
X152313090Y-130218168D01*
X152297438Y-130235438D01*
X152280168Y-130251090D01*
X152261448Y-130264974D01*
X152241457Y-130276956D01*
X152220387Y-130286921D01*
X152198443Y-130294773D01*
X152175834Y-130300437D01*
X152152779Y-130303856D01*
X152129500Y-130305000D01*
X151654500Y-130305000D01*
X151631221Y-130303856D01*
X151608166Y-130300437D01*
X151585557Y-130294773D01*
X151563613Y-130286921D01*
X151542543Y-130276956D01*
X151522552Y-130264974D01*
X151503832Y-130251090D01*
X151486562Y-130235438D01*
X151470910Y-130218168D01*
X151457026Y-130199448D01*
X151445044Y-130179457D01*
X151435079Y-130158387D01*
X151427227Y-130136443D01*
X151421563Y-130113834D01*
X151418144Y-130090779D01*
X151417000Y-130067500D01*
X151417000Y-129492500D01*
X151418144Y-129469221D01*
X151421563Y-129446166D01*
X151427227Y-129423557D01*
X151435079Y-129401613D01*
X151445044Y-129380543D01*
X151457026Y-129360552D01*
X151470910Y-129341832D01*
X151486562Y-129324562D01*
X151503832Y-129308910D01*
X151522552Y-129295026D01*
X151542543Y-129283044D01*
X151563613Y-129273079D01*
X151585557Y-129265227D01*
X151608166Y-129259563D01*
X151631221Y-129256144D01*
X151654500Y-129255000D01*
X152129500Y-129255000D01*
X152152779Y-129256144D01*
G37*
G04 #@! TD.AperFunction*
G04 #@! TA.AperFunction,SMDPad,CuDef*
G36*
X152152779Y-127506144D02*
G01*
X152175834Y-127509563D01*
X152198443Y-127515227D01*
X152220387Y-127523079D01*
X152241457Y-127533044D01*
X152261448Y-127545026D01*
X152280168Y-127558910D01*
X152297438Y-127574562D01*
X152313090Y-127591832D01*
X152326974Y-127610552D01*
X152338956Y-127630543D01*
X152348921Y-127651613D01*
X152356773Y-127673557D01*
X152362437Y-127696166D01*
X152365856Y-127719221D01*
X152367000Y-127742500D01*
X152367000Y-128317500D01*
X152365856Y-128340779D01*
X152362437Y-128363834D01*
X152356773Y-128386443D01*
X152348921Y-128408387D01*
X152338956Y-128429457D01*
X152326974Y-128449448D01*
X152313090Y-128468168D01*
X152297438Y-128485438D01*
X152280168Y-128501090D01*
X152261448Y-128514974D01*
X152241457Y-128526956D01*
X152220387Y-128536921D01*
X152198443Y-128544773D01*
X152175834Y-128550437D01*
X152152779Y-128553856D01*
X152129500Y-128555000D01*
X151654500Y-128555000D01*
X151631221Y-128553856D01*
X151608166Y-128550437D01*
X151585557Y-128544773D01*
X151563613Y-128536921D01*
X151542543Y-128526956D01*
X151522552Y-128514974D01*
X151503832Y-128501090D01*
X151486562Y-128485438D01*
X151470910Y-128468168D01*
X151457026Y-128449448D01*
X151445044Y-128429457D01*
X151435079Y-128408387D01*
X151427227Y-128386443D01*
X151421563Y-128363834D01*
X151418144Y-128340779D01*
X151417000Y-128317500D01*
X151417000Y-127742500D01*
X151418144Y-127719221D01*
X151421563Y-127696166D01*
X151427227Y-127673557D01*
X151435079Y-127651613D01*
X151445044Y-127630543D01*
X151457026Y-127610552D01*
X151470910Y-127591832D01*
X151486562Y-127574562D01*
X151503832Y-127558910D01*
X151522552Y-127545026D01*
X151542543Y-127533044D01*
X151563613Y-127523079D01*
X151585557Y-127515227D01*
X151608166Y-127509563D01*
X151631221Y-127506144D01*
X151654500Y-127505000D01*
X152129500Y-127505000D01*
X152152779Y-127506144D01*
G37*
G04 #@! TD.AperFunction*
G04 #@! TA.AperFunction,SMDPad,CuDef*
G36*
X149612779Y-129256144D02*
G01*
X149635834Y-129259563D01*
X149658443Y-129265227D01*
X149680387Y-129273079D01*
X149701457Y-129283044D01*
X149721448Y-129295026D01*
X149740168Y-129308910D01*
X149757438Y-129324562D01*
X149773090Y-129341832D01*
X149786974Y-129360552D01*
X149798956Y-129380543D01*
X149808921Y-129401613D01*
X149816773Y-129423557D01*
X149822437Y-129446166D01*
X149825856Y-129469221D01*
X149827000Y-129492500D01*
X149827000Y-130067500D01*
X149825856Y-130090779D01*
X149822437Y-130113834D01*
X149816773Y-130136443D01*
X149808921Y-130158387D01*
X149798956Y-130179457D01*
X149786974Y-130199448D01*
X149773090Y-130218168D01*
X149757438Y-130235438D01*
X149740168Y-130251090D01*
X149721448Y-130264974D01*
X149701457Y-130276956D01*
X149680387Y-130286921D01*
X149658443Y-130294773D01*
X149635834Y-130300437D01*
X149612779Y-130303856D01*
X149589500Y-130305000D01*
X149114500Y-130305000D01*
X149091221Y-130303856D01*
X149068166Y-130300437D01*
X149045557Y-130294773D01*
X149023613Y-130286921D01*
X149002543Y-130276956D01*
X148982552Y-130264974D01*
X148963832Y-130251090D01*
X148946562Y-130235438D01*
X148930910Y-130218168D01*
X148917026Y-130199448D01*
X148905044Y-130179457D01*
X148895079Y-130158387D01*
X148887227Y-130136443D01*
X148881563Y-130113834D01*
X148878144Y-130090779D01*
X148877000Y-130067500D01*
X148877000Y-129492500D01*
X148878144Y-129469221D01*
X148881563Y-129446166D01*
X148887227Y-129423557D01*
X148895079Y-129401613D01*
X148905044Y-129380543D01*
X148917026Y-129360552D01*
X148930910Y-129341832D01*
X148946562Y-129324562D01*
X148963832Y-129308910D01*
X148982552Y-129295026D01*
X149002543Y-129283044D01*
X149023613Y-129273079D01*
X149045557Y-129265227D01*
X149068166Y-129259563D01*
X149091221Y-129256144D01*
X149114500Y-129255000D01*
X149589500Y-129255000D01*
X149612779Y-129256144D01*
G37*
G04 #@! TD.AperFunction*
G04 #@! TA.AperFunction,SMDPad,CuDef*
G36*
X149612779Y-127506144D02*
G01*
X149635834Y-127509563D01*
X149658443Y-127515227D01*
X149680387Y-127523079D01*
X149701457Y-127533044D01*
X149721448Y-127545026D01*
X149740168Y-127558910D01*
X149757438Y-127574562D01*
X149773090Y-127591832D01*
X149786974Y-127610552D01*
X149798956Y-127630543D01*
X149808921Y-127651613D01*
X149816773Y-127673557D01*
X149822437Y-127696166D01*
X149825856Y-127719221D01*
X149827000Y-127742500D01*
X149827000Y-128317500D01*
X149825856Y-128340779D01*
X149822437Y-128363834D01*
X149816773Y-128386443D01*
X149808921Y-128408387D01*
X149798956Y-128429457D01*
X149786974Y-128449448D01*
X149773090Y-128468168D01*
X149757438Y-128485438D01*
X149740168Y-128501090D01*
X149721448Y-128514974D01*
X149701457Y-128526956D01*
X149680387Y-128536921D01*
X149658443Y-128544773D01*
X149635834Y-128550437D01*
X149612779Y-128553856D01*
X149589500Y-128555000D01*
X149114500Y-128555000D01*
X149091221Y-128553856D01*
X149068166Y-128550437D01*
X149045557Y-128544773D01*
X149023613Y-128536921D01*
X149002543Y-128526956D01*
X148982552Y-128514974D01*
X148963832Y-128501090D01*
X148946562Y-128485438D01*
X148930910Y-128468168D01*
X148917026Y-128449448D01*
X148905044Y-128429457D01*
X148895079Y-128408387D01*
X148887227Y-128386443D01*
X148881563Y-128363834D01*
X148878144Y-128340779D01*
X148877000Y-128317500D01*
X148877000Y-127742500D01*
X148878144Y-127719221D01*
X148881563Y-127696166D01*
X148887227Y-127673557D01*
X148895079Y-127651613D01*
X148905044Y-127630543D01*
X148917026Y-127610552D01*
X148930910Y-127591832D01*
X148946562Y-127574562D01*
X148963832Y-127558910D01*
X148982552Y-127545026D01*
X149002543Y-127533044D01*
X149023613Y-127523079D01*
X149045557Y-127515227D01*
X149068166Y-127509563D01*
X149091221Y-127506144D01*
X149114500Y-127505000D01*
X149589500Y-127505000D01*
X149612779Y-127506144D01*
G37*
G04 #@! TD.AperFunction*
G04 #@! TA.AperFunction,SMDPad,CuDef*
G36*
X147072779Y-129256144D02*
G01*
X147095834Y-129259563D01*
X147118443Y-129265227D01*
X147140387Y-129273079D01*
X147161457Y-129283044D01*
X147181448Y-129295026D01*
X147200168Y-129308910D01*
X147217438Y-129324562D01*
X147233090Y-129341832D01*
X147246974Y-129360552D01*
X147258956Y-129380543D01*
X147268921Y-129401613D01*
X147276773Y-129423557D01*
X147282437Y-129446166D01*
X147285856Y-129469221D01*
X147287000Y-129492500D01*
X147287000Y-130067500D01*
X147285856Y-130090779D01*
X147282437Y-130113834D01*
X147276773Y-130136443D01*
X147268921Y-130158387D01*
X147258956Y-130179457D01*
X147246974Y-130199448D01*
X147233090Y-130218168D01*
X147217438Y-130235438D01*
X147200168Y-130251090D01*
X147181448Y-130264974D01*
X147161457Y-130276956D01*
X147140387Y-130286921D01*
X147118443Y-130294773D01*
X147095834Y-130300437D01*
X147072779Y-130303856D01*
X147049500Y-130305000D01*
X146574500Y-130305000D01*
X146551221Y-130303856D01*
X146528166Y-130300437D01*
X146505557Y-130294773D01*
X146483613Y-130286921D01*
X146462543Y-130276956D01*
X146442552Y-130264974D01*
X146423832Y-130251090D01*
X146406562Y-130235438D01*
X146390910Y-130218168D01*
X146377026Y-130199448D01*
X146365044Y-130179457D01*
X146355079Y-130158387D01*
X146347227Y-130136443D01*
X146341563Y-130113834D01*
X146338144Y-130090779D01*
X146337000Y-130067500D01*
X146337000Y-129492500D01*
X146338144Y-129469221D01*
X146341563Y-129446166D01*
X146347227Y-129423557D01*
X146355079Y-129401613D01*
X146365044Y-129380543D01*
X146377026Y-129360552D01*
X146390910Y-129341832D01*
X146406562Y-129324562D01*
X146423832Y-129308910D01*
X146442552Y-129295026D01*
X146462543Y-129283044D01*
X146483613Y-129273079D01*
X146505557Y-129265227D01*
X146528166Y-129259563D01*
X146551221Y-129256144D01*
X146574500Y-129255000D01*
X147049500Y-129255000D01*
X147072779Y-129256144D01*
G37*
G04 #@! TD.AperFunction*
G04 #@! TA.AperFunction,SMDPad,CuDef*
G36*
X147072779Y-127506144D02*
G01*
X147095834Y-127509563D01*
X147118443Y-127515227D01*
X147140387Y-127523079D01*
X147161457Y-127533044D01*
X147181448Y-127545026D01*
X147200168Y-127558910D01*
X147217438Y-127574562D01*
X147233090Y-127591832D01*
X147246974Y-127610552D01*
X147258956Y-127630543D01*
X147268921Y-127651613D01*
X147276773Y-127673557D01*
X147282437Y-127696166D01*
X147285856Y-127719221D01*
X147287000Y-127742500D01*
X147287000Y-128317500D01*
X147285856Y-128340779D01*
X147282437Y-128363834D01*
X147276773Y-128386443D01*
X147268921Y-128408387D01*
X147258956Y-128429457D01*
X147246974Y-128449448D01*
X147233090Y-128468168D01*
X147217438Y-128485438D01*
X147200168Y-128501090D01*
X147181448Y-128514974D01*
X147161457Y-128526956D01*
X147140387Y-128536921D01*
X147118443Y-128544773D01*
X147095834Y-128550437D01*
X147072779Y-128553856D01*
X147049500Y-128555000D01*
X146574500Y-128555000D01*
X146551221Y-128553856D01*
X146528166Y-128550437D01*
X146505557Y-128544773D01*
X146483613Y-128536921D01*
X146462543Y-128526956D01*
X146442552Y-128514974D01*
X146423832Y-128501090D01*
X146406562Y-128485438D01*
X146390910Y-128468168D01*
X146377026Y-128449448D01*
X146365044Y-128429457D01*
X146355079Y-128408387D01*
X146347227Y-128386443D01*
X146341563Y-128363834D01*
X146338144Y-128340779D01*
X146337000Y-128317500D01*
X146337000Y-127742500D01*
X146338144Y-127719221D01*
X146341563Y-127696166D01*
X146347227Y-127673557D01*
X146355079Y-127651613D01*
X146365044Y-127630543D01*
X146377026Y-127610552D01*
X146390910Y-127591832D01*
X146406562Y-127574562D01*
X146423832Y-127558910D01*
X146442552Y-127545026D01*
X146462543Y-127533044D01*
X146483613Y-127523079D01*
X146505557Y-127515227D01*
X146528166Y-127509563D01*
X146551221Y-127506144D01*
X146574500Y-127505000D01*
X147049500Y-127505000D01*
X147072779Y-127506144D01*
G37*
G04 #@! TD.AperFunction*
G04 #@! TA.AperFunction,SMDPad,CuDef*
G36*
X144532779Y-129256144D02*
G01*
X144555834Y-129259563D01*
X144578443Y-129265227D01*
X144600387Y-129273079D01*
X144621457Y-129283044D01*
X144641448Y-129295026D01*
X144660168Y-129308910D01*
X144677438Y-129324562D01*
X144693090Y-129341832D01*
X144706974Y-129360552D01*
X144718956Y-129380543D01*
X144728921Y-129401613D01*
X144736773Y-129423557D01*
X144742437Y-129446166D01*
X144745856Y-129469221D01*
X144747000Y-129492500D01*
X144747000Y-130067500D01*
X144745856Y-130090779D01*
X144742437Y-130113834D01*
X144736773Y-130136443D01*
X144728921Y-130158387D01*
X144718956Y-130179457D01*
X144706974Y-130199448D01*
X144693090Y-130218168D01*
X144677438Y-130235438D01*
X144660168Y-130251090D01*
X144641448Y-130264974D01*
X144621457Y-130276956D01*
X144600387Y-130286921D01*
X144578443Y-130294773D01*
X144555834Y-130300437D01*
X144532779Y-130303856D01*
X144509500Y-130305000D01*
X144034500Y-130305000D01*
X144011221Y-130303856D01*
X143988166Y-130300437D01*
X143965557Y-130294773D01*
X143943613Y-130286921D01*
X143922543Y-130276956D01*
X143902552Y-130264974D01*
X143883832Y-130251090D01*
X143866562Y-130235438D01*
X143850910Y-130218168D01*
X143837026Y-130199448D01*
X143825044Y-130179457D01*
X143815079Y-130158387D01*
X143807227Y-130136443D01*
X143801563Y-130113834D01*
X143798144Y-130090779D01*
X143797000Y-130067500D01*
X143797000Y-129492500D01*
X143798144Y-129469221D01*
X143801563Y-129446166D01*
X143807227Y-129423557D01*
X143815079Y-129401613D01*
X143825044Y-129380543D01*
X143837026Y-129360552D01*
X143850910Y-129341832D01*
X143866562Y-129324562D01*
X143883832Y-129308910D01*
X143902552Y-129295026D01*
X143922543Y-129283044D01*
X143943613Y-129273079D01*
X143965557Y-129265227D01*
X143988166Y-129259563D01*
X144011221Y-129256144D01*
X144034500Y-129255000D01*
X144509500Y-129255000D01*
X144532779Y-129256144D01*
G37*
G04 #@! TD.AperFunction*
G04 #@! TA.AperFunction,SMDPad,CuDef*
G36*
X144532779Y-127506144D02*
G01*
X144555834Y-127509563D01*
X144578443Y-127515227D01*
X144600387Y-127523079D01*
X144621457Y-127533044D01*
X144641448Y-127545026D01*
X144660168Y-127558910D01*
X144677438Y-127574562D01*
X144693090Y-127591832D01*
X144706974Y-127610552D01*
X144718956Y-127630543D01*
X144728921Y-127651613D01*
X144736773Y-127673557D01*
X144742437Y-127696166D01*
X144745856Y-127719221D01*
X144747000Y-127742500D01*
X144747000Y-128317500D01*
X144745856Y-128340779D01*
X144742437Y-128363834D01*
X144736773Y-128386443D01*
X144728921Y-128408387D01*
X144718956Y-128429457D01*
X144706974Y-128449448D01*
X144693090Y-128468168D01*
X144677438Y-128485438D01*
X144660168Y-128501090D01*
X144641448Y-128514974D01*
X144621457Y-128526956D01*
X144600387Y-128536921D01*
X144578443Y-128544773D01*
X144555834Y-128550437D01*
X144532779Y-128553856D01*
X144509500Y-128555000D01*
X144034500Y-128555000D01*
X144011221Y-128553856D01*
X143988166Y-128550437D01*
X143965557Y-128544773D01*
X143943613Y-128536921D01*
X143922543Y-128526956D01*
X143902552Y-128514974D01*
X143883832Y-128501090D01*
X143866562Y-128485438D01*
X143850910Y-128468168D01*
X143837026Y-128449448D01*
X143825044Y-128429457D01*
X143815079Y-128408387D01*
X143807227Y-128386443D01*
X143801563Y-128363834D01*
X143798144Y-128340779D01*
X143797000Y-128317500D01*
X143797000Y-127742500D01*
X143798144Y-127719221D01*
X143801563Y-127696166D01*
X143807227Y-127673557D01*
X143815079Y-127651613D01*
X143825044Y-127630543D01*
X143837026Y-127610552D01*
X143850910Y-127591832D01*
X143866562Y-127574562D01*
X143883832Y-127558910D01*
X143902552Y-127545026D01*
X143922543Y-127533044D01*
X143943613Y-127523079D01*
X143965557Y-127515227D01*
X143988166Y-127509563D01*
X144011221Y-127506144D01*
X144034500Y-127505000D01*
X144509500Y-127505000D01*
X144532779Y-127506144D01*
G37*
G04 #@! TD.AperFunction*
G04 #@! TA.AperFunction,SMDPad,CuDef*
G36*
X141992779Y-129256144D02*
G01*
X142015834Y-129259563D01*
X142038443Y-129265227D01*
X142060387Y-129273079D01*
X142081457Y-129283044D01*
X142101448Y-129295026D01*
X142120168Y-129308910D01*
X142137438Y-129324562D01*
X142153090Y-129341832D01*
X142166974Y-129360552D01*
X142178956Y-129380543D01*
X142188921Y-129401613D01*
X142196773Y-129423557D01*
X142202437Y-129446166D01*
X142205856Y-129469221D01*
X142207000Y-129492500D01*
X142207000Y-130067500D01*
X142205856Y-130090779D01*
X142202437Y-130113834D01*
X142196773Y-130136443D01*
X142188921Y-130158387D01*
X142178956Y-130179457D01*
X142166974Y-130199448D01*
X142153090Y-130218168D01*
X142137438Y-130235438D01*
X142120168Y-130251090D01*
X142101448Y-130264974D01*
X142081457Y-130276956D01*
X142060387Y-130286921D01*
X142038443Y-130294773D01*
X142015834Y-130300437D01*
X141992779Y-130303856D01*
X141969500Y-130305000D01*
X141494500Y-130305000D01*
X141471221Y-130303856D01*
X141448166Y-130300437D01*
X141425557Y-130294773D01*
X141403613Y-130286921D01*
X141382543Y-130276956D01*
X141362552Y-130264974D01*
X141343832Y-130251090D01*
X141326562Y-130235438D01*
X141310910Y-130218168D01*
X141297026Y-130199448D01*
X141285044Y-130179457D01*
X141275079Y-130158387D01*
X141267227Y-130136443D01*
X141261563Y-130113834D01*
X141258144Y-130090779D01*
X141257000Y-130067500D01*
X141257000Y-129492500D01*
X141258144Y-129469221D01*
X141261563Y-129446166D01*
X141267227Y-129423557D01*
X141275079Y-129401613D01*
X141285044Y-129380543D01*
X141297026Y-129360552D01*
X141310910Y-129341832D01*
X141326562Y-129324562D01*
X141343832Y-129308910D01*
X141362552Y-129295026D01*
X141382543Y-129283044D01*
X141403613Y-129273079D01*
X141425557Y-129265227D01*
X141448166Y-129259563D01*
X141471221Y-129256144D01*
X141494500Y-129255000D01*
X141969500Y-129255000D01*
X141992779Y-129256144D01*
G37*
G04 #@! TD.AperFunction*
G04 #@! TA.AperFunction,SMDPad,CuDef*
G36*
X141992779Y-127506144D02*
G01*
X142015834Y-127509563D01*
X142038443Y-127515227D01*
X142060387Y-127523079D01*
X142081457Y-127533044D01*
X142101448Y-127545026D01*
X142120168Y-127558910D01*
X142137438Y-127574562D01*
X142153090Y-127591832D01*
X142166974Y-127610552D01*
X142178956Y-127630543D01*
X142188921Y-127651613D01*
X142196773Y-127673557D01*
X142202437Y-127696166D01*
X142205856Y-127719221D01*
X142207000Y-127742500D01*
X142207000Y-128317500D01*
X142205856Y-128340779D01*
X142202437Y-128363834D01*
X142196773Y-128386443D01*
X142188921Y-128408387D01*
X142178956Y-128429457D01*
X142166974Y-128449448D01*
X142153090Y-128468168D01*
X142137438Y-128485438D01*
X142120168Y-128501090D01*
X142101448Y-128514974D01*
X142081457Y-128526956D01*
X142060387Y-128536921D01*
X142038443Y-128544773D01*
X142015834Y-128550437D01*
X141992779Y-128553856D01*
X141969500Y-128555000D01*
X141494500Y-128555000D01*
X141471221Y-128553856D01*
X141448166Y-128550437D01*
X141425557Y-128544773D01*
X141403613Y-128536921D01*
X141382543Y-128526956D01*
X141362552Y-128514974D01*
X141343832Y-128501090D01*
X141326562Y-128485438D01*
X141310910Y-128468168D01*
X141297026Y-128449448D01*
X141285044Y-128429457D01*
X141275079Y-128408387D01*
X141267227Y-128386443D01*
X141261563Y-128363834D01*
X141258144Y-128340779D01*
X141257000Y-128317500D01*
X141257000Y-127742500D01*
X141258144Y-127719221D01*
X141261563Y-127696166D01*
X141267227Y-127673557D01*
X141275079Y-127651613D01*
X141285044Y-127630543D01*
X141297026Y-127610552D01*
X141310910Y-127591832D01*
X141326562Y-127574562D01*
X141343832Y-127558910D01*
X141362552Y-127545026D01*
X141382543Y-127533044D01*
X141403613Y-127523079D01*
X141425557Y-127515227D01*
X141448166Y-127509563D01*
X141471221Y-127506144D01*
X141494500Y-127505000D01*
X141969500Y-127505000D01*
X141992779Y-127506144D01*
G37*
G04 #@! TD.AperFunction*
G04 #@! TA.AperFunction,SMDPad,CuDef*
G36*
X139452779Y-129256144D02*
G01*
X139475834Y-129259563D01*
X139498443Y-129265227D01*
X139520387Y-129273079D01*
X139541457Y-129283044D01*
X139561448Y-129295026D01*
X139580168Y-129308910D01*
X139597438Y-129324562D01*
X139613090Y-129341832D01*
X139626974Y-129360552D01*
X139638956Y-129380543D01*
X139648921Y-129401613D01*
X139656773Y-129423557D01*
X139662437Y-129446166D01*
X139665856Y-129469221D01*
X139667000Y-129492500D01*
X139667000Y-130067500D01*
X139665856Y-130090779D01*
X139662437Y-130113834D01*
X139656773Y-130136443D01*
X139648921Y-130158387D01*
X139638956Y-130179457D01*
X139626974Y-130199448D01*
X139613090Y-130218168D01*
X139597438Y-130235438D01*
X139580168Y-130251090D01*
X139561448Y-130264974D01*
X139541457Y-130276956D01*
X139520387Y-130286921D01*
X139498443Y-130294773D01*
X139475834Y-130300437D01*
X139452779Y-130303856D01*
X139429500Y-130305000D01*
X138954500Y-130305000D01*
X138931221Y-130303856D01*
X138908166Y-130300437D01*
X138885557Y-130294773D01*
X138863613Y-130286921D01*
X138842543Y-130276956D01*
X138822552Y-130264974D01*
X138803832Y-130251090D01*
X138786562Y-130235438D01*
X138770910Y-130218168D01*
X138757026Y-130199448D01*
X138745044Y-130179457D01*
X138735079Y-130158387D01*
X138727227Y-130136443D01*
X138721563Y-130113834D01*
X138718144Y-130090779D01*
X138717000Y-130067500D01*
X138717000Y-129492500D01*
X138718144Y-129469221D01*
X138721563Y-129446166D01*
X138727227Y-129423557D01*
X138735079Y-129401613D01*
X138745044Y-129380543D01*
X138757026Y-129360552D01*
X138770910Y-129341832D01*
X138786562Y-129324562D01*
X138803832Y-129308910D01*
X138822552Y-129295026D01*
X138842543Y-129283044D01*
X138863613Y-129273079D01*
X138885557Y-129265227D01*
X138908166Y-129259563D01*
X138931221Y-129256144D01*
X138954500Y-129255000D01*
X139429500Y-129255000D01*
X139452779Y-129256144D01*
G37*
G04 #@! TD.AperFunction*
G04 #@! TA.AperFunction,SMDPad,CuDef*
G36*
X139452779Y-127506144D02*
G01*
X139475834Y-127509563D01*
X139498443Y-127515227D01*
X139520387Y-127523079D01*
X139541457Y-127533044D01*
X139561448Y-127545026D01*
X139580168Y-127558910D01*
X139597438Y-127574562D01*
X139613090Y-127591832D01*
X139626974Y-127610552D01*
X139638956Y-127630543D01*
X139648921Y-127651613D01*
X139656773Y-127673557D01*
X139662437Y-127696166D01*
X139665856Y-127719221D01*
X139667000Y-127742500D01*
X139667000Y-128317500D01*
X139665856Y-128340779D01*
X139662437Y-128363834D01*
X139656773Y-128386443D01*
X139648921Y-128408387D01*
X139638956Y-128429457D01*
X139626974Y-128449448D01*
X139613090Y-128468168D01*
X139597438Y-128485438D01*
X139580168Y-128501090D01*
X139561448Y-128514974D01*
X139541457Y-128526956D01*
X139520387Y-128536921D01*
X139498443Y-128544773D01*
X139475834Y-128550437D01*
X139452779Y-128553856D01*
X139429500Y-128555000D01*
X138954500Y-128555000D01*
X138931221Y-128553856D01*
X138908166Y-128550437D01*
X138885557Y-128544773D01*
X138863613Y-128536921D01*
X138842543Y-128526956D01*
X138822552Y-128514974D01*
X138803832Y-128501090D01*
X138786562Y-128485438D01*
X138770910Y-128468168D01*
X138757026Y-128449448D01*
X138745044Y-128429457D01*
X138735079Y-128408387D01*
X138727227Y-128386443D01*
X138721563Y-128363834D01*
X138718144Y-128340779D01*
X138717000Y-128317500D01*
X138717000Y-127742500D01*
X138718144Y-127719221D01*
X138721563Y-127696166D01*
X138727227Y-127673557D01*
X138735079Y-127651613D01*
X138745044Y-127630543D01*
X138757026Y-127610552D01*
X138770910Y-127591832D01*
X138786562Y-127574562D01*
X138803832Y-127558910D01*
X138822552Y-127545026D01*
X138842543Y-127533044D01*
X138863613Y-127523079D01*
X138885557Y-127515227D01*
X138908166Y-127509563D01*
X138931221Y-127506144D01*
X138954500Y-127505000D01*
X139429500Y-127505000D01*
X139452779Y-127506144D01*
G37*
G04 #@! TD.AperFunction*
D15*
X141732000Y-129780000D02*
X141732000Y-132080000D01*
X144272000Y-129780000D02*
X144272000Y-132080000D01*
X146812000Y-129780000D02*
X146812000Y-132080000D01*
X149352000Y-129780000D02*
X149352000Y-132080000D01*
X151892000Y-129780000D02*
X151892000Y-132080000D01*
X154432000Y-129780000D02*
X154432000Y-132080000D01*
X156972000Y-129780000D02*
X156972000Y-132080000D01*
X159512000Y-129780000D02*
X159512000Y-132080000D01*
X162052000Y-129780000D02*
X162052000Y-132080000D01*
X164592000Y-129780000D02*
X164592000Y-132080000D01*
X167132000Y-129780000D02*
X167132000Y-132080000D01*
X169672000Y-129780000D02*
X169672000Y-132080000D01*
X172212000Y-129778000D02*
X172212000Y-132080000D01*
X159512000Y-128030000D02*
X162052000Y-128030000D01*
X164592000Y-128030000D02*
X167132000Y-128030000D01*
X162052000Y-128030000D02*
X164592000Y-128030000D01*
X155710000Y-122543370D02*
X155710000Y-121412000D01*
X155710000Y-124703000D02*
X155710000Y-122543370D01*
X159037000Y-128030000D02*
X155710000Y-124703000D01*
X159512000Y-128030000D02*
X159037000Y-128030000D01*
X153420000Y-128030000D02*
X154432000Y-128030000D01*
X151892000Y-128030000D02*
X153420000Y-128030000D01*
X153420000Y-128030000D02*
X153420000Y-121412000D01*
X149352000Y-128030000D02*
X151892000Y-128030000D01*
X154432000Y-128030000D02*
X156972000Y-128030000D01*
X145542000Y-128030000D02*
X146812000Y-128030000D01*
X144272000Y-128030000D02*
X145542000Y-128030000D01*
X141732000Y-128030000D02*
X144272000Y-128030000D01*
X139192000Y-128030000D02*
X141732000Y-128030000D01*
X151130000Y-122462000D02*
X151130000Y-121412000D01*
X151130000Y-124187000D02*
X151130000Y-122462000D01*
X147287000Y-128030000D02*
X151130000Y-124187000D01*
X146812000Y-128030000D02*
X147287000Y-128030000D01*
X172212000Y-128028000D02*
X161930600Y-117746600D01*
X161930600Y-117746600D02*
X159414600Y-117746600D01*
X159414600Y-117746600D02*
X158000000Y-116332000D01*
X169672000Y-128030000D02*
X161909000Y-120267000D01*
X161909000Y-120267000D02*
X158946300Y-120267000D01*
X158946300Y-120267000D02*
X158000000Y-119320700D01*
X158000000Y-119320700D02*
X158000000Y-118375500D01*
X158000000Y-118375500D02*
X155956500Y-116332000D01*
X155956500Y-116332000D02*
X155710000Y-116332000D01*
X139192000Y-129780000D02*
X139192000Y-132080000D01*
D14*
G36*
X169924578Y-107303014D02*
G01*
X170289690Y-107413248D01*
X170626438Y-107592300D01*
X170921998Y-107833353D01*
X171165110Y-108127225D01*
X171346509Y-108462716D01*
X171459290Y-108827053D01*
X171502001Y-109233418D01*
X171502000Y-117680032D01*
X171426164Y-117445182D01*
X171155606Y-116939004D01*
X170717381Y-116591118D01*
X168436500Y-118872000D01*
X170717381Y-121152882D01*
X171155606Y-120804996D01*
X171474925Y-120181099D01*
X171502000Y-120085760D01*
X171502000Y-123218632D01*
X171504529Y-123244306D01*
X171504446Y-123256138D01*
X171505240Y-123264240D01*
X171544103Y-123633994D01*
X171554723Y-123685731D01*
X171564629Y-123737659D01*
X171566982Y-123745451D01*
X171676924Y-124100615D01*
X171697406Y-124149340D01*
X171717194Y-124198318D01*
X171721012Y-124205497D01*
X171721016Y-124205507D01*
X171721021Y-124205515D01*
X171897847Y-124532550D01*
X171927402Y-124576367D01*
X171956329Y-124620572D01*
X171961474Y-124626881D01*
X172198463Y-124913350D01*
X172235955Y-124950582D01*
X172272926Y-124988335D01*
X172279198Y-124993524D01*
X172567316Y-125228507D01*
X172611326Y-125257747D01*
X172654927Y-125287602D01*
X172662087Y-125291474D01*
X172990360Y-125466019D01*
X173039236Y-125486164D01*
X173087779Y-125506970D01*
X173095549Y-125509375D01*
X173095556Y-125509378D01*
X173095563Y-125509379D01*
X173451477Y-125616837D01*
X173503329Y-125627104D01*
X173554998Y-125638087D01*
X173563090Y-125638938D01*
X173563094Y-125638938D01*
X173933109Y-125675218D01*
X174369578Y-125718014D01*
X174734690Y-125828248D01*
X175071438Y-126007300D01*
X175366998Y-126248353D01*
X175610110Y-126542225D01*
X175791509Y-126877716D01*
X175904290Y-127242053D01*
X175947001Y-127648418D01*
X175947000Y-130890091D01*
X175929339Y-130858590D01*
X175746468Y-130644686D01*
X175525380Y-130470568D01*
X175274571Y-130342928D01*
X175171424Y-130335922D01*
X174956000Y-130428011D01*
X174956000Y-131876000D01*
X174976000Y-131876000D01*
X174976000Y-132284000D01*
X174956000Y-132284000D01*
X174956000Y-133731989D01*
X175171424Y-133824078D01*
X175274571Y-133817072D01*
X175525380Y-133689432D01*
X175746468Y-133515314D01*
X175929339Y-133301410D01*
X175947000Y-133269910D01*
X175947000Y-133956486D01*
X175943267Y-133994560D01*
X175940492Y-134003750D01*
X175935984Y-134012228D01*
X175929916Y-134019668D01*
X175922510Y-134025795D01*
X175914070Y-134030358D01*
X175904893Y-134033199D01*
X175868733Y-134037000D01*
X135283514Y-134037000D01*
X135245440Y-134033267D01*
X135236250Y-134030492D01*
X135227772Y-134025984D01*
X135220332Y-134019916D01*
X135214205Y-134012510D01*
X135209642Y-134004070D01*
X135206801Y-133994893D01*
X135203000Y-133958733D01*
X135203000Y-132508882D01*
X135216728Y-132508882D01*
X135249941Y-132788335D01*
X135337034Y-133055939D01*
X135474661Y-133301410D01*
X135657532Y-133515314D01*
X135878620Y-133689432D01*
X136129429Y-133817072D01*
X136232576Y-133824078D01*
X136448000Y-133731989D01*
X136448000Y-132284000D01*
X135369380Y-132284000D01*
X135216728Y-132508882D01*
X135203000Y-132508882D01*
X135203000Y-131651118D01*
X135216728Y-131651118D01*
X135369380Y-131876000D01*
X136448000Y-131876000D01*
X136448000Y-130428011D01*
X136856000Y-130428011D01*
X136856000Y-131876000D01*
X136876000Y-131876000D01*
X136876000Y-132284000D01*
X136856000Y-132284000D01*
X136856000Y-133731989D01*
X137071424Y-133824078D01*
X137174571Y-133817072D01*
X137425380Y-133689432D01*
X137646468Y-133515314D01*
X137829339Y-133301410D01*
X137934389Y-133114043D01*
X138015627Y-133266027D01*
X138191578Y-133480423D01*
X138405974Y-133656373D01*
X138650576Y-133787116D01*
X138915985Y-133867627D01*
X139192000Y-133894812D01*
X139468016Y-133867627D01*
X139733425Y-133787116D01*
X139978027Y-133656373D01*
X140192423Y-133480423D01*
X140368373Y-133266027D01*
X140462000Y-133090864D01*
X140555627Y-133266027D01*
X140731578Y-133480423D01*
X140945974Y-133656373D01*
X141190576Y-133787116D01*
X141455985Y-133867627D01*
X141732000Y-133894812D01*
X142008016Y-133867627D01*
X142273425Y-133787116D01*
X142518027Y-133656373D01*
X142732423Y-133480423D01*
X142908373Y-133266027D01*
X143002000Y-133090864D01*
X143095627Y-133266027D01*
X143271578Y-133480423D01*
X143485974Y-133656373D01*
X143730576Y-133787116D01*
X143995985Y-133867627D01*
X144272000Y-133894812D01*
X144548016Y-133867627D01*
X144813425Y-133787116D01*
X145058027Y-133656373D01*
X145272423Y-133480423D01*
X145448373Y-133266027D01*
X145542000Y-133090864D01*
X145635627Y-133266027D01*
X145811578Y-133480423D01*
X146025974Y-133656373D01*
X146270576Y-133787116D01*
X146535985Y-133867627D01*
X146812000Y-133894812D01*
X147088016Y-133867627D01*
X147353425Y-133787116D01*
X147598027Y-133656373D01*
X147812423Y-133480423D01*
X147988373Y-133266027D01*
X148082000Y-133090864D01*
X148175627Y-133266027D01*
X148351578Y-133480423D01*
X148565974Y-133656373D01*
X148810576Y-133787116D01*
X149075985Y-133867627D01*
X149352000Y-133894812D01*
X149628016Y-133867627D01*
X149893425Y-133787116D01*
X150138027Y-133656373D01*
X150352423Y-133480423D01*
X150528373Y-133266027D01*
X150622000Y-133090864D01*
X150715627Y-133266027D01*
X150891578Y-133480423D01*
X151105974Y-133656373D01*
X151350576Y-133787116D01*
X151615985Y-133867627D01*
X151892000Y-133894812D01*
X152168016Y-133867627D01*
X152433425Y-133787116D01*
X152678027Y-133656373D01*
X152892423Y-133480423D01*
X153068373Y-133266027D01*
X153162000Y-133090864D01*
X153255627Y-133266027D01*
X153431578Y-133480423D01*
X153645974Y-133656373D01*
X153890576Y-133787116D01*
X154155985Y-133867627D01*
X154432000Y-133894812D01*
X154708016Y-133867627D01*
X154973425Y-133787116D01*
X155218027Y-133656373D01*
X155432423Y-133480423D01*
X155608373Y-133266027D01*
X155702000Y-133090864D01*
X155795627Y-133266027D01*
X155971578Y-133480423D01*
X156185974Y-133656373D01*
X156430576Y-133787116D01*
X156695985Y-133867627D01*
X156972000Y-133894812D01*
X157248016Y-133867627D01*
X157513425Y-133787116D01*
X157758027Y-133656373D01*
X157972423Y-133480423D01*
X158148373Y-133266027D01*
X158242000Y-133090864D01*
X158335627Y-133266027D01*
X158511578Y-133480423D01*
X158725974Y-133656373D01*
X158970576Y-133787116D01*
X159235985Y-133867627D01*
X159512000Y-133894812D01*
X159788016Y-133867627D01*
X160053425Y-133787116D01*
X160298027Y-133656373D01*
X160512423Y-133480423D01*
X160688373Y-133266027D01*
X160782000Y-133090864D01*
X160875627Y-133266027D01*
X161051578Y-133480423D01*
X161265974Y-133656373D01*
X161510576Y-133787116D01*
X161775985Y-133867627D01*
X162052000Y-133894812D01*
X162328016Y-133867627D01*
X162593425Y-133787116D01*
X162838027Y-133656373D01*
X163052423Y-133480423D01*
X163228373Y-133266027D01*
X163322000Y-133090864D01*
X163415627Y-133266027D01*
X163591578Y-133480423D01*
X163805974Y-133656373D01*
X164050576Y-133787116D01*
X164315985Y-133867627D01*
X164592000Y-133894812D01*
X164868016Y-133867627D01*
X165133425Y-133787116D01*
X165378027Y-133656373D01*
X165592423Y-133480423D01*
X165768373Y-133266027D01*
X165862000Y-133090864D01*
X165955627Y-133266027D01*
X166131578Y-133480423D01*
X166345974Y-133656373D01*
X166590576Y-133787116D01*
X166855985Y-133867627D01*
X167132000Y-133894812D01*
X167408016Y-133867627D01*
X167673425Y-133787116D01*
X167918027Y-133656373D01*
X168132423Y-133480423D01*
X168308373Y-133266027D01*
X168402000Y-133090864D01*
X168495627Y-133266027D01*
X168671578Y-133480423D01*
X168885974Y-133656373D01*
X169130576Y-133787116D01*
X169395985Y-133867627D01*
X169672000Y-133894812D01*
X169948016Y-133867627D01*
X170213425Y-133787116D01*
X170458027Y-133656373D01*
X170672423Y-133480423D01*
X170848373Y-133266027D01*
X170942000Y-133090864D01*
X171035627Y-133266027D01*
X171211578Y-133480423D01*
X171425974Y-133656373D01*
X171670576Y-133787116D01*
X171935985Y-133867627D01*
X172212000Y-133894812D01*
X172488016Y-133867627D01*
X172753425Y-133787116D01*
X172998027Y-133656373D01*
X173212423Y-133480423D01*
X173388373Y-133266027D01*
X173469611Y-133114043D01*
X173574661Y-133301410D01*
X173757532Y-133515314D01*
X173978620Y-133689432D01*
X174229429Y-133817072D01*
X174332576Y-133824078D01*
X174548000Y-133731989D01*
X174548000Y-132284000D01*
X174528000Y-132284000D01*
X174528000Y-131876000D01*
X174548000Y-131876000D01*
X174548000Y-130428011D01*
X174332576Y-130335922D01*
X174229429Y-130342928D01*
X173978620Y-130470568D01*
X173757532Y-130644686D01*
X173574661Y-130858590D01*
X173469611Y-131045957D01*
X173388373Y-130893973D01*
X173212422Y-130679577D01*
X173069448Y-130562241D01*
X173113178Y-130508956D01*
X173186940Y-130370958D01*
X173232362Y-130221221D01*
X173247699Y-130065500D01*
X173247699Y-129490500D01*
X173232362Y-129334779D01*
X173186940Y-129185042D01*
X173113178Y-129047044D01*
X173013912Y-128926088D01*
X172985779Y-128903000D01*
X173013912Y-128879912D01*
X173113178Y-128758956D01*
X173186940Y-128620958D01*
X173232362Y-128471221D01*
X173247699Y-128315500D01*
X173247699Y-127740500D01*
X173232362Y-127584779D01*
X173186940Y-127435042D01*
X173113178Y-127297044D01*
X173013912Y-127176088D01*
X172892956Y-127076822D01*
X172754958Y-127003060D01*
X172605221Y-126957638D01*
X172449500Y-126942301D01*
X172092209Y-126942301D01*
X167542681Y-122392774D01*
X168211709Y-122446648D01*
X168907864Y-122365533D01*
X169574818Y-122150164D01*
X170080996Y-121879606D01*
X170428882Y-121441381D01*
X168148000Y-119160500D01*
X168133858Y-119174642D01*
X167845358Y-118886142D01*
X167859500Y-118872000D01*
X165578619Y-116591118D01*
X165140394Y-116939004D01*
X164821075Y-117562901D01*
X164629608Y-118237105D01*
X164573352Y-118935709D01*
X164637677Y-119487770D01*
X162437277Y-117287370D01*
X162415890Y-117261310D01*
X162311890Y-117175959D01*
X162193237Y-117112538D01*
X162064491Y-117073483D01*
X161964146Y-117063600D01*
X161964136Y-117063600D01*
X161930600Y-117060297D01*
X161897064Y-117063600D01*
X161434413Y-117063600D01*
X161493444Y-116975254D01*
X161595813Y-116728114D01*
X161648000Y-116465751D01*
X161648000Y-116302619D01*
X165867118Y-116302619D01*
X168148000Y-118583500D01*
X170428882Y-116302619D01*
X170080996Y-115864394D01*
X169457099Y-115545075D01*
X168782895Y-115353608D01*
X168084291Y-115297352D01*
X167388136Y-115378467D01*
X166721182Y-115593836D01*
X166215004Y-115864394D01*
X165867118Y-116302619D01*
X161648000Y-116302619D01*
X161648000Y-116198249D01*
X161595813Y-115935886D01*
X161493444Y-115688746D01*
X161344828Y-115466325D01*
X161155675Y-115277172D01*
X160933254Y-115128556D01*
X160686114Y-115026187D01*
X160423751Y-114974000D01*
X160156249Y-114974000D01*
X159893886Y-115026187D01*
X159646746Y-115128556D01*
X159424325Y-115277172D01*
X159235172Y-115466325D01*
X159145000Y-115601278D01*
X159054828Y-115466325D01*
X158865675Y-115277172D01*
X158643254Y-115128556D01*
X158396114Y-115026187D01*
X158133751Y-114974000D01*
X157866249Y-114974000D01*
X157603886Y-115026187D01*
X157356746Y-115128556D01*
X157134325Y-115277172D01*
X156945172Y-115466325D01*
X156855000Y-115601278D01*
X156764828Y-115466325D01*
X156575675Y-115277172D01*
X156353254Y-115128556D01*
X156106114Y-115026187D01*
X155843751Y-114974000D01*
X155576249Y-114974000D01*
X155313886Y-115026187D01*
X155066746Y-115128556D01*
X154844325Y-115277172D01*
X154655172Y-115466325D01*
X154565000Y-115601278D01*
X154474828Y-115466325D01*
X154285675Y-115277172D01*
X154063254Y-115128556D01*
X153816114Y-115026187D01*
X153553751Y-114974000D01*
X153286249Y-114974000D01*
X153023886Y-115026187D01*
X152776746Y-115128556D01*
X152554325Y-115277172D01*
X152365172Y-115466325D01*
X152275000Y-115601278D01*
X152184828Y-115466325D01*
X151995675Y-115277172D01*
X151773254Y-115128556D01*
X151526114Y-115026187D01*
X151263751Y-114974000D01*
X150996249Y-114974000D01*
X150733886Y-115026187D01*
X150486746Y-115128556D01*
X150264325Y-115277172D01*
X150075172Y-115466325D01*
X149926556Y-115688746D01*
X149824187Y-115935886D01*
X149772000Y-116198249D01*
X149772000Y-116465751D01*
X149824187Y-116728114D01*
X149926556Y-116975254D01*
X150075172Y-117197675D01*
X150264325Y-117386828D01*
X150486746Y-117535444D01*
X150733886Y-117637813D01*
X150996249Y-117690000D01*
X151263751Y-117690000D01*
X151526114Y-117637813D01*
X151773254Y-117535444D01*
X151995675Y-117386828D01*
X152184828Y-117197675D01*
X152275000Y-117062722D01*
X152365172Y-117197675D01*
X152554325Y-117386828D01*
X152776746Y-117535444D01*
X153023886Y-117637813D01*
X153286249Y-117690000D01*
X153553751Y-117690000D01*
X153816114Y-117637813D01*
X154063254Y-117535444D01*
X154285675Y-117386828D01*
X154474828Y-117197675D01*
X154565000Y-117062722D01*
X154655172Y-117197675D01*
X154844325Y-117386828D01*
X155066746Y-117535444D01*
X155313886Y-117637813D01*
X155576249Y-117690000D01*
X155843751Y-117690000D01*
X156106114Y-117637813D01*
X156240670Y-117582078D01*
X156293348Y-117634755D01*
X156211746Y-117668556D01*
X155989325Y-117817172D01*
X155800172Y-118006325D01*
X155668982Y-118202666D01*
X155563411Y-118162089D01*
X154853500Y-118872000D01*
X155563411Y-119581911D01*
X155668982Y-119541334D01*
X155800172Y-119737675D01*
X155989325Y-119926828D01*
X156211746Y-120075444D01*
X156458886Y-120177813D01*
X156721249Y-120230000D01*
X156988751Y-120230000D01*
X157251114Y-120177813D01*
X157498254Y-120075444D01*
X157672446Y-119959053D01*
X157783794Y-120070401D01*
X157603886Y-120106187D01*
X157356746Y-120208556D01*
X157134325Y-120357172D01*
X156945172Y-120546325D01*
X156855000Y-120681278D01*
X156764828Y-120546325D01*
X156575675Y-120357172D01*
X156353254Y-120208556D01*
X156106114Y-120106187D01*
X155843751Y-120054000D01*
X155576249Y-120054000D01*
X155313886Y-120106187D01*
X155066746Y-120208556D01*
X154844325Y-120357172D01*
X154655172Y-120546325D01*
X154565000Y-120681278D01*
X154474828Y-120546325D01*
X154285675Y-120357172D01*
X154063254Y-120208556D01*
X153816114Y-120106187D01*
X153553751Y-120054000D01*
X153286249Y-120054000D01*
X153023886Y-120106187D01*
X152776746Y-120208556D01*
X152554325Y-120357172D01*
X152463391Y-120448106D01*
X152448018Y-120397430D01*
X152396204Y-120300492D01*
X152337791Y-120229316D01*
X152425871Y-120228205D01*
X152687554Y-120172713D01*
X152903022Y-120083463D01*
X152984911Y-119870411D01*
X153855089Y-119870411D01*
X153936978Y-120083463D01*
X154185390Y-120182706D01*
X154448390Y-120231580D01*
X154715871Y-120228205D01*
X154977554Y-120172713D01*
X155193022Y-120083463D01*
X155274911Y-119870411D01*
X154565000Y-119160500D01*
X153855089Y-119870411D01*
X152984911Y-119870411D01*
X152275000Y-119160500D01*
X151565089Y-119870411D01*
X151634616Y-120051301D01*
X150625384Y-120051301D01*
X150694911Y-119870411D01*
X149985000Y-119160500D01*
X149275089Y-119870411D01*
X149356978Y-120083463D01*
X149605390Y-120182706D01*
X149868390Y-120231580D01*
X149920894Y-120230918D01*
X149863796Y-120300492D01*
X149811982Y-120397430D01*
X149780075Y-120502613D01*
X149769301Y-120612000D01*
X149769301Y-122212000D01*
X149780075Y-122321387D01*
X149811982Y-122426570D01*
X149863796Y-122523508D01*
X149933526Y-122608474D01*
X150018492Y-122678204D01*
X150115430Y-122730018D01*
X150220613Y-122761925D01*
X150330000Y-122772699D01*
X150447001Y-122772699D01*
X150447000Y-123904092D01*
X147348110Y-127002983D01*
X147205221Y-126959638D01*
X147049500Y-126944301D01*
X146574500Y-126944301D01*
X146418779Y-126959638D01*
X146269042Y-127005060D01*
X146131044Y-127078822D01*
X146010088Y-127178088D01*
X145910822Y-127299044D01*
X145885189Y-127347000D01*
X145198811Y-127347000D01*
X145173178Y-127299044D01*
X145073912Y-127178088D01*
X144952956Y-127078822D01*
X144814958Y-127005060D01*
X144665221Y-126959638D01*
X144509500Y-126944301D01*
X144034500Y-126944301D01*
X143878779Y-126959638D01*
X143729042Y-127005060D01*
X143591044Y-127078822D01*
X143470088Y-127178088D01*
X143370822Y-127299044D01*
X143345189Y-127347000D01*
X142658811Y-127347000D01*
X142633178Y-127299044D01*
X142533912Y-127178088D01*
X142412956Y-127078822D01*
X142274958Y-127005060D01*
X142125221Y-126959638D01*
X141969500Y-126944301D01*
X141494500Y-126944301D01*
X141338779Y-126959638D01*
X141189042Y-127005060D01*
X141051044Y-127078822D01*
X140930088Y-127178088D01*
X140830822Y-127299044D01*
X140805189Y-127347000D01*
X140118811Y-127347000D01*
X140093178Y-127299044D01*
X139993912Y-127178088D01*
X139872956Y-127078822D01*
X139734958Y-127005060D01*
X139585221Y-126959638D01*
X139429500Y-126944301D01*
X138954500Y-126944301D01*
X138798779Y-126959638D01*
X138649042Y-127005060D01*
X138511044Y-127078822D01*
X138390088Y-127178088D01*
X138290822Y-127299044D01*
X138217060Y-127437042D01*
X138171638Y-127586779D01*
X138156301Y-127742500D01*
X138156301Y-128317500D01*
X138171638Y-128473221D01*
X138217060Y-128622958D01*
X138290822Y-128760956D01*
X138390088Y-128881912D01*
X138418221Y-128905000D01*
X138390088Y-128928088D01*
X138290822Y-129049044D01*
X138217060Y-129187042D01*
X138171638Y-129336779D01*
X138156301Y-129492500D01*
X138156301Y-130067500D01*
X138171638Y-130223221D01*
X138217060Y-130372958D01*
X138290822Y-130510956D01*
X138333571Y-130563046D01*
X138191577Y-130679578D01*
X138015627Y-130893974D01*
X137934390Y-131045958D01*
X137829339Y-130858590D01*
X137646468Y-130644686D01*
X137425380Y-130470568D01*
X137174571Y-130342928D01*
X137071424Y-130335922D01*
X136856000Y-130428011D01*
X136448000Y-130428011D01*
X136232576Y-130335922D01*
X136129429Y-130342928D01*
X135878620Y-130470568D01*
X135657532Y-130644686D01*
X135474661Y-130858590D01*
X135337034Y-131104061D01*
X135249941Y-131371665D01*
X135216728Y-131651118D01*
X135203000Y-131651118D01*
X135203000Y-127663518D01*
X135243014Y-127255422D01*
X135353248Y-126890310D01*
X135532300Y-126553562D01*
X135773353Y-126258002D01*
X136067225Y-126014890D01*
X136402716Y-125833491D01*
X136767053Y-125720710D01*
X137173826Y-125677956D01*
X137175315Y-125677951D01*
X137200670Y-125675376D01*
X137226138Y-125675554D01*
X137234240Y-125674760D01*
X137603994Y-125635897D01*
X137655731Y-125625277D01*
X137707659Y-125615371D01*
X137715449Y-125613019D01*
X137715455Y-125613017D01*
X138070615Y-125503076D01*
X138119340Y-125482594D01*
X138168318Y-125462806D01*
X138175497Y-125458988D01*
X138175507Y-125458984D01*
X138175515Y-125458979D01*
X138502550Y-125282153D01*
X138546367Y-125252598D01*
X138590572Y-125223671D01*
X138596881Y-125218526D01*
X138883350Y-124981537D01*
X138920582Y-124944045D01*
X138958335Y-124907074D01*
X138963524Y-124900802D01*
X139198507Y-124612684D01*
X139227747Y-124568674D01*
X139257602Y-124525073D01*
X139261474Y-124517913D01*
X139436019Y-124189640D01*
X139456164Y-124140764D01*
X139476970Y-124092221D01*
X139479375Y-124084451D01*
X139479378Y-124084444D01*
X139479379Y-124084437D01*
X139586837Y-123728523D01*
X139597104Y-123676671D01*
X139608087Y-123625002D01*
X139608938Y-123616906D01*
X139645218Y-123246891D01*
X139645218Y-123246880D01*
X139648000Y-123218633D01*
X139648000Y-121441381D01*
X140975118Y-121441381D01*
X141323004Y-121879606D01*
X141946901Y-122198925D01*
X142621105Y-122390392D01*
X143319709Y-122446648D01*
X144015864Y-122365533D01*
X144682818Y-122150164D01*
X145188996Y-121879606D01*
X145536882Y-121441381D01*
X143256000Y-119160500D01*
X140975118Y-121441381D01*
X139648000Y-121441381D01*
X139648000Y-118935709D01*
X139681352Y-118935709D01*
X139762467Y-119631864D01*
X139977836Y-120298818D01*
X140248394Y-120804996D01*
X140686619Y-121152882D01*
X142967500Y-118872000D01*
X143544500Y-118872000D01*
X145825381Y-121152882D01*
X146263606Y-120804996D01*
X146582925Y-120181099D01*
X146774392Y-119506895D01*
X146830648Y-118808291D01*
X146824485Y-118755390D01*
X148625420Y-118755390D01*
X148628795Y-119022871D01*
X148684287Y-119284554D01*
X148773537Y-119500022D01*
X148986589Y-119581911D01*
X149696500Y-118872000D01*
X150273500Y-118872000D01*
X150983411Y-119581911D01*
X151130000Y-119525568D01*
X151276589Y-119581911D01*
X151986500Y-118872000D01*
X152563500Y-118872000D01*
X153273411Y-119581911D01*
X153420000Y-119525568D01*
X153566589Y-119581911D01*
X154276500Y-118872000D01*
X153566589Y-118162089D01*
X153420000Y-118218432D01*
X153273411Y-118162089D01*
X152563500Y-118872000D01*
X151986500Y-118872000D01*
X151276589Y-118162089D01*
X151130000Y-118218432D01*
X150983411Y-118162089D01*
X150273500Y-118872000D01*
X149696500Y-118872000D01*
X148986589Y-118162089D01*
X148773537Y-118243978D01*
X148674294Y-118492390D01*
X148625420Y-118755390D01*
X146824485Y-118755390D01*
X146749533Y-118112136D01*
X146672503Y-117873589D01*
X149275089Y-117873589D01*
X149985000Y-118583500D01*
X150694911Y-117873589D01*
X151565089Y-117873589D01*
X152275000Y-118583500D01*
X152984911Y-117873589D01*
X153855089Y-117873589D01*
X154565000Y-118583500D01*
X155274911Y-117873589D01*
X155193022Y-117660537D01*
X154944610Y-117561294D01*
X154681610Y-117512420D01*
X154414129Y-117515795D01*
X154152446Y-117571287D01*
X153936978Y-117660537D01*
X153855089Y-117873589D01*
X152984911Y-117873589D01*
X152903022Y-117660537D01*
X152654610Y-117561294D01*
X152391610Y-117512420D01*
X152124129Y-117515795D01*
X151862446Y-117571287D01*
X151646978Y-117660537D01*
X151565089Y-117873589D01*
X150694911Y-117873589D01*
X150613022Y-117660537D01*
X150364610Y-117561294D01*
X150101610Y-117512420D01*
X149834129Y-117515795D01*
X149572446Y-117571287D01*
X149356978Y-117660537D01*
X149275089Y-117873589D01*
X146672503Y-117873589D01*
X146534164Y-117445182D01*
X146263606Y-116939004D01*
X145825381Y-116591118D01*
X143544500Y-118872000D01*
X142967500Y-118872000D01*
X140686619Y-116591118D01*
X140248394Y-116939004D01*
X139929075Y-117562901D01*
X139737608Y-118237105D01*
X139681352Y-118935709D01*
X139648000Y-118935709D01*
X139648000Y-116302619D01*
X140975118Y-116302619D01*
X143256000Y-118583500D01*
X145536882Y-116302619D01*
X145188996Y-115864394D01*
X144565099Y-115545075D01*
X143890895Y-115353608D01*
X143192291Y-115297352D01*
X142496136Y-115378467D01*
X141829182Y-115593836D01*
X141323004Y-115864394D01*
X140975118Y-116302619D01*
X139648000Y-116302619D01*
X139648000Y-109248518D01*
X139688014Y-108840422D01*
X139798248Y-108475310D01*
X139977300Y-108138562D01*
X140218353Y-107843002D01*
X140512225Y-107599890D01*
X140847716Y-107418491D01*
X141212053Y-107305710D01*
X141618409Y-107263000D01*
X169516482Y-107263000D01*
X169924578Y-107303014D01*
G37*
X169924578Y-107303014D02*
X170289690Y-107413248D01*
X170626438Y-107592300D01*
X170921998Y-107833353D01*
X171165110Y-108127225D01*
X171346509Y-108462716D01*
X171459290Y-108827053D01*
X171502001Y-109233418D01*
X171502000Y-117680032D01*
X171426164Y-117445182D01*
X171155606Y-116939004D01*
X170717381Y-116591118D01*
X168436500Y-118872000D01*
X170717381Y-121152882D01*
X171155606Y-120804996D01*
X171474925Y-120181099D01*
X171502000Y-120085760D01*
X171502000Y-123218632D01*
X171504529Y-123244306D01*
X171504446Y-123256138D01*
X171505240Y-123264240D01*
X171544103Y-123633994D01*
X171554723Y-123685731D01*
X171564629Y-123737659D01*
X171566982Y-123745451D01*
X171676924Y-124100615D01*
X171697406Y-124149340D01*
X171717194Y-124198318D01*
X171721012Y-124205497D01*
X171721016Y-124205507D01*
X171721021Y-124205515D01*
X171897847Y-124532550D01*
X171927402Y-124576367D01*
X171956329Y-124620572D01*
X171961474Y-124626881D01*
X172198463Y-124913350D01*
X172235955Y-124950582D01*
X172272926Y-124988335D01*
X172279198Y-124993524D01*
X172567316Y-125228507D01*
X172611326Y-125257747D01*
X172654927Y-125287602D01*
X172662087Y-125291474D01*
X172990360Y-125466019D01*
X173039236Y-125486164D01*
X173087779Y-125506970D01*
X173095549Y-125509375D01*
X173095556Y-125509378D01*
X173095563Y-125509379D01*
X173451477Y-125616837D01*
X173503329Y-125627104D01*
X173554998Y-125638087D01*
X173563090Y-125638938D01*
X173563094Y-125638938D01*
X173933109Y-125675218D01*
X174369578Y-125718014D01*
X174734690Y-125828248D01*
X175071438Y-126007300D01*
X175366998Y-126248353D01*
X175610110Y-126542225D01*
X175791509Y-126877716D01*
X175904290Y-127242053D01*
X175947001Y-127648418D01*
X175947000Y-130890091D01*
X175929339Y-130858590D01*
X175746468Y-130644686D01*
X175525380Y-130470568D01*
X175274571Y-130342928D01*
X175171424Y-130335922D01*
X174956000Y-130428011D01*
X174956000Y-131876000D01*
X174976000Y-131876000D01*
X174976000Y-132284000D01*
X174956000Y-132284000D01*
X174956000Y-133731989D01*
X175171424Y-133824078D01*
X175274571Y-133817072D01*
X175525380Y-133689432D01*
X175746468Y-133515314D01*
X175929339Y-133301410D01*
X175947000Y-133269910D01*
X175947000Y-133956486D01*
X175943267Y-133994560D01*
X175940492Y-134003750D01*
X175935984Y-134012228D01*
X175929916Y-134019668D01*
X175922510Y-134025795D01*
X175914070Y-134030358D01*
X175904893Y-134033199D01*
X175868733Y-134037000D01*
X135283514Y-134037000D01*
X135245440Y-134033267D01*
X135236250Y-134030492D01*
X135227772Y-134025984D01*
X135220332Y-134019916D01*
X135214205Y-134012510D01*
X135209642Y-134004070D01*
X135206801Y-133994893D01*
X135203000Y-133958733D01*
X135203000Y-132508882D01*
X135216728Y-132508882D01*
X135249941Y-132788335D01*
X135337034Y-133055939D01*
X135474661Y-133301410D01*
X135657532Y-133515314D01*
X135878620Y-133689432D01*
X136129429Y-133817072D01*
X136232576Y-133824078D01*
X136448000Y-133731989D01*
X136448000Y-132284000D01*
X135369380Y-132284000D01*
X135216728Y-132508882D01*
X135203000Y-132508882D01*
X135203000Y-131651118D01*
X135216728Y-131651118D01*
X135369380Y-131876000D01*
X136448000Y-131876000D01*
X136448000Y-130428011D01*
X136856000Y-130428011D01*
X136856000Y-131876000D01*
X136876000Y-131876000D01*
X136876000Y-132284000D01*
X136856000Y-132284000D01*
X136856000Y-133731989D01*
X137071424Y-133824078D01*
X137174571Y-133817072D01*
X137425380Y-133689432D01*
X137646468Y-133515314D01*
X137829339Y-133301410D01*
X137934389Y-133114043D01*
X138015627Y-133266027D01*
X138191578Y-133480423D01*
X138405974Y-133656373D01*
X138650576Y-133787116D01*
X138915985Y-133867627D01*
X139192000Y-133894812D01*
X139468016Y-133867627D01*
X139733425Y-133787116D01*
X139978027Y-133656373D01*
X140192423Y-133480423D01*
X140368373Y-133266027D01*
X140462000Y-133090864D01*
X140555627Y-133266027D01*
X140731578Y-133480423D01*
X140945974Y-133656373D01*
X141190576Y-133787116D01*
X141455985Y-133867627D01*
X141732000Y-133894812D01*
X142008016Y-133867627D01*
X142273425Y-133787116D01*
X142518027Y-133656373D01*
X142732423Y-133480423D01*
X142908373Y-133266027D01*
X143002000Y-133090864D01*
X143095627Y-133266027D01*
X143271578Y-133480423D01*
X143485974Y-133656373D01*
X143730576Y-133787116D01*
X143995985Y-133867627D01*
X144272000Y-133894812D01*
X144548016Y-133867627D01*
X144813425Y-133787116D01*
X145058027Y-133656373D01*
X145272423Y-133480423D01*
X145448373Y-133266027D01*
X145542000Y-133090864D01*
X145635627Y-133266027D01*
X145811578Y-133480423D01*
X146025974Y-133656373D01*
X146270576Y-133787116D01*
X146535985Y-133867627D01*
X146812000Y-133894812D01*
X147088016Y-133867627D01*
X147353425Y-133787116D01*
X147598027Y-133656373D01*
X147812423Y-133480423D01*
X147988373Y-133266027D01*
X148082000Y-133090864D01*
X148175627Y-133266027D01*
X148351578Y-133480423D01*
X148565974Y-133656373D01*
X148810576Y-133787116D01*
X149075985Y-133867627D01*
X149352000Y-133894812D01*
X149628016Y-133867627D01*
X149893425Y-133787116D01*
X150138027Y-133656373D01*
X150352423Y-133480423D01*
X150528373Y-133266027D01*
X150622000Y-133090864D01*
X150715627Y-133266027D01*
X150891578Y-133480423D01*
X151105974Y-133656373D01*
X151350576Y-133787116D01*
X151615985Y-133867627D01*
X151892000Y-133894812D01*
X152168016Y-133867627D01*
X152433425Y-133787116D01*
X152678027Y-133656373D01*
X152892423Y-133480423D01*
X153068373Y-133266027D01*
X153162000Y-133090864D01*
X153255627Y-133266027D01*
X153431578Y-133480423D01*
X153645974Y-133656373D01*
X153890576Y-133787116D01*
X154155985Y-133867627D01*
X154432000Y-133894812D01*
X154708016Y-133867627D01*
X154973425Y-133787116D01*
X155218027Y-133656373D01*
X155432423Y-133480423D01*
X155608373Y-133266027D01*
X155702000Y-133090864D01*
X155795627Y-133266027D01*
X155971578Y-133480423D01*
X156185974Y-133656373D01*
X156430576Y-133787116D01*
X156695985Y-133867627D01*
X156972000Y-133894812D01*
X157248016Y-133867627D01*
X157513425Y-133787116D01*
X157758027Y-133656373D01*
X157972423Y-133480423D01*
X158148373Y-133266027D01*
X158242000Y-133090864D01*
X158335627Y-133266027D01*
X158511578Y-133480423D01*
X158725974Y-133656373D01*
X158970576Y-133787116D01*
X159235985Y-133867627D01*
X159512000Y-133894812D01*
X159788016Y-133867627D01*
X160053425Y-133787116D01*
X160298027Y-133656373D01*
X160512423Y-133480423D01*
X160688373Y-133266027D01*
X160782000Y-133090864D01*
X160875627Y-133266027D01*
X161051578Y-133480423D01*
X161265974Y-133656373D01*
X161510576Y-133787116D01*
X161775985Y-133867627D01*
X162052000Y-133894812D01*
X162328016Y-133867627D01*
X162593425Y-133787116D01*
X162838027Y-133656373D01*
X163052423Y-133480423D01*
X163228373Y-133266027D01*
X163322000Y-133090864D01*
X163415627Y-133266027D01*
X163591578Y-133480423D01*
X163805974Y-133656373D01*
X164050576Y-133787116D01*
X164315985Y-133867627D01*
X164592000Y-133894812D01*
X164868016Y-133867627D01*
X165133425Y-133787116D01*
X165378027Y-133656373D01*
X165592423Y-133480423D01*
X165768373Y-133266027D01*
X165862000Y-133090864D01*
X165955627Y-133266027D01*
X166131578Y-133480423D01*
X166345974Y-133656373D01*
X166590576Y-133787116D01*
X166855985Y-133867627D01*
X167132000Y-133894812D01*
X167408016Y-133867627D01*
X167673425Y-133787116D01*
X167918027Y-133656373D01*
X168132423Y-133480423D01*
X168308373Y-133266027D01*
X168402000Y-133090864D01*
X168495627Y-133266027D01*
X168671578Y-133480423D01*
X168885974Y-133656373D01*
X169130576Y-133787116D01*
X169395985Y-133867627D01*
X169672000Y-133894812D01*
X169948016Y-133867627D01*
X170213425Y-133787116D01*
X170458027Y-133656373D01*
X170672423Y-133480423D01*
X170848373Y-133266027D01*
X170942000Y-133090864D01*
X171035627Y-133266027D01*
X171211578Y-133480423D01*
X171425974Y-133656373D01*
X171670576Y-133787116D01*
X171935985Y-133867627D01*
X172212000Y-133894812D01*
X172488016Y-133867627D01*
X172753425Y-133787116D01*
X172998027Y-133656373D01*
X173212423Y-133480423D01*
X173388373Y-133266027D01*
X173469611Y-133114043D01*
X173574661Y-133301410D01*
X173757532Y-133515314D01*
X173978620Y-133689432D01*
X174229429Y-133817072D01*
X174332576Y-133824078D01*
X174548000Y-133731989D01*
X174548000Y-132284000D01*
X174528000Y-132284000D01*
X174528000Y-131876000D01*
X174548000Y-131876000D01*
X174548000Y-130428011D01*
X174332576Y-130335922D01*
X174229429Y-130342928D01*
X173978620Y-130470568D01*
X173757532Y-130644686D01*
X173574661Y-130858590D01*
X173469611Y-131045957D01*
X173388373Y-130893973D01*
X173212422Y-130679577D01*
X173069448Y-130562241D01*
X173113178Y-130508956D01*
X173186940Y-130370958D01*
X173232362Y-130221221D01*
X173247699Y-130065500D01*
X173247699Y-129490500D01*
X173232362Y-129334779D01*
X173186940Y-129185042D01*
X173113178Y-129047044D01*
X173013912Y-128926088D01*
X172985779Y-128903000D01*
X173013912Y-128879912D01*
X173113178Y-128758956D01*
X173186940Y-128620958D01*
X173232362Y-128471221D01*
X173247699Y-128315500D01*
X173247699Y-127740500D01*
X173232362Y-127584779D01*
X173186940Y-127435042D01*
X173113178Y-127297044D01*
X173013912Y-127176088D01*
X172892956Y-127076822D01*
X172754958Y-127003060D01*
X172605221Y-126957638D01*
X172449500Y-126942301D01*
X172092209Y-126942301D01*
X167542681Y-122392774D01*
X168211709Y-122446648D01*
X168907864Y-122365533D01*
X169574818Y-122150164D01*
X170080996Y-121879606D01*
X170428882Y-121441381D01*
X168148000Y-119160500D01*
X168133858Y-119174642D01*
X167845358Y-118886142D01*
X167859500Y-118872000D01*
X165578619Y-116591118D01*
X165140394Y-116939004D01*
X164821075Y-117562901D01*
X164629608Y-118237105D01*
X164573352Y-118935709D01*
X164637677Y-119487770D01*
X162437277Y-117287370D01*
X162415890Y-117261310D01*
X162311890Y-117175959D01*
X162193237Y-117112538D01*
X162064491Y-117073483D01*
X161964146Y-117063600D01*
X161964136Y-117063600D01*
X161930600Y-117060297D01*
X161897064Y-117063600D01*
X161434413Y-117063600D01*
X161493444Y-116975254D01*
X161595813Y-116728114D01*
X161648000Y-116465751D01*
X161648000Y-116302619D01*
X165867118Y-116302619D01*
X168148000Y-118583500D01*
X170428882Y-116302619D01*
X170080996Y-115864394D01*
X169457099Y-115545075D01*
X168782895Y-115353608D01*
X168084291Y-115297352D01*
X167388136Y-115378467D01*
X166721182Y-115593836D01*
X166215004Y-115864394D01*
X165867118Y-116302619D01*
X161648000Y-116302619D01*
X161648000Y-116198249D01*
X161595813Y-115935886D01*
X161493444Y-115688746D01*
X161344828Y-115466325D01*
X161155675Y-115277172D01*
X160933254Y-115128556D01*
X160686114Y-115026187D01*
X160423751Y-114974000D01*
X160156249Y-114974000D01*
X159893886Y-115026187D01*
X159646746Y-115128556D01*
X159424325Y-115277172D01*
X159235172Y-115466325D01*
X159145000Y-115601278D01*
X159054828Y-115466325D01*
X158865675Y-115277172D01*
X158643254Y-115128556D01*
X158396114Y-115026187D01*
X158133751Y-114974000D01*
X157866249Y-114974000D01*
X157603886Y-115026187D01*
X157356746Y-115128556D01*
X157134325Y-115277172D01*
X156945172Y-115466325D01*
X156855000Y-115601278D01*
X156764828Y-115466325D01*
X156575675Y-115277172D01*
X156353254Y-115128556D01*
X156106114Y-115026187D01*
X155843751Y-114974000D01*
X155576249Y-114974000D01*
X155313886Y-115026187D01*
X155066746Y-115128556D01*
X154844325Y-115277172D01*
X154655172Y-115466325D01*
X154565000Y-115601278D01*
X154474828Y-115466325D01*
X154285675Y-115277172D01*
X154063254Y-115128556D01*
X153816114Y-115026187D01*
X153553751Y-114974000D01*
X153286249Y-114974000D01*
X153023886Y-115026187D01*
X152776746Y-115128556D01*
X152554325Y-115277172D01*
X152365172Y-115466325D01*
X152275000Y-115601278D01*
X152184828Y-115466325D01*
X151995675Y-115277172D01*
X151773254Y-115128556D01*
X151526114Y-115026187D01*
X151263751Y-114974000D01*
X150996249Y-114974000D01*
X150733886Y-115026187D01*
X150486746Y-115128556D01*
X150264325Y-115277172D01*
X150075172Y-115466325D01*
X149926556Y-115688746D01*
X149824187Y-115935886D01*
X149772000Y-116198249D01*
X149772000Y-116465751D01*
X149824187Y-116728114D01*
X149926556Y-116975254D01*
X150075172Y-117197675D01*
X150264325Y-117386828D01*
X150486746Y-117535444D01*
X150733886Y-117637813D01*
X150996249Y-117690000D01*
X151263751Y-117690000D01*
X151526114Y-117637813D01*
X151773254Y-117535444D01*
X151995675Y-117386828D01*
X152184828Y-117197675D01*
X152275000Y-117062722D01*
X152365172Y-117197675D01*
X152554325Y-117386828D01*
X152776746Y-117535444D01*
X153023886Y-117637813D01*
X153286249Y-117690000D01*
X153553751Y-117690000D01*
X153816114Y-117637813D01*
X154063254Y-117535444D01*
X154285675Y-117386828D01*
X154474828Y-117197675D01*
X154565000Y-117062722D01*
X154655172Y-117197675D01*
X154844325Y-117386828D01*
X155066746Y-117535444D01*
X155313886Y-117637813D01*
X155576249Y-117690000D01*
X155843751Y-117690000D01*
X156106114Y-117637813D01*
X156240670Y-117582078D01*
X156293348Y-117634755D01*
X156211746Y-117668556D01*
X155989325Y-117817172D01*
X155800172Y-118006325D01*
X155668982Y-118202666D01*
X155563411Y-118162089D01*
X154853500Y-118872000D01*
X155563411Y-119581911D01*
X155668982Y-119541334D01*
X155800172Y-119737675D01*
X155989325Y-119926828D01*
X156211746Y-120075444D01*
X156458886Y-120177813D01*
X156721249Y-120230000D01*
X156988751Y-120230000D01*
X157251114Y-120177813D01*
X157498254Y-120075444D01*
X157672446Y-119959053D01*
X157783794Y-120070401D01*
X157603886Y-120106187D01*
X157356746Y-120208556D01*
X157134325Y-120357172D01*
X156945172Y-120546325D01*
X156855000Y-120681278D01*
X156764828Y-120546325D01*
X156575675Y-120357172D01*
X156353254Y-120208556D01*
X156106114Y-120106187D01*
X155843751Y-120054000D01*
X155576249Y-120054000D01*
X155313886Y-120106187D01*
X155066746Y-120208556D01*
X154844325Y-120357172D01*
X154655172Y-120546325D01*
X154565000Y-120681278D01*
X154474828Y-120546325D01*
X154285675Y-120357172D01*
X154063254Y-120208556D01*
X153816114Y-120106187D01*
X153553751Y-120054000D01*
X153286249Y-120054000D01*
X153023886Y-120106187D01*
X152776746Y-120208556D01*
X152554325Y-120357172D01*
X152463391Y-120448106D01*
X152448018Y-120397430D01*
X152396204Y-120300492D01*
X152337791Y-120229316D01*
X152425871Y-120228205D01*
X152687554Y-120172713D01*
X152903022Y-120083463D01*
X152984911Y-119870411D01*
X153855089Y-119870411D01*
X153936978Y-120083463D01*
X154185390Y-120182706D01*
X154448390Y-120231580D01*
X154715871Y-120228205D01*
X154977554Y-120172713D01*
X155193022Y-120083463D01*
X155274911Y-119870411D01*
X154565000Y-119160500D01*
X153855089Y-119870411D01*
X152984911Y-119870411D01*
X152275000Y-119160500D01*
X151565089Y-119870411D01*
X151634616Y-120051301D01*
X150625384Y-120051301D01*
X150694911Y-119870411D01*
X149985000Y-119160500D01*
X149275089Y-119870411D01*
X149356978Y-120083463D01*
X149605390Y-120182706D01*
X149868390Y-120231580D01*
X149920894Y-120230918D01*
X149863796Y-120300492D01*
X149811982Y-120397430D01*
X149780075Y-120502613D01*
X149769301Y-120612000D01*
X149769301Y-122212000D01*
X149780075Y-122321387D01*
X149811982Y-122426570D01*
X149863796Y-122523508D01*
X149933526Y-122608474D01*
X150018492Y-122678204D01*
X150115430Y-122730018D01*
X150220613Y-122761925D01*
X150330000Y-122772699D01*
X150447001Y-122772699D01*
X150447000Y-123904092D01*
X147348110Y-127002983D01*
X147205221Y-126959638D01*
X147049500Y-126944301D01*
X146574500Y-126944301D01*
X146418779Y-126959638D01*
X146269042Y-127005060D01*
X146131044Y-127078822D01*
X146010088Y-127178088D01*
X145910822Y-127299044D01*
X145885189Y-127347000D01*
X145198811Y-127347000D01*
X145173178Y-127299044D01*
X145073912Y-127178088D01*
X144952956Y-127078822D01*
X144814958Y-127005060D01*
X144665221Y-126959638D01*
X144509500Y-126944301D01*
X144034500Y-126944301D01*
X143878779Y-126959638D01*
X143729042Y-127005060D01*
X143591044Y-127078822D01*
X143470088Y-127178088D01*
X143370822Y-127299044D01*
X143345189Y-127347000D01*
X142658811Y-127347000D01*
X142633178Y-127299044D01*
X142533912Y-127178088D01*
X142412956Y-127078822D01*
X142274958Y-127005060D01*
X142125221Y-126959638D01*
X141969500Y-126944301D01*
X141494500Y-126944301D01*
X141338779Y-126959638D01*
X141189042Y-127005060D01*
X141051044Y-127078822D01*
X140930088Y-127178088D01*
X140830822Y-127299044D01*
X140805189Y-127347000D01*
X140118811Y-127347000D01*
X140093178Y-127299044D01*
X139993912Y-127178088D01*
X139872956Y-127078822D01*
X139734958Y-127005060D01*
X139585221Y-126959638D01*
X139429500Y-126944301D01*
X138954500Y-126944301D01*
X138798779Y-126959638D01*
X138649042Y-127005060D01*
X138511044Y-127078822D01*
X138390088Y-127178088D01*
X138290822Y-127299044D01*
X138217060Y-127437042D01*
X138171638Y-127586779D01*
X138156301Y-127742500D01*
X138156301Y-128317500D01*
X138171638Y-128473221D01*
X138217060Y-128622958D01*
X138290822Y-128760956D01*
X138390088Y-128881912D01*
X138418221Y-128905000D01*
X138390088Y-128928088D01*
X138290822Y-129049044D01*
X138217060Y-129187042D01*
X138171638Y-129336779D01*
X138156301Y-129492500D01*
X138156301Y-130067500D01*
X138171638Y-130223221D01*
X138217060Y-130372958D01*
X138290822Y-130510956D01*
X138333571Y-130563046D01*
X138191577Y-130679578D01*
X138015627Y-130893974D01*
X137934390Y-131045958D01*
X137829339Y-130858590D01*
X137646468Y-130644686D01*
X137425380Y-130470568D01*
X137174571Y-130342928D01*
X137071424Y-130335922D01*
X136856000Y-130428011D01*
X136448000Y-130428011D01*
X136232576Y-130335922D01*
X136129429Y-130342928D01*
X135878620Y-130470568D01*
X135657532Y-130644686D01*
X135474661Y-130858590D01*
X135337034Y-131104061D01*
X135249941Y-131371665D01*
X135216728Y-131651118D01*
X135203000Y-131651118D01*
X135203000Y-127663518D01*
X135243014Y-127255422D01*
X135353248Y-126890310D01*
X135532300Y-126553562D01*
X135773353Y-126258002D01*
X136067225Y-126014890D01*
X136402716Y-125833491D01*
X136767053Y-125720710D01*
X137173826Y-125677956D01*
X137175315Y-125677951D01*
X137200670Y-125675376D01*
X137226138Y-125675554D01*
X137234240Y-125674760D01*
X137603994Y-125635897D01*
X137655731Y-125625277D01*
X137707659Y-125615371D01*
X137715449Y-125613019D01*
X137715455Y-125613017D01*
X138070615Y-125503076D01*
X138119340Y-125482594D01*
X138168318Y-125462806D01*
X138175497Y-125458988D01*
X138175507Y-125458984D01*
X138175515Y-125458979D01*
X138502550Y-125282153D01*
X138546367Y-125252598D01*
X138590572Y-125223671D01*
X138596881Y-125218526D01*
X138883350Y-124981537D01*
X138920582Y-124944045D01*
X138958335Y-124907074D01*
X138963524Y-124900802D01*
X139198507Y-124612684D01*
X139227747Y-124568674D01*
X139257602Y-124525073D01*
X139261474Y-124517913D01*
X139436019Y-124189640D01*
X139456164Y-124140764D01*
X139476970Y-124092221D01*
X139479375Y-124084451D01*
X139479378Y-124084444D01*
X139479379Y-124084437D01*
X139586837Y-123728523D01*
X139597104Y-123676671D01*
X139608087Y-123625002D01*
X139608938Y-123616906D01*
X139645218Y-123246891D01*
X139645218Y-123246880D01*
X139648000Y-123218633D01*
X139648000Y-121441381D01*
X140975118Y-121441381D01*
X141323004Y-121879606D01*
X141946901Y-122198925D01*
X142621105Y-122390392D01*
X143319709Y-122446648D01*
X144015864Y-122365533D01*
X144682818Y-122150164D01*
X145188996Y-121879606D01*
X145536882Y-121441381D01*
X143256000Y-119160500D01*
X140975118Y-121441381D01*
X139648000Y-121441381D01*
X139648000Y-118935709D01*
X139681352Y-118935709D01*
X139762467Y-119631864D01*
X139977836Y-120298818D01*
X140248394Y-120804996D01*
X140686619Y-121152882D01*
X142967500Y-118872000D01*
X143544500Y-118872000D01*
X145825381Y-121152882D01*
X146263606Y-120804996D01*
X146582925Y-120181099D01*
X146774392Y-119506895D01*
X146830648Y-118808291D01*
X146824485Y-118755390D01*
X148625420Y-118755390D01*
X148628795Y-119022871D01*
X148684287Y-119284554D01*
X148773537Y-119500022D01*
X148986589Y-119581911D01*
X149696500Y-118872000D01*
X150273500Y-118872000D01*
X150983411Y-119581911D01*
X151130000Y-119525568D01*
X151276589Y-119581911D01*
X151986500Y-118872000D01*
X152563500Y-118872000D01*
X153273411Y-119581911D01*
X153420000Y-119525568D01*
X153566589Y-119581911D01*
X154276500Y-118872000D01*
X153566589Y-118162089D01*
X153420000Y-118218432D01*
X153273411Y-118162089D01*
X152563500Y-118872000D01*
X151986500Y-118872000D01*
X151276589Y-118162089D01*
X151130000Y-118218432D01*
X150983411Y-118162089D01*
X150273500Y-118872000D01*
X149696500Y-118872000D01*
X148986589Y-118162089D01*
X148773537Y-118243978D01*
X148674294Y-118492390D01*
X148625420Y-118755390D01*
X146824485Y-118755390D01*
X146749533Y-118112136D01*
X146672503Y-117873589D01*
X149275089Y-117873589D01*
X149985000Y-118583500D01*
X150694911Y-117873589D01*
X151565089Y-117873589D01*
X152275000Y-118583500D01*
X152984911Y-117873589D01*
X153855089Y-117873589D01*
X154565000Y-118583500D01*
X155274911Y-117873589D01*
X155193022Y-117660537D01*
X154944610Y-117561294D01*
X154681610Y-117512420D01*
X154414129Y-117515795D01*
X154152446Y-117571287D01*
X153936978Y-117660537D01*
X153855089Y-117873589D01*
X152984911Y-117873589D01*
X152903022Y-117660537D01*
X152654610Y-117561294D01*
X152391610Y-117512420D01*
X152124129Y-117515795D01*
X151862446Y-117571287D01*
X151646978Y-117660537D01*
X151565089Y-117873589D01*
X150694911Y-117873589D01*
X150613022Y-117660537D01*
X150364610Y-117561294D01*
X150101610Y-117512420D01*
X149834129Y-117515795D01*
X149572446Y-117571287D01*
X149356978Y-117660537D01*
X149275089Y-117873589D01*
X146672503Y-117873589D01*
X146534164Y-117445182D01*
X146263606Y-116939004D01*
X145825381Y-116591118D01*
X143544500Y-118872000D01*
X142967500Y-118872000D01*
X140686619Y-116591118D01*
X140248394Y-116939004D01*
X139929075Y-117562901D01*
X139737608Y-118237105D01*
X139681352Y-118935709D01*
X139648000Y-118935709D01*
X139648000Y-116302619D01*
X140975118Y-116302619D01*
X143256000Y-118583500D01*
X145536882Y-116302619D01*
X145188996Y-115864394D01*
X144565099Y-115545075D01*
X143890895Y-115353608D01*
X143192291Y-115297352D01*
X142496136Y-115378467D01*
X141829182Y-115593836D01*
X141323004Y-115864394D01*
X140975118Y-116302619D01*
X139648000Y-116302619D01*
X139648000Y-109248518D01*
X139688014Y-108840422D01*
X139798248Y-108475310D01*
X139977300Y-108138562D01*
X140218353Y-107843002D01*
X140512225Y-107599890D01*
X140847716Y-107418491D01*
X141212053Y-107305710D01*
X141618409Y-107263000D01*
X169516482Y-107263000D01*
X169924578Y-107303014D01*
G36*
X167688265Y-127012173D02*
G01*
X167674958Y-127005060D01*
X167525221Y-126959638D01*
X167369500Y-126944301D01*
X166894500Y-126944301D01*
X166738779Y-126959638D01*
X166589042Y-127005060D01*
X166451044Y-127078822D01*
X166330088Y-127178088D01*
X166230822Y-127299044D01*
X166205189Y-127347000D01*
X165518811Y-127347000D01*
X165493178Y-127299044D01*
X165393912Y-127178088D01*
X165272956Y-127078822D01*
X165134958Y-127005060D01*
X164985221Y-126959638D01*
X164829500Y-126944301D01*
X164354500Y-126944301D01*
X164198779Y-126959638D01*
X164049042Y-127005060D01*
X163911044Y-127078822D01*
X163790088Y-127178088D01*
X163690822Y-127299044D01*
X163665189Y-127347000D01*
X162978811Y-127347000D01*
X162953178Y-127299044D01*
X162853912Y-127178088D01*
X162732956Y-127078822D01*
X162594958Y-127005060D01*
X162445221Y-126959638D01*
X162289500Y-126944301D01*
X161814500Y-126944301D01*
X161658779Y-126959638D01*
X161509042Y-127005060D01*
X161371044Y-127078822D01*
X161250088Y-127178088D01*
X161150822Y-127299044D01*
X161125189Y-127347000D01*
X160438811Y-127347000D01*
X160413178Y-127299044D01*
X160313912Y-127178088D01*
X160192956Y-127078822D01*
X160054958Y-127005060D01*
X159905221Y-126959638D01*
X159749500Y-126944301D01*
X159274500Y-126944301D01*
X159118779Y-126959638D01*
X158975890Y-127002983D01*
X156393000Y-124420093D01*
X156393000Y-122588887D01*
X156575675Y-122466828D01*
X156764828Y-122277675D01*
X156855000Y-122142722D01*
X156945172Y-122277675D01*
X157134325Y-122466828D01*
X157356746Y-122615444D01*
X157603886Y-122717813D01*
X157866249Y-122770000D01*
X158133751Y-122770000D01*
X158396114Y-122717813D01*
X158643254Y-122615444D01*
X158865675Y-122466828D01*
X158922092Y-122410411D01*
X159580089Y-122410411D01*
X159661978Y-122623463D01*
X159910390Y-122722706D01*
X160173390Y-122771580D01*
X160440871Y-122768205D01*
X160702554Y-122712713D01*
X160918022Y-122623463D01*
X160999911Y-122410411D01*
X160290000Y-121700500D01*
X159580089Y-122410411D01*
X158922092Y-122410411D01*
X159054828Y-122277675D01*
X159186018Y-122081334D01*
X159291589Y-122121911D01*
X160001500Y-121412000D01*
X159987358Y-121397858D01*
X160275858Y-121109358D01*
X160290000Y-121123500D01*
X160304142Y-121109358D01*
X160592642Y-121397858D01*
X160578500Y-121412000D01*
X161288411Y-122121911D01*
X161501463Y-122040022D01*
X161600706Y-121791610D01*
X161649580Y-121528610D01*
X161646205Y-121261129D01*
X161590713Y-120999446D01*
X161570232Y-120950000D01*
X161626093Y-120950000D01*
X167688265Y-127012173D01*
G37*
X167688265Y-127012173D02*
X167674958Y-127005060D01*
X167525221Y-126959638D01*
X167369500Y-126944301D01*
X166894500Y-126944301D01*
X166738779Y-126959638D01*
X166589042Y-127005060D01*
X166451044Y-127078822D01*
X166330088Y-127178088D01*
X166230822Y-127299044D01*
X166205189Y-127347000D01*
X165518811Y-127347000D01*
X165493178Y-127299044D01*
X165393912Y-127178088D01*
X165272956Y-127078822D01*
X165134958Y-127005060D01*
X164985221Y-126959638D01*
X164829500Y-126944301D01*
X164354500Y-126944301D01*
X164198779Y-126959638D01*
X164049042Y-127005060D01*
X163911044Y-127078822D01*
X163790088Y-127178088D01*
X163690822Y-127299044D01*
X163665189Y-127347000D01*
X162978811Y-127347000D01*
X162953178Y-127299044D01*
X162853912Y-127178088D01*
X162732956Y-127078822D01*
X162594958Y-127005060D01*
X162445221Y-126959638D01*
X162289500Y-126944301D01*
X161814500Y-126944301D01*
X161658779Y-126959638D01*
X161509042Y-127005060D01*
X161371044Y-127078822D01*
X161250088Y-127178088D01*
X161150822Y-127299044D01*
X161125189Y-127347000D01*
X160438811Y-127347000D01*
X160413178Y-127299044D01*
X160313912Y-127178088D01*
X160192956Y-127078822D01*
X160054958Y-127005060D01*
X159905221Y-126959638D01*
X159749500Y-126944301D01*
X159274500Y-126944301D01*
X159118779Y-126959638D01*
X158975890Y-127002983D01*
X156393000Y-124420093D01*
X156393000Y-122588887D01*
X156575675Y-122466828D01*
X156764828Y-122277675D01*
X156855000Y-122142722D01*
X156945172Y-122277675D01*
X157134325Y-122466828D01*
X157356746Y-122615444D01*
X157603886Y-122717813D01*
X157866249Y-122770000D01*
X158133751Y-122770000D01*
X158396114Y-122717813D01*
X158643254Y-122615444D01*
X158865675Y-122466828D01*
X158922092Y-122410411D01*
X159580089Y-122410411D01*
X159661978Y-122623463D01*
X159910390Y-122722706D01*
X160173390Y-122771580D01*
X160440871Y-122768205D01*
X160702554Y-122712713D01*
X160918022Y-122623463D01*
X160999911Y-122410411D01*
X160290000Y-121700500D01*
X159580089Y-122410411D01*
X158922092Y-122410411D01*
X159054828Y-122277675D01*
X159186018Y-122081334D01*
X159291589Y-122121911D01*
X160001500Y-121412000D01*
X159987358Y-121397858D01*
X160275858Y-121109358D01*
X160290000Y-121123500D01*
X160304142Y-121109358D01*
X160592642Y-121397858D01*
X160578500Y-121412000D01*
X161288411Y-122121911D01*
X161501463Y-122040022D01*
X161600706Y-121791610D01*
X161649580Y-121528610D01*
X161646205Y-121261129D01*
X161590713Y-120999446D01*
X161570232Y-120950000D01*
X161626093Y-120950000D01*
X167688265Y-127012173D01*
G36*
X159447642Y-118857858D02*
G01*
X159433500Y-118872000D01*
X159447642Y-118886142D01*
X159159142Y-119174642D01*
X159145000Y-119160500D01*
X159130858Y-119174642D01*
X158842358Y-118886142D01*
X158856500Y-118872000D01*
X158842358Y-118857858D01*
X159130858Y-118569358D01*
X159145000Y-118583500D01*
X159159142Y-118569358D01*
X159447642Y-118857858D01*
G37*
X159447642Y-118857858D02*
X159433500Y-118872000D01*
X159447642Y-118886142D01*
X159159142Y-119174642D01*
X159145000Y-119160500D01*
X159130858Y-119174642D01*
X158842358Y-118886142D01*
X158856500Y-118872000D01*
X158842358Y-118857858D01*
X159130858Y-118569358D01*
X159145000Y-118583500D01*
X159159142Y-118569358D01*
X159447642Y-118857858D01*
M02*
