G04 #@! TF.GenerationSoftware,KiCad,Pcbnew,5.1.5-52549c5~84~ubuntu18.04.1*
G04 #@! TF.CreationDate,2019-12-13T14:59:01-06:00*
G04 #@! TF.ProjectId,VGA,5647412e-6b69-4636-9164-5f7063625858,rev?*
G04 #@! TF.SameCoordinates,Original*
G04 #@! TF.FileFunction,Paste,Top*
G04 #@! TF.FilePolarity,Positive*
%FSLAX46Y46*%
G04 Gerber Fmt 4.6, Leading zero omitted, Abs format (unit mm)*
G04 Created by KiCad (PCBNEW 5.1.5-52549c5~84~ubuntu18.04.1) date 2019-12-13 14:59:01*
%MOMM*%
%LPD*%
G04 APERTURE LIST*
%ADD10C,0.100000*%
G04 APERTURE END LIST*
D10*
G36*
X172472779Y-129254144D02*
G01*
X172495834Y-129257563D01*
X172518443Y-129263227D01*
X172540387Y-129271079D01*
X172561457Y-129281044D01*
X172581448Y-129293026D01*
X172600168Y-129306910D01*
X172617438Y-129322562D01*
X172633090Y-129339832D01*
X172646974Y-129358552D01*
X172658956Y-129378543D01*
X172668921Y-129399613D01*
X172676773Y-129421557D01*
X172682437Y-129444166D01*
X172685856Y-129467221D01*
X172687000Y-129490500D01*
X172687000Y-130065500D01*
X172685856Y-130088779D01*
X172682437Y-130111834D01*
X172676773Y-130134443D01*
X172668921Y-130156387D01*
X172658956Y-130177457D01*
X172646974Y-130197448D01*
X172633090Y-130216168D01*
X172617438Y-130233438D01*
X172600168Y-130249090D01*
X172581448Y-130262974D01*
X172561457Y-130274956D01*
X172540387Y-130284921D01*
X172518443Y-130292773D01*
X172495834Y-130298437D01*
X172472779Y-130301856D01*
X172449500Y-130303000D01*
X171974500Y-130303000D01*
X171951221Y-130301856D01*
X171928166Y-130298437D01*
X171905557Y-130292773D01*
X171883613Y-130284921D01*
X171862543Y-130274956D01*
X171842552Y-130262974D01*
X171823832Y-130249090D01*
X171806562Y-130233438D01*
X171790910Y-130216168D01*
X171777026Y-130197448D01*
X171765044Y-130177457D01*
X171755079Y-130156387D01*
X171747227Y-130134443D01*
X171741563Y-130111834D01*
X171738144Y-130088779D01*
X171737000Y-130065500D01*
X171737000Y-129490500D01*
X171738144Y-129467221D01*
X171741563Y-129444166D01*
X171747227Y-129421557D01*
X171755079Y-129399613D01*
X171765044Y-129378543D01*
X171777026Y-129358552D01*
X171790910Y-129339832D01*
X171806562Y-129322562D01*
X171823832Y-129306910D01*
X171842552Y-129293026D01*
X171862543Y-129281044D01*
X171883613Y-129271079D01*
X171905557Y-129263227D01*
X171928166Y-129257563D01*
X171951221Y-129254144D01*
X171974500Y-129253000D01*
X172449500Y-129253000D01*
X172472779Y-129254144D01*
G37*
G36*
X172472779Y-127504144D02*
G01*
X172495834Y-127507563D01*
X172518443Y-127513227D01*
X172540387Y-127521079D01*
X172561457Y-127531044D01*
X172581448Y-127543026D01*
X172600168Y-127556910D01*
X172617438Y-127572562D01*
X172633090Y-127589832D01*
X172646974Y-127608552D01*
X172658956Y-127628543D01*
X172668921Y-127649613D01*
X172676773Y-127671557D01*
X172682437Y-127694166D01*
X172685856Y-127717221D01*
X172687000Y-127740500D01*
X172687000Y-128315500D01*
X172685856Y-128338779D01*
X172682437Y-128361834D01*
X172676773Y-128384443D01*
X172668921Y-128406387D01*
X172658956Y-128427457D01*
X172646974Y-128447448D01*
X172633090Y-128466168D01*
X172617438Y-128483438D01*
X172600168Y-128499090D01*
X172581448Y-128512974D01*
X172561457Y-128524956D01*
X172540387Y-128534921D01*
X172518443Y-128542773D01*
X172495834Y-128548437D01*
X172472779Y-128551856D01*
X172449500Y-128553000D01*
X171974500Y-128553000D01*
X171951221Y-128551856D01*
X171928166Y-128548437D01*
X171905557Y-128542773D01*
X171883613Y-128534921D01*
X171862543Y-128524956D01*
X171842552Y-128512974D01*
X171823832Y-128499090D01*
X171806562Y-128483438D01*
X171790910Y-128466168D01*
X171777026Y-128447448D01*
X171765044Y-128427457D01*
X171755079Y-128406387D01*
X171747227Y-128384443D01*
X171741563Y-128361834D01*
X171738144Y-128338779D01*
X171737000Y-128315500D01*
X171737000Y-127740500D01*
X171738144Y-127717221D01*
X171741563Y-127694166D01*
X171747227Y-127671557D01*
X171755079Y-127649613D01*
X171765044Y-127628543D01*
X171777026Y-127608552D01*
X171790910Y-127589832D01*
X171806562Y-127572562D01*
X171823832Y-127556910D01*
X171842552Y-127543026D01*
X171862543Y-127531044D01*
X171883613Y-127521079D01*
X171905557Y-127513227D01*
X171928166Y-127507563D01*
X171951221Y-127504144D01*
X171974500Y-127503000D01*
X172449500Y-127503000D01*
X172472779Y-127504144D01*
G37*
G36*
X169932779Y-129256144D02*
G01*
X169955834Y-129259563D01*
X169978443Y-129265227D01*
X170000387Y-129273079D01*
X170021457Y-129283044D01*
X170041448Y-129295026D01*
X170060168Y-129308910D01*
X170077438Y-129324562D01*
X170093090Y-129341832D01*
X170106974Y-129360552D01*
X170118956Y-129380543D01*
X170128921Y-129401613D01*
X170136773Y-129423557D01*
X170142437Y-129446166D01*
X170145856Y-129469221D01*
X170147000Y-129492500D01*
X170147000Y-130067500D01*
X170145856Y-130090779D01*
X170142437Y-130113834D01*
X170136773Y-130136443D01*
X170128921Y-130158387D01*
X170118956Y-130179457D01*
X170106974Y-130199448D01*
X170093090Y-130218168D01*
X170077438Y-130235438D01*
X170060168Y-130251090D01*
X170041448Y-130264974D01*
X170021457Y-130276956D01*
X170000387Y-130286921D01*
X169978443Y-130294773D01*
X169955834Y-130300437D01*
X169932779Y-130303856D01*
X169909500Y-130305000D01*
X169434500Y-130305000D01*
X169411221Y-130303856D01*
X169388166Y-130300437D01*
X169365557Y-130294773D01*
X169343613Y-130286921D01*
X169322543Y-130276956D01*
X169302552Y-130264974D01*
X169283832Y-130251090D01*
X169266562Y-130235438D01*
X169250910Y-130218168D01*
X169237026Y-130199448D01*
X169225044Y-130179457D01*
X169215079Y-130158387D01*
X169207227Y-130136443D01*
X169201563Y-130113834D01*
X169198144Y-130090779D01*
X169197000Y-130067500D01*
X169197000Y-129492500D01*
X169198144Y-129469221D01*
X169201563Y-129446166D01*
X169207227Y-129423557D01*
X169215079Y-129401613D01*
X169225044Y-129380543D01*
X169237026Y-129360552D01*
X169250910Y-129341832D01*
X169266562Y-129324562D01*
X169283832Y-129308910D01*
X169302552Y-129295026D01*
X169322543Y-129283044D01*
X169343613Y-129273079D01*
X169365557Y-129265227D01*
X169388166Y-129259563D01*
X169411221Y-129256144D01*
X169434500Y-129255000D01*
X169909500Y-129255000D01*
X169932779Y-129256144D01*
G37*
G36*
X169932779Y-127506144D02*
G01*
X169955834Y-127509563D01*
X169978443Y-127515227D01*
X170000387Y-127523079D01*
X170021457Y-127533044D01*
X170041448Y-127545026D01*
X170060168Y-127558910D01*
X170077438Y-127574562D01*
X170093090Y-127591832D01*
X170106974Y-127610552D01*
X170118956Y-127630543D01*
X170128921Y-127651613D01*
X170136773Y-127673557D01*
X170142437Y-127696166D01*
X170145856Y-127719221D01*
X170147000Y-127742500D01*
X170147000Y-128317500D01*
X170145856Y-128340779D01*
X170142437Y-128363834D01*
X170136773Y-128386443D01*
X170128921Y-128408387D01*
X170118956Y-128429457D01*
X170106974Y-128449448D01*
X170093090Y-128468168D01*
X170077438Y-128485438D01*
X170060168Y-128501090D01*
X170041448Y-128514974D01*
X170021457Y-128526956D01*
X170000387Y-128536921D01*
X169978443Y-128544773D01*
X169955834Y-128550437D01*
X169932779Y-128553856D01*
X169909500Y-128555000D01*
X169434500Y-128555000D01*
X169411221Y-128553856D01*
X169388166Y-128550437D01*
X169365557Y-128544773D01*
X169343613Y-128536921D01*
X169322543Y-128526956D01*
X169302552Y-128514974D01*
X169283832Y-128501090D01*
X169266562Y-128485438D01*
X169250910Y-128468168D01*
X169237026Y-128449448D01*
X169225044Y-128429457D01*
X169215079Y-128408387D01*
X169207227Y-128386443D01*
X169201563Y-128363834D01*
X169198144Y-128340779D01*
X169197000Y-128317500D01*
X169197000Y-127742500D01*
X169198144Y-127719221D01*
X169201563Y-127696166D01*
X169207227Y-127673557D01*
X169215079Y-127651613D01*
X169225044Y-127630543D01*
X169237026Y-127610552D01*
X169250910Y-127591832D01*
X169266562Y-127574562D01*
X169283832Y-127558910D01*
X169302552Y-127545026D01*
X169322543Y-127533044D01*
X169343613Y-127523079D01*
X169365557Y-127515227D01*
X169388166Y-127509563D01*
X169411221Y-127506144D01*
X169434500Y-127505000D01*
X169909500Y-127505000D01*
X169932779Y-127506144D01*
G37*
G36*
X167392779Y-129256144D02*
G01*
X167415834Y-129259563D01*
X167438443Y-129265227D01*
X167460387Y-129273079D01*
X167481457Y-129283044D01*
X167501448Y-129295026D01*
X167520168Y-129308910D01*
X167537438Y-129324562D01*
X167553090Y-129341832D01*
X167566974Y-129360552D01*
X167578956Y-129380543D01*
X167588921Y-129401613D01*
X167596773Y-129423557D01*
X167602437Y-129446166D01*
X167605856Y-129469221D01*
X167607000Y-129492500D01*
X167607000Y-130067500D01*
X167605856Y-130090779D01*
X167602437Y-130113834D01*
X167596773Y-130136443D01*
X167588921Y-130158387D01*
X167578956Y-130179457D01*
X167566974Y-130199448D01*
X167553090Y-130218168D01*
X167537438Y-130235438D01*
X167520168Y-130251090D01*
X167501448Y-130264974D01*
X167481457Y-130276956D01*
X167460387Y-130286921D01*
X167438443Y-130294773D01*
X167415834Y-130300437D01*
X167392779Y-130303856D01*
X167369500Y-130305000D01*
X166894500Y-130305000D01*
X166871221Y-130303856D01*
X166848166Y-130300437D01*
X166825557Y-130294773D01*
X166803613Y-130286921D01*
X166782543Y-130276956D01*
X166762552Y-130264974D01*
X166743832Y-130251090D01*
X166726562Y-130235438D01*
X166710910Y-130218168D01*
X166697026Y-130199448D01*
X166685044Y-130179457D01*
X166675079Y-130158387D01*
X166667227Y-130136443D01*
X166661563Y-130113834D01*
X166658144Y-130090779D01*
X166657000Y-130067500D01*
X166657000Y-129492500D01*
X166658144Y-129469221D01*
X166661563Y-129446166D01*
X166667227Y-129423557D01*
X166675079Y-129401613D01*
X166685044Y-129380543D01*
X166697026Y-129360552D01*
X166710910Y-129341832D01*
X166726562Y-129324562D01*
X166743832Y-129308910D01*
X166762552Y-129295026D01*
X166782543Y-129283044D01*
X166803613Y-129273079D01*
X166825557Y-129265227D01*
X166848166Y-129259563D01*
X166871221Y-129256144D01*
X166894500Y-129255000D01*
X167369500Y-129255000D01*
X167392779Y-129256144D01*
G37*
G36*
X167392779Y-127506144D02*
G01*
X167415834Y-127509563D01*
X167438443Y-127515227D01*
X167460387Y-127523079D01*
X167481457Y-127533044D01*
X167501448Y-127545026D01*
X167520168Y-127558910D01*
X167537438Y-127574562D01*
X167553090Y-127591832D01*
X167566974Y-127610552D01*
X167578956Y-127630543D01*
X167588921Y-127651613D01*
X167596773Y-127673557D01*
X167602437Y-127696166D01*
X167605856Y-127719221D01*
X167607000Y-127742500D01*
X167607000Y-128317500D01*
X167605856Y-128340779D01*
X167602437Y-128363834D01*
X167596773Y-128386443D01*
X167588921Y-128408387D01*
X167578956Y-128429457D01*
X167566974Y-128449448D01*
X167553090Y-128468168D01*
X167537438Y-128485438D01*
X167520168Y-128501090D01*
X167501448Y-128514974D01*
X167481457Y-128526956D01*
X167460387Y-128536921D01*
X167438443Y-128544773D01*
X167415834Y-128550437D01*
X167392779Y-128553856D01*
X167369500Y-128555000D01*
X166894500Y-128555000D01*
X166871221Y-128553856D01*
X166848166Y-128550437D01*
X166825557Y-128544773D01*
X166803613Y-128536921D01*
X166782543Y-128526956D01*
X166762552Y-128514974D01*
X166743832Y-128501090D01*
X166726562Y-128485438D01*
X166710910Y-128468168D01*
X166697026Y-128449448D01*
X166685044Y-128429457D01*
X166675079Y-128408387D01*
X166667227Y-128386443D01*
X166661563Y-128363834D01*
X166658144Y-128340779D01*
X166657000Y-128317500D01*
X166657000Y-127742500D01*
X166658144Y-127719221D01*
X166661563Y-127696166D01*
X166667227Y-127673557D01*
X166675079Y-127651613D01*
X166685044Y-127630543D01*
X166697026Y-127610552D01*
X166710910Y-127591832D01*
X166726562Y-127574562D01*
X166743832Y-127558910D01*
X166762552Y-127545026D01*
X166782543Y-127533044D01*
X166803613Y-127523079D01*
X166825557Y-127515227D01*
X166848166Y-127509563D01*
X166871221Y-127506144D01*
X166894500Y-127505000D01*
X167369500Y-127505000D01*
X167392779Y-127506144D01*
G37*
G36*
X164852779Y-129256144D02*
G01*
X164875834Y-129259563D01*
X164898443Y-129265227D01*
X164920387Y-129273079D01*
X164941457Y-129283044D01*
X164961448Y-129295026D01*
X164980168Y-129308910D01*
X164997438Y-129324562D01*
X165013090Y-129341832D01*
X165026974Y-129360552D01*
X165038956Y-129380543D01*
X165048921Y-129401613D01*
X165056773Y-129423557D01*
X165062437Y-129446166D01*
X165065856Y-129469221D01*
X165067000Y-129492500D01*
X165067000Y-130067500D01*
X165065856Y-130090779D01*
X165062437Y-130113834D01*
X165056773Y-130136443D01*
X165048921Y-130158387D01*
X165038956Y-130179457D01*
X165026974Y-130199448D01*
X165013090Y-130218168D01*
X164997438Y-130235438D01*
X164980168Y-130251090D01*
X164961448Y-130264974D01*
X164941457Y-130276956D01*
X164920387Y-130286921D01*
X164898443Y-130294773D01*
X164875834Y-130300437D01*
X164852779Y-130303856D01*
X164829500Y-130305000D01*
X164354500Y-130305000D01*
X164331221Y-130303856D01*
X164308166Y-130300437D01*
X164285557Y-130294773D01*
X164263613Y-130286921D01*
X164242543Y-130276956D01*
X164222552Y-130264974D01*
X164203832Y-130251090D01*
X164186562Y-130235438D01*
X164170910Y-130218168D01*
X164157026Y-130199448D01*
X164145044Y-130179457D01*
X164135079Y-130158387D01*
X164127227Y-130136443D01*
X164121563Y-130113834D01*
X164118144Y-130090779D01*
X164117000Y-130067500D01*
X164117000Y-129492500D01*
X164118144Y-129469221D01*
X164121563Y-129446166D01*
X164127227Y-129423557D01*
X164135079Y-129401613D01*
X164145044Y-129380543D01*
X164157026Y-129360552D01*
X164170910Y-129341832D01*
X164186562Y-129324562D01*
X164203832Y-129308910D01*
X164222552Y-129295026D01*
X164242543Y-129283044D01*
X164263613Y-129273079D01*
X164285557Y-129265227D01*
X164308166Y-129259563D01*
X164331221Y-129256144D01*
X164354500Y-129255000D01*
X164829500Y-129255000D01*
X164852779Y-129256144D01*
G37*
G36*
X164852779Y-127506144D02*
G01*
X164875834Y-127509563D01*
X164898443Y-127515227D01*
X164920387Y-127523079D01*
X164941457Y-127533044D01*
X164961448Y-127545026D01*
X164980168Y-127558910D01*
X164997438Y-127574562D01*
X165013090Y-127591832D01*
X165026974Y-127610552D01*
X165038956Y-127630543D01*
X165048921Y-127651613D01*
X165056773Y-127673557D01*
X165062437Y-127696166D01*
X165065856Y-127719221D01*
X165067000Y-127742500D01*
X165067000Y-128317500D01*
X165065856Y-128340779D01*
X165062437Y-128363834D01*
X165056773Y-128386443D01*
X165048921Y-128408387D01*
X165038956Y-128429457D01*
X165026974Y-128449448D01*
X165013090Y-128468168D01*
X164997438Y-128485438D01*
X164980168Y-128501090D01*
X164961448Y-128514974D01*
X164941457Y-128526956D01*
X164920387Y-128536921D01*
X164898443Y-128544773D01*
X164875834Y-128550437D01*
X164852779Y-128553856D01*
X164829500Y-128555000D01*
X164354500Y-128555000D01*
X164331221Y-128553856D01*
X164308166Y-128550437D01*
X164285557Y-128544773D01*
X164263613Y-128536921D01*
X164242543Y-128526956D01*
X164222552Y-128514974D01*
X164203832Y-128501090D01*
X164186562Y-128485438D01*
X164170910Y-128468168D01*
X164157026Y-128449448D01*
X164145044Y-128429457D01*
X164135079Y-128408387D01*
X164127227Y-128386443D01*
X164121563Y-128363834D01*
X164118144Y-128340779D01*
X164117000Y-128317500D01*
X164117000Y-127742500D01*
X164118144Y-127719221D01*
X164121563Y-127696166D01*
X164127227Y-127673557D01*
X164135079Y-127651613D01*
X164145044Y-127630543D01*
X164157026Y-127610552D01*
X164170910Y-127591832D01*
X164186562Y-127574562D01*
X164203832Y-127558910D01*
X164222552Y-127545026D01*
X164242543Y-127533044D01*
X164263613Y-127523079D01*
X164285557Y-127515227D01*
X164308166Y-127509563D01*
X164331221Y-127506144D01*
X164354500Y-127505000D01*
X164829500Y-127505000D01*
X164852779Y-127506144D01*
G37*
G36*
X162312779Y-129256144D02*
G01*
X162335834Y-129259563D01*
X162358443Y-129265227D01*
X162380387Y-129273079D01*
X162401457Y-129283044D01*
X162421448Y-129295026D01*
X162440168Y-129308910D01*
X162457438Y-129324562D01*
X162473090Y-129341832D01*
X162486974Y-129360552D01*
X162498956Y-129380543D01*
X162508921Y-129401613D01*
X162516773Y-129423557D01*
X162522437Y-129446166D01*
X162525856Y-129469221D01*
X162527000Y-129492500D01*
X162527000Y-130067500D01*
X162525856Y-130090779D01*
X162522437Y-130113834D01*
X162516773Y-130136443D01*
X162508921Y-130158387D01*
X162498956Y-130179457D01*
X162486974Y-130199448D01*
X162473090Y-130218168D01*
X162457438Y-130235438D01*
X162440168Y-130251090D01*
X162421448Y-130264974D01*
X162401457Y-130276956D01*
X162380387Y-130286921D01*
X162358443Y-130294773D01*
X162335834Y-130300437D01*
X162312779Y-130303856D01*
X162289500Y-130305000D01*
X161814500Y-130305000D01*
X161791221Y-130303856D01*
X161768166Y-130300437D01*
X161745557Y-130294773D01*
X161723613Y-130286921D01*
X161702543Y-130276956D01*
X161682552Y-130264974D01*
X161663832Y-130251090D01*
X161646562Y-130235438D01*
X161630910Y-130218168D01*
X161617026Y-130199448D01*
X161605044Y-130179457D01*
X161595079Y-130158387D01*
X161587227Y-130136443D01*
X161581563Y-130113834D01*
X161578144Y-130090779D01*
X161577000Y-130067500D01*
X161577000Y-129492500D01*
X161578144Y-129469221D01*
X161581563Y-129446166D01*
X161587227Y-129423557D01*
X161595079Y-129401613D01*
X161605044Y-129380543D01*
X161617026Y-129360552D01*
X161630910Y-129341832D01*
X161646562Y-129324562D01*
X161663832Y-129308910D01*
X161682552Y-129295026D01*
X161702543Y-129283044D01*
X161723613Y-129273079D01*
X161745557Y-129265227D01*
X161768166Y-129259563D01*
X161791221Y-129256144D01*
X161814500Y-129255000D01*
X162289500Y-129255000D01*
X162312779Y-129256144D01*
G37*
G36*
X162312779Y-127506144D02*
G01*
X162335834Y-127509563D01*
X162358443Y-127515227D01*
X162380387Y-127523079D01*
X162401457Y-127533044D01*
X162421448Y-127545026D01*
X162440168Y-127558910D01*
X162457438Y-127574562D01*
X162473090Y-127591832D01*
X162486974Y-127610552D01*
X162498956Y-127630543D01*
X162508921Y-127651613D01*
X162516773Y-127673557D01*
X162522437Y-127696166D01*
X162525856Y-127719221D01*
X162527000Y-127742500D01*
X162527000Y-128317500D01*
X162525856Y-128340779D01*
X162522437Y-128363834D01*
X162516773Y-128386443D01*
X162508921Y-128408387D01*
X162498956Y-128429457D01*
X162486974Y-128449448D01*
X162473090Y-128468168D01*
X162457438Y-128485438D01*
X162440168Y-128501090D01*
X162421448Y-128514974D01*
X162401457Y-128526956D01*
X162380387Y-128536921D01*
X162358443Y-128544773D01*
X162335834Y-128550437D01*
X162312779Y-128553856D01*
X162289500Y-128555000D01*
X161814500Y-128555000D01*
X161791221Y-128553856D01*
X161768166Y-128550437D01*
X161745557Y-128544773D01*
X161723613Y-128536921D01*
X161702543Y-128526956D01*
X161682552Y-128514974D01*
X161663832Y-128501090D01*
X161646562Y-128485438D01*
X161630910Y-128468168D01*
X161617026Y-128449448D01*
X161605044Y-128429457D01*
X161595079Y-128408387D01*
X161587227Y-128386443D01*
X161581563Y-128363834D01*
X161578144Y-128340779D01*
X161577000Y-128317500D01*
X161577000Y-127742500D01*
X161578144Y-127719221D01*
X161581563Y-127696166D01*
X161587227Y-127673557D01*
X161595079Y-127651613D01*
X161605044Y-127630543D01*
X161617026Y-127610552D01*
X161630910Y-127591832D01*
X161646562Y-127574562D01*
X161663832Y-127558910D01*
X161682552Y-127545026D01*
X161702543Y-127533044D01*
X161723613Y-127523079D01*
X161745557Y-127515227D01*
X161768166Y-127509563D01*
X161791221Y-127506144D01*
X161814500Y-127505000D01*
X162289500Y-127505000D01*
X162312779Y-127506144D01*
G37*
G36*
X159772779Y-129256144D02*
G01*
X159795834Y-129259563D01*
X159818443Y-129265227D01*
X159840387Y-129273079D01*
X159861457Y-129283044D01*
X159881448Y-129295026D01*
X159900168Y-129308910D01*
X159917438Y-129324562D01*
X159933090Y-129341832D01*
X159946974Y-129360552D01*
X159958956Y-129380543D01*
X159968921Y-129401613D01*
X159976773Y-129423557D01*
X159982437Y-129446166D01*
X159985856Y-129469221D01*
X159987000Y-129492500D01*
X159987000Y-130067500D01*
X159985856Y-130090779D01*
X159982437Y-130113834D01*
X159976773Y-130136443D01*
X159968921Y-130158387D01*
X159958956Y-130179457D01*
X159946974Y-130199448D01*
X159933090Y-130218168D01*
X159917438Y-130235438D01*
X159900168Y-130251090D01*
X159881448Y-130264974D01*
X159861457Y-130276956D01*
X159840387Y-130286921D01*
X159818443Y-130294773D01*
X159795834Y-130300437D01*
X159772779Y-130303856D01*
X159749500Y-130305000D01*
X159274500Y-130305000D01*
X159251221Y-130303856D01*
X159228166Y-130300437D01*
X159205557Y-130294773D01*
X159183613Y-130286921D01*
X159162543Y-130276956D01*
X159142552Y-130264974D01*
X159123832Y-130251090D01*
X159106562Y-130235438D01*
X159090910Y-130218168D01*
X159077026Y-130199448D01*
X159065044Y-130179457D01*
X159055079Y-130158387D01*
X159047227Y-130136443D01*
X159041563Y-130113834D01*
X159038144Y-130090779D01*
X159037000Y-130067500D01*
X159037000Y-129492500D01*
X159038144Y-129469221D01*
X159041563Y-129446166D01*
X159047227Y-129423557D01*
X159055079Y-129401613D01*
X159065044Y-129380543D01*
X159077026Y-129360552D01*
X159090910Y-129341832D01*
X159106562Y-129324562D01*
X159123832Y-129308910D01*
X159142552Y-129295026D01*
X159162543Y-129283044D01*
X159183613Y-129273079D01*
X159205557Y-129265227D01*
X159228166Y-129259563D01*
X159251221Y-129256144D01*
X159274500Y-129255000D01*
X159749500Y-129255000D01*
X159772779Y-129256144D01*
G37*
G36*
X159772779Y-127506144D02*
G01*
X159795834Y-127509563D01*
X159818443Y-127515227D01*
X159840387Y-127523079D01*
X159861457Y-127533044D01*
X159881448Y-127545026D01*
X159900168Y-127558910D01*
X159917438Y-127574562D01*
X159933090Y-127591832D01*
X159946974Y-127610552D01*
X159958956Y-127630543D01*
X159968921Y-127651613D01*
X159976773Y-127673557D01*
X159982437Y-127696166D01*
X159985856Y-127719221D01*
X159987000Y-127742500D01*
X159987000Y-128317500D01*
X159985856Y-128340779D01*
X159982437Y-128363834D01*
X159976773Y-128386443D01*
X159968921Y-128408387D01*
X159958956Y-128429457D01*
X159946974Y-128449448D01*
X159933090Y-128468168D01*
X159917438Y-128485438D01*
X159900168Y-128501090D01*
X159881448Y-128514974D01*
X159861457Y-128526956D01*
X159840387Y-128536921D01*
X159818443Y-128544773D01*
X159795834Y-128550437D01*
X159772779Y-128553856D01*
X159749500Y-128555000D01*
X159274500Y-128555000D01*
X159251221Y-128553856D01*
X159228166Y-128550437D01*
X159205557Y-128544773D01*
X159183613Y-128536921D01*
X159162543Y-128526956D01*
X159142552Y-128514974D01*
X159123832Y-128501090D01*
X159106562Y-128485438D01*
X159090910Y-128468168D01*
X159077026Y-128449448D01*
X159065044Y-128429457D01*
X159055079Y-128408387D01*
X159047227Y-128386443D01*
X159041563Y-128363834D01*
X159038144Y-128340779D01*
X159037000Y-128317500D01*
X159037000Y-127742500D01*
X159038144Y-127719221D01*
X159041563Y-127696166D01*
X159047227Y-127673557D01*
X159055079Y-127651613D01*
X159065044Y-127630543D01*
X159077026Y-127610552D01*
X159090910Y-127591832D01*
X159106562Y-127574562D01*
X159123832Y-127558910D01*
X159142552Y-127545026D01*
X159162543Y-127533044D01*
X159183613Y-127523079D01*
X159205557Y-127515227D01*
X159228166Y-127509563D01*
X159251221Y-127506144D01*
X159274500Y-127505000D01*
X159749500Y-127505000D01*
X159772779Y-127506144D01*
G37*
G36*
X157232779Y-129256144D02*
G01*
X157255834Y-129259563D01*
X157278443Y-129265227D01*
X157300387Y-129273079D01*
X157321457Y-129283044D01*
X157341448Y-129295026D01*
X157360168Y-129308910D01*
X157377438Y-129324562D01*
X157393090Y-129341832D01*
X157406974Y-129360552D01*
X157418956Y-129380543D01*
X157428921Y-129401613D01*
X157436773Y-129423557D01*
X157442437Y-129446166D01*
X157445856Y-129469221D01*
X157447000Y-129492500D01*
X157447000Y-130067500D01*
X157445856Y-130090779D01*
X157442437Y-130113834D01*
X157436773Y-130136443D01*
X157428921Y-130158387D01*
X157418956Y-130179457D01*
X157406974Y-130199448D01*
X157393090Y-130218168D01*
X157377438Y-130235438D01*
X157360168Y-130251090D01*
X157341448Y-130264974D01*
X157321457Y-130276956D01*
X157300387Y-130286921D01*
X157278443Y-130294773D01*
X157255834Y-130300437D01*
X157232779Y-130303856D01*
X157209500Y-130305000D01*
X156734500Y-130305000D01*
X156711221Y-130303856D01*
X156688166Y-130300437D01*
X156665557Y-130294773D01*
X156643613Y-130286921D01*
X156622543Y-130276956D01*
X156602552Y-130264974D01*
X156583832Y-130251090D01*
X156566562Y-130235438D01*
X156550910Y-130218168D01*
X156537026Y-130199448D01*
X156525044Y-130179457D01*
X156515079Y-130158387D01*
X156507227Y-130136443D01*
X156501563Y-130113834D01*
X156498144Y-130090779D01*
X156497000Y-130067500D01*
X156497000Y-129492500D01*
X156498144Y-129469221D01*
X156501563Y-129446166D01*
X156507227Y-129423557D01*
X156515079Y-129401613D01*
X156525044Y-129380543D01*
X156537026Y-129360552D01*
X156550910Y-129341832D01*
X156566562Y-129324562D01*
X156583832Y-129308910D01*
X156602552Y-129295026D01*
X156622543Y-129283044D01*
X156643613Y-129273079D01*
X156665557Y-129265227D01*
X156688166Y-129259563D01*
X156711221Y-129256144D01*
X156734500Y-129255000D01*
X157209500Y-129255000D01*
X157232779Y-129256144D01*
G37*
G36*
X157232779Y-127506144D02*
G01*
X157255834Y-127509563D01*
X157278443Y-127515227D01*
X157300387Y-127523079D01*
X157321457Y-127533044D01*
X157341448Y-127545026D01*
X157360168Y-127558910D01*
X157377438Y-127574562D01*
X157393090Y-127591832D01*
X157406974Y-127610552D01*
X157418956Y-127630543D01*
X157428921Y-127651613D01*
X157436773Y-127673557D01*
X157442437Y-127696166D01*
X157445856Y-127719221D01*
X157447000Y-127742500D01*
X157447000Y-128317500D01*
X157445856Y-128340779D01*
X157442437Y-128363834D01*
X157436773Y-128386443D01*
X157428921Y-128408387D01*
X157418956Y-128429457D01*
X157406974Y-128449448D01*
X157393090Y-128468168D01*
X157377438Y-128485438D01*
X157360168Y-128501090D01*
X157341448Y-128514974D01*
X157321457Y-128526956D01*
X157300387Y-128536921D01*
X157278443Y-128544773D01*
X157255834Y-128550437D01*
X157232779Y-128553856D01*
X157209500Y-128555000D01*
X156734500Y-128555000D01*
X156711221Y-128553856D01*
X156688166Y-128550437D01*
X156665557Y-128544773D01*
X156643613Y-128536921D01*
X156622543Y-128526956D01*
X156602552Y-128514974D01*
X156583832Y-128501090D01*
X156566562Y-128485438D01*
X156550910Y-128468168D01*
X156537026Y-128449448D01*
X156525044Y-128429457D01*
X156515079Y-128408387D01*
X156507227Y-128386443D01*
X156501563Y-128363834D01*
X156498144Y-128340779D01*
X156497000Y-128317500D01*
X156497000Y-127742500D01*
X156498144Y-127719221D01*
X156501563Y-127696166D01*
X156507227Y-127673557D01*
X156515079Y-127651613D01*
X156525044Y-127630543D01*
X156537026Y-127610552D01*
X156550910Y-127591832D01*
X156566562Y-127574562D01*
X156583832Y-127558910D01*
X156602552Y-127545026D01*
X156622543Y-127533044D01*
X156643613Y-127523079D01*
X156665557Y-127515227D01*
X156688166Y-127509563D01*
X156711221Y-127506144D01*
X156734500Y-127505000D01*
X157209500Y-127505000D01*
X157232779Y-127506144D01*
G37*
G36*
X154692779Y-129256144D02*
G01*
X154715834Y-129259563D01*
X154738443Y-129265227D01*
X154760387Y-129273079D01*
X154781457Y-129283044D01*
X154801448Y-129295026D01*
X154820168Y-129308910D01*
X154837438Y-129324562D01*
X154853090Y-129341832D01*
X154866974Y-129360552D01*
X154878956Y-129380543D01*
X154888921Y-129401613D01*
X154896773Y-129423557D01*
X154902437Y-129446166D01*
X154905856Y-129469221D01*
X154907000Y-129492500D01*
X154907000Y-130067500D01*
X154905856Y-130090779D01*
X154902437Y-130113834D01*
X154896773Y-130136443D01*
X154888921Y-130158387D01*
X154878956Y-130179457D01*
X154866974Y-130199448D01*
X154853090Y-130218168D01*
X154837438Y-130235438D01*
X154820168Y-130251090D01*
X154801448Y-130264974D01*
X154781457Y-130276956D01*
X154760387Y-130286921D01*
X154738443Y-130294773D01*
X154715834Y-130300437D01*
X154692779Y-130303856D01*
X154669500Y-130305000D01*
X154194500Y-130305000D01*
X154171221Y-130303856D01*
X154148166Y-130300437D01*
X154125557Y-130294773D01*
X154103613Y-130286921D01*
X154082543Y-130276956D01*
X154062552Y-130264974D01*
X154043832Y-130251090D01*
X154026562Y-130235438D01*
X154010910Y-130218168D01*
X153997026Y-130199448D01*
X153985044Y-130179457D01*
X153975079Y-130158387D01*
X153967227Y-130136443D01*
X153961563Y-130113834D01*
X153958144Y-130090779D01*
X153957000Y-130067500D01*
X153957000Y-129492500D01*
X153958144Y-129469221D01*
X153961563Y-129446166D01*
X153967227Y-129423557D01*
X153975079Y-129401613D01*
X153985044Y-129380543D01*
X153997026Y-129360552D01*
X154010910Y-129341832D01*
X154026562Y-129324562D01*
X154043832Y-129308910D01*
X154062552Y-129295026D01*
X154082543Y-129283044D01*
X154103613Y-129273079D01*
X154125557Y-129265227D01*
X154148166Y-129259563D01*
X154171221Y-129256144D01*
X154194500Y-129255000D01*
X154669500Y-129255000D01*
X154692779Y-129256144D01*
G37*
G36*
X154692779Y-127506144D02*
G01*
X154715834Y-127509563D01*
X154738443Y-127515227D01*
X154760387Y-127523079D01*
X154781457Y-127533044D01*
X154801448Y-127545026D01*
X154820168Y-127558910D01*
X154837438Y-127574562D01*
X154853090Y-127591832D01*
X154866974Y-127610552D01*
X154878956Y-127630543D01*
X154888921Y-127651613D01*
X154896773Y-127673557D01*
X154902437Y-127696166D01*
X154905856Y-127719221D01*
X154907000Y-127742500D01*
X154907000Y-128317500D01*
X154905856Y-128340779D01*
X154902437Y-128363834D01*
X154896773Y-128386443D01*
X154888921Y-128408387D01*
X154878956Y-128429457D01*
X154866974Y-128449448D01*
X154853090Y-128468168D01*
X154837438Y-128485438D01*
X154820168Y-128501090D01*
X154801448Y-128514974D01*
X154781457Y-128526956D01*
X154760387Y-128536921D01*
X154738443Y-128544773D01*
X154715834Y-128550437D01*
X154692779Y-128553856D01*
X154669500Y-128555000D01*
X154194500Y-128555000D01*
X154171221Y-128553856D01*
X154148166Y-128550437D01*
X154125557Y-128544773D01*
X154103613Y-128536921D01*
X154082543Y-128526956D01*
X154062552Y-128514974D01*
X154043832Y-128501090D01*
X154026562Y-128485438D01*
X154010910Y-128468168D01*
X153997026Y-128449448D01*
X153985044Y-128429457D01*
X153975079Y-128408387D01*
X153967227Y-128386443D01*
X153961563Y-128363834D01*
X153958144Y-128340779D01*
X153957000Y-128317500D01*
X153957000Y-127742500D01*
X153958144Y-127719221D01*
X153961563Y-127696166D01*
X153967227Y-127673557D01*
X153975079Y-127651613D01*
X153985044Y-127630543D01*
X153997026Y-127610552D01*
X154010910Y-127591832D01*
X154026562Y-127574562D01*
X154043832Y-127558910D01*
X154062552Y-127545026D01*
X154082543Y-127533044D01*
X154103613Y-127523079D01*
X154125557Y-127515227D01*
X154148166Y-127509563D01*
X154171221Y-127506144D01*
X154194500Y-127505000D01*
X154669500Y-127505000D01*
X154692779Y-127506144D01*
G37*
G36*
X152152779Y-129256144D02*
G01*
X152175834Y-129259563D01*
X152198443Y-129265227D01*
X152220387Y-129273079D01*
X152241457Y-129283044D01*
X152261448Y-129295026D01*
X152280168Y-129308910D01*
X152297438Y-129324562D01*
X152313090Y-129341832D01*
X152326974Y-129360552D01*
X152338956Y-129380543D01*
X152348921Y-129401613D01*
X152356773Y-129423557D01*
X152362437Y-129446166D01*
X152365856Y-129469221D01*
X152367000Y-129492500D01*
X152367000Y-130067500D01*
X152365856Y-130090779D01*
X152362437Y-130113834D01*
X152356773Y-130136443D01*
X152348921Y-130158387D01*
X152338956Y-130179457D01*
X152326974Y-130199448D01*
X152313090Y-130218168D01*
X152297438Y-130235438D01*
X152280168Y-130251090D01*
X152261448Y-130264974D01*
X152241457Y-130276956D01*
X152220387Y-130286921D01*
X152198443Y-130294773D01*
X152175834Y-130300437D01*
X152152779Y-130303856D01*
X152129500Y-130305000D01*
X151654500Y-130305000D01*
X151631221Y-130303856D01*
X151608166Y-130300437D01*
X151585557Y-130294773D01*
X151563613Y-130286921D01*
X151542543Y-130276956D01*
X151522552Y-130264974D01*
X151503832Y-130251090D01*
X151486562Y-130235438D01*
X151470910Y-130218168D01*
X151457026Y-130199448D01*
X151445044Y-130179457D01*
X151435079Y-130158387D01*
X151427227Y-130136443D01*
X151421563Y-130113834D01*
X151418144Y-130090779D01*
X151417000Y-130067500D01*
X151417000Y-129492500D01*
X151418144Y-129469221D01*
X151421563Y-129446166D01*
X151427227Y-129423557D01*
X151435079Y-129401613D01*
X151445044Y-129380543D01*
X151457026Y-129360552D01*
X151470910Y-129341832D01*
X151486562Y-129324562D01*
X151503832Y-129308910D01*
X151522552Y-129295026D01*
X151542543Y-129283044D01*
X151563613Y-129273079D01*
X151585557Y-129265227D01*
X151608166Y-129259563D01*
X151631221Y-129256144D01*
X151654500Y-129255000D01*
X152129500Y-129255000D01*
X152152779Y-129256144D01*
G37*
G36*
X152152779Y-127506144D02*
G01*
X152175834Y-127509563D01*
X152198443Y-127515227D01*
X152220387Y-127523079D01*
X152241457Y-127533044D01*
X152261448Y-127545026D01*
X152280168Y-127558910D01*
X152297438Y-127574562D01*
X152313090Y-127591832D01*
X152326974Y-127610552D01*
X152338956Y-127630543D01*
X152348921Y-127651613D01*
X152356773Y-127673557D01*
X152362437Y-127696166D01*
X152365856Y-127719221D01*
X152367000Y-127742500D01*
X152367000Y-128317500D01*
X152365856Y-128340779D01*
X152362437Y-128363834D01*
X152356773Y-128386443D01*
X152348921Y-128408387D01*
X152338956Y-128429457D01*
X152326974Y-128449448D01*
X152313090Y-128468168D01*
X152297438Y-128485438D01*
X152280168Y-128501090D01*
X152261448Y-128514974D01*
X152241457Y-128526956D01*
X152220387Y-128536921D01*
X152198443Y-128544773D01*
X152175834Y-128550437D01*
X152152779Y-128553856D01*
X152129500Y-128555000D01*
X151654500Y-128555000D01*
X151631221Y-128553856D01*
X151608166Y-128550437D01*
X151585557Y-128544773D01*
X151563613Y-128536921D01*
X151542543Y-128526956D01*
X151522552Y-128514974D01*
X151503832Y-128501090D01*
X151486562Y-128485438D01*
X151470910Y-128468168D01*
X151457026Y-128449448D01*
X151445044Y-128429457D01*
X151435079Y-128408387D01*
X151427227Y-128386443D01*
X151421563Y-128363834D01*
X151418144Y-128340779D01*
X151417000Y-128317500D01*
X151417000Y-127742500D01*
X151418144Y-127719221D01*
X151421563Y-127696166D01*
X151427227Y-127673557D01*
X151435079Y-127651613D01*
X151445044Y-127630543D01*
X151457026Y-127610552D01*
X151470910Y-127591832D01*
X151486562Y-127574562D01*
X151503832Y-127558910D01*
X151522552Y-127545026D01*
X151542543Y-127533044D01*
X151563613Y-127523079D01*
X151585557Y-127515227D01*
X151608166Y-127509563D01*
X151631221Y-127506144D01*
X151654500Y-127505000D01*
X152129500Y-127505000D01*
X152152779Y-127506144D01*
G37*
G36*
X149612779Y-129256144D02*
G01*
X149635834Y-129259563D01*
X149658443Y-129265227D01*
X149680387Y-129273079D01*
X149701457Y-129283044D01*
X149721448Y-129295026D01*
X149740168Y-129308910D01*
X149757438Y-129324562D01*
X149773090Y-129341832D01*
X149786974Y-129360552D01*
X149798956Y-129380543D01*
X149808921Y-129401613D01*
X149816773Y-129423557D01*
X149822437Y-129446166D01*
X149825856Y-129469221D01*
X149827000Y-129492500D01*
X149827000Y-130067500D01*
X149825856Y-130090779D01*
X149822437Y-130113834D01*
X149816773Y-130136443D01*
X149808921Y-130158387D01*
X149798956Y-130179457D01*
X149786974Y-130199448D01*
X149773090Y-130218168D01*
X149757438Y-130235438D01*
X149740168Y-130251090D01*
X149721448Y-130264974D01*
X149701457Y-130276956D01*
X149680387Y-130286921D01*
X149658443Y-130294773D01*
X149635834Y-130300437D01*
X149612779Y-130303856D01*
X149589500Y-130305000D01*
X149114500Y-130305000D01*
X149091221Y-130303856D01*
X149068166Y-130300437D01*
X149045557Y-130294773D01*
X149023613Y-130286921D01*
X149002543Y-130276956D01*
X148982552Y-130264974D01*
X148963832Y-130251090D01*
X148946562Y-130235438D01*
X148930910Y-130218168D01*
X148917026Y-130199448D01*
X148905044Y-130179457D01*
X148895079Y-130158387D01*
X148887227Y-130136443D01*
X148881563Y-130113834D01*
X148878144Y-130090779D01*
X148877000Y-130067500D01*
X148877000Y-129492500D01*
X148878144Y-129469221D01*
X148881563Y-129446166D01*
X148887227Y-129423557D01*
X148895079Y-129401613D01*
X148905044Y-129380543D01*
X148917026Y-129360552D01*
X148930910Y-129341832D01*
X148946562Y-129324562D01*
X148963832Y-129308910D01*
X148982552Y-129295026D01*
X149002543Y-129283044D01*
X149023613Y-129273079D01*
X149045557Y-129265227D01*
X149068166Y-129259563D01*
X149091221Y-129256144D01*
X149114500Y-129255000D01*
X149589500Y-129255000D01*
X149612779Y-129256144D01*
G37*
G36*
X149612779Y-127506144D02*
G01*
X149635834Y-127509563D01*
X149658443Y-127515227D01*
X149680387Y-127523079D01*
X149701457Y-127533044D01*
X149721448Y-127545026D01*
X149740168Y-127558910D01*
X149757438Y-127574562D01*
X149773090Y-127591832D01*
X149786974Y-127610552D01*
X149798956Y-127630543D01*
X149808921Y-127651613D01*
X149816773Y-127673557D01*
X149822437Y-127696166D01*
X149825856Y-127719221D01*
X149827000Y-127742500D01*
X149827000Y-128317500D01*
X149825856Y-128340779D01*
X149822437Y-128363834D01*
X149816773Y-128386443D01*
X149808921Y-128408387D01*
X149798956Y-128429457D01*
X149786974Y-128449448D01*
X149773090Y-128468168D01*
X149757438Y-128485438D01*
X149740168Y-128501090D01*
X149721448Y-128514974D01*
X149701457Y-128526956D01*
X149680387Y-128536921D01*
X149658443Y-128544773D01*
X149635834Y-128550437D01*
X149612779Y-128553856D01*
X149589500Y-128555000D01*
X149114500Y-128555000D01*
X149091221Y-128553856D01*
X149068166Y-128550437D01*
X149045557Y-128544773D01*
X149023613Y-128536921D01*
X149002543Y-128526956D01*
X148982552Y-128514974D01*
X148963832Y-128501090D01*
X148946562Y-128485438D01*
X148930910Y-128468168D01*
X148917026Y-128449448D01*
X148905044Y-128429457D01*
X148895079Y-128408387D01*
X148887227Y-128386443D01*
X148881563Y-128363834D01*
X148878144Y-128340779D01*
X148877000Y-128317500D01*
X148877000Y-127742500D01*
X148878144Y-127719221D01*
X148881563Y-127696166D01*
X148887227Y-127673557D01*
X148895079Y-127651613D01*
X148905044Y-127630543D01*
X148917026Y-127610552D01*
X148930910Y-127591832D01*
X148946562Y-127574562D01*
X148963832Y-127558910D01*
X148982552Y-127545026D01*
X149002543Y-127533044D01*
X149023613Y-127523079D01*
X149045557Y-127515227D01*
X149068166Y-127509563D01*
X149091221Y-127506144D01*
X149114500Y-127505000D01*
X149589500Y-127505000D01*
X149612779Y-127506144D01*
G37*
G36*
X147072779Y-129256144D02*
G01*
X147095834Y-129259563D01*
X147118443Y-129265227D01*
X147140387Y-129273079D01*
X147161457Y-129283044D01*
X147181448Y-129295026D01*
X147200168Y-129308910D01*
X147217438Y-129324562D01*
X147233090Y-129341832D01*
X147246974Y-129360552D01*
X147258956Y-129380543D01*
X147268921Y-129401613D01*
X147276773Y-129423557D01*
X147282437Y-129446166D01*
X147285856Y-129469221D01*
X147287000Y-129492500D01*
X147287000Y-130067500D01*
X147285856Y-130090779D01*
X147282437Y-130113834D01*
X147276773Y-130136443D01*
X147268921Y-130158387D01*
X147258956Y-130179457D01*
X147246974Y-130199448D01*
X147233090Y-130218168D01*
X147217438Y-130235438D01*
X147200168Y-130251090D01*
X147181448Y-130264974D01*
X147161457Y-130276956D01*
X147140387Y-130286921D01*
X147118443Y-130294773D01*
X147095834Y-130300437D01*
X147072779Y-130303856D01*
X147049500Y-130305000D01*
X146574500Y-130305000D01*
X146551221Y-130303856D01*
X146528166Y-130300437D01*
X146505557Y-130294773D01*
X146483613Y-130286921D01*
X146462543Y-130276956D01*
X146442552Y-130264974D01*
X146423832Y-130251090D01*
X146406562Y-130235438D01*
X146390910Y-130218168D01*
X146377026Y-130199448D01*
X146365044Y-130179457D01*
X146355079Y-130158387D01*
X146347227Y-130136443D01*
X146341563Y-130113834D01*
X146338144Y-130090779D01*
X146337000Y-130067500D01*
X146337000Y-129492500D01*
X146338144Y-129469221D01*
X146341563Y-129446166D01*
X146347227Y-129423557D01*
X146355079Y-129401613D01*
X146365044Y-129380543D01*
X146377026Y-129360552D01*
X146390910Y-129341832D01*
X146406562Y-129324562D01*
X146423832Y-129308910D01*
X146442552Y-129295026D01*
X146462543Y-129283044D01*
X146483613Y-129273079D01*
X146505557Y-129265227D01*
X146528166Y-129259563D01*
X146551221Y-129256144D01*
X146574500Y-129255000D01*
X147049500Y-129255000D01*
X147072779Y-129256144D01*
G37*
G36*
X147072779Y-127506144D02*
G01*
X147095834Y-127509563D01*
X147118443Y-127515227D01*
X147140387Y-127523079D01*
X147161457Y-127533044D01*
X147181448Y-127545026D01*
X147200168Y-127558910D01*
X147217438Y-127574562D01*
X147233090Y-127591832D01*
X147246974Y-127610552D01*
X147258956Y-127630543D01*
X147268921Y-127651613D01*
X147276773Y-127673557D01*
X147282437Y-127696166D01*
X147285856Y-127719221D01*
X147287000Y-127742500D01*
X147287000Y-128317500D01*
X147285856Y-128340779D01*
X147282437Y-128363834D01*
X147276773Y-128386443D01*
X147268921Y-128408387D01*
X147258956Y-128429457D01*
X147246974Y-128449448D01*
X147233090Y-128468168D01*
X147217438Y-128485438D01*
X147200168Y-128501090D01*
X147181448Y-128514974D01*
X147161457Y-128526956D01*
X147140387Y-128536921D01*
X147118443Y-128544773D01*
X147095834Y-128550437D01*
X147072779Y-128553856D01*
X147049500Y-128555000D01*
X146574500Y-128555000D01*
X146551221Y-128553856D01*
X146528166Y-128550437D01*
X146505557Y-128544773D01*
X146483613Y-128536921D01*
X146462543Y-128526956D01*
X146442552Y-128514974D01*
X146423832Y-128501090D01*
X146406562Y-128485438D01*
X146390910Y-128468168D01*
X146377026Y-128449448D01*
X146365044Y-128429457D01*
X146355079Y-128408387D01*
X146347227Y-128386443D01*
X146341563Y-128363834D01*
X146338144Y-128340779D01*
X146337000Y-128317500D01*
X146337000Y-127742500D01*
X146338144Y-127719221D01*
X146341563Y-127696166D01*
X146347227Y-127673557D01*
X146355079Y-127651613D01*
X146365044Y-127630543D01*
X146377026Y-127610552D01*
X146390910Y-127591832D01*
X146406562Y-127574562D01*
X146423832Y-127558910D01*
X146442552Y-127545026D01*
X146462543Y-127533044D01*
X146483613Y-127523079D01*
X146505557Y-127515227D01*
X146528166Y-127509563D01*
X146551221Y-127506144D01*
X146574500Y-127505000D01*
X147049500Y-127505000D01*
X147072779Y-127506144D01*
G37*
G36*
X144532779Y-129256144D02*
G01*
X144555834Y-129259563D01*
X144578443Y-129265227D01*
X144600387Y-129273079D01*
X144621457Y-129283044D01*
X144641448Y-129295026D01*
X144660168Y-129308910D01*
X144677438Y-129324562D01*
X144693090Y-129341832D01*
X144706974Y-129360552D01*
X144718956Y-129380543D01*
X144728921Y-129401613D01*
X144736773Y-129423557D01*
X144742437Y-129446166D01*
X144745856Y-129469221D01*
X144747000Y-129492500D01*
X144747000Y-130067500D01*
X144745856Y-130090779D01*
X144742437Y-130113834D01*
X144736773Y-130136443D01*
X144728921Y-130158387D01*
X144718956Y-130179457D01*
X144706974Y-130199448D01*
X144693090Y-130218168D01*
X144677438Y-130235438D01*
X144660168Y-130251090D01*
X144641448Y-130264974D01*
X144621457Y-130276956D01*
X144600387Y-130286921D01*
X144578443Y-130294773D01*
X144555834Y-130300437D01*
X144532779Y-130303856D01*
X144509500Y-130305000D01*
X144034500Y-130305000D01*
X144011221Y-130303856D01*
X143988166Y-130300437D01*
X143965557Y-130294773D01*
X143943613Y-130286921D01*
X143922543Y-130276956D01*
X143902552Y-130264974D01*
X143883832Y-130251090D01*
X143866562Y-130235438D01*
X143850910Y-130218168D01*
X143837026Y-130199448D01*
X143825044Y-130179457D01*
X143815079Y-130158387D01*
X143807227Y-130136443D01*
X143801563Y-130113834D01*
X143798144Y-130090779D01*
X143797000Y-130067500D01*
X143797000Y-129492500D01*
X143798144Y-129469221D01*
X143801563Y-129446166D01*
X143807227Y-129423557D01*
X143815079Y-129401613D01*
X143825044Y-129380543D01*
X143837026Y-129360552D01*
X143850910Y-129341832D01*
X143866562Y-129324562D01*
X143883832Y-129308910D01*
X143902552Y-129295026D01*
X143922543Y-129283044D01*
X143943613Y-129273079D01*
X143965557Y-129265227D01*
X143988166Y-129259563D01*
X144011221Y-129256144D01*
X144034500Y-129255000D01*
X144509500Y-129255000D01*
X144532779Y-129256144D01*
G37*
G36*
X144532779Y-127506144D02*
G01*
X144555834Y-127509563D01*
X144578443Y-127515227D01*
X144600387Y-127523079D01*
X144621457Y-127533044D01*
X144641448Y-127545026D01*
X144660168Y-127558910D01*
X144677438Y-127574562D01*
X144693090Y-127591832D01*
X144706974Y-127610552D01*
X144718956Y-127630543D01*
X144728921Y-127651613D01*
X144736773Y-127673557D01*
X144742437Y-127696166D01*
X144745856Y-127719221D01*
X144747000Y-127742500D01*
X144747000Y-128317500D01*
X144745856Y-128340779D01*
X144742437Y-128363834D01*
X144736773Y-128386443D01*
X144728921Y-128408387D01*
X144718956Y-128429457D01*
X144706974Y-128449448D01*
X144693090Y-128468168D01*
X144677438Y-128485438D01*
X144660168Y-128501090D01*
X144641448Y-128514974D01*
X144621457Y-128526956D01*
X144600387Y-128536921D01*
X144578443Y-128544773D01*
X144555834Y-128550437D01*
X144532779Y-128553856D01*
X144509500Y-128555000D01*
X144034500Y-128555000D01*
X144011221Y-128553856D01*
X143988166Y-128550437D01*
X143965557Y-128544773D01*
X143943613Y-128536921D01*
X143922543Y-128526956D01*
X143902552Y-128514974D01*
X143883832Y-128501090D01*
X143866562Y-128485438D01*
X143850910Y-128468168D01*
X143837026Y-128449448D01*
X143825044Y-128429457D01*
X143815079Y-128408387D01*
X143807227Y-128386443D01*
X143801563Y-128363834D01*
X143798144Y-128340779D01*
X143797000Y-128317500D01*
X143797000Y-127742500D01*
X143798144Y-127719221D01*
X143801563Y-127696166D01*
X143807227Y-127673557D01*
X143815079Y-127651613D01*
X143825044Y-127630543D01*
X143837026Y-127610552D01*
X143850910Y-127591832D01*
X143866562Y-127574562D01*
X143883832Y-127558910D01*
X143902552Y-127545026D01*
X143922543Y-127533044D01*
X143943613Y-127523079D01*
X143965557Y-127515227D01*
X143988166Y-127509563D01*
X144011221Y-127506144D01*
X144034500Y-127505000D01*
X144509500Y-127505000D01*
X144532779Y-127506144D01*
G37*
G36*
X141992779Y-129256144D02*
G01*
X142015834Y-129259563D01*
X142038443Y-129265227D01*
X142060387Y-129273079D01*
X142081457Y-129283044D01*
X142101448Y-129295026D01*
X142120168Y-129308910D01*
X142137438Y-129324562D01*
X142153090Y-129341832D01*
X142166974Y-129360552D01*
X142178956Y-129380543D01*
X142188921Y-129401613D01*
X142196773Y-129423557D01*
X142202437Y-129446166D01*
X142205856Y-129469221D01*
X142207000Y-129492500D01*
X142207000Y-130067500D01*
X142205856Y-130090779D01*
X142202437Y-130113834D01*
X142196773Y-130136443D01*
X142188921Y-130158387D01*
X142178956Y-130179457D01*
X142166974Y-130199448D01*
X142153090Y-130218168D01*
X142137438Y-130235438D01*
X142120168Y-130251090D01*
X142101448Y-130264974D01*
X142081457Y-130276956D01*
X142060387Y-130286921D01*
X142038443Y-130294773D01*
X142015834Y-130300437D01*
X141992779Y-130303856D01*
X141969500Y-130305000D01*
X141494500Y-130305000D01*
X141471221Y-130303856D01*
X141448166Y-130300437D01*
X141425557Y-130294773D01*
X141403613Y-130286921D01*
X141382543Y-130276956D01*
X141362552Y-130264974D01*
X141343832Y-130251090D01*
X141326562Y-130235438D01*
X141310910Y-130218168D01*
X141297026Y-130199448D01*
X141285044Y-130179457D01*
X141275079Y-130158387D01*
X141267227Y-130136443D01*
X141261563Y-130113834D01*
X141258144Y-130090779D01*
X141257000Y-130067500D01*
X141257000Y-129492500D01*
X141258144Y-129469221D01*
X141261563Y-129446166D01*
X141267227Y-129423557D01*
X141275079Y-129401613D01*
X141285044Y-129380543D01*
X141297026Y-129360552D01*
X141310910Y-129341832D01*
X141326562Y-129324562D01*
X141343832Y-129308910D01*
X141362552Y-129295026D01*
X141382543Y-129283044D01*
X141403613Y-129273079D01*
X141425557Y-129265227D01*
X141448166Y-129259563D01*
X141471221Y-129256144D01*
X141494500Y-129255000D01*
X141969500Y-129255000D01*
X141992779Y-129256144D01*
G37*
G36*
X141992779Y-127506144D02*
G01*
X142015834Y-127509563D01*
X142038443Y-127515227D01*
X142060387Y-127523079D01*
X142081457Y-127533044D01*
X142101448Y-127545026D01*
X142120168Y-127558910D01*
X142137438Y-127574562D01*
X142153090Y-127591832D01*
X142166974Y-127610552D01*
X142178956Y-127630543D01*
X142188921Y-127651613D01*
X142196773Y-127673557D01*
X142202437Y-127696166D01*
X142205856Y-127719221D01*
X142207000Y-127742500D01*
X142207000Y-128317500D01*
X142205856Y-128340779D01*
X142202437Y-128363834D01*
X142196773Y-128386443D01*
X142188921Y-128408387D01*
X142178956Y-128429457D01*
X142166974Y-128449448D01*
X142153090Y-128468168D01*
X142137438Y-128485438D01*
X142120168Y-128501090D01*
X142101448Y-128514974D01*
X142081457Y-128526956D01*
X142060387Y-128536921D01*
X142038443Y-128544773D01*
X142015834Y-128550437D01*
X141992779Y-128553856D01*
X141969500Y-128555000D01*
X141494500Y-128555000D01*
X141471221Y-128553856D01*
X141448166Y-128550437D01*
X141425557Y-128544773D01*
X141403613Y-128536921D01*
X141382543Y-128526956D01*
X141362552Y-128514974D01*
X141343832Y-128501090D01*
X141326562Y-128485438D01*
X141310910Y-128468168D01*
X141297026Y-128449448D01*
X141285044Y-128429457D01*
X141275079Y-128408387D01*
X141267227Y-128386443D01*
X141261563Y-128363834D01*
X141258144Y-128340779D01*
X141257000Y-128317500D01*
X141257000Y-127742500D01*
X141258144Y-127719221D01*
X141261563Y-127696166D01*
X141267227Y-127673557D01*
X141275079Y-127651613D01*
X141285044Y-127630543D01*
X141297026Y-127610552D01*
X141310910Y-127591832D01*
X141326562Y-127574562D01*
X141343832Y-127558910D01*
X141362552Y-127545026D01*
X141382543Y-127533044D01*
X141403613Y-127523079D01*
X141425557Y-127515227D01*
X141448166Y-127509563D01*
X141471221Y-127506144D01*
X141494500Y-127505000D01*
X141969500Y-127505000D01*
X141992779Y-127506144D01*
G37*
G36*
X139452779Y-129256144D02*
G01*
X139475834Y-129259563D01*
X139498443Y-129265227D01*
X139520387Y-129273079D01*
X139541457Y-129283044D01*
X139561448Y-129295026D01*
X139580168Y-129308910D01*
X139597438Y-129324562D01*
X139613090Y-129341832D01*
X139626974Y-129360552D01*
X139638956Y-129380543D01*
X139648921Y-129401613D01*
X139656773Y-129423557D01*
X139662437Y-129446166D01*
X139665856Y-129469221D01*
X139667000Y-129492500D01*
X139667000Y-130067500D01*
X139665856Y-130090779D01*
X139662437Y-130113834D01*
X139656773Y-130136443D01*
X139648921Y-130158387D01*
X139638956Y-130179457D01*
X139626974Y-130199448D01*
X139613090Y-130218168D01*
X139597438Y-130235438D01*
X139580168Y-130251090D01*
X139561448Y-130264974D01*
X139541457Y-130276956D01*
X139520387Y-130286921D01*
X139498443Y-130294773D01*
X139475834Y-130300437D01*
X139452779Y-130303856D01*
X139429500Y-130305000D01*
X138954500Y-130305000D01*
X138931221Y-130303856D01*
X138908166Y-130300437D01*
X138885557Y-130294773D01*
X138863613Y-130286921D01*
X138842543Y-130276956D01*
X138822552Y-130264974D01*
X138803832Y-130251090D01*
X138786562Y-130235438D01*
X138770910Y-130218168D01*
X138757026Y-130199448D01*
X138745044Y-130179457D01*
X138735079Y-130158387D01*
X138727227Y-130136443D01*
X138721563Y-130113834D01*
X138718144Y-130090779D01*
X138717000Y-130067500D01*
X138717000Y-129492500D01*
X138718144Y-129469221D01*
X138721563Y-129446166D01*
X138727227Y-129423557D01*
X138735079Y-129401613D01*
X138745044Y-129380543D01*
X138757026Y-129360552D01*
X138770910Y-129341832D01*
X138786562Y-129324562D01*
X138803832Y-129308910D01*
X138822552Y-129295026D01*
X138842543Y-129283044D01*
X138863613Y-129273079D01*
X138885557Y-129265227D01*
X138908166Y-129259563D01*
X138931221Y-129256144D01*
X138954500Y-129255000D01*
X139429500Y-129255000D01*
X139452779Y-129256144D01*
G37*
G36*
X139452779Y-127506144D02*
G01*
X139475834Y-127509563D01*
X139498443Y-127515227D01*
X139520387Y-127523079D01*
X139541457Y-127533044D01*
X139561448Y-127545026D01*
X139580168Y-127558910D01*
X139597438Y-127574562D01*
X139613090Y-127591832D01*
X139626974Y-127610552D01*
X139638956Y-127630543D01*
X139648921Y-127651613D01*
X139656773Y-127673557D01*
X139662437Y-127696166D01*
X139665856Y-127719221D01*
X139667000Y-127742500D01*
X139667000Y-128317500D01*
X139665856Y-128340779D01*
X139662437Y-128363834D01*
X139656773Y-128386443D01*
X139648921Y-128408387D01*
X139638956Y-128429457D01*
X139626974Y-128449448D01*
X139613090Y-128468168D01*
X139597438Y-128485438D01*
X139580168Y-128501090D01*
X139561448Y-128514974D01*
X139541457Y-128526956D01*
X139520387Y-128536921D01*
X139498443Y-128544773D01*
X139475834Y-128550437D01*
X139452779Y-128553856D01*
X139429500Y-128555000D01*
X138954500Y-128555000D01*
X138931221Y-128553856D01*
X138908166Y-128550437D01*
X138885557Y-128544773D01*
X138863613Y-128536921D01*
X138842543Y-128526956D01*
X138822552Y-128514974D01*
X138803832Y-128501090D01*
X138786562Y-128485438D01*
X138770910Y-128468168D01*
X138757026Y-128449448D01*
X138745044Y-128429457D01*
X138735079Y-128408387D01*
X138727227Y-128386443D01*
X138721563Y-128363834D01*
X138718144Y-128340779D01*
X138717000Y-128317500D01*
X138717000Y-127742500D01*
X138718144Y-127719221D01*
X138721563Y-127696166D01*
X138727227Y-127673557D01*
X138735079Y-127651613D01*
X138745044Y-127630543D01*
X138757026Y-127610552D01*
X138770910Y-127591832D01*
X138786562Y-127574562D01*
X138803832Y-127558910D01*
X138822552Y-127545026D01*
X138842543Y-127533044D01*
X138863613Y-127523079D01*
X138885557Y-127515227D01*
X138908166Y-127509563D01*
X138931221Y-127506144D01*
X138954500Y-127505000D01*
X139429500Y-127505000D01*
X139452779Y-127506144D01*
G37*
M02*
