G04 #@! TF.GenerationSoftware,KiCad,Pcbnew,5.1.7-a382d34a8~88~ubuntu20.04.1*
G04 #@! TF.CreationDate,2020-12-18T13:14:18-06:00*
G04 #@! TF.ProjectId,VGA,5647412e-6b69-4636-9164-5f7063625858,1.1*
G04 #@! TF.SameCoordinates,Original*
G04 #@! TF.FileFunction,Soldermask,Bot*
G04 #@! TF.FilePolarity,Negative*
%FSLAX46Y46*%
G04 Gerber Fmt 4.6, Leading zero omitted, Abs format (unit mm)*
G04 Created by KiCad (PCBNEW 5.1.7-a382d34a8~88~ubuntu20.04.1) date 2020-12-18 13:14:18*
%MOMM*%
%LPD*%
G01*
G04 APERTURE LIST*
G04 #@! TA.AperFunction,Profile*
%ADD10C,0.050000*%
G04 #@! TD*
%ADD11C,6.102000*%
%ADD12O,1.802000X2.602000*%
%ADD13C,1.702000*%
G04 APERTURE END LIST*
D10*
X139065000Y-123190000D02*
G75*
G02*
X137160000Y-125095000I-1905000J0D01*
G01*
X134620000Y-127635000D02*
G75*
G02*
X137160000Y-125095000I2540000J0D01*
G01*
X173990000Y-125095000D02*
G75*
G02*
X172085000Y-123190000I0J1905000D01*
G01*
X134620000Y-133985000D02*
X134620000Y-127635000D01*
X173990000Y-125095000D02*
G75*
G02*
X176530000Y-127635000I0J-2540000D01*
G01*
X176530000Y-133985000D02*
X176530000Y-127635000D01*
X139065000Y-109220000D02*
G75*
G02*
X141605000Y-106680000I2540000J0D01*
G01*
X169545000Y-106680000D02*
G75*
G02*
X172085000Y-109220000I0J-2540000D01*
G01*
X176530000Y-133985000D02*
G75*
G02*
X175895000Y-134620000I-635000J0D01*
G01*
X135255000Y-134620000D02*
G75*
G02*
X134620000Y-133985000I0J635000D01*
G01*
X139065000Y-109220000D02*
X139065000Y-123190000D01*
X169545000Y-106680000D02*
X141605000Y-106680000D01*
X172085000Y-123190000D02*
X172085000Y-109220000D01*
X135255000Y-134620000D02*
X175895000Y-134620000D01*
X139065000Y-123190000D02*
G75*
G02*
X137160000Y-125095000I-1905000J0D01*
G01*
X134620000Y-127635000D02*
G75*
G02*
X137160000Y-125095000I2540000J0D01*
G01*
X173990000Y-125095000D02*
G75*
G02*
X172085000Y-123190000I0J1905000D01*
G01*
X134620000Y-133985000D02*
X134620000Y-127635000D01*
X173990000Y-125095000D02*
G75*
G02*
X176530000Y-127635000I0J-2540000D01*
G01*
X176530000Y-133985000D02*
X176530000Y-127635000D01*
X139065000Y-109220000D02*
G75*
G02*
X141605000Y-106680000I2540000J0D01*
G01*
X169545000Y-106680000D02*
G75*
G02*
X172085000Y-109220000I0J-2540000D01*
G01*
X176530000Y-133985000D02*
G75*
G02*
X175895000Y-134620000I-635000J0D01*
G01*
X135255000Y-134620000D02*
G75*
G02*
X134620000Y-133985000I0J635000D01*
G01*
X139065000Y-109220000D02*
X139065000Y-123190000D01*
X169545000Y-106680000D02*
X141605000Y-106680000D01*
X172085000Y-123190000D02*
X172085000Y-109220000D01*
X135255000Y-134620000D02*
X175895000Y-134620000D01*
D11*
X168148000Y-118872000D03*
X143256000Y-118872000D03*
D12*
X136652000Y-132080000D03*
X139192000Y-132080000D03*
X141732000Y-132080000D03*
X144272000Y-132080000D03*
X146812000Y-132080000D03*
X149352000Y-132080000D03*
X151892000Y-132080000D03*
X154432000Y-132080000D03*
X156972000Y-132080000D03*
X159512000Y-132080000D03*
X162052000Y-132080000D03*
X164592000Y-132080000D03*
X167132000Y-132080000D03*
X169672000Y-132080000D03*
X172212000Y-132080000D03*
X174752000Y-132080000D03*
G36*
G01*
X151981000Y-120612000D02*
X151981000Y-122212000D01*
G75*
G02*
X151930000Y-122263000I-51000J0D01*
G01*
X150330000Y-122263000D01*
G75*
G02*
X150279000Y-122212000I0J51000D01*
G01*
X150279000Y-120612000D01*
G75*
G02*
X150330000Y-120561000I51000J0D01*
G01*
X151930000Y-120561000D01*
G75*
G02*
X151981000Y-120612000I0J-51000D01*
G01*
G37*
D13*
X153420000Y-121412000D03*
X155710000Y-121412000D03*
X158000000Y-121412000D03*
X160290000Y-121412000D03*
X149985000Y-118872000D03*
X152275000Y-118872000D03*
X154565000Y-118872000D03*
X156855000Y-118872000D03*
X159145000Y-118872000D03*
X151130000Y-116332000D03*
X153420000Y-116332000D03*
X155710000Y-116332000D03*
X158000000Y-116332000D03*
X160290000Y-116332000D03*
M02*
