G04 #@! TF.GenerationSoftware,KiCad,Pcbnew,5.1.7-a382d34a8~88~ubuntu20.04.1*
G04 #@! TF.CreationDate,2020-12-18T13:14:18-06:00*
G04 #@! TF.ProjectId,VGA,5647412e-6b69-4636-9164-5f7063625858,1.1*
G04 #@! TF.SameCoordinates,Original*
G04 #@! TF.FileFunction,Soldermask,Top*
G04 #@! TF.FilePolarity,Negative*
%FSLAX46Y46*%
G04 Gerber Fmt 4.6, Leading zero omitted, Abs format (unit mm)*
G04 Created by KiCad (PCBNEW 5.1.7-a382d34a8~88~ubuntu20.04.1) date 2020-12-18 13:14:18*
%MOMM*%
%LPD*%
G01*
G04 APERTURE LIST*
G04 #@! TA.AperFunction,Profile*
%ADD10C,0.050000*%
G04 #@! TD*
%ADD11C,6.102000*%
%ADD12O,1.802000X2.602000*%
%ADD13C,1.702000*%
G04 APERTURE END LIST*
D10*
X139065000Y-123190000D02*
G75*
G02*
X137160000Y-125095000I-1905000J0D01*
G01*
X134620000Y-127635000D02*
G75*
G02*
X137160000Y-125095000I2540000J0D01*
G01*
X173990000Y-125095000D02*
G75*
G02*
X172085000Y-123190000I0J1905000D01*
G01*
X134620000Y-133985000D02*
X134620000Y-127635000D01*
X173990000Y-125095000D02*
G75*
G02*
X176530000Y-127635000I0J-2540000D01*
G01*
X176530000Y-133985000D02*
X176530000Y-127635000D01*
X139065000Y-109220000D02*
G75*
G02*
X141605000Y-106680000I2540000J0D01*
G01*
X169545000Y-106680000D02*
G75*
G02*
X172085000Y-109220000I0J-2540000D01*
G01*
X176530000Y-133985000D02*
G75*
G02*
X175895000Y-134620000I-635000J0D01*
G01*
X135255000Y-134620000D02*
G75*
G02*
X134620000Y-133985000I0J635000D01*
G01*
X139065000Y-109220000D02*
X139065000Y-123190000D01*
X169545000Y-106680000D02*
X141605000Y-106680000D01*
X172085000Y-123190000D02*
X172085000Y-109220000D01*
X135255000Y-134620000D02*
X175895000Y-134620000D01*
X139065000Y-123190000D02*
G75*
G02*
X137160000Y-125095000I-1905000J0D01*
G01*
X134620000Y-127635000D02*
G75*
G02*
X137160000Y-125095000I2540000J0D01*
G01*
X173990000Y-125095000D02*
G75*
G02*
X172085000Y-123190000I0J1905000D01*
G01*
X134620000Y-133985000D02*
X134620000Y-127635000D01*
X173990000Y-125095000D02*
G75*
G02*
X176530000Y-127635000I0J-2540000D01*
G01*
X176530000Y-133985000D02*
X176530000Y-127635000D01*
X139065000Y-109220000D02*
G75*
G02*
X141605000Y-106680000I2540000J0D01*
G01*
X169545000Y-106680000D02*
G75*
G02*
X172085000Y-109220000I0J-2540000D01*
G01*
X176530000Y-133985000D02*
G75*
G02*
X175895000Y-134620000I-635000J0D01*
G01*
X135255000Y-134620000D02*
G75*
G02*
X134620000Y-133985000I0J635000D01*
G01*
X139065000Y-109220000D02*
X139065000Y-123190000D01*
X169545000Y-106680000D02*
X141605000Y-106680000D01*
X172085000Y-123190000D02*
X172085000Y-109220000D01*
X135255000Y-134620000D02*
X175895000Y-134620000D01*
D11*
X168148000Y-118872000D03*
X143256000Y-118872000D03*
D12*
X136652000Y-132080000D03*
X139192000Y-132080000D03*
X141732000Y-132080000D03*
X144272000Y-132080000D03*
X146812000Y-132080000D03*
X149352000Y-132080000D03*
X151892000Y-132080000D03*
X154432000Y-132080000D03*
X156972000Y-132080000D03*
X159512000Y-132080000D03*
X162052000Y-132080000D03*
X164592000Y-132080000D03*
X167132000Y-132080000D03*
X169672000Y-132080000D03*
X172212000Y-132080000D03*
X174752000Y-132080000D03*
G36*
G01*
X151981000Y-120612000D02*
X151981000Y-122212000D01*
G75*
G02*
X151930000Y-122263000I-51000J0D01*
G01*
X150330000Y-122263000D01*
G75*
G02*
X150279000Y-122212000I0J51000D01*
G01*
X150279000Y-120612000D01*
G75*
G02*
X150330000Y-120561000I51000J0D01*
G01*
X151930000Y-120561000D01*
G75*
G02*
X151981000Y-120612000I0J-51000D01*
G01*
G37*
D13*
X153420000Y-121412000D03*
X155710000Y-121412000D03*
X158000000Y-121412000D03*
X160290000Y-121412000D03*
X149985000Y-118872000D03*
X152275000Y-118872000D03*
X154565000Y-118872000D03*
X156855000Y-118872000D03*
X159145000Y-118872000D03*
X151130000Y-116332000D03*
X153420000Y-116332000D03*
X155710000Y-116332000D03*
X158000000Y-116332000D03*
X160290000Y-116332000D03*
G36*
G01*
X171949000Y-129202000D02*
X172475000Y-129202000D01*
G75*
G02*
X172738000Y-129465000I0J-263000D01*
G01*
X172738000Y-130091000D01*
G75*
G02*
X172475000Y-130354000I-263000J0D01*
G01*
X171949000Y-130354000D01*
G75*
G02*
X171686000Y-130091000I0J263000D01*
G01*
X171686000Y-129465000D01*
G75*
G02*
X171949000Y-129202000I263000J0D01*
G01*
G37*
G36*
G01*
X171949000Y-127452000D02*
X172475000Y-127452000D01*
G75*
G02*
X172738000Y-127715000I0J-263000D01*
G01*
X172738000Y-128341000D01*
G75*
G02*
X172475000Y-128604000I-263000J0D01*
G01*
X171949000Y-128604000D01*
G75*
G02*
X171686000Y-128341000I0J263000D01*
G01*
X171686000Y-127715000D01*
G75*
G02*
X171949000Y-127452000I263000J0D01*
G01*
G37*
G36*
G01*
X169409000Y-129204000D02*
X169935000Y-129204000D01*
G75*
G02*
X170198000Y-129467000I0J-263000D01*
G01*
X170198000Y-130093000D01*
G75*
G02*
X169935000Y-130356000I-263000J0D01*
G01*
X169409000Y-130356000D01*
G75*
G02*
X169146000Y-130093000I0J263000D01*
G01*
X169146000Y-129467000D01*
G75*
G02*
X169409000Y-129204000I263000J0D01*
G01*
G37*
G36*
G01*
X169409000Y-127454000D02*
X169935000Y-127454000D01*
G75*
G02*
X170198000Y-127717000I0J-263000D01*
G01*
X170198000Y-128343000D01*
G75*
G02*
X169935000Y-128606000I-263000J0D01*
G01*
X169409000Y-128606000D01*
G75*
G02*
X169146000Y-128343000I0J263000D01*
G01*
X169146000Y-127717000D01*
G75*
G02*
X169409000Y-127454000I263000J0D01*
G01*
G37*
G36*
G01*
X166869000Y-129204000D02*
X167395000Y-129204000D01*
G75*
G02*
X167658000Y-129467000I0J-263000D01*
G01*
X167658000Y-130093000D01*
G75*
G02*
X167395000Y-130356000I-263000J0D01*
G01*
X166869000Y-130356000D01*
G75*
G02*
X166606000Y-130093000I0J263000D01*
G01*
X166606000Y-129467000D01*
G75*
G02*
X166869000Y-129204000I263000J0D01*
G01*
G37*
G36*
G01*
X166869000Y-127454000D02*
X167395000Y-127454000D01*
G75*
G02*
X167658000Y-127717000I0J-263000D01*
G01*
X167658000Y-128343000D01*
G75*
G02*
X167395000Y-128606000I-263000J0D01*
G01*
X166869000Y-128606000D01*
G75*
G02*
X166606000Y-128343000I0J263000D01*
G01*
X166606000Y-127717000D01*
G75*
G02*
X166869000Y-127454000I263000J0D01*
G01*
G37*
G36*
G01*
X164329000Y-129204000D02*
X164855000Y-129204000D01*
G75*
G02*
X165118000Y-129467000I0J-263000D01*
G01*
X165118000Y-130093000D01*
G75*
G02*
X164855000Y-130356000I-263000J0D01*
G01*
X164329000Y-130356000D01*
G75*
G02*
X164066000Y-130093000I0J263000D01*
G01*
X164066000Y-129467000D01*
G75*
G02*
X164329000Y-129204000I263000J0D01*
G01*
G37*
G36*
G01*
X164329000Y-127454000D02*
X164855000Y-127454000D01*
G75*
G02*
X165118000Y-127717000I0J-263000D01*
G01*
X165118000Y-128343000D01*
G75*
G02*
X164855000Y-128606000I-263000J0D01*
G01*
X164329000Y-128606000D01*
G75*
G02*
X164066000Y-128343000I0J263000D01*
G01*
X164066000Y-127717000D01*
G75*
G02*
X164329000Y-127454000I263000J0D01*
G01*
G37*
G36*
G01*
X161789000Y-129204000D02*
X162315000Y-129204000D01*
G75*
G02*
X162578000Y-129467000I0J-263000D01*
G01*
X162578000Y-130093000D01*
G75*
G02*
X162315000Y-130356000I-263000J0D01*
G01*
X161789000Y-130356000D01*
G75*
G02*
X161526000Y-130093000I0J263000D01*
G01*
X161526000Y-129467000D01*
G75*
G02*
X161789000Y-129204000I263000J0D01*
G01*
G37*
G36*
G01*
X161789000Y-127454000D02*
X162315000Y-127454000D01*
G75*
G02*
X162578000Y-127717000I0J-263000D01*
G01*
X162578000Y-128343000D01*
G75*
G02*
X162315000Y-128606000I-263000J0D01*
G01*
X161789000Y-128606000D01*
G75*
G02*
X161526000Y-128343000I0J263000D01*
G01*
X161526000Y-127717000D01*
G75*
G02*
X161789000Y-127454000I263000J0D01*
G01*
G37*
G36*
G01*
X159249000Y-129204000D02*
X159775000Y-129204000D01*
G75*
G02*
X160038000Y-129467000I0J-263000D01*
G01*
X160038000Y-130093000D01*
G75*
G02*
X159775000Y-130356000I-263000J0D01*
G01*
X159249000Y-130356000D01*
G75*
G02*
X158986000Y-130093000I0J263000D01*
G01*
X158986000Y-129467000D01*
G75*
G02*
X159249000Y-129204000I263000J0D01*
G01*
G37*
G36*
G01*
X159249000Y-127454000D02*
X159775000Y-127454000D01*
G75*
G02*
X160038000Y-127717000I0J-263000D01*
G01*
X160038000Y-128343000D01*
G75*
G02*
X159775000Y-128606000I-263000J0D01*
G01*
X159249000Y-128606000D01*
G75*
G02*
X158986000Y-128343000I0J263000D01*
G01*
X158986000Y-127717000D01*
G75*
G02*
X159249000Y-127454000I263000J0D01*
G01*
G37*
G36*
G01*
X156709000Y-129204000D02*
X157235000Y-129204000D01*
G75*
G02*
X157498000Y-129467000I0J-263000D01*
G01*
X157498000Y-130093000D01*
G75*
G02*
X157235000Y-130356000I-263000J0D01*
G01*
X156709000Y-130356000D01*
G75*
G02*
X156446000Y-130093000I0J263000D01*
G01*
X156446000Y-129467000D01*
G75*
G02*
X156709000Y-129204000I263000J0D01*
G01*
G37*
G36*
G01*
X156709000Y-127454000D02*
X157235000Y-127454000D01*
G75*
G02*
X157498000Y-127717000I0J-263000D01*
G01*
X157498000Y-128343000D01*
G75*
G02*
X157235000Y-128606000I-263000J0D01*
G01*
X156709000Y-128606000D01*
G75*
G02*
X156446000Y-128343000I0J263000D01*
G01*
X156446000Y-127717000D01*
G75*
G02*
X156709000Y-127454000I263000J0D01*
G01*
G37*
G36*
G01*
X154169000Y-129204000D02*
X154695000Y-129204000D01*
G75*
G02*
X154958000Y-129467000I0J-263000D01*
G01*
X154958000Y-130093000D01*
G75*
G02*
X154695000Y-130356000I-263000J0D01*
G01*
X154169000Y-130356000D01*
G75*
G02*
X153906000Y-130093000I0J263000D01*
G01*
X153906000Y-129467000D01*
G75*
G02*
X154169000Y-129204000I263000J0D01*
G01*
G37*
G36*
G01*
X154169000Y-127454000D02*
X154695000Y-127454000D01*
G75*
G02*
X154958000Y-127717000I0J-263000D01*
G01*
X154958000Y-128343000D01*
G75*
G02*
X154695000Y-128606000I-263000J0D01*
G01*
X154169000Y-128606000D01*
G75*
G02*
X153906000Y-128343000I0J263000D01*
G01*
X153906000Y-127717000D01*
G75*
G02*
X154169000Y-127454000I263000J0D01*
G01*
G37*
G36*
G01*
X151629000Y-129204000D02*
X152155000Y-129204000D01*
G75*
G02*
X152418000Y-129467000I0J-263000D01*
G01*
X152418000Y-130093000D01*
G75*
G02*
X152155000Y-130356000I-263000J0D01*
G01*
X151629000Y-130356000D01*
G75*
G02*
X151366000Y-130093000I0J263000D01*
G01*
X151366000Y-129467000D01*
G75*
G02*
X151629000Y-129204000I263000J0D01*
G01*
G37*
G36*
G01*
X151629000Y-127454000D02*
X152155000Y-127454000D01*
G75*
G02*
X152418000Y-127717000I0J-263000D01*
G01*
X152418000Y-128343000D01*
G75*
G02*
X152155000Y-128606000I-263000J0D01*
G01*
X151629000Y-128606000D01*
G75*
G02*
X151366000Y-128343000I0J263000D01*
G01*
X151366000Y-127717000D01*
G75*
G02*
X151629000Y-127454000I263000J0D01*
G01*
G37*
G36*
G01*
X149089000Y-129204000D02*
X149615000Y-129204000D01*
G75*
G02*
X149878000Y-129467000I0J-263000D01*
G01*
X149878000Y-130093000D01*
G75*
G02*
X149615000Y-130356000I-263000J0D01*
G01*
X149089000Y-130356000D01*
G75*
G02*
X148826000Y-130093000I0J263000D01*
G01*
X148826000Y-129467000D01*
G75*
G02*
X149089000Y-129204000I263000J0D01*
G01*
G37*
G36*
G01*
X149089000Y-127454000D02*
X149615000Y-127454000D01*
G75*
G02*
X149878000Y-127717000I0J-263000D01*
G01*
X149878000Y-128343000D01*
G75*
G02*
X149615000Y-128606000I-263000J0D01*
G01*
X149089000Y-128606000D01*
G75*
G02*
X148826000Y-128343000I0J263000D01*
G01*
X148826000Y-127717000D01*
G75*
G02*
X149089000Y-127454000I263000J0D01*
G01*
G37*
G36*
G01*
X146549000Y-129204000D02*
X147075000Y-129204000D01*
G75*
G02*
X147338000Y-129467000I0J-263000D01*
G01*
X147338000Y-130093000D01*
G75*
G02*
X147075000Y-130356000I-263000J0D01*
G01*
X146549000Y-130356000D01*
G75*
G02*
X146286000Y-130093000I0J263000D01*
G01*
X146286000Y-129467000D01*
G75*
G02*
X146549000Y-129204000I263000J0D01*
G01*
G37*
G36*
G01*
X146549000Y-127454000D02*
X147075000Y-127454000D01*
G75*
G02*
X147338000Y-127717000I0J-263000D01*
G01*
X147338000Y-128343000D01*
G75*
G02*
X147075000Y-128606000I-263000J0D01*
G01*
X146549000Y-128606000D01*
G75*
G02*
X146286000Y-128343000I0J263000D01*
G01*
X146286000Y-127717000D01*
G75*
G02*
X146549000Y-127454000I263000J0D01*
G01*
G37*
G36*
G01*
X144009000Y-129204000D02*
X144535000Y-129204000D01*
G75*
G02*
X144798000Y-129467000I0J-263000D01*
G01*
X144798000Y-130093000D01*
G75*
G02*
X144535000Y-130356000I-263000J0D01*
G01*
X144009000Y-130356000D01*
G75*
G02*
X143746000Y-130093000I0J263000D01*
G01*
X143746000Y-129467000D01*
G75*
G02*
X144009000Y-129204000I263000J0D01*
G01*
G37*
G36*
G01*
X144009000Y-127454000D02*
X144535000Y-127454000D01*
G75*
G02*
X144798000Y-127717000I0J-263000D01*
G01*
X144798000Y-128343000D01*
G75*
G02*
X144535000Y-128606000I-263000J0D01*
G01*
X144009000Y-128606000D01*
G75*
G02*
X143746000Y-128343000I0J263000D01*
G01*
X143746000Y-127717000D01*
G75*
G02*
X144009000Y-127454000I263000J0D01*
G01*
G37*
G36*
G01*
X141469000Y-129204000D02*
X141995000Y-129204000D01*
G75*
G02*
X142258000Y-129467000I0J-263000D01*
G01*
X142258000Y-130093000D01*
G75*
G02*
X141995000Y-130356000I-263000J0D01*
G01*
X141469000Y-130356000D01*
G75*
G02*
X141206000Y-130093000I0J263000D01*
G01*
X141206000Y-129467000D01*
G75*
G02*
X141469000Y-129204000I263000J0D01*
G01*
G37*
G36*
G01*
X141469000Y-127454000D02*
X141995000Y-127454000D01*
G75*
G02*
X142258000Y-127717000I0J-263000D01*
G01*
X142258000Y-128343000D01*
G75*
G02*
X141995000Y-128606000I-263000J0D01*
G01*
X141469000Y-128606000D01*
G75*
G02*
X141206000Y-128343000I0J263000D01*
G01*
X141206000Y-127717000D01*
G75*
G02*
X141469000Y-127454000I263000J0D01*
G01*
G37*
G36*
G01*
X138929000Y-129204000D02*
X139455000Y-129204000D01*
G75*
G02*
X139718000Y-129467000I0J-263000D01*
G01*
X139718000Y-130093000D01*
G75*
G02*
X139455000Y-130356000I-263000J0D01*
G01*
X138929000Y-130356000D01*
G75*
G02*
X138666000Y-130093000I0J263000D01*
G01*
X138666000Y-129467000D01*
G75*
G02*
X138929000Y-129204000I263000J0D01*
G01*
G37*
G36*
G01*
X138929000Y-127454000D02*
X139455000Y-127454000D01*
G75*
G02*
X139718000Y-127717000I0J-263000D01*
G01*
X139718000Y-128343000D01*
G75*
G02*
X139455000Y-128606000I-263000J0D01*
G01*
X138929000Y-128606000D01*
G75*
G02*
X138666000Y-128343000I0J263000D01*
G01*
X138666000Y-127717000D01*
G75*
G02*
X138929000Y-127454000I263000J0D01*
G01*
G37*
M02*
