M48
; DRILL file {KiCad 5.1.7-a382d34a8~88~ubuntu20.04.1} date Fri Dec 18 13:14:26 2020
; FORMAT={-:-/ absolute / inch / decimal}
; #@! TF.CreationDate,2020-12-18T13:14:26-06:00
; #@! TF.GenerationSoftware,Kicad,Pcbnew,5.1.7-a382d34a8~88~ubuntu20.04.1
; #@! TF.FileFunction,Plated,1,2,PTH
FMAT,2
INCH
T1C0.0394
T2C0.1181
%
G90
G05
T1
X5.9049Y-4.68
X5.95Y-4.58
X5.95Y-4.78
X5.9951Y-4.68
X6.0402Y-4.58
X6.0402Y-4.78
X6.0852Y-4.68
X6.1303Y-4.58
X6.1303Y-4.78
X6.1754Y-4.68
X6.2205Y-4.58
X6.2205Y-4.78
X6.2656Y-4.68
X6.3106Y-4.58
X6.3106Y-4.78
X5.38Y-5.2
X5.48Y-5.2
X5.58Y-5.2
X5.68Y-5.2
X5.78Y-5.2
X5.88Y-5.2
X5.98Y-5.2
X6.08Y-5.2
X6.18Y-5.2
X6.28Y-5.2
X6.38Y-5.2
X6.48Y-5.2
X6.58Y-5.2
X6.68Y-5.2
X6.78Y-5.2
X6.88Y-5.2
T2
X6.62Y-4.68
X5.64Y-4.68
T0
M30
