G04 #@! TF.GenerationSoftware,KiCad,Pcbnew,5.1.5-52549c5~84~ubuntu18.04.1*
G04 #@! TF.CreationDate,2019-12-13T14:59:01-06:00*
G04 #@! TF.ProjectId,VGA,5647412e-6b69-4636-9164-5f7063625858,rev?*
G04 #@! TF.SameCoordinates,Original*
G04 #@! TF.FileFunction,Legend,Top*
G04 #@! TF.FilePolarity,Positive*
%FSLAX46Y46*%
G04 Gerber Fmt 4.6, Leading zero omitted, Abs format (unit mm)*
G04 Created by KiCad (PCBNEW 5.1.5-52549c5~84~ubuntu18.04.1) date 2019-12-13 14:59:01*
%MOMM*%
%LPD*%
G04 APERTURE LIST*
%ADD10C,0.300000*%
%ADD11C,0.150000*%
%ADD12C,0.120000*%
G04 APERTURE END LIST*
D10*
X149765428Y-113680761D02*
X149765428Y-111680761D01*
X150241619Y-111680761D01*
X150527333Y-111776000D01*
X150717809Y-111966476D01*
X150813047Y-112156952D01*
X150908285Y-112537904D01*
X150908285Y-112823619D01*
X150813047Y-113204571D01*
X150717809Y-113395047D01*
X150527333Y-113585523D01*
X150241619Y-113680761D01*
X149765428Y-113680761D01*
X151765428Y-112633142D02*
X152432095Y-112633142D01*
X152717809Y-113680761D02*
X151765428Y-113680761D01*
X151765428Y-111680761D01*
X152717809Y-111680761D01*
X153574952Y-112918857D02*
X155098761Y-112918857D01*
X157098761Y-113680761D02*
X155955904Y-113680761D01*
X156527333Y-113680761D02*
X156527333Y-111680761D01*
X156336857Y-111966476D01*
X156146380Y-112156952D01*
X155955904Y-112252190D01*
X158908285Y-111680761D02*
X157955904Y-111680761D01*
X157860666Y-112633142D01*
X157955904Y-112537904D01*
X158146380Y-112442666D01*
X158622571Y-112442666D01*
X158813047Y-112537904D01*
X158908285Y-112633142D01*
X159003523Y-112823619D01*
X159003523Y-113299809D01*
X158908285Y-113490285D01*
X158813047Y-113585523D01*
X158622571Y-113680761D01*
X158146380Y-113680761D01*
X157955904Y-113585523D01*
X157860666Y-113490285D01*
X160527333Y-112633142D02*
X159860666Y-112633142D01*
X159860666Y-113680761D02*
X159860666Y-111680761D01*
X160813047Y-111680761D01*
D11*
X136152000Y-129031904D02*
X136104380Y-129127142D01*
X136104380Y-129270000D01*
X136152000Y-129412857D01*
X136247238Y-129508095D01*
X136342476Y-129555714D01*
X136532952Y-129603333D01*
X136675809Y-129603333D01*
X136866285Y-129555714D01*
X136961523Y-129508095D01*
X137056761Y-129412857D01*
X137104380Y-129270000D01*
X137104380Y-129174761D01*
X137056761Y-129031904D01*
X137009142Y-128984285D01*
X136675809Y-128984285D01*
X136675809Y-129174761D01*
X137104380Y-128555714D02*
X136104380Y-128555714D01*
X137104380Y-127984285D01*
X136104380Y-127984285D01*
X137104380Y-127508095D02*
X136104380Y-127508095D01*
X136104380Y-127270000D01*
X136152000Y-127127142D01*
X136247238Y-127031904D01*
X136342476Y-126984285D01*
X136532952Y-126936666D01*
X136675809Y-126936666D01*
X136866285Y-126984285D01*
X136961523Y-127031904D01*
X137056761Y-127127142D01*
X137104380Y-127270000D01*
X137104380Y-127508095D01*
X174252000Y-129031904D02*
X174204380Y-129127142D01*
X174204380Y-129270000D01*
X174252000Y-129412857D01*
X174347238Y-129508095D01*
X174442476Y-129555714D01*
X174632952Y-129603333D01*
X174775809Y-129603333D01*
X174966285Y-129555714D01*
X175061523Y-129508095D01*
X175156761Y-129412857D01*
X175204380Y-129270000D01*
X175204380Y-129174761D01*
X175156761Y-129031904D01*
X175109142Y-128984285D01*
X174775809Y-128984285D01*
X174775809Y-129174761D01*
X175204380Y-128555714D02*
X174204380Y-128555714D01*
X175204380Y-127984285D01*
X174204380Y-127984285D01*
X175204380Y-127508095D02*
X174204380Y-127508095D01*
X174204380Y-127270000D01*
X174252000Y-127127142D01*
X174347238Y-127031904D01*
X174442476Y-126984285D01*
X174632952Y-126936666D01*
X174775809Y-126936666D01*
X174966285Y-126984285D01*
X175061523Y-127031904D01*
X175156761Y-127127142D01*
X175204380Y-127270000D01*
X175204380Y-127508095D01*
X166727238Y-125912571D02*
X166870095Y-125960190D01*
X166917714Y-126007809D01*
X166965333Y-126103047D01*
X166965333Y-126245904D01*
X166917714Y-126341142D01*
X166870095Y-126388761D01*
X166774857Y-126436380D01*
X166393904Y-126436380D01*
X166393904Y-125436380D01*
X166727238Y-125436380D01*
X166822476Y-125484000D01*
X166870095Y-125531619D01*
X166917714Y-125626857D01*
X166917714Y-125722095D01*
X166870095Y-125817333D01*
X166822476Y-125864952D01*
X166727238Y-125912571D01*
X166393904Y-125912571D01*
X167584380Y-125436380D02*
X167679619Y-125436380D01*
X167774857Y-125484000D01*
X167822476Y-125531619D01*
X167870095Y-125626857D01*
X167917714Y-125817333D01*
X167917714Y-126055428D01*
X167870095Y-126245904D01*
X167822476Y-126341142D01*
X167774857Y-126388761D01*
X167679619Y-126436380D01*
X167584380Y-126436380D01*
X167489142Y-126388761D01*
X167441523Y-126341142D01*
X167393904Y-126245904D01*
X167346285Y-126055428D01*
X167346285Y-125817333D01*
X167393904Y-125626857D01*
X167441523Y-125531619D01*
X167489142Y-125484000D01*
X167584380Y-125436380D01*
X164187238Y-125912571D02*
X164330095Y-125960190D01*
X164377714Y-126007809D01*
X164425333Y-126103047D01*
X164425333Y-126245904D01*
X164377714Y-126341142D01*
X164330095Y-126388761D01*
X164234857Y-126436380D01*
X163853904Y-126436380D01*
X163853904Y-125436380D01*
X164187238Y-125436380D01*
X164282476Y-125484000D01*
X164330095Y-125531619D01*
X164377714Y-125626857D01*
X164377714Y-125722095D01*
X164330095Y-125817333D01*
X164282476Y-125864952D01*
X164187238Y-125912571D01*
X163853904Y-125912571D01*
X165377714Y-126436380D02*
X164806285Y-126436380D01*
X165092000Y-126436380D02*
X165092000Y-125436380D01*
X164996761Y-125579238D01*
X164901523Y-125674476D01*
X164806285Y-125722095D01*
X161647238Y-125912571D02*
X161790095Y-125960190D01*
X161837714Y-126007809D01*
X161885333Y-126103047D01*
X161885333Y-126245904D01*
X161837714Y-126341142D01*
X161790095Y-126388761D01*
X161694857Y-126436380D01*
X161313904Y-126436380D01*
X161313904Y-125436380D01*
X161647238Y-125436380D01*
X161742476Y-125484000D01*
X161790095Y-125531619D01*
X161837714Y-125626857D01*
X161837714Y-125722095D01*
X161790095Y-125817333D01*
X161742476Y-125864952D01*
X161647238Y-125912571D01*
X161313904Y-125912571D01*
X162266285Y-125531619D02*
X162313904Y-125484000D01*
X162409142Y-125436380D01*
X162647238Y-125436380D01*
X162742476Y-125484000D01*
X162790095Y-125531619D01*
X162837714Y-125626857D01*
X162837714Y-125722095D01*
X162790095Y-125864952D01*
X162218666Y-126436380D01*
X162837714Y-126436380D01*
X159107238Y-125912571D02*
X159250095Y-125960190D01*
X159297714Y-126007809D01*
X159345333Y-126103047D01*
X159345333Y-126245904D01*
X159297714Y-126341142D01*
X159250095Y-126388761D01*
X159154857Y-126436380D01*
X158773904Y-126436380D01*
X158773904Y-125436380D01*
X159107238Y-125436380D01*
X159202476Y-125484000D01*
X159250095Y-125531619D01*
X159297714Y-125626857D01*
X159297714Y-125722095D01*
X159250095Y-125817333D01*
X159202476Y-125864952D01*
X159107238Y-125912571D01*
X158773904Y-125912571D01*
X159678666Y-125436380D02*
X160297714Y-125436380D01*
X159964380Y-125817333D01*
X160107238Y-125817333D01*
X160202476Y-125864952D01*
X160250095Y-125912571D01*
X160297714Y-126007809D01*
X160297714Y-126245904D01*
X160250095Y-126341142D01*
X160202476Y-126388761D01*
X160107238Y-126436380D01*
X159821523Y-126436380D01*
X159726285Y-126388761D01*
X159678666Y-126341142D01*
X156757714Y-125484000D02*
X156662476Y-125436380D01*
X156519619Y-125436380D01*
X156376761Y-125484000D01*
X156281523Y-125579238D01*
X156233904Y-125674476D01*
X156186285Y-125864952D01*
X156186285Y-126007809D01*
X156233904Y-126198285D01*
X156281523Y-126293523D01*
X156376761Y-126388761D01*
X156519619Y-126436380D01*
X156614857Y-126436380D01*
X156757714Y-126388761D01*
X156805333Y-126341142D01*
X156805333Y-126007809D01*
X156614857Y-126007809D01*
X157424380Y-125436380D02*
X157519619Y-125436380D01*
X157614857Y-125484000D01*
X157662476Y-125531619D01*
X157710095Y-125626857D01*
X157757714Y-125817333D01*
X157757714Y-126055428D01*
X157710095Y-126245904D01*
X157662476Y-126341142D01*
X157614857Y-126388761D01*
X157519619Y-126436380D01*
X157424380Y-126436380D01*
X157329142Y-126388761D01*
X157281523Y-126341142D01*
X157233904Y-126245904D01*
X157186285Y-126055428D01*
X157186285Y-125817333D01*
X157233904Y-125626857D01*
X157281523Y-125531619D01*
X157329142Y-125484000D01*
X157424380Y-125436380D01*
X154217714Y-125484000D02*
X154122476Y-125436380D01*
X153979619Y-125436380D01*
X153836761Y-125484000D01*
X153741523Y-125579238D01*
X153693904Y-125674476D01*
X153646285Y-125864952D01*
X153646285Y-126007809D01*
X153693904Y-126198285D01*
X153741523Y-126293523D01*
X153836761Y-126388761D01*
X153979619Y-126436380D01*
X154074857Y-126436380D01*
X154217714Y-126388761D01*
X154265333Y-126341142D01*
X154265333Y-126007809D01*
X154074857Y-126007809D01*
X155217714Y-126436380D02*
X154646285Y-126436380D01*
X154932000Y-126436380D02*
X154932000Y-125436380D01*
X154836761Y-125579238D01*
X154741523Y-125674476D01*
X154646285Y-125722095D01*
X151677714Y-125484000D02*
X151582476Y-125436380D01*
X151439619Y-125436380D01*
X151296761Y-125484000D01*
X151201523Y-125579238D01*
X151153904Y-125674476D01*
X151106285Y-125864952D01*
X151106285Y-126007809D01*
X151153904Y-126198285D01*
X151201523Y-126293523D01*
X151296761Y-126388761D01*
X151439619Y-126436380D01*
X151534857Y-126436380D01*
X151677714Y-126388761D01*
X151725333Y-126341142D01*
X151725333Y-126007809D01*
X151534857Y-126007809D01*
X152106285Y-125531619D02*
X152153904Y-125484000D01*
X152249142Y-125436380D01*
X152487238Y-125436380D01*
X152582476Y-125484000D01*
X152630095Y-125531619D01*
X152677714Y-125626857D01*
X152677714Y-125722095D01*
X152630095Y-125864952D01*
X152058666Y-126436380D01*
X152677714Y-126436380D01*
X149137714Y-125484000D02*
X149042476Y-125436380D01*
X148899619Y-125436380D01*
X148756761Y-125484000D01*
X148661523Y-125579238D01*
X148613904Y-125674476D01*
X148566285Y-125864952D01*
X148566285Y-126007809D01*
X148613904Y-126198285D01*
X148661523Y-126293523D01*
X148756761Y-126388761D01*
X148899619Y-126436380D01*
X148994857Y-126436380D01*
X149137714Y-126388761D01*
X149185333Y-126341142D01*
X149185333Y-126007809D01*
X148994857Y-126007809D01*
X149518666Y-125436380D02*
X150137714Y-125436380D01*
X149804380Y-125817333D01*
X149947238Y-125817333D01*
X150042476Y-125864952D01*
X150090095Y-125912571D01*
X150137714Y-126007809D01*
X150137714Y-126245904D01*
X150090095Y-126341142D01*
X150042476Y-126388761D01*
X149947238Y-126436380D01*
X149661523Y-126436380D01*
X149566285Y-126388761D01*
X149518666Y-126341142D01*
X146645333Y-126436380D02*
X146312000Y-125960190D01*
X146073904Y-126436380D02*
X146073904Y-125436380D01*
X146454857Y-125436380D01*
X146550095Y-125484000D01*
X146597714Y-125531619D01*
X146645333Y-125626857D01*
X146645333Y-125769714D01*
X146597714Y-125864952D01*
X146550095Y-125912571D01*
X146454857Y-125960190D01*
X146073904Y-125960190D01*
X147264380Y-125436380D02*
X147359619Y-125436380D01*
X147454857Y-125484000D01*
X147502476Y-125531619D01*
X147550095Y-125626857D01*
X147597714Y-125817333D01*
X147597714Y-126055428D01*
X147550095Y-126245904D01*
X147502476Y-126341142D01*
X147454857Y-126388761D01*
X147359619Y-126436380D01*
X147264380Y-126436380D01*
X147169142Y-126388761D01*
X147121523Y-126341142D01*
X147073904Y-126245904D01*
X147026285Y-126055428D01*
X147026285Y-125817333D01*
X147073904Y-125626857D01*
X147121523Y-125531619D01*
X147169142Y-125484000D01*
X147264380Y-125436380D01*
X144105333Y-126436380D02*
X143772000Y-125960190D01*
X143533904Y-126436380D02*
X143533904Y-125436380D01*
X143914857Y-125436380D01*
X144010095Y-125484000D01*
X144057714Y-125531619D01*
X144105333Y-125626857D01*
X144105333Y-125769714D01*
X144057714Y-125864952D01*
X144010095Y-125912571D01*
X143914857Y-125960190D01*
X143533904Y-125960190D01*
X145057714Y-126436380D02*
X144486285Y-126436380D01*
X144772000Y-126436380D02*
X144772000Y-125436380D01*
X144676761Y-125579238D01*
X144581523Y-125674476D01*
X144486285Y-125722095D01*
X141565333Y-126436380D02*
X141232000Y-125960190D01*
X140993904Y-126436380D02*
X140993904Y-125436380D01*
X141374857Y-125436380D01*
X141470095Y-125484000D01*
X141517714Y-125531619D01*
X141565333Y-125626857D01*
X141565333Y-125769714D01*
X141517714Y-125864952D01*
X141470095Y-125912571D01*
X141374857Y-125960190D01*
X140993904Y-125960190D01*
X141946285Y-125531619D02*
X141993904Y-125484000D01*
X142089142Y-125436380D01*
X142327238Y-125436380D01*
X142422476Y-125484000D01*
X142470095Y-125531619D01*
X142517714Y-125626857D01*
X142517714Y-125722095D01*
X142470095Y-125864952D01*
X141898666Y-126436380D01*
X142517714Y-126436380D01*
X139025333Y-126436380D02*
X138692000Y-125960190D01*
X138453904Y-126436380D02*
X138453904Y-125436380D01*
X138834857Y-125436380D01*
X138930095Y-125484000D01*
X138977714Y-125531619D01*
X139025333Y-125626857D01*
X139025333Y-125769714D01*
X138977714Y-125864952D01*
X138930095Y-125912571D01*
X138834857Y-125960190D01*
X138453904Y-125960190D01*
X139358666Y-125436380D02*
X139977714Y-125436380D01*
X139644380Y-125817333D01*
X139787238Y-125817333D01*
X139882476Y-125864952D01*
X139930095Y-125912571D01*
X139977714Y-126007809D01*
X139977714Y-126245904D01*
X139930095Y-126341142D01*
X139882476Y-126388761D01*
X139787238Y-126436380D01*
X139501523Y-126436380D01*
X139406285Y-126388761D01*
X139358666Y-126341142D01*
X169386285Y-126436380D02*
X169386285Y-125436380D01*
X169386285Y-125912571D02*
X169957714Y-125912571D01*
X169957714Y-126436380D02*
X169957714Y-125436380D01*
X171878666Y-125436380D02*
X172212000Y-126436380D01*
X172545333Y-125436380D01*
D12*
X164055000Y-106992000D02*
X164055000Y-111092000D01*
X164055000Y-111092000D02*
X161350000Y-111092000D01*
X161350000Y-111092000D02*
X161350000Y-122472000D01*
X161350000Y-122472000D02*
X148925000Y-122472000D01*
X148925000Y-122472000D02*
X148925000Y-111092000D01*
X148925000Y-111092000D02*
X146835000Y-111092000D01*
X146835000Y-111092000D02*
X146835000Y-106992000D01*
X151380000Y-123166338D02*
X150880000Y-123166338D01*
X150880000Y-123166338D02*
X151130000Y-122733325D01*
X151130000Y-122733325D02*
X151380000Y-123166338D01*
X171702000Y-128731733D02*
X171702000Y-129074267D01*
X172722000Y-128731733D02*
X172722000Y-129074267D01*
X169162000Y-128733733D02*
X169162000Y-129076267D01*
X170182000Y-128733733D02*
X170182000Y-129076267D01*
X166622000Y-128733733D02*
X166622000Y-129076267D01*
X167642000Y-128733733D02*
X167642000Y-129076267D01*
X164082000Y-128733733D02*
X164082000Y-129076267D01*
X165102000Y-128733733D02*
X165102000Y-129076267D01*
X161542000Y-128733733D02*
X161542000Y-129076267D01*
X162562000Y-128733733D02*
X162562000Y-129076267D01*
X159002000Y-128733733D02*
X159002000Y-129076267D01*
X160022000Y-128733733D02*
X160022000Y-129076267D01*
X156462000Y-128733733D02*
X156462000Y-129076267D01*
X157482000Y-128733733D02*
X157482000Y-129076267D01*
X153922000Y-128733733D02*
X153922000Y-129076267D01*
X154942000Y-128733733D02*
X154942000Y-129076267D01*
X151382000Y-128733733D02*
X151382000Y-129076267D01*
X152402000Y-128733733D02*
X152402000Y-129076267D01*
X148842000Y-128733733D02*
X148842000Y-129076267D01*
X149862000Y-128733733D02*
X149862000Y-129076267D01*
X146302000Y-128733733D02*
X146302000Y-129076267D01*
X147322000Y-128733733D02*
X147322000Y-129076267D01*
X143762000Y-128733733D02*
X143762000Y-129076267D01*
X144782000Y-128733733D02*
X144782000Y-129076267D01*
X141222000Y-128733733D02*
X141222000Y-129076267D01*
X142242000Y-128733733D02*
X142242000Y-129076267D01*
X138682000Y-128733733D02*
X138682000Y-129076267D01*
X139702000Y-128733733D02*
X139702000Y-129076267D01*
D11*
X166481333Y-114324380D02*
X167100380Y-114324380D01*
X166767047Y-114705333D01*
X166909904Y-114705333D01*
X167005142Y-114752952D01*
X167052761Y-114800571D01*
X167100380Y-114895809D01*
X167100380Y-115133904D01*
X167052761Y-115229142D01*
X167005142Y-115276761D01*
X166909904Y-115324380D01*
X166624190Y-115324380D01*
X166528952Y-115276761D01*
X166481333Y-115229142D01*
X167528952Y-115324380D02*
X167528952Y-114657714D01*
X167528952Y-114752952D02*
X167576571Y-114705333D01*
X167671809Y-114657714D01*
X167814666Y-114657714D01*
X167909904Y-114705333D01*
X167957523Y-114800571D01*
X167957523Y-115324380D01*
X167957523Y-114800571D02*
X168005142Y-114705333D01*
X168100380Y-114657714D01*
X168243238Y-114657714D01*
X168338476Y-114705333D01*
X168386095Y-114800571D01*
X168386095Y-115324380D01*
X168862285Y-115324380D02*
X168862285Y-114657714D01*
X168862285Y-114752952D02*
X168909904Y-114705333D01*
X169005142Y-114657714D01*
X169148000Y-114657714D01*
X169243238Y-114705333D01*
X169290857Y-114800571D01*
X169290857Y-115324380D01*
X169290857Y-114800571D02*
X169338476Y-114705333D01*
X169433714Y-114657714D01*
X169576571Y-114657714D01*
X169671809Y-114705333D01*
X169719428Y-114800571D01*
X169719428Y-115324380D01*
X141589333Y-114324380D02*
X142208380Y-114324380D01*
X141875047Y-114705333D01*
X142017904Y-114705333D01*
X142113142Y-114752952D01*
X142160761Y-114800571D01*
X142208380Y-114895809D01*
X142208380Y-115133904D01*
X142160761Y-115229142D01*
X142113142Y-115276761D01*
X142017904Y-115324380D01*
X141732190Y-115324380D01*
X141636952Y-115276761D01*
X141589333Y-115229142D01*
X142636952Y-115324380D02*
X142636952Y-114657714D01*
X142636952Y-114752952D02*
X142684571Y-114705333D01*
X142779809Y-114657714D01*
X142922666Y-114657714D01*
X143017904Y-114705333D01*
X143065523Y-114800571D01*
X143065523Y-115324380D01*
X143065523Y-114800571D02*
X143113142Y-114705333D01*
X143208380Y-114657714D01*
X143351238Y-114657714D01*
X143446476Y-114705333D01*
X143494095Y-114800571D01*
X143494095Y-115324380D01*
X143970285Y-115324380D02*
X143970285Y-114657714D01*
X143970285Y-114752952D02*
X144017904Y-114705333D01*
X144113142Y-114657714D01*
X144256000Y-114657714D01*
X144351238Y-114705333D01*
X144398857Y-114800571D01*
X144398857Y-115324380D01*
X144398857Y-114800571D02*
X144446476Y-114705333D01*
X144541714Y-114657714D01*
X144684571Y-114657714D01*
X144779809Y-114705333D01*
X144827428Y-114800571D01*
X144827428Y-115324380D01*
X155111666Y-122664380D02*
X155111666Y-123378666D01*
X155064047Y-123521523D01*
X154968809Y-123616761D01*
X154825952Y-123664380D01*
X154730714Y-123664380D01*
X155540238Y-122759619D02*
X155587857Y-122712000D01*
X155683095Y-122664380D01*
X155921190Y-122664380D01*
X156016428Y-122712000D01*
X156064047Y-122759619D01*
X156111666Y-122854857D01*
X156111666Y-122950095D01*
X156064047Y-123092952D01*
X155492619Y-123664380D01*
X156111666Y-123664380D01*
M02*
