G04 #@! TF.GenerationSoftware,KiCad,Pcbnew,5.1.5-52549c5~84~ubuntu18.04.1*
G04 #@! TF.CreationDate,2019-12-13T14:59:01-06:00*
G04 #@! TF.ProjectId,VGA,5647412e-6b69-4636-9164-5f7063625858,rev?*
G04 #@! TF.SameCoordinates,Original*
G04 #@! TF.FileFunction,Soldermask,Top*
G04 #@! TF.FilePolarity,Negative*
%FSLAX46Y46*%
G04 Gerber Fmt 4.6, Leading zero omitted, Abs format (unit mm)*
G04 Created by KiCad (PCBNEW 5.1.5-52549c5~84~ubuntu18.04.1) date 2019-12-13 14:59:01*
%MOMM*%
%LPD*%
G04 APERTURE LIST*
%ADD10C,0.100000*%
G04 APERTURE END LIST*
D10*
G36*
X136828626Y-130792037D02*
G01*
X136998465Y-130843557D01*
X136998467Y-130843558D01*
X137154989Y-130927221D01*
X137292186Y-131039814D01*
X137375448Y-131141271D01*
X137404778Y-131177009D01*
X137488443Y-131333534D01*
X137539963Y-131503373D01*
X137553000Y-131635742D01*
X137553000Y-132524258D01*
X137539963Y-132656627D01*
X137488443Y-132826466D01*
X137404778Y-132982991D01*
X137375448Y-133018729D01*
X137292186Y-133120186D01*
X137190729Y-133203448D01*
X137154991Y-133232778D01*
X136998466Y-133316443D01*
X136828627Y-133367963D01*
X136652000Y-133385359D01*
X136475374Y-133367963D01*
X136305535Y-133316443D01*
X136149010Y-133232778D01*
X136113272Y-133203448D01*
X136011815Y-133120186D01*
X135928553Y-133018729D01*
X135899223Y-132982991D01*
X135815558Y-132826466D01*
X135764038Y-132656627D01*
X135751000Y-132524258D01*
X135751000Y-131635743D01*
X135764037Y-131503374D01*
X135815557Y-131333535D01*
X135899222Y-131177010D01*
X135899223Y-131177009D01*
X136011814Y-131039814D01*
X136113271Y-130956552D01*
X136149009Y-130927222D01*
X136305534Y-130843557D01*
X136475373Y-130792037D01*
X136652000Y-130774641D01*
X136828626Y-130792037D01*
G37*
G36*
X139368626Y-130792037D02*
G01*
X139538465Y-130843557D01*
X139538467Y-130843558D01*
X139694989Y-130927221D01*
X139832186Y-131039814D01*
X139915448Y-131141271D01*
X139944778Y-131177009D01*
X140028443Y-131333534D01*
X140079963Y-131503373D01*
X140093000Y-131635742D01*
X140093000Y-132524258D01*
X140079963Y-132656627D01*
X140028443Y-132826466D01*
X139944778Y-132982991D01*
X139915448Y-133018729D01*
X139832186Y-133120186D01*
X139730729Y-133203448D01*
X139694991Y-133232778D01*
X139538466Y-133316443D01*
X139368627Y-133367963D01*
X139192000Y-133385359D01*
X139015374Y-133367963D01*
X138845535Y-133316443D01*
X138689010Y-133232778D01*
X138653272Y-133203448D01*
X138551815Y-133120186D01*
X138468553Y-133018729D01*
X138439223Y-132982991D01*
X138355558Y-132826466D01*
X138304038Y-132656627D01*
X138291000Y-132524258D01*
X138291000Y-131635743D01*
X138304037Y-131503374D01*
X138355557Y-131333535D01*
X138439222Y-131177010D01*
X138439223Y-131177009D01*
X138551814Y-131039814D01*
X138653271Y-130956552D01*
X138689009Y-130927222D01*
X138845534Y-130843557D01*
X139015373Y-130792037D01*
X139192000Y-130774641D01*
X139368626Y-130792037D01*
G37*
G36*
X159688626Y-130792037D02*
G01*
X159858465Y-130843557D01*
X159858467Y-130843558D01*
X160014989Y-130927221D01*
X160152186Y-131039814D01*
X160235448Y-131141271D01*
X160264778Y-131177009D01*
X160348443Y-131333534D01*
X160399963Y-131503373D01*
X160413000Y-131635742D01*
X160413000Y-132524258D01*
X160399963Y-132656627D01*
X160348443Y-132826466D01*
X160264778Y-132982991D01*
X160235448Y-133018729D01*
X160152186Y-133120186D01*
X160050729Y-133203448D01*
X160014991Y-133232778D01*
X159858466Y-133316443D01*
X159688627Y-133367963D01*
X159512000Y-133385359D01*
X159335374Y-133367963D01*
X159165535Y-133316443D01*
X159009010Y-133232778D01*
X158973272Y-133203448D01*
X158871815Y-133120186D01*
X158788553Y-133018729D01*
X158759223Y-132982991D01*
X158675558Y-132826466D01*
X158624038Y-132656627D01*
X158611000Y-132524258D01*
X158611000Y-131635743D01*
X158624037Y-131503374D01*
X158675557Y-131333535D01*
X158759222Y-131177010D01*
X158759223Y-131177009D01*
X158871814Y-131039814D01*
X158973271Y-130956552D01*
X159009009Y-130927222D01*
X159165534Y-130843557D01*
X159335373Y-130792037D01*
X159512000Y-130774641D01*
X159688626Y-130792037D01*
G37*
G36*
X157148626Y-130792037D02*
G01*
X157318465Y-130843557D01*
X157318467Y-130843558D01*
X157474989Y-130927221D01*
X157612186Y-131039814D01*
X157695448Y-131141271D01*
X157724778Y-131177009D01*
X157808443Y-131333534D01*
X157859963Y-131503373D01*
X157873000Y-131635742D01*
X157873000Y-132524258D01*
X157859963Y-132656627D01*
X157808443Y-132826466D01*
X157724778Y-132982991D01*
X157695448Y-133018729D01*
X157612186Y-133120186D01*
X157510729Y-133203448D01*
X157474991Y-133232778D01*
X157318466Y-133316443D01*
X157148627Y-133367963D01*
X156972000Y-133385359D01*
X156795374Y-133367963D01*
X156625535Y-133316443D01*
X156469010Y-133232778D01*
X156433272Y-133203448D01*
X156331815Y-133120186D01*
X156248553Y-133018729D01*
X156219223Y-132982991D01*
X156135558Y-132826466D01*
X156084038Y-132656627D01*
X156071000Y-132524258D01*
X156071000Y-131635743D01*
X156084037Y-131503374D01*
X156135557Y-131333535D01*
X156219222Y-131177010D01*
X156219223Y-131177009D01*
X156331814Y-131039814D01*
X156433271Y-130956552D01*
X156469009Y-130927222D01*
X156625534Y-130843557D01*
X156795373Y-130792037D01*
X156972000Y-130774641D01*
X157148626Y-130792037D01*
G37*
G36*
X154608626Y-130792037D02*
G01*
X154778465Y-130843557D01*
X154778467Y-130843558D01*
X154934989Y-130927221D01*
X155072186Y-131039814D01*
X155155448Y-131141271D01*
X155184778Y-131177009D01*
X155268443Y-131333534D01*
X155319963Y-131503373D01*
X155333000Y-131635742D01*
X155333000Y-132524258D01*
X155319963Y-132656627D01*
X155268443Y-132826466D01*
X155184778Y-132982991D01*
X155155448Y-133018729D01*
X155072186Y-133120186D01*
X154970729Y-133203448D01*
X154934991Y-133232778D01*
X154778466Y-133316443D01*
X154608627Y-133367963D01*
X154432000Y-133385359D01*
X154255374Y-133367963D01*
X154085535Y-133316443D01*
X153929010Y-133232778D01*
X153893272Y-133203448D01*
X153791815Y-133120186D01*
X153708553Y-133018729D01*
X153679223Y-132982991D01*
X153595558Y-132826466D01*
X153544038Y-132656627D01*
X153531000Y-132524258D01*
X153531000Y-131635743D01*
X153544037Y-131503374D01*
X153595557Y-131333535D01*
X153679222Y-131177010D01*
X153679223Y-131177009D01*
X153791814Y-131039814D01*
X153893271Y-130956552D01*
X153929009Y-130927222D01*
X154085534Y-130843557D01*
X154255373Y-130792037D01*
X154432000Y-130774641D01*
X154608626Y-130792037D01*
G37*
G36*
X152068626Y-130792037D02*
G01*
X152238465Y-130843557D01*
X152238467Y-130843558D01*
X152394989Y-130927221D01*
X152532186Y-131039814D01*
X152615448Y-131141271D01*
X152644778Y-131177009D01*
X152728443Y-131333534D01*
X152779963Y-131503373D01*
X152793000Y-131635742D01*
X152793000Y-132524258D01*
X152779963Y-132656627D01*
X152728443Y-132826466D01*
X152644778Y-132982991D01*
X152615448Y-133018729D01*
X152532186Y-133120186D01*
X152430729Y-133203448D01*
X152394991Y-133232778D01*
X152238466Y-133316443D01*
X152068627Y-133367963D01*
X151892000Y-133385359D01*
X151715374Y-133367963D01*
X151545535Y-133316443D01*
X151389010Y-133232778D01*
X151353272Y-133203448D01*
X151251815Y-133120186D01*
X151168553Y-133018729D01*
X151139223Y-132982991D01*
X151055558Y-132826466D01*
X151004038Y-132656627D01*
X150991000Y-132524258D01*
X150991000Y-131635743D01*
X151004037Y-131503374D01*
X151055557Y-131333535D01*
X151139222Y-131177010D01*
X151139223Y-131177009D01*
X151251814Y-131039814D01*
X151353271Y-130956552D01*
X151389009Y-130927222D01*
X151545534Y-130843557D01*
X151715373Y-130792037D01*
X151892000Y-130774641D01*
X152068626Y-130792037D01*
G37*
G36*
X149528626Y-130792037D02*
G01*
X149698465Y-130843557D01*
X149698467Y-130843558D01*
X149854989Y-130927221D01*
X149992186Y-131039814D01*
X150075448Y-131141271D01*
X150104778Y-131177009D01*
X150188443Y-131333534D01*
X150239963Y-131503373D01*
X150253000Y-131635742D01*
X150253000Y-132524258D01*
X150239963Y-132656627D01*
X150188443Y-132826466D01*
X150104778Y-132982991D01*
X150075448Y-133018729D01*
X149992186Y-133120186D01*
X149890729Y-133203448D01*
X149854991Y-133232778D01*
X149698466Y-133316443D01*
X149528627Y-133367963D01*
X149352000Y-133385359D01*
X149175374Y-133367963D01*
X149005535Y-133316443D01*
X148849010Y-133232778D01*
X148813272Y-133203448D01*
X148711815Y-133120186D01*
X148628553Y-133018729D01*
X148599223Y-132982991D01*
X148515558Y-132826466D01*
X148464038Y-132656627D01*
X148451000Y-132524258D01*
X148451000Y-131635743D01*
X148464037Y-131503374D01*
X148515557Y-131333535D01*
X148599222Y-131177010D01*
X148599223Y-131177009D01*
X148711814Y-131039814D01*
X148813271Y-130956552D01*
X148849009Y-130927222D01*
X149005534Y-130843557D01*
X149175373Y-130792037D01*
X149352000Y-130774641D01*
X149528626Y-130792037D01*
G37*
G36*
X146988626Y-130792037D02*
G01*
X147158465Y-130843557D01*
X147158467Y-130843558D01*
X147314989Y-130927221D01*
X147452186Y-131039814D01*
X147535448Y-131141271D01*
X147564778Y-131177009D01*
X147648443Y-131333534D01*
X147699963Y-131503373D01*
X147713000Y-131635742D01*
X147713000Y-132524258D01*
X147699963Y-132656627D01*
X147648443Y-132826466D01*
X147564778Y-132982991D01*
X147535448Y-133018729D01*
X147452186Y-133120186D01*
X147350729Y-133203448D01*
X147314991Y-133232778D01*
X147158466Y-133316443D01*
X146988627Y-133367963D01*
X146812000Y-133385359D01*
X146635374Y-133367963D01*
X146465535Y-133316443D01*
X146309010Y-133232778D01*
X146273272Y-133203448D01*
X146171815Y-133120186D01*
X146088553Y-133018729D01*
X146059223Y-132982991D01*
X145975558Y-132826466D01*
X145924038Y-132656627D01*
X145911000Y-132524258D01*
X145911000Y-131635743D01*
X145924037Y-131503374D01*
X145975557Y-131333535D01*
X146059222Y-131177010D01*
X146059223Y-131177009D01*
X146171814Y-131039814D01*
X146273271Y-130956552D01*
X146309009Y-130927222D01*
X146465534Y-130843557D01*
X146635373Y-130792037D01*
X146812000Y-130774641D01*
X146988626Y-130792037D01*
G37*
G36*
X144448626Y-130792037D02*
G01*
X144618465Y-130843557D01*
X144618467Y-130843558D01*
X144774989Y-130927221D01*
X144912186Y-131039814D01*
X144995448Y-131141271D01*
X145024778Y-131177009D01*
X145108443Y-131333534D01*
X145159963Y-131503373D01*
X145173000Y-131635742D01*
X145173000Y-132524258D01*
X145159963Y-132656627D01*
X145108443Y-132826466D01*
X145024778Y-132982991D01*
X144995448Y-133018729D01*
X144912186Y-133120186D01*
X144810729Y-133203448D01*
X144774991Y-133232778D01*
X144618466Y-133316443D01*
X144448627Y-133367963D01*
X144272000Y-133385359D01*
X144095374Y-133367963D01*
X143925535Y-133316443D01*
X143769010Y-133232778D01*
X143733272Y-133203448D01*
X143631815Y-133120186D01*
X143548553Y-133018729D01*
X143519223Y-132982991D01*
X143435558Y-132826466D01*
X143384038Y-132656627D01*
X143371000Y-132524258D01*
X143371000Y-131635743D01*
X143384037Y-131503374D01*
X143435557Y-131333535D01*
X143519222Y-131177010D01*
X143519223Y-131177009D01*
X143631814Y-131039814D01*
X143733271Y-130956552D01*
X143769009Y-130927222D01*
X143925534Y-130843557D01*
X144095373Y-130792037D01*
X144272000Y-130774641D01*
X144448626Y-130792037D01*
G37*
G36*
X141908626Y-130792037D02*
G01*
X142078465Y-130843557D01*
X142078467Y-130843558D01*
X142234989Y-130927221D01*
X142372186Y-131039814D01*
X142455448Y-131141271D01*
X142484778Y-131177009D01*
X142568443Y-131333534D01*
X142619963Y-131503373D01*
X142633000Y-131635742D01*
X142633000Y-132524258D01*
X142619963Y-132656627D01*
X142568443Y-132826466D01*
X142484778Y-132982991D01*
X142455448Y-133018729D01*
X142372186Y-133120186D01*
X142270729Y-133203448D01*
X142234991Y-133232778D01*
X142078466Y-133316443D01*
X141908627Y-133367963D01*
X141732000Y-133385359D01*
X141555374Y-133367963D01*
X141385535Y-133316443D01*
X141229010Y-133232778D01*
X141193272Y-133203448D01*
X141091815Y-133120186D01*
X141008553Y-133018729D01*
X140979223Y-132982991D01*
X140895558Y-132826466D01*
X140844038Y-132656627D01*
X140831000Y-132524258D01*
X140831000Y-131635743D01*
X140844037Y-131503374D01*
X140895557Y-131333535D01*
X140979222Y-131177010D01*
X140979223Y-131177009D01*
X141091814Y-131039814D01*
X141193271Y-130956552D01*
X141229009Y-130927222D01*
X141385534Y-130843557D01*
X141555373Y-130792037D01*
X141732000Y-130774641D01*
X141908626Y-130792037D01*
G37*
G36*
X162228626Y-130792037D02*
G01*
X162398465Y-130843557D01*
X162398467Y-130843558D01*
X162554989Y-130927221D01*
X162692186Y-131039814D01*
X162775448Y-131141271D01*
X162804778Y-131177009D01*
X162888443Y-131333534D01*
X162939963Y-131503373D01*
X162953000Y-131635742D01*
X162953000Y-132524258D01*
X162939963Y-132656627D01*
X162888443Y-132826466D01*
X162804778Y-132982991D01*
X162775448Y-133018729D01*
X162692186Y-133120186D01*
X162590729Y-133203448D01*
X162554991Y-133232778D01*
X162398466Y-133316443D01*
X162228627Y-133367963D01*
X162052000Y-133385359D01*
X161875374Y-133367963D01*
X161705535Y-133316443D01*
X161549010Y-133232778D01*
X161513272Y-133203448D01*
X161411815Y-133120186D01*
X161328553Y-133018729D01*
X161299223Y-132982991D01*
X161215558Y-132826466D01*
X161164038Y-132656627D01*
X161151000Y-132524258D01*
X161151000Y-131635743D01*
X161164037Y-131503374D01*
X161215557Y-131333535D01*
X161299222Y-131177010D01*
X161299223Y-131177009D01*
X161411814Y-131039814D01*
X161513271Y-130956552D01*
X161549009Y-130927222D01*
X161705534Y-130843557D01*
X161875373Y-130792037D01*
X162052000Y-130774641D01*
X162228626Y-130792037D01*
G37*
G36*
X164768626Y-130792037D02*
G01*
X164938465Y-130843557D01*
X164938467Y-130843558D01*
X165094989Y-130927221D01*
X165232186Y-131039814D01*
X165315448Y-131141271D01*
X165344778Y-131177009D01*
X165428443Y-131333534D01*
X165479963Y-131503373D01*
X165493000Y-131635742D01*
X165493000Y-132524258D01*
X165479963Y-132656627D01*
X165428443Y-132826466D01*
X165344778Y-132982991D01*
X165315448Y-133018729D01*
X165232186Y-133120186D01*
X165130729Y-133203448D01*
X165094991Y-133232778D01*
X164938466Y-133316443D01*
X164768627Y-133367963D01*
X164592000Y-133385359D01*
X164415374Y-133367963D01*
X164245535Y-133316443D01*
X164089010Y-133232778D01*
X164053272Y-133203448D01*
X163951815Y-133120186D01*
X163868553Y-133018729D01*
X163839223Y-132982991D01*
X163755558Y-132826466D01*
X163704038Y-132656627D01*
X163691000Y-132524258D01*
X163691000Y-131635743D01*
X163704037Y-131503374D01*
X163755557Y-131333535D01*
X163839222Y-131177010D01*
X163839223Y-131177009D01*
X163951814Y-131039814D01*
X164053271Y-130956552D01*
X164089009Y-130927222D01*
X164245534Y-130843557D01*
X164415373Y-130792037D01*
X164592000Y-130774641D01*
X164768626Y-130792037D01*
G37*
G36*
X167308626Y-130792037D02*
G01*
X167478465Y-130843557D01*
X167478467Y-130843558D01*
X167634989Y-130927221D01*
X167772186Y-131039814D01*
X167855448Y-131141271D01*
X167884778Y-131177009D01*
X167968443Y-131333534D01*
X168019963Y-131503373D01*
X168033000Y-131635742D01*
X168033000Y-132524258D01*
X168019963Y-132656627D01*
X167968443Y-132826466D01*
X167884778Y-132982991D01*
X167855448Y-133018729D01*
X167772186Y-133120186D01*
X167670729Y-133203448D01*
X167634991Y-133232778D01*
X167478466Y-133316443D01*
X167308627Y-133367963D01*
X167132000Y-133385359D01*
X166955374Y-133367963D01*
X166785535Y-133316443D01*
X166629010Y-133232778D01*
X166593272Y-133203448D01*
X166491815Y-133120186D01*
X166408553Y-133018729D01*
X166379223Y-132982991D01*
X166295558Y-132826466D01*
X166244038Y-132656627D01*
X166231000Y-132524258D01*
X166231000Y-131635743D01*
X166244037Y-131503374D01*
X166295557Y-131333535D01*
X166379222Y-131177010D01*
X166379223Y-131177009D01*
X166491814Y-131039814D01*
X166593271Y-130956552D01*
X166629009Y-130927222D01*
X166785534Y-130843557D01*
X166955373Y-130792037D01*
X167132000Y-130774641D01*
X167308626Y-130792037D01*
G37*
G36*
X169848626Y-130792037D02*
G01*
X170018465Y-130843557D01*
X170018467Y-130843558D01*
X170174989Y-130927221D01*
X170312186Y-131039814D01*
X170395448Y-131141271D01*
X170424778Y-131177009D01*
X170508443Y-131333534D01*
X170559963Y-131503373D01*
X170573000Y-131635742D01*
X170573000Y-132524258D01*
X170559963Y-132656627D01*
X170508443Y-132826466D01*
X170424778Y-132982991D01*
X170395448Y-133018729D01*
X170312186Y-133120186D01*
X170210729Y-133203448D01*
X170174991Y-133232778D01*
X170018466Y-133316443D01*
X169848627Y-133367963D01*
X169672000Y-133385359D01*
X169495374Y-133367963D01*
X169325535Y-133316443D01*
X169169010Y-133232778D01*
X169133272Y-133203448D01*
X169031815Y-133120186D01*
X168948553Y-133018729D01*
X168919223Y-132982991D01*
X168835558Y-132826466D01*
X168784038Y-132656627D01*
X168771000Y-132524258D01*
X168771000Y-131635743D01*
X168784037Y-131503374D01*
X168835557Y-131333535D01*
X168919222Y-131177010D01*
X168919223Y-131177009D01*
X169031814Y-131039814D01*
X169133271Y-130956552D01*
X169169009Y-130927222D01*
X169325534Y-130843557D01*
X169495373Y-130792037D01*
X169672000Y-130774641D01*
X169848626Y-130792037D01*
G37*
G36*
X172388626Y-130792037D02*
G01*
X172558465Y-130843557D01*
X172558467Y-130843558D01*
X172714989Y-130927221D01*
X172852186Y-131039814D01*
X172935448Y-131141271D01*
X172964778Y-131177009D01*
X173048443Y-131333534D01*
X173099963Y-131503373D01*
X173113000Y-131635742D01*
X173113000Y-132524258D01*
X173099963Y-132656627D01*
X173048443Y-132826466D01*
X172964778Y-132982991D01*
X172935448Y-133018729D01*
X172852186Y-133120186D01*
X172750729Y-133203448D01*
X172714991Y-133232778D01*
X172558466Y-133316443D01*
X172388627Y-133367963D01*
X172212000Y-133385359D01*
X172035374Y-133367963D01*
X171865535Y-133316443D01*
X171709010Y-133232778D01*
X171673272Y-133203448D01*
X171571815Y-133120186D01*
X171488553Y-133018729D01*
X171459223Y-132982991D01*
X171375558Y-132826466D01*
X171324038Y-132656627D01*
X171311000Y-132524258D01*
X171311000Y-131635743D01*
X171324037Y-131503374D01*
X171375557Y-131333535D01*
X171459222Y-131177010D01*
X171459223Y-131177009D01*
X171571814Y-131039814D01*
X171673271Y-130956552D01*
X171709009Y-130927222D01*
X171865534Y-130843557D01*
X172035373Y-130792037D01*
X172212000Y-130774641D01*
X172388626Y-130792037D01*
G37*
G36*
X174928626Y-130792037D02*
G01*
X175098465Y-130843557D01*
X175098467Y-130843558D01*
X175254989Y-130927221D01*
X175392186Y-131039814D01*
X175475448Y-131141271D01*
X175504778Y-131177009D01*
X175588443Y-131333534D01*
X175639963Y-131503373D01*
X175653000Y-131635742D01*
X175653000Y-132524258D01*
X175639963Y-132656627D01*
X175588443Y-132826466D01*
X175504778Y-132982991D01*
X175475448Y-133018729D01*
X175392186Y-133120186D01*
X175290729Y-133203448D01*
X175254991Y-133232778D01*
X175098466Y-133316443D01*
X174928627Y-133367963D01*
X174752000Y-133385359D01*
X174575374Y-133367963D01*
X174405535Y-133316443D01*
X174249010Y-133232778D01*
X174213272Y-133203448D01*
X174111815Y-133120186D01*
X174028553Y-133018729D01*
X173999223Y-132982991D01*
X173915558Y-132826466D01*
X173864038Y-132656627D01*
X173851000Y-132524258D01*
X173851000Y-131635743D01*
X173864037Y-131503374D01*
X173915557Y-131333535D01*
X173999222Y-131177010D01*
X173999223Y-131177009D01*
X174111814Y-131039814D01*
X174213271Y-130956552D01*
X174249009Y-130927222D01*
X174405534Y-130843557D01*
X174575373Y-130792037D01*
X174752000Y-130774641D01*
X174928626Y-130792037D01*
G37*
G36*
X167496499Y-129208445D02*
G01*
X167533995Y-129219820D01*
X167568554Y-129238292D01*
X167598847Y-129263153D01*
X167623708Y-129293446D01*
X167642180Y-129328005D01*
X167653555Y-129365501D01*
X167658000Y-129410638D01*
X167658000Y-130149362D01*
X167653555Y-130194499D01*
X167642180Y-130231995D01*
X167623708Y-130266554D01*
X167598847Y-130296847D01*
X167568554Y-130321708D01*
X167533995Y-130340180D01*
X167496499Y-130351555D01*
X167451362Y-130356000D01*
X166812638Y-130356000D01*
X166767501Y-130351555D01*
X166730005Y-130340180D01*
X166695446Y-130321708D01*
X166665153Y-130296847D01*
X166640292Y-130266554D01*
X166621820Y-130231995D01*
X166610445Y-130194499D01*
X166606000Y-130149362D01*
X166606000Y-129410638D01*
X166610445Y-129365501D01*
X166621820Y-129328005D01*
X166640292Y-129293446D01*
X166665153Y-129263153D01*
X166695446Y-129238292D01*
X166730005Y-129219820D01*
X166767501Y-129208445D01*
X166812638Y-129204000D01*
X167451362Y-129204000D01*
X167496499Y-129208445D01*
G37*
G36*
X152256499Y-129208445D02*
G01*
X152293995Y-129219820D01*
X152328554Y-129238292D01*
X152358847Y-129263153D01*
X152383708Y-129293446D01*
X152402180Y-129328005D01*
X152413555Y-129365501D01*
X152418000Y-129410638D01*
X152418000Y-130149362D01*
X152413555Y-130194499D01*
X152402180Y-130231995D01*
X152383708Y-130266554D01*
X152358847Y-130296847D01*
X152328554Y-130321708D01*
X152293995Y-130340180D01*
X152256499Y-130351555D01*
X152211362Y-130356000D01*
X151572638Y-130356000D01*
X151527501Y-130351555D01*
X151490005Y-130340180D01*
X151455446Y-130321708D01*
X151425153Y-130296847D01*
X151400292Y-130266554D01*
X151381820Y-130231995D01*
X151370445Y-130194499D01*
X151366000Y-130149362D01*
X151366000Y-129410638D01*
X151370445Y-129365501D01*
X151381820Y-129328005D01*
X151400292Y-129293446D01*
X151425153Y-129263153D01*
X151455446Y-129238292D01*
X151490005Y-129219820D01*
X151527501Y-129208445D01*
X151572638Y-129204000D01*
X152211362Y-129204000D01*
X152256499Y-129208445D01*
G37*
G36*
X149716499Y-129208445D02*
G01*
X149753995Y-129219820D01*
X149788554Y-129238292D01*
X149818847Y-129263153D01*
X149843708Y-129293446D01*
X149862180Y-129328005D01*
X149873555Y-129365501D01*
X149878000Y-129410638D01*
X149878000Y-130149362D01*
X149873555Y-130194499D01*
X149862180Y-130231995D01*
X149843708Y-130266554D01*
X149818847Y-130296847D01*
X149788554Y-130321708D01*
X149753995Y-130340180D01*
X149716499Y-130351555D01*
X149671362Y-130356000D01*
X149032638Y-130356000D01*
X148987501Y-130351555D01*
X148950005Y-130340180D01*
X148915446Y-130321708D01*
X148885153Y-130296847D01*
X148860292Y-130266554D01*
X148841820Y-130231995D01*
X148830445Y-130194499D01*
X148826000Y-130149362D01*
X148826000Y-129410638D01*
X148830445Y-129365501D01*
X148841820Y-129328005D01*
X148860292Y-129293446D01*
X148885153Y-129263153D01*
X148915446Y-129238292D01*
X148950005Y-129219820D01*
X148987501Y-129208445D01*
X149032638Y-129204000D01*
X149671362Y-129204000D01*
X149716499Y-129208445D01*
G37*
G36*
X144636499Y-129208445D02*
G01*
X144673995Y-129219820D01*
X144708554Y-129238292D01*
X144738847Y-129263153D01*
X144763708Y-129293446D01*
X144782180Y-129328005D01*
X144793555Y-129365501D01*
X144798000Y-129410638D01*
X144798000Y-130149362D01*
X144793555Y-130194499D01*
X144782180Y-130231995D01*
X144763708Y-130266554D01*
X144738847Y-130296847D01*
X144708554Y-130321708D01*
X144673995Y-130340180D01*
X144636499Y-130351555D01*
X144591362Y-130356000D01*
X143952638Y-130356000D01*
X143907501Y-130351555D01*
X143870005Y-130340180D01*
X143835446Y-130321708D01*
X143805153Y-130296847D01*
X143780292Y-130266554D01*
X143761820Y-130231995D01*
X143750445Y-130194499D01*
X143746000Y-130149362D01*
X143746000Y-129410638D01*
X143750445Y-129365501D01*
X143761820Y-129328005D01*
X143780292Y-129293446D01*
X143805153Y-129263153D01*
X143835446Y-129238292D01*
X143870005Y-129219820D01*
X143907501Y-129208445D01*
X143952638Y-129204000D01*
X144591362Y-129204000D01*
X144636499Y-129208445D01*
G37*
G36*
X142096499Y-129208445D02*
G01*
X142133995Y-129219820D01*
X142168554Y-129238292D01*
X142198847Y-129263153D01*
X142223708Y-129293446D01*
X142242180Y-129328005D01*
X142253555Y-129365501D01*
X142258000Y-129410638D01*
X142258000Y-130149362D01*
X142253555Y-130194499D01*
X142242180Y-130231995D01*
X142223708Y-130266554D01*
X142198847Y-130296847D01*
X142168554Y-130321708D01*
X142133995Y-130340180D01*
X142096499Y-130351555D01*
X142051362Y-130356000D01*
X141412638Y-130356000D01*
X141367501Y-130351555D01*
X141330005Y-130340180D01*
X141295446Y-130321708D01*
X141265153Y-130296847D01*
X141240292Y-130266554D01*
X141221820Y-130231995D01*
X141210445Y-130194499D01*
X141206000Y-130149362D01*
X141206000Y-129410638D01*
X141210445Y-129365501D01*
X141221820Y-129328005D01*
X141240292Y-129293446D01*
X141265153Y-129263153D01*
X141295446Y-129238292D01*
X141330005Y-129219820D01*
X141367501Y-129208445D01*
X141412638Y-129204000D01*
X142051362Y-129204000D01*
X142096499Y-129208445D01*
G37*
G36*
X139556499Y-129208445D02*
G01*
X139593995Y-129219820D01*
X139628554Y-129238292D01*
X139658847Y-129263153D01*
X139683708Y-129293446D01*
X139702180Y-129328005D01*
X139713555Y-129365501D01*
X139718000Y-129410638D01*
X139718000Y-130149362D01*
X139713555Y-130194499D01*
X139702180Y-130231995D01*
X139683708Y-130266554D01*
X139658847Y-130296847D01*
X139628554Y-130321708D01*
X139593995Y-130340180D01*
X139556499Y-130351555D01*
X139511362Y-130356000D01*
X138872638Y-130356000D01*
X138827501Y-130351555D01*
X138790005Y-130340180D01*
X138755446Y-130321708D01*
X138725153Y-130296847D01*
X138700292Y-130266554D01*
X138681820Y-130231995D01*
X138670445Y-130194499D01*
X138666000Y-130149362D01*
X138666000Y-129410638D01*
X138670445Y-129365501D01*
X138681820Y-129328005D01*
X138700292Y-129293446D01*
X138725153Y-129263153D01*
X138755446Y-129238292D01*
X138790005Y-129219820D01*
X138827501Y-129208445D01*
X138872638Y-129204000D01*
X139511362Y-129204000D01*
X139556499Y-129208445D01*
G37*
G36*
X147176499Y-129208445D02*
G01*
X147213995Y-129219820D01*
X147248554Y-129238292D01*
X147278847Y-129263153D01*
X147303708Y-129293446D01*
X147322180Y-129328005D01*
X147333555Y-129365501D01*
X147338000Y-129410638D01*
X147338000Y-130149362D01*
X147333555Y-130194499D01*
X147322180Y-130231995D01*
X147303708Y-130266554D01*
X147278847Y-130296847D01*
X147248554Y-130321708D01*
X147213995Y-130340180D01*
X147176499Y-130351555D01*
X147131362Y-130356000D01*
X146492638Y-130356000D01*
X146447501Y-130351555D01*
X146410005Y-130340180D01*
X146375446Y-130321708D01*
X146345153Y-130296847D01*
X146320292Y-130266554D01*
X146301820Y-130231995D01*
X146290445Y-130194499D01*
X146286000Y-130149362D01*
X146286000Y-129410638D01*
X146290445Y-129365501D01*
X146301820Y-129328005D01*
X146320292Y-129293446D01*
X146345153Y-129263153D01*
X146375446Y-129238292D01*
X146410005Y-129219820D01*
X146447501Y-129208445D01*
X146492638Y-129204000D01*
X147131362Y-129204000D01*
X147176499Y-129208445D01*
G37*
G36*
X154796499Y-129208445D02*
G01*
X154833995Y-129219820D01*
X154868554Y-129238292D01*
X154898847Y-129263153D01*
X154923708Y-129293446D01*
X154942180Y-129328005D01*
X154953555Y-129365501D01*
X154958000Y-129410638D01*
X154958000Y-130149362D01*
X154953555Y-130194499D01*
X154942180Y-130231995D01*
X154923708Y-130266554D01*
X154898847Y-130296847D01*
X154868554Y-130321708D01*
X154833995Y-130340180D01*
X154796499Y-130351555D01*
X154751362Y-130356000D01*
X154112638Y-130356000D01*
X154067501Y-130351555D01*
X154030005Y-130340180D01*
X153995446Y-130321708D01*
X153965153Y-130296847D01*
X153940292Y-130266554D01*
X153921820Y-130231995D01*
X153910445Y-130194499D01*
X153906000Y-130149362D01*
X153906000Y-129410638D01*
X153910445Y-129365501D01*
X153921820Y-129328005D01*
X153940292Y-129293446D01*
X153965153Y-129263153D01*
X153995446Y-129238292D01*
X154030005Y-129219820D01*
X154067501Y-129208445D01*
X154112638Y-129204000D01*
X154751362Y-129204000D01*
X154796499Y-129208445D01*
G37*
G36*
X157336499Y-129208445D02*
G01*
X157373995Y-129219820D01*
X157408554Y-129238292D01*
X157438847Y-129263153D01*
X157463708Y-129293446D01*
X157482180Y-129328005D01*
X157493555Y-129365501D01*
X157498000Y-129410638D01*
X157498000Y-130149362D01*
X157493555Y-130194499D01*
X157482180Y-130231995D01*
X157463708Y-130266554D01*
X157438847Y-130296847D01*
X157408554Y-130321708D01*
X157373995Y-130340180D01*
X157336499Y-130351555D01*
X157291362Y-130356000D01*
X156652638Y-130356000D01*
X156607501Y-130351555D01*
X156570005Y-130340180D01*
X156535446Y-130321708D01*
X156505153Y-130296847D01*
X156480292Y-130266554D01*
X156461820Y-130231995D01*
X156450445Y-130194499D01*
X156446000Y-130149362D01*
X156446000Y-129410638D01*
X156450445Y-129365501D01*
X156461820Y-129328005D01*
X156480292Y-129293446D01*
X156505153Y-129263153D01*
X156535446Y-129238292D01*
X156570005Y-129219820D01*
X156607501Y-129208445D01*
X156652638Y-129204000D01*
X157291362Y-129204000D01*
X157336499Y-129208445D01*
G37*
G36*
X159876499Y-129208445D02*
G01*
X159913995Y-129219820D01*
X159948554Y-129238292D01*
X159978847Y-129263153D01*
X160003708Y-129293446D01*
X160022180Y-129328005D01*
X160033555Y-129365501D01*
X160038000Y-129410638D01*
X160038000Y-130149362D01*
X160033555Y-130194499D01*
X160022180Y-130231995D01*
X160003708Y-130266554D01*
X159978847Y-130296847D01*
X159948554Y-130321708D01*
X159913995Y-130340180D01*
X159876499Y-130351555D01*
X159831362Y-130356000D01*
X159192638Y-130356000D01*
X159147501Y-130351555D01*
X159110005Y-130340180D01*
X159075446Y-130321708D01*
X159045153Y-130296847D01*
X159020292Y-130266554D01*
X159001820Y-130231995D01*
X158990445Y-130194499D01*
X158986000Y-130149362D01*
X158986000Y-129410638D01*
X158990445Y-129365501D01*
X159001820Y-129328005D01*
X159020292Y-129293446D01*
X159045153Y-129263153D01*
X159075446Y-129238292D01*
X159110005Y-129219820D01*
X159147501Y-129208445D01*
X159192638Y-129204000D01*
X159831362Y-129204000D01*
X159876499Y-129208445D01*
G37*
G36*
X164956499Y-129208445D02*
G01*
X164993995Y-129219820D01*
X165028554Y-129238292D01*
X165058847Y-129263153D01*
X165083708Y-129293446D01*
X165102180Y-129328005D01*
X165113555Y-129365501D01*
X165118000Y-129410638D01*
X165118000Y-130149362D01*
X165113555Y-130194499D01*
X165102180Y-130231995D01*
X165083708Y-130266554D01*
X165058847Y-130296847D01*
X165028554Y-130321708D01*
X164993995Y-130340180D01*
X164956499Y-130351555D01*
X164911362Y-130356000D01*
X164272638Y-130356000D01*
X164227501Y-130351555D01*
X164190005Y-130340180D01*
X164155446Y-130321708D01*
X164125153Y-130296847D01*
X164100292Y-130266554D01*
X164081820Y-130231995D01*
X164070445Y-130194499D01*
X164066000Y-130149362D01*
X164066000Y-129410638D01*
X164070445Y-129365501D01*
X164081820Y-129328005D01*
X164100292Y-129293446D01*
X164125153Y-129263153D01*
X164155446Y-129238292D01*
X164190005Y-129219820D01*
X164227501Y-129208445D01*
X164272638Y-129204000D01*
X164911362Y-129204000D01*
X164956499Y-129208445D01*
G37*
G36*
X170036499Y-129208445D02*
G01*
X170073995Y-129219820D01*
X170108554Y-129238292D01*
X170138847Y-129263153D01*
X170163708Y-129293446D01*
X170182180Y-129328005D01*
X170193555Y-129365501D01*
X170198000Y-129410638D01*
X170198000Y-130149362D01*
X170193555Y-130194499D01*
X170182180Y-130231995D01*
X170163708Y-130266554D01*
X170138847Y-130296847D01*
X170108554Y-130321708D01*
X170073995Y-130340180D01*
X170036499Y-130351555D01*
X169991362Y-130356000D01*
X169352638Y-130356000D01*
X169307501Y-130351555D01*
X169270005Y-130340180D01*
X169235446Y-130321708D01*
X169205153Y-130296847D01*
X169180292Y-130266554D01*
X169161820Y-130231995D01*
X169150445Y-130194499D01*
X169146000Y-130149362D01*
X169146000Y-129410638D01*
X169150445Y-129365501D01*
X169161820Y-129328005D01*
X169180292Y-129293446D01*
X169205153Y-129263153D01*
X169235446Y-129238292D01*
X169270005Y-129219820D01*
X169307501Y-129208445D01*
X169352638Y-129204000D01*
X169991362Y-129204000D01*
X170036499Y-129208445D01*
G37*
G36*
X162416499Y-129208445D02*
G01*
X162453995Y-129219820D01*
X162488554Y-129238292D01*
X162518847Y-129263153D01*
X162543708Y-129293446D01*
X162562180Y-129328005D01*
X162573555Y-129365501D01*
X162578000Y-129410638D01*
X162578000Y-130149362D01*
X162573555Y-130194499D01*
X162562180Y-130231995D01*
X162543708Y-130266554D01*
X162518847Y-130296847D01*
X162488554Y-130321708D01*
X162453995Y-130340180D01*
X162416499Y-130351555D01*
X162371362Y-130356000D01*
X161732638Y-130356000D01*
X161687501Y-130351555D01*
X161650005Y-130340180D01*
X161615446Y-130321708D01*
X161585153Y-130296847D01*
X161560292Y-130266554D01*
X161541820Y-130231995D01*
X161530445Y-130194499D01*
X161526000Y-130149362D01*
X161526000Y-129410638D01*
X161530445Y-129365501D01*
X161541820Y-129328005D01*
X161560292Y-129293446D01*
X161585153Y-129263153D01*
X161615446Y-129238292D01*
X161650005Y-129219820D01*
X161687501Y-129208445D01*
X161732638Y-129204000D01*
X162371362Y-129204000D01*
X162416499Y-129208445D01*
G37*
G36*
X172576499Y-129206445D02*
G01*
X172613995Y-129217820D01*
X172648554Y-129236292D01*
X172678847Y-129261153D01*
X172703708Y-129291446D01*
X172722180Y-129326005D01*
X172733555Y-129363501D01*
X172738000Y-129408638D01*
X172738000Y-130147362D01*
X172733555Y-130192499D01*
X172722180Y-130229995D01*
X172703708Y-130264554D01*
X172678847Y-130294847D01*
X172648554Y-130319708D01*
X172613995Y-130338180D01*
X172576499Y-130349555D01*
X172531362Y-130354000D01*
X171892638Y-130354000D01*
X171847501Y-130349555D01*
X171810005Y-130338180D01*
X171775446Y-130319708D01*
X171745153Y-130294847D01*
X171720292Y-130264554D01*
X171701820Y-130229995D01*
X171690445Y-130192499D01*
X171686000Y-130147362D01*
X171686000Y-129408638D01*
X171690445Y-129363501D01*
X171701820Y-129326005D01*
X171720292Y-129291446D01*
X171745153Y-129261153D01*
X171775446Y-129236292D01*
X171810005Y-129217820D01*
X171847501Y-129206445D01*
X171892638Y-129202000D01*
X172531362Y-129202000D01*
X172576499Y-129206445D01*
G37*
G36*
X139556499Y-127458445D02*
G01*
X139593995Y-127469820D01*
X139628554Y-127488292D01*
X139658847Y-127513153D01*
X139683708Y-127543446D01*
X139702180Y-127578005D01*
X139713555Y-127615501D01*
X139718000Y-127660638D01*
X139718000Y-128399362D01*
X139713555Y-128444499D01*
X139702180Y-128481995D01*
X139683708Y-128516554D01*
X139658847Y-128546847D01*
X139628554Y-128571708D01*
X139593995Y-128590180D01*
X139556499Y-128601555D01*
X139511362Y-128606000D01*
X138872638Y-128606000D01*
X138827501Y-128601555D01*
X138790005Y-128590180D01*
X138755446Y-128571708D01*
X138725153Y-128546847D01*
X138700292Y-128516554D01*
X138681820Y-128481995D01*
X138670445Y-128444499D01*
X138666000Y-128399362D01*
X138666000Y-127660638D01*
X138670445Y-127615501D01*
X138681820Y-127578005D01*
X138700292Y-127543446D01*
X138725153Y-127513153D01*
X138755446Y-127488292D01*
X138790005Y-127469820D01*
X138827501Y-127458445D01*
X138872638Y-127454000D01*
X139511362Y-127454000D01*
X139556499Y-127458445D01*
G37*
G36*
X154796499Y-127458445D02*
G01*
X154833995Y-127469820D01*
X154868554Y-127488292D01*
X154898847Y-127513153D01*
X154923708Y-127543446D01*
X154942180Y-127578005D01*
X154953555Y-127615501D01*
X154958000Y-127660638D01*
X154958000Y-128399362D01*
X154953555Y-128444499D01*
X154942180Y-128481995D01*
X154923708Y-128516554D01*
X154898847Y-128546847D01*
X154868554Y-128571708D01*
X154833995Y-128590180D01*
X154796499Y-128601555D01*
X154751362Y-128606000D01*
X154112638Y-128606000D01*
X154067501Y-128601555D01*
X154030005Y-128590180D01*
X153995446Y-128571708D01*
X153965153Y-128546847D01*
X153940292Y-128516554D01*
X153921820Y-128481995D01*
X153910445Y-128444499D01*
X153906000Y-128399362D01*
X153906000Y-127660638D01*
X153910445Y-127615501D01*
X153921820Y-127578005D01*
X153940292Y-127543446D01*
X153965153Y-127513153D01*
X153995446Y-127488292D01*
X154030005Y-127469820D01*
X154067501Y-127458445D01*
X154112638Y-127454000D01*
X154751362Y-127454000D01*
X154796499Y-127458445D01*
G37*
G36*
X152256499Y-127458445D02*
G01*
X152293995Y-127469820D01*
X152328554Y-127488292D01*
X152358847Y-127513153D01*
X152383708Y-127543446D01*
X152402180Y-127578005D01*
X152413555Y-127615501D01*
X152418000Y-127660638D01*
X152418000Y-128399362D01*
X152413555Y-128444499D01*
X152402180Y-128481995D01*
X152383708Y-128516554D01*
X152358847Y-128546847D01*
X152328554Y-128571708D01*
X152293995Y-128590180D01*
X152256499Y-128601555D01*
X152211362Y-128606000D01*
X151572638Y-128606000D01*
X151527501Y-128601555D01*
X151490005Y-128590180D01*
X151455446Y-128571708D01*
X151425153Y-128546847D01*
X151400292Y-128516554D01*
X151381820Y-128481995D01*
X151370445Y-128444499D01*
X151366000Y-128399362D01*
X151366000Y-127660638D01*
X151370445Y-127615501D01*
X151381820Y-127578005D01*
X151400292Y-127543446D01*
X151425153Y-127513153D01*
X151455446Y-127488292D01*
X151490005Y-127469820D01*
X151527501Y-127458445D01*
X151572638Y-127454000D01*
X152211362Y-127454000D01*
X152256499Y-127458445D01*
G37*
G36*
X157336499Y-127458445D02*
G01*
X157373995Y-127469820D01*
X157408554Y-127488292D01*
X157438847Y-127513153D01*
X157463708Y-127543446D01*
X157482180Y-127578005D01*
X157493555Y-127615501D01*
X157498000Y-127660638D01*
X157498000Y-128399362D01*
X157493555Y-128444499D01*
X157482180Y-128481995D01*
X157463708Y-128516554D01*
X157438847Y-128546847D01*
X157408554Y-128571708D01*
X157373995Y-128590180D01*
X157336499Y-128601555D01*
X157291362Y-128606000D01*
X156652638Y-128606000D01*
X156607501Y-128601555D01*
X156570005Y-128590180D01*
X156535446Y-128571708D01*
X156505153Y-128546847D01*
X156480292Y-128516554D01*
X156461820Y-128481995D01*
X156450445Y-128444499D01*
X156446000Y-128399362D01*
X156446000Y-127660638D01*
X156450445Y-127615501D01*
X156461820Y-127578005D01*
X156480292Y-127543446D01*
X156505153Y-127513153D01*
X156535446Y-127488292D01*
X156570005Y-127469820D01*
X156607501Y-127458445D01*
X156652638Y-127454000D01*
X157291362Y-127454000D01*
X157336499Y-127458445D01*
G37*
G36*
X159876499Y-127458445D02*
G01*
X159913995Y-127469820D01*
X159948554Y-127488292D01*
X159978847Y-127513153D01*
X160003708Y-127543446D01*
X160022180Y-127578005D01*
X160033555Y-127615501D01*
X160038000Y-127660638D01*
X160038000Y-128399362D01*
X160033555Y-128444499D01*
X160022180Y-128481995D01*
X160003708Y-128516554D01*
X159978847Y-128546847D01*
X159948554Y-128571708D01*
X159913995Y-128590180D01*
X159876499Y-128601555D01*
X159831362Y-128606000D01*
X159192638Y-128606000D01*
X159147501Y-128601555D01*
X159110005Y-128590180D01*
X159075446Y-128571708D01*
X159045153Y-128546847D01*
X159020292Y-128516554D01*
X159001820Y-128481995D01*
X158990445Y-128444499D01*
X158986000Y-128399362D01*
X158986000Y-127660638D01*
X158990445Y-127615501D01*
X159001820Y-127578005D01*
X159020292Y-127543446D01*
X159045153Y-127513153D01*
X159075446Y-127488292D01*
X159110005Y-127469820D01*
X159147501Y-127458445D01*
X159192638Y-127454000D01*
X159831362Y-127454000D01*
X159876499Y-127458445D01*
G37*
G36*
X149716499Y-127458445D02*
G01*
X149753995Y-127469820D01*
X149788554Y-127488292D01*
X149818847Y-127513153D01*
X149843708Y-127543446D01*
X149862180Y-127578005D01*
X149873555Y-127615501D01*
X149878000Y-127660638D01*
X149878000Y-128399362D01*
X149873555Y-128444499D01*
X149862180Y-128481995D01*
X149843708Y-128516554D01*
X149818847Y-128546847D01*
X149788554Y-128571708D01*
X149753995Y-128590180D01*
X149716499Y-128601555D01*
X149671362Y-128606000D01*
X149032638Y-128606000D01*
X148987501Y-128601555D01*
X148950005Y-128590180D01*
X148915446Y-128571708D01*
X148885153Y-128546847D01*
X148860292Y-128516554D01*
X148841820Y-128481995D01*
X148830445Y-128444499D01*
X148826000Y-128399362D01*
X148826000Y-127660638D01*
X148830445Y-127615501D01*
X148841820Y-127578005D01*
X148860292Y-127543446D01*
X148885153Y-127513153D01*
X148915446Y-127488292D01*
X148950005Y-127469820D01*
X148987501Y-127458445D01*
X149032638Y-127454000D01*
X149671362Y-127454000D01*
X149716499Y-127458445D01*
G37*
G36*
X162416499Y-127458445D02*
G01*
X162453995Y-127469820D01*
X162488554Y-127488292D01*
X162518847Y-127513153D01*
X162543708Y-127543446D01*
X162562180Y-127578005D01*
X162573555Y-127615501D01*
X162578000Y-127660638D01*
X162578000Y-128399362D01*
X162573555Y-128444499D01*
X162562180Y-128481995D01*
X162543708Y-128516554D01*
X162518847Y-128546847D01*
X162488554Y-128571708D01*
X162453995Y-128590180D01*
X162416499Y-128601555D01*
X162371362Y-128606000D01*
X161732638Y-128606000D01*
X161687501Y-128601555D01*
X161650005Y-128590180D01*
X161615446Y-128571708D01*
X161585153Y-128546847D01*
X161560292Y-128516554D01*
X161541820Y-128481995D01*
X161530445Y-128444499D01*
X161526000Y-128399362D01*
X161526000Y-127660638D01*
X161530445Y-127615501D01*
X161541820Y-127578005D01*
X161560292Y-127543446D01*
X161585153Y-127513153D01*
X161615446Y-127488292D01*
X161650005Y-127469820D01*
X161687501Y-127458445D01*
X161732638Y-127454000D01*
X162371362Y-127454000D01*
X162416499Y-127458445D01*
G37*
G36*
X147176499Y-127458445D02*
G01*
X147213995Y-127469820D01*
X147248554Y-127488292D01*
X147278847Y-127513153D01*
X147303708Y-127543446D01*
X147322180Y-127578005D01*
X147333555Y-127615501D01*
X147338000Y-127660638D01*
X147338000Y-128399362D01*
X147333555Y-128444499D01*
X147322180Y-128481995D01*
X147303708Y-128516554D01*
X147278847Y-128546847D01*
X147248554Y-128571708D01*
X147213995Y-128590180D01*
X147176499Y-128601555D01*
X147131362Y-128606000D01*
X146492638Y-128606000D01*
X146447501Y-128601555D01*
X146410005Y-128590180D01*
X146375446Y-128571708D01*
X146345153Y-128546847D01*
X146320292Y-128516554D01*
X146301820Y-128481995D01*
X146290445Y-128444499D01*
X146286000Y-128399362D01*
X146286000Y-127660638D01*
X146290445Y-127615501D01*
X146301820Y-127578005D01*
X146320292Y-127543446D01*
X146345153Y-127513153D01*
X146375446Y-127488292D01*
X146410005Y-127469820D01*
X146447501Y-127458445D01*
X146492638Y-127454000D01*
X147131362Y-127454000D01*
X147176499Y-127458445D01*
G37*
G36*
X167496499Y-127458445D02*
G01*
X167533995Y-127469820D01*
X167568554Y-127488292D01*
X167598847Y-127513153D01*
X167623708Y-127543446D01*
X167642180Y-127578005D01*
X167653555Y-127615501D01*
X167658000Y-127660638D01*
X167658000Y-128399362D01*
X167653555Y-128444499D01*
X167642180Y-128481995D01*
X167623708Y-128516554D01*
X167598847Y-128546847D01*
X167568554Y-128571708D01*
X167533995Y-128590180D01*
X167496499Y-128601555D01*
X167451362Y-128606000D01*
X166812638Y-128606000D01*
X166767501Y-128601555D01*
X166730005Y-128590180D01*
X166695446Y-128571708D01*
X166665153Y-128546847D01*
X166640292Y-128516554D01*
X166621820Y-128481995D01*
X166610445Y-128444499D01*
X166606000Y-128399362D01*
X166606000Y-127660638D01*
X166610445Y-127615501D01*
X166621820Y-127578005D01*
X166640292Y-127543446D01*
X166665153Y-127513153D01*
X166695446Y-127488292D01*
X166730005Y-127469820D01*
X166767501Y-127458445D01*
X166812638Y-127454000D01*
X167451362Y-127454000D01*
X167496499Y-127458445D01*
G37*
G36*
X170036499Y-127458445D02*
G01*
X170073995Y-127469820D01*
X170108554Y-127488292D01*
X170138847Y-127513153D01*
X170163708Y-127543446D01*
X170182180Y-127578005D01*
X170193555Y-127615501D01*
X170198000Y-127660638D01*
X170198000Y-128399362D01*
X170193555Y-128444499D01*
X170182180Y-128481995D01*
X170163708Y-128516554D01*
X170138847Y-128546847D01*
X170108554Y-128571708D01*
X170073995Y-128590180D01*
X170036499Y-128601555D01*
X169991362Y-128606000D01*
X169352638Y-128606000D01*
X169307501Y-128601555D01*
X169270005Y-128590180D01*
X169235446Y-128571708D01*
X169205153Y-128546847D01*
X169180292Y-128516554D01*
X169161820Y-128481995D01*
X169150445Y-128444499D01*
X169146000Y-128399362D01*
X169146000Y-127660638D01*
X169150445Y-127615501D01*
X169161820Y-127578005D01*
X169180292Y-127543446D01*
X169205153Y-127513153D01*
X169235446Y-127488292D01*
X169270005Y-127469820D01*
X169307501Y-127458445D01*
X169352638Y-127454000D01*
X169991362Y-127454000D01*
X170036499Y-127458445D01*
G37*
G36*
X144636499Y-127458445D02*
G01*
X144673995Y-127469820D01*
X144708554Y-127488292D01*
X144738847Y-127513153D01*
X144763708Y-127543446D01*
X144782180Y-127578005D01*
X144793555Y-127615501D01*
X144798000Y-127660638D01*
X144798000Y-128399362D01*
X144793555Y-128444499D01*
X144782180Y-128481995D01*
X144763708Y-128516554D01*
X144738847Y-128546847D01*
X144708554Y-128571708D01*
X144673995Y-128590180D01*
X144636499Y-128601555D01*
X144591362Y-128606000D01*
X143952638Y-128606000D01*
X143907501Y-128601555D01*
X143870005Y-128590180D01*
X143835446Y-128571708D01*
X143805153Y-128546847D01*
X143780292Y-128516554D01*
X143761820Y-128481995D01*
X143750445Y-128444499D01*
X143746000Y-128399362D01*
X143746000Y-127660638D01*
X143750445Y-127615501D01*
X143761820Y-127578005D01*
X143780292Y-127543446D01*
X143805153Y-127513153D01*
X143835446Y-127488292D01*
X143870005Y-127469820D01*
X143907501Y-127458445D01*
X143952638Y-127454000D01*
X144591362Y-127454000D01*
X144636499Y-127458445D01*
G37*
G36*
X142096499Y-127458445D02*
G01*
X142133995Y-127469820D01*
X142168554Y-127488292D01*
X142198847Y-127513153D01*
X142223708Y-127543446D01*
X142242180Y-127578005D01*
X142253555Y-127615501D01*
X142258000Y-127660638D01*
X142258000Y-128399362D01*
X142253555Y-128444499D01*
X142242180Y-128481995D01*
X142223708Y-128516554D01*
X142198847Y-128546847D01*
X142168554Y-128571708D01*
X142133995Y-128590180D01*
X142096499Y-128601555D01*
X142051362Y-128606000D01*
X141412638Y-128606000D01*
X141367501Y-128601555D01*
X141330005Y-128590180D01*
X141295446Y-128571708D01*
X141265153Y-128546847D01*
X141240292Y-128516554D01*
X141221820Y-128481995D01*
X141210445Y-128444499D01*
X141206000Y-128399362D01*
X141206000Y-127660638D01*
X141210445Y-127615501D01*
X141221820Y-127578005D01*
X141240292Y-127543446D01*
X141265153Y-127513153D01*
X141295446Y-127488292D01*
X141330005Y-127469820D01*
X141367501Y-127458445D01*
X141412638Y-127454000D01*
X142051362Y-127454000D01*
X142096499Y-127458445D01*
G37*
G36*
X164956499Y-127458445D02*
G01*
X164993995Y-127469820D01*
X165028554Y-127488292D01*
X165058847Y-127513153D01*
X165083708Y-127543446D01*
X165102180Y-127578005D01*
X165113555Y-127615501D01*
X165118000Y-127660638D01*
X165118000Y-128399362D01*
X165113555Y-128444499D01*
X165102180Y-128481995D01*
X165083708Y-128516554D01*
X165058847Y-128546847D01*
X165028554Y-128571708D01*
X164993995Y-128590180D01*
X164956499Y-128601555D01*
X164911362Y-128606000D01*
X164272638Y-128606000D01*
X164227501Y-128601555D01*
X164190005Y-128590180D01*
X164155446Y-128571708D01*
X164125153Y-128546847D01*
X164100292Y-128516554D01*
X164081820Y-128481995D01*
X164070445Y-128444499D01*
X164066000Y-128399362D01*
X164066000Y-127660638D01*
X164070445Y-127615501D01*
X164081820Y-127578005D01*
X164100292Y-127543446D01*
X164125153Y-127513153D01*
X164155446Y-127488292D01*
X164190005Y-127469820D01*
X164227501Y-127458445D01*
X164272638Y-127454000D01*
X164911362Y-127454000D01*
X164956499Y-127458445D01*
G37*
G36*
X172576499Y-127456445D02*
G01*
X172613995Y-127467820D01*
X172648554Y-127486292D01*
X172678847Y-127511153D01*
X172703708Y-127541446D01*
X172722180Y-127576005D01*
X172733555Y-127613501D01*
X172738000Y-127658638D01*
X172738000Y-128397362D01*
X172733555Y-128442499D01*
X172722180Y-128479995D01*
X172703708Y-128514554D01*
X172678847Y-128544847D01*
X172648554Y-128569708D01*
X172613995Y-128588180D01*
X172576499Y-128599555D01*
X172531362Y-128604000D01*
X171892638Y-128604000D01*
X171847501Y-128599555D01*
X171810005Y-128588180D01*
X171775446Y-128569708D01*
X171745153Y-128544847D01*
X171720292Y-128514554D01*
X171701820Y-128479995D01*
X171690445Y-128442499D01*
X171686000Y-128397362D01*
X171686000Y-127658638D01*
X171690445Y-127613501D01*
X171701820Y-127576005D01*
X171720292Y-127541446D01*
X171745153Y-127511153D01*
X171775446Y-127486292D01*
X171810005Y-127467820D01*
X171847501Y-127456445D01*
X171892638Y-127452000D01*
X172531362Y-127452000D01*
X172576499Y-127456445D01*
G37*
G36*
X151981000Y-122263000D02*
G01*
X150279000Y-122263000D01*
X150279000Y-120561000D01*
X151981000Y-120561000D01*
X151981000Y-122263000D01*
G37*
G36*
X153668228Y-120593703D02*
G01*
X153823100Y-120657853D01*
X153962481Y-120750985D01*
X154081015Y-120869519D01*
X154174147Y-121008900D01*
X154238297Y-121163772D01*
X154271000Y-121328184D01*
X154271000Y-121495816D01*
X154238297Y-121660228D01*
X154174147Y-121815100D01*
X154081015Y-121954481D01*
X153962481Y-122073015D01*
X153823100Y-122166147D01*
X153668228Y-122230297D01*
X153503816Y-122263000D01*
X153336184Y-122263000D01*
X153171772Y-122230297D01*
X153016900Y-122166147D01*
X152877519Y-122073015D01*
X152758985Y-121954481D01*
X152665853Y-121815100D01*
X152601703Y-121660228D01*
X152569000Y-121495816D01*
X152569000Y-121328184D01*
X152601703Y-121163772D01*
X152665853Y-121008900D01*
X152758985Y-120869519D01*
X152877519Y-120750985D01*
X153016900Y-120657853D01*
X153171772Y-120593703D01*
X153336184Y-120561000D01*
X153503816Y-120561000D01*
X153668228Y-120593703D01*
G37*
G36*
X155958228Y-120593703D02*
G01*
X156113100Y-120657853D01*
X156252481Y-120750985D01*
X156371015Y-120869519D01*
X156464147Y-121008900D01*
X156528297Y-121163772D01*
X156561000Y-121328184D01*
X156561000Y-121495816D01*
X156528297Y-121660228D01*
X156464147Y-121815100D01*
X156371015Y-121954481D01*
X156252481Y-122073015D01*
X156113100Y-122166147D01*
X155958228Y-122230297D01*
X155793816Y-122263000D01*
X155626184Y-122263000D01*
X155461772Y-122230297D01*
X155306900Y-122166147D01*
X155167519Y-122073015D01*
X155048985Y-121954481D01*
X154955853Y-121815100D01*
X154891703Y-121660228D01*
X154859000Y-121495816D01*
X154859000Y-121328184D01*
X154891703Y-121163772D01*
X154955853Y-121008900D01*
X155048985Y-120869519D01*
X155167519Y-120750985D01*
X155306900Y-120657853D01*
X155461772Y-120593703D01*
X155626184Y-120561000D01*
X155793816Y-120561000D01*
X155958228Y-120593703D01*
G37*
G36*
X158248228Y-120593703D02*
G01*
X158403100Y-120657853D01*
X158542481Y-120750985D01*
X158661015Y-120869519D01*
X158754147Y-121008900D01*
X158818297Y-121163772D01*
X158851000Y-121328184D01*
X158851000Y-121495816D01*
X158818297Y-121660228D01*
X158754147Y-121815100D01*
X158661015Y-121954481D01*
X158542481Y-122073015D01*
X158403100Y-122166147D01*
X158248228Y-122230297D01*
X158083816Y-122263000D01*
X157916184Y-122263000D01*
X157751772Y-122230297D01*
X157596900Y-122166147D01*
X157457519Y-122073015D01*
X157338985Y-121954481D01*
X157245853Y-121815100D01*
X157181703Y-121660228D01*
X157149000Y-121495816D01*
X157149000Y-121328184D01*
X157181703Y-121163772D01*
X157245853Y-121008900D01*
X157338985Y-120869519D01*
X157457519Y-120750985D01*
X157596900Y-120657853D01*
X157751772Y-120593703D01*
X157916184Y-120561000D01*
X158083816Y-120561000D01*
X158248228Y-120593703D01*
G37*
G36*
X160538228Y-120593703D02*
G01*
X160693100Y-120657853D01*
X160832481Y-120750985D01*
X160951015Y-120869519D01*
X161044147Y-121008900D01*
X161108297Y-121163772D01*
X161141000Y-121328184D01*
X161141000Y-121495816D01*
X161108297Y-121660228D01*
X161044147Y-121815100D01*
X160951015Y-121954481D01*
X160832481Y-122073015D01*
X160693100Y-122166147D01*
X160538228Y-122230297D01*
X160373816Y-122263000D01*
X160206184Y-122263000D01*
X160041772Y-122230297D01*
X159886900Y-122166147D01*
X159747519Y-122073015D01*
X159628985Y-121954481D01*
X159535853Y-121815100D01*
X159471703Y-121660228D01*
X159439000Y-121495816D01*
X159439000Y-121328184D01*
X159471703Y-121163772D01*
X159535853Y-121008900D01*
X159628985Y-120869519D01*
X159747519Y-120750985D01*
X159886900Y-120657853D01*
X160041772Y-120593703D01*
X160206184Y-120561000D01*
X160373816Y-120561000D01*
X160538228Y-120593703D01*
G37*
G36*
X144145943Y-115938248D02*
G01*
X144701189Y-116168238D01*
X144701190Y-116168239D01*
X145200899Y-116502134D01*
X145625866Y-116927101D01*
X145775001Y-117150297D01*
X145959762Y-117426811D01*
X146189752Y-117982057D01*
X146307000Y-118571501D01*
X146307000Y-119172499D01*
X146189752Y-119761943D01*
X145959762Y-120317189D01*
X145959761Y-120317190D01*
X145625866Y-120816899D01*
X145200899Y-121241866D01*
X144949347Y-121409948D01*
X144701189Y-121575762D01*
X144145943Y-121805752D01*
X143556499Y-121923000D01*
X142955501Y-121923000D01*
X142366057Y-121805752D01*
X141810811Y-121575762D01*
X141562653Y-121409948D01*
X141311101Y-121241866D01*
X140886134Y-120816899D01*
X140552239Y-120317190D01*
X140552238Y-120317189D01*
X140322248Y-119761943D01*
X140205000Y-119172499D01*
X140205000Y-118571501D01*
X140322248Y-117982057D01*
X140552238Y-117426811D01*
X140736999Y-117150297D01*
X140886134Y-116927101D01*
X141311101Y-116502134D01*
X141810810Y-116168239D01*
X141810811Y-116168238D01*
X142366057Y-115938248D01*
X142955501Y-115821000D01*
X143556499Y-115821000D01*
X144145943Y-115938248D01*
G37*
G36*
X169037943Y-115938248D02*
G01*
X169593189Y-116168238D01*
X169593190Y-116168239D01*
X170092899Y-116502134D01*
X170517866Y-116927101D01*
X170667001Y-117150297D01*
X170851762Y-117426811D01*
X171081752Y-117982057D01*
X171199000Y-118571501D01*
X171199000Y-119172499D01*
X171081752Y-119761943D01*
X170851762Y-120317189D01*
X170851761Y-120317190D01*
X170517866Y-120816899D01*
X170092899Y-121241866D01*
X169841347Y-121409948D01*
X169593189Y-121575762D01*
X169037943Y-121805752D01*
X168448499Y-121923000D01*
X167847501Y-121923000D01*
X167258057Y-121805752D01*
X166702811Y-121575762D01*
X166454653Y-121409948D01*
X166203101Y-121241866D01*
X165778134Y-120816899D01*
X165444239Y-120317190D01*
X165444238Y-120317189D01*
X165214248Y-119761943D01*
X165097000Y-119172499D01*
X165097000Y-118571501D01*
X165214248Y-117982057D01*
X165444238Y-117426811D01*
X165628999Y-117150297D01*
X165778134Y-116927101D01*
X166203101Y-116502134D01*
X166702810Y-116168239D01*
X166702811Y-116168238D01*
X167258057Y-115938248D01*
X167847501Y-115821000D01*
X168448499Y-115821000D01*
X169037943Y-115938248D01*
G37*
G36*
X157103228Y-118053703D02*
G01*
X157258100Y-118117853D01*
X157397481Y-118210985D01*
X157516015Y-118329519D01*
X157609147Y-118468900D01*
X157673297Y-118623772D01*
X157706000Y-118788184D01*
X157706000Y-118955816D01*
X157673297Y-119120228D01*
X157609147Y-119275100D01*
X157516015Y-119414481D01*
X157397481Y-119533015D01*
X157258100Y-119626147D01*
X157103228Y-119690297D01*
X156938816Y-119723000D01*
X156771184Y-119723000D01*
X156606772Y-119690297D01*
X156451900Y-119626147D01*
X156312519Y-119533015D01*
X156193985Y-119414481D01*
X156100853Y-119275100D01*
X156036703Y-119120228D01*
X156004000Y-118955816D01*
X156004000Y-118788184D01*
X156036703Y-118623772D01*
X156100853Y-118468900D01*
X156193985Y-118329519D01*
X156312519Y-118210985D01*
X156451900Y-118117853D01*
X156606772Y-118053703D01*
X156771184Y-118021000D01*
X156938816Y-118021000D01*
X157103228Y-118053703D01*
G37*
G36*
X150233228Y-118053703D02*
G01*
X150388100Y-118117853D01*
X150527481Y-118210985D01*
X150646015Y-118329519D01*
X150739147Y-118468900D01*
X150803297Y-118623772D01*
X150836000Y-118788184D01*
X150836000Y-118955816D01*
X150803297Y-119120228D01*
X150739147Y-119275100D01*
X150646015Y-119414481D01*
X150527481Y-119533015D01*
X150388100Y-119626147D01*
X150233228Y-119690297D01*
X150068816Y-119723000D01*
X149901184Y-119723000D01*
X149736772Y-119690297D01*
X149581900Y-119626147D01*
X149442519Y-119533015D01*
X149323985Y-119414481D01*
X149230853Y-119275100D01*
X149166703Y-119120228D01*
X149134000Y-118955816D01*
X149134000Y-118788184D01*
X149166703Y-118623772D01*
X149230853Y-118468900D01*
X149323985Y-118329519D01*
X149442519Y-118210985D01*
X149581900Y-118117853D01*
X149736772Y-118053703D01*
X149901184Y-118021000D01*
X150068816Y-118021000D01*
X150233228Y-118053703D01*
G37*
G36*
X152523228Y-118053703D02*
G01*
X152678100Y-118117853D01*
X152817481Y-118210985D01*
X152936015Y-118329519D01*
X153029147Y-118468900D01*
X153093297Y-118623772D01*
X153126000Y-118788184D01*
X153126000Y-118955816D01*
X153093297Y-119120228D01*
X153029147Y-119275100D01*
X152936015Y-119414481D01*
X152817481Y-119533015D01*
X152678100Y-119626147D01*
X152523228Y-119690297D01*
X152358816Y-119723000D01*
X152191184Y-119723000D01*
X152026772Y-119690297D01*
X151871900Y-119626147D01*
X151732519Y-119533015D01*
X151613985Y-119414481D01*
X151520853Y-119275100D01*
X151456703Y-119120228D01*
X151424000Y-118955816D01*
X151424000Y-118788184D01*
X151456703Y-118623772D01*
X151520853Y-118468900D01*
X151613985Y-118329519D01*
X151732519Y-118210985D01*
X151871900Y-118117853D01*
X152026772Y-118053703D01*
X152191184Y-118021000D01*
X152358816Y-118021000D01*
X152523228Y-118053703D01*
G37*
G36*
X154813228Y-118053703D02*
G01*
X154968100Y-118117853D01*
X155107481Y-118210985D01*
X155226015Y-118329519D01*
X155319147Y-118468900D01*
X155383297Y-118623772D01*
X155416000Y-118788184D01*
X155416000Y-118955816D01*
X155383297Y-119120228D01*
X155319147Y-119275100D01*
X155226015Y-119414481D01*
X155107481Y-119533015D01*
X154968100Y-119626147D01*
X154813228Y-119690297D01*
X154648816Y-119723000D01*
X154481184Y-119723000D01*
X154316772Y-119690297D01*
X154161900Y-119626147D01*
X154022519Y-119533015D01*
X153903985Y-119414481D01*
X153810853Y-119275100D01*
X153746703Y-119120228D01*
X153714000Y-118955816D01*
X153714000Y-118788184D01*
X153746703Y-118623772D01*
X153810853Y-118468900D01*
X153903985Y-118329519D01*
X154022519Y-118210985D01*
X154161900Y-118117853D01*
X154316772Y-118053703D01*
X154481184Y-118021000D01*
X154648816Y-118021000D01*
X154813228Y-118053703D01*
G37*
G36*
X159393228Y-118053703D02*
G01*
X159548100Y-118117853D01*
X159687481Y-118210985D01*
X159806015Y-118329519D01*
X159899147Y-118468900D01*
X159963297Y-118623772D01*
X159996000Y-118788184D01*
X159996000Y-118955816D01*
X159963297Y-119120228D01*
X159899147Y-119275100D01*
X159806015Y-119414481D01*
X159687481Y-119533015D01*
X159548100Y-119626147D01*
X159393228Y-119690297D01*
X159228816Y-119723000D01*
X159061184Y-119723000D01*
X158896772Y-119690297D01*
X158741900Y-119626147D01*
X158602519Y-119533015D01*
X158483985Y-119414481D01*
X158390853Y-119275100D01*
X158326703Y-119120228D01*
X158294000Y-118955816D01*
X158294000Y-118788184D01*
X158326703Y-118623772D01*
X158390853Y-118468900D01*
X158483985Y-118329519D01*
X158602519Y-118210985D01*
X158741900Y-118117853D01*
X158896772Y-118053703D01*
X159061184Y-118021000D01*
X159228816Y-118021000D01*
X159393228Y-118053703D01*
G37*
G36*
X158248228Y-115513703D02*
G01*
X158403100Y-115577853D01*
X158542481Y-115670985D01*
X158661015Y-115789519D01*
X158754147Y-115928900D01*
X158818297Y-116083772D01*
X158851000Y-116248184D01*
X158851000Y-116415816D01*
X158818297Y-116580228D01*
X158754147Y-116735100D01*
X158661015Y-116874481D01*
X158542481Y-116993015D01*
X158403100Y-117086147D01*
X158248228Y-117150297D01*
X158083816Y-117183000D01*
X157916184Y-117183000D01*
X157751772Y-117150297D01*
X157596900Y-117086147D01*
X157457519Y-116993015D01*
X157338985Y-116874481D01*
X157245853Y-116735100D01*
X157181703Y-116580228D01*
X157149000Y-116415816D01*
X157149000Y-116248184D01*
X157181703Y-116083772D01*
X157245853Y-115928900D01*
X157338985Y-115789519D01*
X157457519Y-115670985D01*
X157596900Y-115577853D01*
X157751772Y-115513703D01*
X157916184Y-115481000D01*
X158083816Y-115481000D01*
X158248228Y-115513703D01*
G37*
G36*
X155958228Y-115513703D02*
G01*
X156113100Y-115577853D01*
X156252481Y-115670985D01*
X156371015Y-115789519D01*
X156464147Y-115928900D01*
X156528297Y-116083772D01*
X156561000Y-116248184D01*
X156561000Y-116415816D01*
X156528297Y-116580228D01*
X156464147Y-116735100D01*
X156371015Y-116874481D01*
X156252481Y-116993015D01*
X156113100Y-117086147D01*
X155958228Y-117150297D01*
X155793816Y-117183000D01*
X155626184Y-117183000D01*
X155461772Y-117150297D01*
X155306900Y-117086147D01*
X155167519Y-116993015D01*
X155048985Y-116874481D01*
X154955853Y-116735100D01*
X154891703Y-116580228D01*
X154859000Y-116415816D01*
X154859000Y-116248184D01*
X154891703Y-116083772D01*
X154955853Y-115928900D01*
X155048985Y-115789519D01*
X155167519Y-115670985D01*
X155306900Y-115577853D01*
X155461772Y-115513703D01*
X155626184Y-115481000D01*
X155793816Y-115481000D01*
X155958228Y-115513703D01*
G37*
G36*
X153668228Y-115513703D02*
G01*
X153823100Y-115577853D01*
X153962481Y-115670985D01*
X154081015Y-115789519D01*
X154174147Y-115928900D01*
X154238297Y-116083772D01*
X154271000Y-116248184D01*
X154271000Y-116415816D01*
X154238297Y-116580228D01*
X154174147Y-116735100D01*
X154081015Y-116874481D01*
X153962481Y-116993015D01*
X153823100Y-117086147D01*
X153668228Y-117150297D01*
X153503816Y-117183000D01*
X153336184Y-117183000D01*
X153171772Y-117150297D01*
X153016900Y-117086147D01*
X152877519Y-116993015D01*
X152758985Y-116874481D01*
X152665853Y-116735100D01*
X152601703Y-116580228D01*
X152569000Y-116415816D01*
X152569000Y-116248184D01*
X152601703Y-116083772D01*
X152665853Y-115928900D01*
X152758985Y-115789519D01*
X152877519Y-115670985D01*
X153016900Y-115577853D01*
X153171772Y-115513703D01*
X153336184Y-115481000D01*
X153503816Y-115481000D01*
X153668228Y-115513703D01*
G37*
G36*
X151378228Y-115513703D02*
G01*
X151533100Y-115577853D01*
X151672481Y-115670985D01*
X151791015Y-115789519D01*
X151884147Y-115928900D01*
X151948297Y-116083772D01*
X151981000Y-116248184D01*
X151981000Y-116415816D01*
X151948297Y-116580228D01*
X151884147Y-116735100D01*
X151791015Y-116874481D01*
X151672481Y-116993015D01*
X151533100Y-117086147D01*
X151378228Y-117150297D01*
X151213816Y-117183000D01*
X151046184Y-117183000D01*
X150881772Y-117150297D01*
X150726900Y-117086147D01*
X150587519Y-116993015D01*
X150468985Y-116874481D01*
X150375853Y-116735100D01*
X150311703Y-116580228D01*
X150279000Y-116415816D01*
X150279000Y-116248184D01*
X150311703Y-116083772D01*
X150375853Y-115928900D01*
X150468985Y-115789519D01*
X150587519Y-115670985D01*
X150726900Y-115577853D01*
X150881772Y-115513703D01*
X151046184Y-115481000D01*
X151213816Y-115481000D01*
X151378228Y-115513703D01*
G37*
G36*
X160538228Y-115513703D02*
G01*
X160693100Y-115577853D01*
X160832481Y-115670985D01*
X160951015Y-115789519D01*
X161044147Y-115928900D01*
X161108297Y-116083772D01*
X161141000Y-116248184D01*
X161141000Y-116415816D01*
X161108297Y-116580228D01*
X161044147Y-116735100D01*
X160951015Y-116874481D01*
X160832481Y-116993015D01*
X160693100Y-117086147D01*
X160538228Y-117150297D01*
X160373816Y-117183000D01*
X160206184Y-117183000D01*
X160041772Y-117150297D01*
X159886900Y-117086147D01*
X159747519Y-116993015D01*
X159628985Y-116874481D01*
X159535853Y-116735100D01*
X159471703Y-116580228D01*
X159439000Y-116415816D01*
X159439000Y-116248184D01*
X159471703Y-116083772D01*
X159535853Y-115928900D01*
X159628985Y-115789519D01*
X159747519Y-115670985D01*
X159886900Y-115577853D01*
X160041772Y-115513703D01*
X160206184Y-115481000D01*
X160373816Y-115481000D01*
X160538228Y-115513703D01*
G37*
M02*
