G04 #@! TF.GenerationSoftware,KiCad,Pcbnew,5.1.5-52549c5~84~ubuntu18.04.1*
G04 #@! TF.CreationDate,2019-12-13T14:59:01-06:00*
G04 #@! TF.ProjectId,VGA,5647412e-6b69-4636-9164-5f7063625858,rev?*
G04 #@! TF.SameCoordinates,Original*
G04 #@! TF.FileFunction,Legend,Bot*
G04 #@! TF.FilePolarity,Positive*
%FSLAX46Y46*%
G04 Gerber Fmt 4.6, Leading zero omitted, Abs format (unit mm)*
G04 Created by KiCad (PCBNEW 5.1.5-52549c5~84~ubuntu18.04.1) date 2019-12-13 14:59:01*
%MOMM*%
%LPD*%
G04 APERTURE LIST*
%ADD10C,0.150000*%
%ADD11C,0.250000*%
%ADD12C,0.010000*%
%ADD13C,0.120000*%
G04 APERTURE END LIST*
D10*
X136739285Y-130079523D02*
X136072619Y-129841428D01*
X136739285Y-129603333D01*
X136072619Y-127936666D02*
X136072619Y-128508095D01*
X136072619Y-128222380D02*
X137072619Y-128222380D01*
X136929761Y-128317619D01*
X136834523Y-128412857D01*
X136786904Y-128508095D01*
X136167857Y-127508095D02*
X136120238Y-127460476D01*
X136072619Y-127508095D01*
X136120238Y-127555714D01*
X136167857Y-127508095D01*
X136072619Y-127508095D01*
X136072619Y-126508095D02*
X136072619Y-127079523D01*
X136072619Y-126793809D02*
X137072619Y-126793809D01*
X136929761Y-126889047D01*
X136834523Y-126984285D01*
X136786904Y-127079523D01*
X150065952Y-127087380D02*
X150065952Y-127896904D01*
X150018333Y-127992142D01*
X149970714Y-128039761D01*
X149875476Y-128087380D01*
X149685000Y-128087380D01*
X149589761Y-128039761D01*
X149542142Y-127992142D01*
X149494523Y-127896904D01*
X149494523Y-127087380D01*
X148875476Y-128087380D02*
X148970714Y-128039761D01*
X149018333Y-127944523D01*
X149018333Y-127087380D01*
X148494523Y-128087380D02*
X148494523Y-127420714D01*
X148494523Y-127087380D02*
X148542142Y-127135000D01*
X148494523Y-127182619D01*
X148446904Y-127135000D01*
X148494523Y-127087380D01*
X148494523Y-127182619D01*
X147589761Y-128039761D02*
X147685000Y-128087380D01*
X147875476Y-128087380D01*
X147970714Y-128039761D01*
X148018333Y-127992142D01*
X148065952Y-127896904D01*
X148065952Y-127611190D01*
X148018333Y-127515952D01*
X147970714Y-127468333D01*
X147875476Y-127420714D01*
X147685000Y-127420714D01*
X147589761Y-127468333D01*
X146780238Y-128039761D02*
X146875476Y-128087380D01*
X147065952Y-128087380D01*
X147161190Y-128039761D01*
X147208809Y-127944523D01*
X147208809Y-127563571D01*
X147161190Y-127468333D01*
X147065952Y-127420714D01*
X146875476Y-127420714D01*
X146780238Y-127468333D01*
X146732619Y-127563571D01*
X146732619Y-127658809D01*
X147208809Y-127754047D01*
X146351666Y-128039761D02*
X146256428Y-128087380D01*
X146065952Y-128087380D01*
X145970714Y-128039761D01*
X145923095Y-127944523D01*
X145923095Y-127896904D01*
X145970714Y-127801666D01*
X146065952Y-127754047D01*
X146208809Y-127754047D01*
X146304047Y-127706428D01*
X146351666Y-127611190D01*
X146351666Y-127563571D01*
X146304047Y-127468333D01*
X146208809Y-127420714D01*
X146065952Y-127420714D01*
X145970714Y-127468333D01*
X144780238Y-127801666D02*
X144304047Y-127801666D01*
X144875476Y-128087380D02*
X144542142Y-127087380D01*
X144208809Y-128087380D01*
X143875476Y-128087380D02*
X143875476Y-127087380D01*
X143875476Y-127563571D02*
X143304047Y-127563571D01*
X143304047Y-128087380D02*
X143304047Y-127087380D01*
D11*
X170525595Y-124573380D02*
X171097023Y-124573380D01*
X170811309Y-124573380D02*
X170811309Y-123573380D01*
X170906547Y-123716238D01*
X171001785Y-123811476D01*
X171097023Y-123859095D01*
X170144642Y-123668619D02*
X170097023Y-123621000D01*
X170001785Y-123573380D01*
X169763690Y-123573380D01*
X169668452Y-123621000D01*
X169620833Y-123668619D01*
X169573214Y-123763857D01*
X169573214Y-123859095D01*
X169620833Y-124001952D01*
X170192261Y-124573380D01*
X169573214Y-124573380D01*
X169144642Y-124192428D02*
X168382738Y-124192428D01*
X167906547Y-124573380D02*
X167906547Y-123573380D01*
X167906547Y-123954333D02*
X167811309Y-123906714D01*
X167620833Y-123906714D01*
X167525595Y-123954333D01*
X167477976Y-124001952D01*
X167430357Y-124097190D01*
X167430357Y-124382904D01*
X167477976Y-124478142D01*
X167525595Y-124525761D01*
X167620833Y-124573380D01*
X167811309Y-124573380D01*
X167906547Y-124525761D01*
X167001785Y-124573380D02*
X167001785Y-123906714D01*
X167001785Y-123573380D02*
X167049404Y-123621000D01*
X167001785Y-123668619D01*
X166954166Y-123621000D01*
X167001785Y-123573380D01*
X167001785Y-123668619D01*
X166668452Y-123906714D02*
X166287500Y-123906714D01*
X166525595Y-123573380D02*
X166525595Y-124430523D01*
X166477976Y-124525761D01*
X166382738Y-124573380D01*
X166287500Y-124573380D01*
X164620833Y-124573380D02*
X164954166Y-124097190D01*
X165192261Y-124573380D02*
X165192261Y-123573380D01*
X164811309Y-123573380D01*
X164716071Y-123621000D01*
X164668452Y-123668619D01*
X164620833Y-123763857D01*
X164620833Y-123906714D01*
X164668452Y-124001952D01*
X164716071Y-124049571D01*
X164811309Y-124097190D01*
X165192261Y-124097190D01*
X163668452Y-123621000D02*
X163763690Y-123573380D01*
X163906547Y-123573380D01*
X164049404Y-123621000D01*
X164144642Y-123716238D01*
X164192261Y-123811476D01*
X164239880Y-124001952D01*
X164239880Y-124144809D01*
X164192261Y-124335285D01*
X164144642Y-124430523D01*
X164049404Y-124525761D01*
X163906547Y-124573380D01*
X163811309Y-124573380D01*
X163668452Y-124525761D01*
X163620833Y-124478142D01*
X163620833Y-124144809D01*
X163811309Y-124144809D01*
X162858928Y-124049571D02*
X162716071Y-124097190D01*
X162668452Y-124144809D01*
X162620833Y-124240047D01*
X162620833Y-124382904D01*
X162668452Y-124478142D01*
X162716071Y-124525761D01*
X162811309Y-124573380D01*
X163192261Y-124573380D01*
X163192261Y-123573380D01*
X162858928Y-123573380D01*
X162763690Y-123621000D01*
X162716071Y-123668619D01*
X162668452Y-123763857D01*
X162668452Y-123859095D01*
X162716071Y-123954333D01*
X162763690Y-124001952D01*
X162858928Y-124049571D01*
X163192261Y-124049571D01*
X161001785Y-124525761D02*
X161097023Y-124573380D01*
X161287500Y-124573380D01*
X161382738Y-124525761D01*
X161430357Y-124478142D01*
X161477976Y-124382904D01*
X161477976Y-124097190D01*
X161430357Y-124001952D01*
X161382738Y-123954333D01*
X161287500Y-123906714D01*
X161097023Y-123906714D01*
X161001785Y-123954333D01*
X160430357Y-124573380D02*
X160525595Y-124525761D01*
X160573214Y-124478142D01*
X160620833Y-124382904D01*
X160620833Y-124097190D01*
X160573214Y-124001952D01*
X160525595Y-123954333D01*
X160430357Y-123906714D01*
X160287500Y-123906714D01*
X160192261Y-123954333D01*
X160144642Y-124001952D01*
X160097023Y-124097190D01*
X160097023Y-124382904D01*
X160144642Y-124478142D01*
X160192261Y-124525761D01*
X160287500Y-124573380D01*
X160430357Y-124573380D01*
X159525595Y-124573380D02*
X159620833Y-124525761D01*
X159668452Y-124430523D01*
X159668452Y-123573380D01*
X159001785Y-124573380D02*
X159097023Y-124525761D01*
X159144642Y-124478142D01*
X159192261Y-124382904D01*
X159192261Y-124097190D01*
X159144642Y-124001952D01*
X159097023Y-123954333D01*
X159001785Y-123906714D01*
X158858928Y-123906714D01*
X158763690Y-123954333D01*
X158716071Y-124001952D01*
X158668452Y-124097190D01*
X158668452Y-124382904D01*
X158716071Y-124478142D01*
X158763690Y-124525761D01*
X158858928Y-124573380D01*
X159001785Y-124573380D01*
X158239880Y-124573380D02*
X158239880Y-123906714D01*
X158239880Y-124097190D02*
X158192261Y-124001952D01*
X158144642Y-123954333D01*
X158049404Y-123906714D01*
X157954166Y-123906714D01*
X157001785Y-123906714D02*
X156620833Y-123906714D01*
X156858928Y-124573380D02*
X156858928Y-123716238D01*
X156811309Y-123621000D01*
X156716071Y-123573380D01*
X156620833Y-123573380D01*
X156144642Y-124573380D02*
X156239880Y-124525761D01*
X156287500Y-124478142D01*
X156335119Y-124382904D01*
X156335119Y-124097190D01*
X156287500Y-124001952D01*
X156239880Y-123954333D01*
X156144642Y-123906714D01*
X156001785Y-123906714D01*
X155906547Y-123954333D01*
X155858928Y-124001952D01*
X155811309Y-124097190D01*
X155811309Y-124382904D01*
X155858928Y-124478142D01*
X155906547Y-124525761D01*
X156001785Y-124573380D01*
X156144642Y-124573380D01*
X155382738Y-124573380D02*
X155382738Y-123906714D01*
X155382738Y-124097190D02*
X155335119Y-124001952D01*
X155287500Y-123954333D01*
X155192261Y-123906714D01*
X155097023Y-123906714D01*
X171192261Y-125323380D02*
X170858928Y-126323380D01*
X170525595Y-125323380D01*
X170192261Y-126323380D02*
X170192261Y-125656714D01*
X170192261Y-125323380D02*
X170239880Y-125371000D01*
X170192261Y-125418619D01*
X170144642Y-125371000D01*
X170192261Y-125323380D01*
X170192261Y-125418619D01*
X169287500Y-126323380D02*
X169287500Y-125323380D01*
X169287500Y-126275761D02*
X169382738Y-126323380D01*
X169573214Y-126323380D01*
X169668452Y-126275761D01*
X169716071Y-126228142D01*
X169763690Y-126132904D01*
X169763690Y-125847190D01*
X169716071Y-125751952D01*
X169668452Y-125704333D01*
X169573214Y-125656714D01*
X169382738Y-125656714D01*
X169287500Y-125704333D01*
X168430357Y-126275761D02*
X168525595Y-126323380D01*
X168716071Y-126323380D01*
X168811309Y-126275761D01*
X168858928Y-126180523D01*
X168858928Y-125799571D01*
X168811309Y-125704333D01*
X168716071Y-125656714D01*
X168525595Y-125656714D01*
X168430357Y-125704333D01*
X168382738Y-125799571D01*
X168382738Y-125894809D01*
X168858928Y-125990047D01*
X167811309Y-126323380D02*
X167906547Y-126275761D01*
X167954166Y-126228142D01*
X168001785Y-126132904D01*
X168001785Y-125847190D01*
X167954166Y-125751952D01*
X167906547Y-125704333D01*
X167811309Y-125656714D01*
X167668452Y-125656714D01*
X167573214Y-125704333D01*
X167525595Y-125751952D01*
X167477976Y-125847190D01*
X167477976Y-126132904D01*
X167525595Y-126228142D01*
X167573214Y-126275761D01*
X167668452Y-126323380D01*
X167811309Y-126323380D01*
X170525595Y-127121000D02*
X170620833Y-127073380D01*
X170763690Y-127073380D01*
X170906547Y-127121000D01*
X171001785Y-127216238D01*
X171049404Y-127311476D01*
X171097023Y-127501952D01*
X171097023Y-127644809D01*
X171049404Y-127835285D01*
X171001785Y-127930523D01*
X170906547Y-128025761D01*
X170763690Y-128073380D01*
X170668452Y-128073380D01*
X170525595Y-128025761D01*
X170477976Y-127978142D01*
X170477976Y-127644809D01*
X170668452Y-127644809D01*
X170049404Y-128073380D02*
X170049404Y-127406714D01*
X170049404Y-127597190D02*
X170001785Y-127501952D01*
X169954166Y-127454333D01*
X169858928Y-127406714D01*
X169763690Y-127406714D01*
X169001785Y-128073380D02*
X169001785Y-127549571D01*
X169049404Y-127454333D01*
X169144642Y-127406714D01*
X169335119Y-127406714D01*
X169430357Y-127454333D01*
X169001785Y-128025761D02*
X169097023Y-128073380D01*
X169335119Y-128073380D01*
X169430357Y-128025761D01*
X169477976Y-127930523D01*
X169477976Y-127835285D01*
X169430357Y-127740047D01*
X169335119Y-127692428D01*
X169097023Y-127692428D01*
X169001785Y-127644809D01*
X168525595Y-127406714D02*
X168525595Y-128406714D01*
X168525595Y-127454333D02*
X168430357Y-127406714D01*
X168239880Y-127406714D01*
X168144642Y-127454333D01*
X168097023Y-127501952D01*
X168049404Y-127597190D01*
X168049404Y-127882904D01*
X168097023Y-127978142D01*
X168144642Y-128025761D01*
X168239880Y-128073380D01*
X168430357Y-128073380D01*
X168525595Y-128025761D01*
X167620833Y-128073380D02*
X167620833Y-127073380D01*
X167192261Y-128073380D02*
X167192261Y-127549571D01*
X167239880Y-127454333D01*
X167335119Y-127406714D01*
X167477976Y-127406714D01*
X167573214Y-127454333D01*
X167620833Y-127501952D01*
X166716071Y-128073380D02*
X166716071Y-127406714D01*
X166716071Y-127073380D02*
X166763690Y-127121000D01*
X166716071Y-127168619D01*
X166668452Y-127121000D01*
X166716071Y-127073380D01*
X166716071Y-127168619D01*
X165811309Y-128025761D02*
X165906547Y-128073380D01*
X166097023Y-128073380D01*
X166192261Y-128025761D01*
X166239880Y-127978142D01*
X166287500Y-127882904D01*
X166287500Y-127597190D01*
X166239880Y-127501952D01*
X166192261Y-127454333D01*
X166097023Y-127406714D01*
X165906547Y-127406714D01*
X165811309Y-127454333D01*
X165430357Y-128025761D02*
X165335119Y-128073380D01*
X165144642Y-128073380D01*
X165049404Y-128025761D01*
X165001785Y-127930523D01*
X165001785Y-127882904D01*
X165049404Y-127787666D01*
X165144642Y-127740047D01*
X165287500Y-127740047D01*
X165382738Y-127692428D01*
X165430357Y-127597190D01*
X165430357Y-127549571D01*
X165382738Y-127454333D01*
X165287500Y-127406714D01*
X165144642Y-127406714D01*
X165049404Y-127454333D01*
X171097023Y-129537666D02*
X170620833Y-129537666D01*
X171192261Y-129823380D02*
X170858928Y-128823380D01*
X170525595Y-129823380D01*
X170192261Y-129823380D02*
X170192261Y-129156714D01*
X170192261Y-129347190D02*
X170144642Y-129251952D01*
X170097023Y-129204333D01*
X170001785Y-129156714D01*
X169906547Y-129156714D01*
X169573214Y-129823380D02*
X169573214Y-129156714D01*
X169573214Y-129347190D02*
X169525595Y-129251952D01*
X169477976Y-129204333D01*
X169382738Y-129156714D01*
X169287500Y-129156714D01*
X168525595Y-129823380D02*
X168525595Y-129299571D01*
X168573214Y-129204333D01*
X168668452Y-129156714D01*
X168858928Y-129156714D01*
X168954166Y-129204333D01*
X168525595Y-129775761D02*
X168620833Y-129823380D01*
X168858928Y-129823380D01*
X168954166Y-129775761D01*
X169001785Y-129680523D01*
X169001785Y-129585285D01*
X168954166Y-129490047D01*
X168858928Y-129442428D01*
X168620833Y-129442428D01*
X168525595Y-129394809D01*
X168144642Y-129156714D02*
X167906547Y-129823380D01*
X167668452Y-129156714D02*
X167906547Y-129823380D01*
X168001785Y-130061476D01*
X168049404Y-130109095D01*
X168144642Y-130156714D01*
D12*
G36*
X147078095Y-109310714D02*
G01*
X147199048Y-109431666D01*
X147320000Y-109310714D01*
X147199048Y-109189762D01*
X147078095Y-109310714D01*
G37*
X147078095Y-109310714D02*
X147199048Y-109431666D01*
X147320000Y-109310714D01*
X147199048Y-109189762D01*
X147078095Y-109310714D01*
G36*
X143743517Y-110574000D02*
G01*
X143674652Y-113046810D01*
X144292272Y-113201822D01*
X145022070Y-113279715D01*
X145510184Y-113242082D01*
X145983852Y-113265624D01*
X146111013Y-113498898D01*
X145892389Y-113814732D01*
X145505714Y-114027857D01*
X145059224Y-114239159D01*
X144900953Y-114384727D01*
X145124847Y-114440630D01*
X145724569Y-114483972D01*
X146592177Y-114508458D01*
X147078095Y-114511666D01*
X148036852Y-114492690D01*
X148780188Y-114441860D01*
X149200178Y-114368324D01*
X149255238Y-114327124D01*
X149062641Y-114094701D01*
X148738393Y-113903791D01*
X148640819Y-113836847D01*
X147731631Y-113836847D01*
X147440953Y-114010545D01*
X147219207Y-114027857D01*
X146733483Y-113920801D01*
X146594286Y-113551843D01*
X146675404Y-113220594D01*
X147006073Y-113230970D01*
X147126114Y-113272564D01*
X147622548Y-113557294D01*
X147731631Y-113836847D01*
X148640819Y-113836847D01*
X148311642Y-113611004D01*
X148333054Y-113378370D01*
X148767085Y-113255973D01*
X149198452Y-113255509D01*
X149851504Y-113267076D01*
X150284448Y-113154398D01*
X150538396Y-112839730D01*
X150637041Y-112334524D01*
X150222857Y-112334524D01*
X150004266Y-112467616D01*
X149440937Y-112555478D01*
X148906658Y-112576428D01*
X148149072Y-112535271D01*
X147605806Y-112429452D01*
X147440953Y-112334524D01*
X146957143Y-112334524D01*
X146650041Y-112469085D01*
X146020002Y-112556913D01*
X145491438Y-112576428D01*
X144767286Y-112536253D01*
X144289227Y-112432719D01*
X144175238Y-112334524D01*
X144395809Y-112205966D01*
X144973047Y-112118705D01*
X145640943Y-112092619D01*
X146474849Y-112128276D01*
X146913195Y-112229093D01*
X146957143Y-112334524D01*
X147440953Y-112334524D01*
X147569693Y-112193256D01*
X148129474Y-112110626D01*
X148757152Y-112092619D01*
X149536084Y-112129023D01*
X150064801Y-112224292D01*
X150222857Y-112334524D01*
X150637041Y-112334524D01*
X150654458Y-112245329D01*
X150673744Y-111293453D01*
X150655439Y-110500246D01*
X150596260Y-108464047D01*
X150222857Y-108464047D01*
X150222857Y-111608809D01*
X144175238Y-111608809D01*
X144175238Y-108464047D01*
X150222857Y-108464047D01*
X150596260Y-108464047D01*
X150585714Y-108101190D01*
X143812381Y-108101190D01*
X143743517Y-110574000D01*
G37*
X143743517Y-110574000D02*
X143674652Y-113046810D01*
X144292272Y-113201822D01*
X145022070Y-113279715D01*
X145510184Y-113242082D01*
X145983852Y-113265624D01*
X146111013Y-113498898D01*
X145892389Y-113814732D01*
X145505714Y-114027857D01*
X145059224Y-114239159D01*
X144900953Y-114384727D01*
X145124847Y-114440630D01*
X145724569Y-114483972D01*
X146592177Y-114508458D01*
X147078095Y-114511666D01*
X148036852Y-114492690D01*
X148780188Y-114441860D01*
X149200178Y-114368324D01*
X149255238Y-114327124D01*
X149062641Y-114094701D01*
X148738393Y-113903791D01*
X148640819Y-113836847D01*
X147731631Y-113836847D01*
X147440953Y-114010545D01*
X147219207Y-114027857D01*
X146733483Y-113920801D01*
X146594286Y-113551843D01*
X146675404Y-113220594D01*
X147006073Y-113230970D01*
X147126114Y-113272564D01*
X147622548Y-113557294D01*
X147731631Y-113836847D01*
X148640819Y-113836847D01*
X148311642Y-113611004D01*
X148333054Y-113378370D01*
X148767085Y-113255973D01*
X149198452Y-113255509D01*
X149851504Y-113267076D01*
X150284448Y-113154398D01*
X150538396Y-112839730D01*
X150637041Y-112334524D01*
X150222857Y-112334524D01*
X150004266Y-112467616D01*
X149440937Y-112555478D01*
X148906658Y-112576428D01*
X148149072Y-112535271D01*
X147605806Y-112429452D01*
X147440953Y-112334524D01*
X146957143Y-112334524D01*
X146650041Y-112469085D01*
X146020002Y-112556913D01*
X145491438Y-112576428D01*
X144767286Y-112536253D01*
X144289227Y-112432719D01*
X144175238Y-112334524D01*
X144395809Y-112205966D01*
X144973047Y-112118705D01*
X145640943Y-112092619D01*
X146474849Y-112128276D01*
X146913195Y-112229093D01*
X146957143Y-112334524D01*
X147440953Y-112334524D01*
X147569693Y-112193256D01*
X148129474Y-112110626D01*
X148757152Y-112092619D01*
X149536084Y-112129023D01*
X150064801Y-112224292D01*
X150222857Y-112334524D01*
X150637041Y-112334524D01*
X150654458Y-112245329D01*
X150673744Y-111293453D01*
X150655439Y-110500246D01*
X150596260Y-108464047D01*
X150222857Y-108464047D01*
X150222857Y-111608809D01*
X144175238Y-111608809D01*
X144175238Y-108464047D01*
X150222857Y-108464047D01*
X150596260Y-108464047D01*
X150585714Y-108101190D01*
X143812381Y-108101190D01*
X143743517Y-110574000D01*
G36*
X157601177Y-113399533D02*
G01*
X157569798Y-113421776D01*
X157542089Y-113449485D01*
X157542089Y-113758920D01*
X157542162Y-113850799D01*
X157542505Y-113922840D01*
X157543308Y-113977780D01*
X157544759Y-114018360D01*
X157547048Y-114047317D01*
X157550364Y-114067391D01*
X157554895Y-114081321D01*
X157560831Y-114091845D01*
X157565486Y-114098100D01*
X157596217Y-114122673D01*
X157631504Y-114125341D01*
X157663755Y-114110271D01*
X157674412Y-114101374D01*
X157681536Y-114089557D01*
X157685833Y-114070526D01*
X157688009Y-114039992D01*
X157688772Y-113993662D01*
X157688845Y-113957871D01*
X157688845Y-113823045D01*
X158185556Y-113823045D01*
X158185556Y-113945700D01*
X158186069Y-114001787D01*
X158188124Y-114040333D01*
X158192492Y-114066361D01*
X158199944Y-114084897D01*
X158208953Y-114098100D01*
X158239856Y-114122604D01*
X158274804Y-114125506D01*
X158308262Y-114108089D01*
X158317396Y-114098959D01*
X158323848Y-114086855D01*
X158328103Y-114068001D01*
X158330648Y-114038620D01*
X158331971Y-113994937D01*
X158332557Y-113933175D01*
X158332625Y-113919000D01*
X158333109Y-113802631D01*
X158333359Y-113706727D01*
X158333277Y-113629177D01*
X158332769Y-113567869D01*
X158331738Y-113520690D01*
X158330087Y-113485530D01*
X158327721Y-113460276D01*
X158324543Y-113442817D01*
X158320456Y-113431041D01*
X158315366Y-113422835D01*
X158309734Y-113416645D01*
X158277872Y-113396844D01*
X158244643Y-113399533D01*
X158213265Y-113421776D01*
X158200567Y-113436126D01*
X158192474Y-113451978D01*
X158187958Y-113474554D01*
X158185994Y-113509078D01*
X158185556Y-113560776D01*
X158185556Y-113676289D01*
X157688845Y-113676289D01*
X157688845Y-113557756D01*
X157688338Y-113503148D01*
X157686302Y-113466275D01*
X157681965Y-113442307D01*
X157674553Y-113426415D01*
X157666267Y-113416645D01*
X157634406Y-113396844D01*
X157601177Y-113399533D01*
G37*
X157601177Y-113399533D02*
X157569798Y-113421776D01*
X157542089Y-113449485D01*
X157542089Y-113758920D01*
X157542162Y-113850799D01*
X157542505Y-113922840D01*
X157543308Y-113977780D01*
X157544759Y-114018360D01*
X157547048Y-114047317D01*
X157550364Y-114067391D01*
X157554895Y-114081321D01*
X157560831Y-114091845D01*
X157565486Y-114098100D01*
X157596217Y-114122673D01*
X157631504Y-114125341D01*
X157663755Y-114110271D01*
X157674412Y-114101374D01*
X157681536Y-114089557D01*
X157685833Y-114070526D01*
X157688009Y-114039992D01*
X157688772Y-113993662D01*
X157688845Y-113957871D01*
X157688845Y-113823045D01*
X158185556Y-113823045D01*
X158185556Y-113945700D01*
X158186069Y-114001787D01*
X158188124Y-114040333D01*
X158192492Y-114066361D01*
X158199944Y-114084897D01*
X158208953Y-114098100D01*
X158239856Y-114122604D01*
X158274804Y-114125506D01*
X158308262Y-114108089D01*
X158317396Y-114098959D01*
X158323848Y-114086855D01*
X158328103Y-114068001D01*
X158330648Y-114038620D01*
X158331971Y-113994937D01*
X158332557Y-113933175D01*
X158332625Y-113919000D01*
X158333109Y-113802631D01*
X158333359Y-113706727D01*
X158333277Y-113629177D01*
X158332769Y-113567869D01*
X158331738Y-113520690D01*
X158330087Y-113485530D01*
X158327721Y-113460276D01*
X158324543Y-113442817D01*
X158320456Y-113431041D01*
X158315366Y-113422835D01*
X158309734Y-113416645D01*
X158277872Y-113396844D01*
X158244643Y-113399533D01*
X158213265Y-113421776D01*
X158200567Y-113436126D01*
X158192474Y-113451978D01*
X158187958Y-113474554D01*
X158185994Y-113509078D01*
X158185556Y-113560776D01*
X158185556Y-113676289D01*
X157688845Y-113676289D01*
X157688845Y-113557756D01*
X157688338Y-113503148D01*
X157686302Y-113466275D01*
X157681965Y-113442307D01*
X157674553Y-113426415D01*
X157666267Y-113416645D01*
X157634406Y-113396844D01*
X157601177Y-113399533D01*
G36*
X158866935Y-113394163D02*
G01*
X158788228Y-113394542D01*
X158727137Y-113395333D01*
X158681183Y-113396670D01*
X158647886Y-113398683D01*
X158624764Y-113401506D01*
X158609338Y-113405269D01*
X158599129Y-113410105D01*
X158594187Y-113413822D01*
X158568543Y-113446358D01*
X158565441Y-113480138D01*
X158581289Y-113510826D01*
X158591652Y-113523089D01*
X158602804Y-113531450D01*
X158618965Y-113536657D01*
X158644358Y-113539457D01*
X158683202Y-113540596D01*
X158739720Y-113540821D01*
X158750820Y-113540822D01*
X158896756Y-113540822D01*
X158896756Y-113811756D01*
X158896852Y-113897154D01*
X158897289Y-113962864D01*
X158898288Y-114011774D01*
X158900072Y-114046773D01*
X158902863Y-114070749D01*
X158906883Y-114086593D01*
X158912355Y-114097191D01*
X158919334Y-114105267D01*
X158952266Y-114125112D01*
X158986646Y-114123548D01*
X159017824Y-114100906D01*
X159020114Y-114098100D01*
X159027571Y-114087492D01*
X159033253Y-114075081D01*
X159037399Y-114057850D01*
X159040250Y-114032784D01*
X159042046Y-113996867D01*
X159043028Y-113947083D01*
X159043436Y-113880417D01*
X159043511Y-113804589D01*
X159043511Y-113540822D01*
X159182873Y-113540822D01*
X159242678Y-113540418D01*
X159284082Y-113538840D01*
X159311252Y-113535547D01*
X159328354Y-113529992D01*
X159339557Y-113521631D01*
X159340917Y-113520178D01*
X159357275Y-113486939D01*
X159355828Y-113449362D01*
X159337022Y-113416645D01*
X159329750Y-113410298D01*
X159320373Y-113405266D01*
X159306391Y-113401396D01*
X159285304Y-113398537D01*
X159254611Y-113396535D01*
X159211811Y-113395239D01*
X159154405Y-113394498D01*
X159079890Y-113394158D01*
X158985767Y-113394068D01*
X158965740Y-113394067D01*
X158866935Y-113394163D01*
G37*
X158866935Y-113394163D02*
X158788228Y-113394542D01*
X158727137Y-113395333D01*
X158681183Y-113396670D01*
X158647886Y-113398683D01*
X158624764Y-113401506D01*
X158609338Y-113405269D01*
X158599129Y-113410105D01*
X158594187Y-113413822D01*
X158568543Y-113446358D01*
X158565441Y-113480138D01*
X158581289Y-113510826D01*
X158591652Y-113523089D01*
X158602804Y-113531450D01*
X158618965Y-113536657D01*
X158644358Y-113539457D01*
X158683202Y-113540596D01*
X158739720Y-113540821D01*
X158750820Y-113540822D01*
X158896756Y-113540822D01*
X158896756Y-113811756D01*
X158896852Y-113897154D01*
X158897289Y-113962864D01*
X158898288Y-114011774D01*
X158900072Y-114046773D01*
X158902863Y-114070749D01*
X158906883Y-114086593D01*
X158912355Y-114097191D01*
X158919334Y-114105267D01*
X158952266Y-114125112D01*
X158986646Y-114123548D01*
X159017824Y-114100906D01*
X159020114Y-114098100D01*
X159027571Y-114087492D01*
X159033253Y-114075081D01*
X159037399Y-114057850D01*
X159040250Y-114032784D01*
X159042046Y-113996867D01*
X159043028Y-113947083D01*
X159043436Y-113880417D01*
X159043511Y-113804589D01*
X159043511Y-113540822D01*
X159182873Y-113540822D01*
X159242678Y-113540418D01*
X159284082Y-113538840D01*
X159311252Y-113535547D01*
X159328354Y-113529992D01*
X159339557Y-113521631D01*
X159340917Y-113520178D01*
X159357275Y-113486939D01*
X159355828Y-113449362D01*
X159337022Y-113416645D01*
X159329750Y-113410298D01*
X159320373Y-113405266D01*
X159306391Y-113401396D01*
X159285304Y-113398537D01*
X159254611Y-113396535D01*
X159211811Y-113395239D01*
X159154405Y-113394498D01*
X159079890Y-113394158D01*
X158985767Y-113394068D01*
X158965740Y-113394067D01*
X158866935Y-113394163D01*
G36*
X159641386Y-113400877D02*
G01*
X159617673Y-113415647D01*
X159591022Y-113437227D01*
X159591022Y-113758773D01*
X159591107Y-113852830D01*
X159591471Y-113926932D01*
X159592276Y-113983704D01*
X159593687Y-114025768D01*
X159595867Y-114055748D01*
X159598979Y-114076267D01*
X159603186Y-114089949D01*
X159608652Y-114099416D01*
X159612528Y-114104082D01*
X159643966Y-114124575D01*
X159679767Y-114123739D01*
X159711127Y-114106264D01*
X159737778Y-114084684D01*
X159737778Y-113437227D01*
X159711127Y-113415647D01*
X159685406Y-113399949D01*
X159664400Y-113394067D01*
X159641386Y-113400877D01*
G37*
X159641386Y-113400877D02*
X159617673Y-113415647D01*
X159591022Y-113437227D01*
X159591022Y-113758773D01*
X159591107Y-113852830D01*
X159591471Y-113926932D01*
X159592276Y-113983704D01*
X159593687Y-114025768D01*
X159595867Y-114055748D01*
X159598979Y-114076267D01*
X159603186Y-114089949D01*
X159608652Y-114099416D01*
X159612528Y-114104082D01*
X159643966Y-114124575D01*
X159679767Y-114123739D01*
X159711127Y-114106264D01*
X159737778Y-114084684D01*
X159737778Y-113437227D01*
X159711127Y-113415647D01*
X159685406Y-113399949D01*
X159664400Y-113394067D01*
X159641386Y-113400877D01*
G36*
X160085335Y-113396034D02*
G01*
X160065745Y-113403035D01*
X160064990Y-113403377D01*
X160038387Y-113423678D01*
X160023730Y-113444561D01*
X160020862Y-113454352D01*
X160021004Y-113467361D01*
X160025039Y-113485895D01*
X160033854Y-113512257D01*
X160048331Y-113548752D01*
X160069355Y-113597687D01*
X160097812Y-113661365D01*
X160134585Y-113742093D01*
X160154825Y-113786216D01*
X160191375Y-113864985D01*
X160225685Y-113937423D01*
X160256448Y-114000880D01*
X160282352Y-114052708D01*
X160302090Y-114090259D01*
X160314350Y-114110884D01*
X160316776Y-114113733D01*
X160347817Y-114126302D01*
X160382879Y-114124619D01*
X160411000Y-114109332D01*
X160412146Y-114108089D01*
X160423332Y-114091154D01*
X160442096Y-114058170D01*
X160466125Y-114013380D01*
X160493103Y-113961032D01*
X160502799Y-113941742D01*
X160575986Y-113795150D01*
X160655760Y-113954393D01*
X160684233Y-114009415D01*
X160710650Y-114057132D01*
X160732852Y-114093893D01*
X160748681Y-114116044D01*
X160754046Y-114120741D01*
X160795743Y-114127102D01*
X160830151Y-114113733D01*
X160840272Y-114099446D01*
X160857786Y-114067692D01*
X160881265Y-114021597D01*
X160909280Y-113964285D01*
X160940401Y-113898880D01*
X160973201Y-113828507D01*
X161006250Y-113756291D01*
X161038119Y-113685355D01*
X161067381Y-113618825D01*
X161092605Y-113559826D01*
X161112364Y-113511481D01*
X161125228Y-113476915D01*
X161129769Y-113459253D01*
X161129723Y-113458613D01*
X161118674Y-113436388D01*
X161096590Y-113413753D01*
X161095290Y-113412768D01*
X161068147Y-113397425D01*
X161043042Y-113397574D01*
X161033632Y-113400466D01*
X161022166Y-113406718D01*
X161009990Y-113419014D01*
X160995643Y-113439908D01*
X160977664Y-113471949D01*
X160954593Y-113517688D01*
X160924970Y-113579677D01*
X160898255Y-113636898D01*
X160867520Y-113703226D01*
X160839979Y-113762874D01*
X160817062Y-113812725D01*
X160800202Y-113849664D01*
X160790827Y-113870573D01*
X160789460Y-113873845D01*
X160783311Y-113868497D01*
X160769178Y-113846109D01*
X160748943Y-113809946D01*
X160724485Y-113763277D01*
X160714752Y-113744022D01*
X160681783Y-113679004D01*
X160656357Y-113631654D01*
X160636388Y-113599219D01*
X160619790Y-113578946D01*
X160604476Y-113568082D01*
X160588360Y-113563875D01*
X160577857Y-113563400D01*
X160559330Y-113565042D01*
X160543096Y-113571831D01*
X160526965Y-113586566D01*
X160508749Y-113612044D01*
X160486261Y-113651061D01*
X160457311Y-113706414D01*
X160441338Y-113737903D01*
X160415430Y-113788087D01*
X160392833Y-113829704D01*
X160375542Y-113859242D01*
X160365550Y-113873189D01*
X160364191Y-113873770D01*
X160357739Y-113862793D01*
X160343292Y-113834290D01*
X160322297Y-113791244D01*
X160296203Y-113736638D01*
X160266454Y-113673454D01*
X160251820Y-113642071D01*
X160213750Y-113561078D01*
X160183095Y-113498756D01*
X160158263Y-113453071D01*
X160137663Y-113421989D01*
X160119702Y-113403478D01*
X160102790Y-113395504D01*
X160085335Y-113396034D01*
G37*
X160085335Y-113396034D02*
X160065745Y-113403035D01*
X160064990Y-113403377D01*
X160038387Y-113423678D01*
X160023730Y-113444561D01*
X160020862Y-113454352D01*
X160021004Y-113467361D01*
X160025039Y-113485895D01*
X160033854Y-113512257D01*
X160048331Y-113548752D01*
X160069355Y-113597687D01*
X160097812Y-113661365D01*
X160134585Y-113742093D01*
X160154825Y-113786216D01*
X160191375Y-113864985D01*
X160225685Y-113937423D01*
X160256448Y-114000880D01*
X160282352Y-114052708D01*
X160302090Y-114090259D01*
X160314350Y-114110884D01*
X160316776Y-114113733D01*
X160347817Y-114126302D01*
X160382879Y-114124619D01*
X160411000Y-114109332D01*
X160412146Y-114108089D01*
X160423332Y-114091154D01*
X160442096Y-114058170D01*
X160466125Y-114013380D01*
X160493103Y-113961032D01*
X160502799Y-113941742D01*
X160575986Y-113795150D01*
X160655760Y-113954393D01*
X160684233Y-114009415D01*
X160710650Y-114057132D01*
X160732852Y-114093893D01*
X160748681Y-114116044D01*
X160754046Y-114120741D01*
X160795743Y-114127102D01*
X160830151Y-114113733D01*
X160840272Y-114099446D01*
X160857786Y-114067692D01*
X160881265Y-114021597D01*
X160909280Y-113964285D01*
X160940401Y-113898880D01*
X160973201Y-113828507D01*
X161006250Y-113756291D01*
X161038119Y-113685355D01*
X161067381Y-113618825D01*
X161092605Y-113559826D01*
X161112364Y-113511481D01*
X161125228Y-113476915D01*
X161129769Y-113459253D01*
X161129723Y-113458613D01*
X161118674Y-113436388D01*
X161096590Y-113413753D01*
X161095290Y-113412768D01*
X161068147Y-113397425D01*
X161043042Y-113397574D01*
X161033632Y-113400466D01*
X161022166Y-113406718D01*
X161009990Y-113419014D01*
X160995643Y-113439908D01*
X160977664Y-113471949D01*
X160954593Y-113517688D01*
X160924970Y-113579677D01*
X160898255Y-113636898D01*
X160867520Y-113703226D01*
X160839979Y-113762874D01*
X160817062Y-113812725D01*
X160800202Y-113849664D01*
X160790827Y-113870573D01*
X160789460Y-113873845D01*
X160783311Y-113868497D01*
X160769178Y-113846109D01*
X160748943Y-113809946D01*
X160724485Y-113763277D01*
X160714752Y-113744022D01*
X160681783Y-113679004D01*
X160656357Y-113631654D01*
X160636388Y-113599219D01*
X160619790Y-113578946D01*
X160604476Y-113568082D01*
X160588360Y-113563875D01*
X160577857Y-113563400D01*
X160559330Y-113565042D01*
X160543096Y-113571831D01*
X160526965Y-113586566D01*
X160508749Y-113612044D01*
X160486261Y-113651061D01*
X160457311Y-113706414D01*
X160441338Y-113737903D01*
X160415430Y-113788087D01*
X160392833Y-113829704D01*
X160375542Y-113859242D01*
X160365550Y-113873189D01*
X160364191Y-113873770D01*
X160357739Y-113862793D01*
X160343292Y-113834290D01*
X160322297Y-113791244D01*
X160296203Y-113736638D01*
X160266454Y-113673454D01*
X160251820Y-113642071D01*
X160213750Y-113561078D01*
X160183095Y-113498756D01*
X160158263Y-113453071D01*
X160137663Y-113421989D01*
X160119702Y-113403478D01*
X160102790Y-113395504D01*
X160085335Y-113396034D01*
G36*
X162811691Y-113394275D02*
G01*
X162682712Y-113398636D01*
X162573009Y-113411861D01*
X162480774Y-113434741D01*
X162404198Y-113468070D01*
X162341473Y-113512638D01*
X162290788Y-113569236D01*
X162250337Y-113638658D01*
X162249541Y-113640351D01*
X162225399Y-113702483D01*
X162216797Y-113757509D01*
X162223769Y-113812887D01*
X162246346Y-113876073D01*
X162250628Y-113885689D01*
X162279828Y-113941966D01*
X162312644Y-113985451D01*
X162354998Y-114022417D01*
X162412810Y-114059135D01*
X162416169Y-114061052D01*
X162466496Y-114085227D01*
X162523379Y-114103282D01*
X162590473Y-114115839D01*
X162671435Y-114123522D01*
X162769918Y-114126953D01*
X162804714Y-114127251D01*
X162970406Y-114127845D01*
X162993803Y-114098100D01*
X163000743Y-114088319D01*
X163006158Y-114076897D01*
X163010235Y-114061095D01*
X163013163Y-114038175D01*
X163015133Y-114005396D01*
X163015775Y-113981089D01*
X162859156Y-113981089D01*
X162765274Y-113981089D01*
X162710336Y-113979483D01*
X162653940Y-113975255D01*
X162607655Y-113969292D01*
X162604861Y-113968790D01*
X162522652Y-113946736D01*
X162458886Y-113913600D01*
X162411548Y-113867847D01*
X162378618Y-113807939D01*
X162372892Y-113792061D01*
X162367279Y-113767333D01*
X162369709Y-113742902D01*
X162381533Y-113710400D01*
X162388660Y-113694434D01*
X162412000Y-113652006D01*
X162440120Y-113622240D01*
X162471060Y-113601511D01*
X162533034Y-113574537D01*
X162612349Y-113554998D01*
X162704747Y-113543746D01*
X162771667Y-113541270D01*
X162859156Y-113540822D01*
X162859156Y-113981089D01*
X163015775Y-113981089D01*
X163016332Y-113960021D01*
X163016950Y-113899311D01*
X163017175Y-113820526D01*
X163017200Y-113758920D01*
X163017200Y-113449485D01*
X162989491Y-113421776D01*
X162977194Y-113410544D01*
X162963897Y-113402853D01*
X162945328Y-113398040D01*
X162917214Y-113395446D01*
X162875283Y-113394410D01*
X162815263Y-113394270D01*
X162811691Y-113394275D01*
G37*
X162811691Y-113394275D02*
X162682712Y-113398636D01*
X162573009Y-113411861D01*
X162480774Y-113434741D01*
X162404198Y-113468070D01*
X162341473Y-113512638D01*
X162290788Y-113569236D01*
X162250337Y-113638658D01*
X162249541Y-113640351D01*
X162225399Y-113702483D01*
X162216797Y-113757509D01*
X162223769Y-113812887D01*
X162246346Y-113876073D01*
X162250628Y-113885689D01*
X162279828Y-113941966D01*
X162312644Y-113985451D01*
X162354998Y-114022417D01*
X162412810Y-114059135D01*
X162416169Y-114061052D01*
X162466496Y-114085227D01*
X162523379Y-114103282D01*
X162590473Y-114115839D01*
X162671435Y-114123522D01*
X162769918Y-114126953D01*
X162804714Y-114127251D01*
X162970406Y-114127845D01*
X162993803Y-114098100D01*
X163000743Y-114088319D01*
X163006158Y-114076897D01*
X163010235Y-114061095D01*
X163013163Y-114038175D01*
X163015133Y-114005396D01*
X163015775Y-113981089D01*
X162859156Y-113981089D01*
X162765274Y-113981089D01*
X162710336Y-113979483D01*
X162653940Y-113975255D01*
X162607655Y-113969292D01*
X162604861Y-113968790D01*
X162522652Y-113946736D01*
X162458886Y-113913600D01*
X162411548Y-113867847D01*
X162378618Y-113807939D01*
X162372892Y-113792061D01*
X162367279Y-113767333D01*
X162369709Y-113742902D01*
X162381533Y-113710400D01*
X162388660Y-113694434D01*
X162412000Y-113652006D01*
X162440120Y-113622240D01*
X162471060Y-113601511D01*
X162533034Y-113574537D01*
X162612349Y-113554998D01*
X162704747Y-113543746D01*
X162771667Y-113541270D01*
X162859156Y-113540822D01*
X162859156Y-113981089D01*
X163015775Y-113981089D01*
X163016332Y-113960021D01*
X163016950Y-113899311D01*
X163017175Y-113820526D01*
X163017200Y-113758920D01*
X163017200Y-113449485D01*
X162989491Y-113421776D01*
X162977194Y-113410544D01*
X162963897Y-113402853D01*
X162945328Y-113398040D01*
X162917214Y-113395446D01*
X162875283Y-113394410D01*
X162815263Y-113394270D01*
X162811691Y-113394275D01*
G36*
X163599657Y-113394260D02*
G01*
X163523299Y-113395174D01*
X163464783Y-113397311D01*
X163421745Y-113401175D01*
X163391817Y-113407267D01*
X163372632Y-113416090D01*
X163361824Y-113428146D01*
X163357027Y-113443939D01*
X163355873Y-113463970D01*
X163355867Y-113466335D01*
X163356869Y-113488992D01*
X163361604Y-113506503D01*
X163372667Y-113519574D01*
X163392652Y-113528913D01*
X163424154Y-113535227D01*
X163469768Y-113539222D01*
X163532087Y-113541606D01*
X163613707Y-113543086D01*
X163638723Y-113543414D01*
X163880800Y-113546467D01*
X163884186Y-113611378D01*
X163887571Y-113676289D01*
X163719424Y-113676289D01*
X163653734Y-113676531D01*
X163606828Y-113677556D01*
X163574917Y-113679811D01*
X163554209Y-113683742D01*
X163540916Y-113689798D01*
X163531245Y-113698424D01*
X163531183Y-113698493D01*
X163513644Y-113732112D01*
X163514278Y-113768448D01*
X163532686Y-113799423D01*
X163536329Y-113802607D01*
X163549259Y-113810812D01*
X163566976Y-113816521D01*
X163593430Y-113820162D01*
X163632568Y-113822167D01*
X163688338Y-113822964D01*
X163724006Y-113823045D01*
X163886445Y-113823045D01*
X163886445Y-113981089D01*
X163639839Y-113981089D01*
X163558420Y-113981231D01*
X163496590Y-113981814D01*
X163451363Y-113983068D01*
X163419752Y-113985227D01*
X163398769Y-113988523D01*
X163385427Y-113993189D01*
X163376739Y-113999457D01*
X163374550Y-114001733D01*
X163358386Y-114033280D01*
X163357203Y-114069168D01*
X163370464Y-114100285D01*
X163380957Y-114110271D01*
X163391871Y-114115769D01*
X163408783Y-114120022D01*
X163434367Y-114123180D01*
X163471299Y-114125392D01*
X163522254Y-114126806D01*
X163589906Y-114127572D01*
X163676931Y-114127838D01*
X163696606Y-114127845D01*
X163785089Y-114127787D01*
X163853773Y-114127467D01*
X163905436Y-114126667D01*
X163942855Y-114125167D01*
X163968810Y-114122749D01*
X163986078Y-114119194D01*
X163997438Y-114114282D01*
X164005668Y-114107795D01*
X164010183Y-114103138D01*
X164016979Y-114094889D01*
X164022288Y-114084669D01*
X164026294Y-114069800D01*
X164029179Y-114047602D01*
X164031126Y-114015393D01*
X164032319Y-113970496D01*
X164032939Y-113910228D01*
X164033171Y-113831911D01*
X164033200Y-113765994D01*
X164033129Y-113673628D01*
X164032792Y-113601117D01*
X164032002Y-113545737D01*
X164030574Y-113504765D01*
X164028321Y-113475478D01*
X164025057Y-113455153D01*
X164020596Y-113441066D01*
X164014752Y-113430495D01*
X164009803Y-113423811D01*
X163986406Y-113394067D01*
X163696226Y-113394067D01*
X163599657Y-113394260D01*
G37*
X163599657Y-113394260D02*
X163523299Y-113395174D01*
X163464783Y-113397311D01*
X163421745Y-113401175D01*
X163391817Y-113407267D01*
X163372632Y-113416090D01*
X163361824Y-113428146D01*
X163357027Y-113443939D01*
X163355873Y-113463970D01*
X163355867Y-113466335D01*
X163356869Y-113488992D01*
X163361604Y-113506503D01*
X163372667Y-113519574D01*
X163392652Y-113528913D01*
X163424154Y-113535227D01*
X163469768Y-113539222D01*
X163532087Y-113541606D01*
X163613707Y-113543086D01*
X163638723Y-113543414D01*
X163880800Y-113546467D01*
X163884186Y-113611378D01*
X163887571Y-113676289D01*
X163719424Y-113676289D01*
X163653734Y-113676531D01*
X163606828Y-113677556D01*
X163574917Y-113679811D01*
X163554209Y-113683742D01*
X163540916Y-113689798D01*
X163531245Y-113698424D01*
X163531183Y-113698493D01*
X163513644Y-113732112D01*
X163514278Y-113768448D01*
X163532686Y-113799423D01*
X163536329Y-113802607D01*
X163549259Y-113810812D01*
X163566976Y-113816521D01*
X163593430Y-113820162D01*
X163632568Y-113822167D01*
X163688338Y-113822964D01*
X163724006Y-113823045D01*
X163886445Y-113823045D01*
X163886445Y-113981089D01*
X163639839Y-113981089D01*
X163558420Y-113981231D01*
X163496590Y-113981814D01*
X163451363Y-113983068D01*
X163419752Y-113985227D01*
X163398769Y-113988523D01*
X163385427Y-113993189D01*
X163376739Y-113999457D01*
X163374550Y-114001733D01*
X163358386Y-114033280D01*
X163357203Y-114069168D01*
X163370464Y-114100285D01*
X163380957Y-114110271D01*
X163391871Y-114115769D01*
X163408783Y-114120022D01*
X163434367Y-114123180D01*
X163471299Y-114125392D01*
X163522254Y-114126806D01*
X163589906Y-114127572D01*
X163676931Y-114127838D01*
X163696606Y-114127845D01*
X163785089Y-114127787D01*
X163853773Y-114127467D01*
X163905436Y-114126667D01*
X163942855Y-114125167D01*
X163968810Y-114122749D01*
X163986078Y-114119194D01*
X163997438Y-114114282D01*
X164005668Y-114107795D01*
X164010183Y-114103138D01*
X164016979Y-114094889D01*
X164022288Y-114084669D01*
X164026294Y-114069800D01*
X164029179Y-114047602D01*
X164031126Y-114015393D01*
X164032319Y-113970496D01*
X164032939Y-113910228D01*
X164033171Y-113831911D01*
X164033200Y-113765994D01*
X164033129Y-113673628D01*
X164032792Y-113601117D01*
X164032002Y-113545737D01*
X164030574Y-113504765D01*
X164028321Y-113475478D01*
X164025057Y-113455153D01*
X164020596Y-113441066D01*
X164014752Y-113430495D01*
X164009803Y-113423811D01*
X163986406Y-113394067D01*
X163696226Y-113394067D01*
X163599657Y-113394260D01*
G36*
X165130114Y-113398448D02*
G01*
X165106548Y-113412273D01*
X165075735Y-113434881D01*
X165036078Y-113467338D01*
X164985980Y-113510708D01*
X164923843Y-113566058D01*
X164848072Y-113634451D01*
X164761334Y-113713084D01*
X164580711Y-113876878D01*
X164575067Y-113657029D01*
X164573029Y-113581351D01*
X164571063Y-113524994D01*
X164568734Y-113484706D01*
X164565606Y-113457235D01*
X164561245Y-113439329D01*
X164555216Y-113427737D01*
X164547084Y-113419208D01*
X164542772Y-113415623D01*
X164508241Y-113396670D01*
X164475383Y-113399441D01*
X164449318Y-113415633D01*
X164422667Y-113437199D01*
X164419352Y-113752151D01*
X164418435Y-113844779D01*
X164417968Y-113917544D01*
X164418113Y-113973161D01*
X164419032Y-114014342D01*
X164420887Y-114043803D01*
X164423839Y-114064255D01*
X164428050Y-114078413D01*
X164433682Y-114088991D01*
X164439927Y-114097474D01*
X164453439Y-114113207D01*
X164466883Y-114123636D01*
X164482124Y-114127639D01*
X164501026Y-114124094D01*
X164525455Y-114111879D01*
X164557273Y-114089871D01*
X164598348Y-114056949D01*
X164650542Y-114011991D01*
X164715722Y-113953875D01*
X164789556Y-113887099D01*
X165054845Y-113646458D01*
X165060489Y-113865589D01*
X165062531Y-113941128D01*
X165064502Y-113997354D01*
X165066839Y-114037524D01*
X165069981Y-114064896D01*
X165074364Y-114082728D01*
X165080424Y-114094279D01*
X165088600Y-114102807D01*
X165092784Y-114106282D01*
X165129765Y-114125372D01*
X165164708Y-114122493D01*
X165195136Y-114098100D01*
X165202097Y-114088286D01*
X165207523Y-114076826D01*
X165211603Y-114060968D01*
X165214529Y-114037963D01*
X165216492Y-114005062D01*
X165217683Y-113959516D01*
X165218292Y-113898573D01*
X165218511Y-113819486D01*
X165218534Y-113760956D01*
X165218460Y-113669407D01*
X165218113Y-113597687D01*
X165217301Y-113543045D01*
X165215833Y-113502732D01*
X165213519Y-113473998D01*
X165210167Y-113454093D01*
X165205588Y-113440268D01*
X165199589Y-113429772D01*
X165195136Y-113423811D01*
X165183850Y-113409691D01*
X165173301Y-113399029D01*
X165161893Y-113392892D01*
X165148030Y-113392343D01*
X165130114Y-113398448D01*
G37*
X165130114Y-113398448D02*
X165106548Y-113412273D01*
X165075735Y-113434881D01*
X165036078Y-113467338D01*
X164985980Y-113510708D01*
X164923843Y-113566058D01*
X164848072Y-113634451D01*
X164761334Y-113713084D01*
X164580711Y-113876878D01*
X164575067Y-113657029D01*
X164573029Y-113581351D01*
X164571063Y-113524994D01*
X164568734Y-113484706D01*
X164565606Y-113457235D01*
X164561245Y-113439329D01*
X164555216Y-113427737D01*
X164547084Y-113419208D01*
X164542772Y-113415623D01*
X164508241Y-113396670D01*
X164475383Y-113399441D01*
X164449318Y-113415633D01*
X164422667Y-113437199D01*
X164419352Y-113752151D01*
X164418435Y-113844779D01*
X164417968Y-113917544D01*
X164418113Y-113973161D01*
X164419032Y-114014342D01*
X164420887Y-114043803D01*
X164423839Y-114064255D01*
X164428050Y-114078413D01*
X164433682Y-114088991D01*
X164439927Y-114097474D01*
X164453439Y-114113207D01*
X164466883Y-114123636D01*
X164482124Y-114127639D01*
X164501026Y-114124094D01*
X164525455Y-114111879D01*
X164557273Y-114089871D01*
X164598348Y-114056949D01*
X164650542Y-114011991D01*
X164715722Y-113953875D01*
X164789556Y-113887099D01*
X165054845Y-113646458D01*
X165060489Y-113865589D01*
X165062531Y-113941128D01*
X165064502Y-113997354D01*
X165066839Y-114037524D01*
X165069981Y-114064896D01*
X165074364Y-114082728D01*
X165080424Y-114094279D01*
X165088600Y-114102807D01*
X165092784Y-114106282D01*
X165129765Y-114125372D01*
X165164708Y-114122493D01*
X165195136Y-114098100D01*
X165202097Y-114088286D01*
X165207523Y-114076826D01*
X165211603Y-114060968D01*
X165214529Y-114037963D01*
X165216492Y-114005062D01*
X165217683Y-113959516D01*
X165218292Y-113898573D01*
X165218511Y-113819486D01*
X165218534Y-113760956D01*
X165218460Y-113669407D01*
X165218113Y-113597687D01*
X165217301Y-113543045D01*
X165215833Y-113502732D01*
X165213519Y-113473998D01*
X165210167Y-113454093D01*
X165205588Y-113440268D01*
X165199589Y-113429772D01*
X165195136Y-113423811D01*
X165183850Y-113409691D01*
X165173301Y-113399029D01*
X165161893Y-113392892D01*
X165148030Y-113392343D01*
X165130114Y-113398448D01*
G36*
X165780081Y-113399599D02*
G01*
X165711565Y-113411095D01*
X165658943Y-113428967D01*
X165624708Y-113452499D01*
X165615379Y-113465924D01*
X165605893Y-113497148D01*
X165612277Y-113525395D01*
X165632430Y-113552182D01*
X165663745Y-113564713D01*
X165709183Y-113563696D01*
X165744326Y-113556906D01*
X165822419Y-113543971D01*
X165902226Y-113542742D01*
X165991555Y-113553241D01*
X166016229Y-113557690D01*
X166099291Y-113581108D01*
X166164273Y-113615945D01*
X166210461Y-113661604D01*
X166237145Y-113717494D01*
X166242663Y-113746388D01*
X166239051Y-113805012D01*
X166215729Y-113856879D01*
X166174824Y-113900978D01*
X166118459Y-113936299D01*
X166048760Y-113961829D01*
X165967852Y-113976559D01*
X165877860Y-113979478D01*
X165780910Y-113969575D01*
X165775436Y-113968641D01*
X165736875Y-113961459D01*
X165715494Y-113954521D01*
X165706227Y-113944227D01*
X165704006Y-113926976D01*
X165703956Y-113917841D01*
X165703956Y-113879489D01*
X165772431Y-113879489D01*
X165832900Y-113875347D01*
X165874165Y-113862147D01*
X165898175Y-113838730D01*
X165906877Y-113803936D01*
X165906983Y-113799394D01*
X165901892Y-113769654D01*
X165884433Y-113748419D01*
X165851939Y-113734366D01*
X165801743Y-113726173D01*
X165753123Y-113723161D01*
X165682456Y-113721433D01*
X165631198Y-113724070D01*
X165596239Y-113733800D01*
X165574470Y-113753353D01*
X165562780Y-113785456D01*
X165558060Y-113832838D01*
X165557200Y-113895071D01*
X165558609Y-113964535D01*
X165562848Y-114011786D01*
X165569936Y-114037012D01*
X165571311Y-114038988D01*
X165610228Y-114070508D01*
X165667286Y-114095470D01*
X165738869Y-114113340D01*
X165821358Y-114123586D01*
X165911139Y-114125673D01*
X166004592Y-114119068D01*
X166059556Y-114110956D01*
X166145766Y-114086554D01*
X166225892Y-114046662D01*
X166292977Y-113994887D01*
X166303173Y-113984539D01*
X166336302Y-113941035D01*
X166366194Y-113887118D01*
X166389357Y-113830592D01*
X166402298Y-113779259D01*
X166403858Y-113759544D01*
X166397218Y-113718419D01*
X166379568Y-113667252D01*
X166354297Y-113613394D01*
X166324789Y-113564195D01*
X166298719Y-113531334D01*
X166237765Y-113482452D01*
X166158969Y-113443545D01*
X166065157Y-113415494D01*
X165959150Y-113399179D01*
X165862000Y-113395192D01*
X165780081Y-113399599D01*
G37*
X165780081Y-113399599D02*
X165711565Y-113411095D01*
X165658943Y-113428967D01*
X165624708Y-113452499D01*
X165615379Y-113465924D01*
X165605893Y-113497148D01*
X165612277Y-113525395D01*
X165632430Y-113552182D01*
X165663745Y-113564713D01*
X165709183Y-113563696D01*
X165744326Y-113556906D01*
X165822419Y-113543971D01*
X165902226Y-113542742D01*
X165991555Y-113553241D01*
X166016229Y-113557690D01*
X166099291Y-113581108D01*
X166164273Y-113615945D01*
X166210461Y-113661604D01*
X166237145Y-113717494D01*
X166242663Y-113746388D01*
X166239051Y-113805012D01*
X166215729Y-113856879D01*
X166174824Y-113900978D01*
X166118459Y-113936299D01*
X166048760Y-113961829D01*
X165967852Y-113976559D01*
X165877860Y-113979478D01*
X165780910Y-113969575D01*
X165775436Y-113968641D01*
X165736875Y-113961459D01*
X165715494Y-113954521D01*
X165706227Y-113944227D01*
X165704006Y-113926976D01*
X165703956Y-113917841D01*
X165703956Y-113879489D01*
X165772431Y-113879489D01*
X165832900Y-113875347D01*
X165874165Y-113862147D01*
X165898175Y-113838730D01*
X165906877Y-113803936D01*
X165906983Y-113799394D01*
X165901892Y-113769654D01*
X165884433Y-113748419D01*
X165851939Y-113734366D01*
X165801743Y-113726173D01*
X165753123Y-113723161D01*
X165682456Y-113721433D01*
X165631198Y-113724070D01*
X165596239Y-113733800D01*
X165574470Y-113753353D01*
X165562780Y-113785456D01*
X165558060Y-113832838D01*
X165557200Y-113895071D01*
X165558609Y-113964535D01*
X165562848Y-114011786D01*
X165569936Y-114037012D01*
X165571311Y-114038988D01*
X165610228Y-114070508D01*
X165667286Y-114095470D01*
X165738869Y-114113340D01*
X165821358Y-114123586D01*
X165911139Y-114125673D01*
X166004592Y-114119068D01*
X166059556Y-114110956D01*
X166145766Y-114086554D01*
X166225892Y-114046662D01*
X166292977Y-113994887D01*
X166303173Y-113984539D01*
X166336302Y-113941035D01*
X166366194Y-113887118D01*
X166389357Y-113830592D01*
X166402298Y-113779259D01*
X166403858Y-113759544D01*
X166397218Y-113718419D01*
X166379568Y-113667252D01*
X166354297Y-113613394D01*
X166324789Y-113564195D01*
X166298719Y-113531334D01*
X166237765Y-113482452D01*
X166158969Y-113443545D01*
X166065157Y-113415494D01*
X165959150Y-113399179D01*
X165862000Y-113395192D01*
X165780081Y-113399599D01*
G36*
X166753822Y-113416645D02*
G01*
X166747242Y-113424218D01*
X166742079Y-113433987D01*
X166738164Y-113448571D01*
X166735324Y-113470585D01*
X166733387Y-113502648D01*
X166732183Y-113547375D01*
X166731539Y-113607385D01*
X166731284Y-113685294D01*
X166731245Y-113760956D01*
X166731314Y-113854802D01*
X166731638Y-113928689D01*
X166732386Y-113985232D01*
X166733732Y-114027049D01*
X166735846Y-114056757D01*
X166738900Y-114076973D01*
X166743066Y-114090314D01*
X166748516Y-114099398D01*
X166753822Y-114105267D01*
X166786826Y-114124947D01*
X166821991Y-114123181D01*
X166853455Y-114101717D01*
X166860684Y-114093337D01*
X166866334Y-114083614D01*
X166870599Y-114069861D01*
X166873673Y-114049389D01*
X166875752Y-114019512D01*
X166877030Y-113977541D01*
X166877701Y-113920789D01*
X166877959Y-113846567D01*
X166878000Y-113762537D01*
X166878000Y-113449485D01*
X166850291Y-113421776D01*
X166816137Y-113398463D01*
X166783006Y-113397623D01*
X166753822Y-113416645D01*
G37*
X166753822Y-113416645D02*
X166747242Y-113424218D01*
X166742079Y-113433987D01*
X166738164Y-113448571D01*
X166735324Y-113470585D01*
X166733387Y-113502648D01*
X166732183Y-113547375D01*
X166731539Y-113607385D01*
X166731284Y-113685294D01*
X166731245Y-113760956D01*
X166731314Y-113854802D01*
X166731638Y-113928689D01*
X166732386Y-113985232D01*
X166733732Y-114027049D01*
X166735846Y-114056757D01*
X166738900Y-114076973D01*
X166743066Y-114090314D01*
X166748516Y-114099398D01*
X166753822Y-114105267D01*
X166786826Y-114124947D01*
X166821991Y-114123181D01*
X166853455Y-114101717D01*
X166860684Y-114093337D01*
X166866334Y-114083614D01*
X166870599Y-114069861D01*
X166873673Y-114049389D01*
X166875752Y-114019512D01*
X166877030Y-113977541D01*
X166877701Y-113920789D01*
X166877959Y-113846567D01*
X166878000Y-113762537D01*
X166878000Y-113449485D01*
X166850291Y-113421776D01*
X166816137Y-113398463D01*
X166783006Y-113397623D01*
X166753822Y-113416645D01*
G36*
X167521703Y-113395351D02*
G01*
X167446888Y-113400581D01*
X167377306Y-113408750D01*
X167317002Y-113419550D01*
X167270020Y-113432673D01*
X167240406Y-113447813D01*
X167235860Y-113452269D01*
X167220054Y-113486850D01*
X167224847Y-113522351D01*
X167249364Y-113552725D01*
X167250534Y-113553596D01*
X167264954Y-113562954D01*
X167280008Y-113567876D01*
X167301005Y-113568473D01*
X167333257Y-113564861D01*
X167382073Y-113557154D01*
X167386000Y-113556505D01*
X167458739Y-113547569D01*
X167537217Y-113543161D01*
X167615927Y-113543119D01*
X167689361Y-113547279D01*
X167752011Y-113555479D01*
X167798370Y-113567557D01*
X167801416Y-113568771D01*
X167835048Y-113587615D01*
X167846864Y-113606685D01*
X167837614Y-113625439D01*
X167808047Y-113643337D01*
X167758911Y-113659837D01*
X167690957Y-113674396D01*
X167645645Y-113681406D01*
X167551456Y-113694889D01*
X167476544Y-113707214D01*
X167417717Y-113719449D01*
X167371785Y-113732661D01*
X167335555Y-113747917D01*
X167305838Y-113766285D01*
X167279442Y-113788831D01*
X167258230Y-113810971D01*
X167233065Y-113841819D01*
X167220681Y-113868345D01*
X167216808Y-113901026D01*
X167216667Y-113912995D01*
X167219576Y-113952712D01*
X167231202Y-113982259D01*
X167251323Y-114008486D01*
X167292216Y-114048576D01*
X167337817Y-114079149D01*
X167391513Y-114101203D01*
X167456692Y-114115735D01*
X167536744Y-114123741D01*
X167635057Y-114126218D01*
X167651289Y-114126177D01*
X167716849Y-114124818D01*
X167781866Y-114121730D01*
X167839252Y-114117356D01*
X167881922Y-114112140D01*
X167885372Y-114111541D01*
X167927796Y-114101491D01*
X167963780Y-114088796D01*
X167984150Y-114077190D01*
X168003107Y-114046572D01*
X168004427Y-114010918D01*
X167988085Y-113979144D01*
X167984429Y-113975551D01*
X167969315Y-113964876D01*
X167950415Y-113960276D01*
X167921162Y-113961059D01*
X167885651Y-113965127D01*
X167845970Y-113968762D01*
X167790345Y-113971828D01*
X167725406Y-113974053D01*
X167657785Y-113975164D01*
X167640000Y-113975237D01*
X167572128Y-113974964D01*
X167522454Y-113973646D01*
X167486610Y-113970827D01*
X167460224Y-113966050D01*
X167438926Y-113958857D01*
X167426126Y-113952867D01*
X167398000Y-113936233D01*
X167380068Y-113921168D01*
X167377447Y-113916897D01*
X167382976Y-113899263D01*
X167409260Y-113882192D01*
X167454478Y-113866458D01*
X167516808Y-113852838D01*
X167535171Y-113849804D01*
X167631090Y-113834738D01*
X167707641Y-113822146D01*
X167767780Y-113811111D01*
X167814460Y-113800720D01*
X167850637Y-113790056D01*
X167879265Y-113778205D01*
X167903298Y-113764251D01*
X167925692Y-113747281D01*
X167949402Y-113726378D01*
X167957380Y-113719049D01*
X167985353Y-113691699D01*
X168000160Y-113670029D01*
X168005952Y-113645232D01*
X168006889Y-113613983D01*
X167996575Y-113552705D01*
X167965752Y-113500640D01*
X167914595Y-113457958D01*
X167843283Y-113424825D01*
X167792400Y-113409964D01*
X167737100Y-113400366D01*
X167670853Y-113394936D01*
X167597706Y-113393367D01*
X167521703Y-113395351D01*
G37*
X167521703Y-113395351D02*
X167446888Y-113400581D01*
X167377306Y-113408750D01*
X167317002Y-113419550D01*
X167270020Y-113432673D01*
X167240406Y-113447813D01*
X167235860Y-113452269D01*
X167220054Y-113486850D01*
X167224847Y-113522351D01*
X167249364Y-113552725D01*
X167250534Y-113553596D01*
X167264954Y-113562954D01*
X167280008Y-113567876D01*
X167301005Y-113568473D01*
X167333257Y-113564861D01*
X167382073Y-113557154D01*
X167386000Y-113556505D01*
X167458739Y-113547569D01*
X167537217Y-113543161D01*
X167615927Y-113543119D01*
X167689361Y-113547279D01*
X167752011Y-113555479D01*
X167798370Y-113567557D01*
X167801416Y-113568771D01*
X167835048Y-113587615D01*
X167846864Y-113606685D01*
X167837614Y-113625439D01*
X167808047Y-113643337D01*
X167758911Y-113659837D01*
X167690957Y-113674396D01*
X167645645Y-113681406D01*
X167551456Y-113694889D01*
X167476544Y-113707214D01*
X167417717Y-113719449D01*
X167371785Y-113732661D01*
X167335555Y-113747917D01*
X167305838Y-113766285D01*
X167279442Y-113788831D01*
X167258230Y-113810971D01*
X167233065Y-113841819D01*
X167220681Y-113868345D01*
X167216808Y-113901026D01*
X167216667Y-113912995D01*
X167219576Y-113952712D01*
X167231202Y-113982259D01*
X167251323Y-114008486D01*
X167292216Y-114048576D01*
X167337817Y-114079149D01*
X167391513Y-114101203D01*
X167456692Y-114115735D01*
X167536744Y-114123741D01*
X167635057Y-114126218D01*
X167651289Y-114126177D01*
X167716849Y-114124818D01*
X167781866Y-114121730D01*
X167839252Y-114117356D01*
X167881922Y-114112140D01*
X167885372Y-114111541D01*
X167927796Y-114101491D01*
X167963780Y-114088796D01*
X167984150Y-114077190D01*
X168003107Y-114046572D01*
X168004427Y-114010918D01*
X167988085Y-113979144D01*
X167984429Y-113975551D01*
X167969315Y-113964876D01*
X167950415Y-113960276D01*
X167921162Y-113961059D01*
X167885651Y-113965127D01*
X167845970Y-113968762D01*
X167790345Y-113971828D01*
X167725406Y-113974053D01*
X167657785Y-113975164D01*
X167640000Y-113975237D01*
X167572128Y-113974964D01*
X167522454Y-113973646D01*
X167486610Y-113970827D01*
X167460224Y-113966050D01*
X167438926Y-113958857D01*
X167426126Y-113952867D01*
X167398000Y-113936233D01*
X167380068Y-113921168D01*
X167377447Y-113916897D01*
X167382976Y-113899263D01*
X167409260Y-113882192D01*
X167454478Y-113866458D01*
X167516808Y-113852838D01*
X167535171Y-113849804D01*
X167631090Y-113834738D01*
X167707641Y-113822146D01*
X167767780Y-113811111D01*
X167814460Y-113800720D01*
X167850637Y-113790056D01*
X167879265Y-113778205D01*
X167903298Y-113764251D01*
X167925692Y-113747281D01*
X167949402Y-113726378D01*
X167957380Y-113719049D01*
X167985353Y-113691699D01*
X168000160Y-113670029D01*
X168005952Y-113645232D01*
X168006889Y-113613983D01*
X167996575Y-113552705D01*
X167965752Y-113500640D01*
X167914595Y-113457958D01*
X167843283Y-113424825D01*
X167792400Y-113409964D01*
X167737100Y-113400366D01*
X167670853Y-113394936D01*
X167597706Y-113393367D01*
X167521703Y-113395351D01*
G36*
X168542794Y-113394146D02*
G01*
X168473386Y-113394518D01*
X168420997Y-113395385D01*
X168382847Y-113396946D01*
X168356159Y-113399403D01*
X168338153Y-113402957D01*
X168326049Y-113407810D01*
X168317069Y-113414161D01*
X168313818Y-113417084D01*
X168294043Y-113448142D01*
X168290482Y-113483828D01*
X168303491Y-113515510D01*
X168309506Y-113521913D01*
X168319235Y-113528121D01*
X168334901Y-113532910D01*
X168359408Y-113536514D01*
X168395661Y-113539164D01*
X168446565Y-113541095D01*
X168515026Y-113542539D01*
X168577617Y-113543418D01*
X168825334Y-113546467D01*
X168828719Y-113611378D01*
X168832105Y-113676289D01*
X168663958Y-113676289D01*
X168590959Y-113676919D01*
X168537517Y-113679553D01*
X168500628Y-113685309D01*
X168477288Y-113695304D01*
X168464494Y-113710656D01*
X168459242Y-113732482D01*
X168458445Y-113752738D01*
X168460923Y-113777592D01*
X168470277Y-113795906D01*
X168489383Y-113808637D01*
X168521118Y-113816741D01*
X168568359Y-113821176D01*
X168633983Y-113822899D01*
X168669801Y-113823045D01*
X168830978Y-113823045D01*
X168830978Y-113981089D01*
X168582622Y-113981089D01*
X168501213Y-113981202D01*
X168439342Y-113981712D01*
X168393968Y-113982870D01*
X168362054Y-113984930D01*
X168340559Y-113988146D01*
X168326443Y-113992772D01*
X168316668Y-113999059D01*
X168311689Y-114003667D01*
X168294610Y-114030560D01*
X168289111Y-114054467D01*
X168296963Y-114083667D01*
X168311689Y-114105267D01*
X168319546Y-114112066D01*
X168329688Y-114117346D01*
X168344844Y-114121298D01*
X168367741Y-114124113D01*
X168401109Y-114125982D01*
X168447675Y-114127098D01*
X168510167Y-114127651D01*
X168591314Y-114127833D01*
X168633422Y-114127845D01*
X168723598Y-114127765D01*
X168793924Y-114127398D01*
X168847129Y-114126552D01*
X168885940Y-114125036D01*
X168913087Y-114122659D01*
X168931298Y-114119229D01*
X168943300Y-114114554D01*
X168951822Y-114108444D01*
X168955156Y-114105267D01*
X168961755Y-114097670D01*
X168966927Y-114087870D01*
X168970846Y-114073239D01*
X168973684Y-114051152D01*
X168975615Y-114018982D01*
X168976812Y-113974103D01*
X168977448Y-113913889D01*
X168977697Y-113835713D01*
X168977734Y-113762923D01*
X168977700Y-113669707D01*
X168977465Y-113596431D01*
X168976830Y-113540458D01*
X168975594Y-113499151D01*
X168973556Y-113469872D01*
X168970517Y-113449984D01*
X168966277Y-113436850D01*
X168960635Y-113427832D01*
X168953391Y-113420293D01*
X168951606Y-113418612D01*
X168942945Y-113411172D01*
X168932882Y-113405409D01*
X168918625Y-113401112D01*
X168897383Y-113398064D01*
X168866364Y-113396051D01*
X168822777Y-113394860D01*
X168763831Y-113394275D01*
X168686734Y-113394083D01*
X168632001Y-113394067D01*
X168542794Y-113394146D01*
G37*
X168542794Y-113394146D02*
X168473386Y-113394518D01*
X168420997Y-113395385D01*
X168382847Y-113396946D01*
X168356159Y-113399403D01*
X168338153Y-113402957D01*
X168326049Y-113407810D01*
X168317069Y-113414161D01*
X168313818Y-113417084D01*
X168294043Y-113448142D01*
X168290482Y-113483828D01*
X168303491Y-113515510D01*
X168309506Y-113521913D01*
X168319235Y-113528121D01*
X168334901Y-113532910D01*
X168359408Y-113536514D01*
X168395661Y-113539164D01*
X168446565Y-113541095D01*
X168515026Y-113542539D01*
X168577617Y-113543418D01*
X168825334Y-113546467D01*
X168828719Y-113611378D01*
X168832105Y-113676289D01*
X168663958Y-113676289D01*
X168590959Y-113676919D01*
X168537517Y-113679553D01*
X168500628Y-113685309D01*
X168477288Y-113695304D01*
X168464494Y-113710656D01*
X168459242Y-113732482D01*
X168458445Y-113752738D01*
X168460923Y-113777592D01*
X168470277Y-113795906D01*
X168489383Y-113808637D01*
X168521118Y-113816741D01*
X168568359Y-113821176D01*
X168633983Y-113822899D01*
X168669801Y-113823045D01*
X168830978Y-113823045D01*
X168830978Y-113981089D01*
X168582622Y-113981089D01*
X168501213Y-113981202D01*
X168439342Y-113981712D01*
X168393968Y-113982870D01*
X168362054Y-113984930D01*
X168340559Y-113988146D01*
X168326443Y-113992772D01*
X168316668Y-113999059D01*
X168311689Y-114003667D01*
X168294610Y-114030560D01*
X168289111Y-114054467D01*
X168296963Y-114083667D01*
X168311689Y-114105267D01*
X168319546Y-114112066D01*
X168329688Y-114117346D01*
X168344844Y-114121298D01*
X168367741Y-114124113D01*
X168401109Y-114125982D01*
X168447675Y-114127098D01*
X168510167Y-114127651D01*
X168591314Y-114127833D01*
X168633422Y-114127845D01*
X168723598Y-114127765D01*
X168793924Y-114127398D01*
X168847129Y-114126552D01*
X168885940Y-114125036D01*
X168913087Y-114122659D01*
X168931298Y-114119229D01*
X168943300Y-114114554D01*
X168951822Y-114108444D01*
X168955156Y-114105267D01*
X168961755Y-114097670D01*
X168966927Y-114087870D01*
X168970846Y-114073239D01*
X168973684Y-114051152D01*
X168975615Y-114018982D01*
X168976812Y-113974103D01*
X168977448Y-113913889D01*
X168977697Y-113835713D01*
X168977734Y-113762923D01*
X168977700Y-113669707D01*
X168977465Y-113596431D01*
X168976830Y-113540458D01*
X168975594Y-113499151D01*
X168973556Y-113469872D01*
X168970517Y-113449984D01*
X168966277Y-113436850D01*
X168960635Y-113427832D01*
X168953391Y-113420293D01*
X168951606Y-113418612D01*
X168942945Y-113411172D01*
X168932882Y-113405409D01*
X168918625Y-113401112D01*
X168897383Y-113398064D01*
X168866364Y-113396051D01*
X168822777Y-113394860D01*
X168763831Y-113394275D01*
X168686734Y-113394083D01*
X168632001Y-113394067D01*
X168542794Y-113394146D01*
G36*
X169951371Y-113394066D02*
G01*
X169911889Y-113394467D01*
X169796200Y-113397259D01*
X169699311Y-113405550D01*
X169617919Y-113420232D01*
X169548723Y-113442193D01*
X169488420Y-113472322D01*
X169433708Y-113511510D01*
X169414167Y-113528532D01*
X169381750Y-113568363D01*
X169352520Y-113622413D01*
X169329991Y-113682323D01*
X169317679Y-113739739D01*
X169316400Y-113760956D01*
X169324417Y-113819769D01*
X169345899Y-113884013D01*
X169376999Y-113944821D01*
X169413866Y-113993330D01*
X169419854Y-113999182D01*
X169470579Y-114040321D01*
X169526125Y-114072435D01*
X169589696Y-114096365D01*
X169664494Y-114112953D01*
X169753722Y-114123041D01*
X169860582Y-114127469D01*
X169909528Y-114127845D01*
X169971762Y-114127545D01*
X170015528Y-114126292D01*
X170044931Y-114123554D01*
X170064079Y-114118801D01*
X170077077Y-114111501D01*
X170084045Y-114105267D01*
X170090626Y-114097694D01*
X170095788Y-114087924D01*
X170099703Y-114073340D01*
X170102543Y-114051326D01*
X170104480Y-114019264D01*
X170105684Y-113974536D01*
X170106328Y-113914526D01*
X170106583Y-113836617D01*
X170106622Y-113760956D01*
X170106870Y-113660041D01*
X170106817Y-113579427D01*
X170105857Y-113540822D01*
X169959867Y-113540822D01*
X169959867Y-113981089D01*
X169866734Y-113981004D01*
X169810693Y-113979396D01*
X169751999Y-113975256D01*
X169703028Y-113969464D01*
X169701538Y-113969226D01*
X169622392Y-113950090D01*
X169561002Y-113920287D01*
X169514305Y-113877878D01*
X169484635Y-113831961D01*
X169466353Y-113781026D01*
X169467771Y-113733200D01*
X169488988Y-113681933D01*
X169530489Y-113628899D01*
X169587998Y-113589600D01*
X169662750Y-113563331D01*
X169712708Y-113554035D01*
X169769416Y-113547507D01*
X169829519Y-113542782D01*
X169880639Y-113540817D01*
X169883667Y-113540808D01*
X169959867Y-113540822D01*
X170105857Y-113540822D01*
X170105260Y-113516851D01*
X170100998Y-113470055D01*
X170092830Y-113436778D01*
X170079556Y-113414759D01*
X170059974Y-113401739D01*
X170032883Y-113395457D01*
X169997082Y-113393653D01*
X169951371Y-113394066D01*
G37*
X169951371Y-113394066D02*
X169911889Y-113394467D01*
X169796200Y-113397259D01*
X169699311Y-113405550D01*
X169617919Y-113420232D01*
X169548723Y-113442193D01*
X169488420Y-113472322D01*
X169433708Y-113511510D01*
X169414167Y-113528532D01*
X169381750Y-113568363D01*
X169352520Y-113622413D01*
X169329991Y-113682323D01*
X169317679Y-113739739D01*
X169316400Y-113760956D01*
X169324417Y-113819769D01*
X169345899Y-113884013D01*
X169376999Y-113944821D01*
X169413866Y-113993330D01*
X169419854Y-113999182D01*
X169470579Y-114040321D01*
X169526125Y-114072435D01*
X169589696Y-114096365D01*
X169664494Y-114112953D01*
X169753722Y-114123041D01*
X169860582Y-114127469D01*
X169909528Y-114127845D01*
X169971762Y-114127545D01*
X170015528Y-114126292D01*
X170044931Y-114123554D01*
X170064079Y-114118801D01*
X170077077Y-114111501D01*
X170084045Y-114105267D01*
X170090626Y-114097694D01*
X170095788Y-114087924D01*
X170099703Y-114073340D01*
X170102543Y-114051326D01*
X170104480Y-114019264D01*
X170105684Y-113974536D01*
X170106328Y-113914526D01*
X170106583Y-113836617D01*
X170106622Y-113760956D01*
X170106870Y-113660041D01*
X170106817Y-113579427D01*
X170105857Y-113540822D01*
X169959867Y-113540822D01*
X169959867Y-113981089D01*
X169866734Y-113981004D01*
X169810693Y-113979396D01*
X169751999Y-113975256D01*
X169703028Y-113969464D01*
X169701538Y-113969226D01*
X169622392Y-113950090D01*
X169561002Y-113920287D01*
X169514305Y-113877878D01*
X169484635Y-113831961D01*
X169466353Y-113781026D01*
X169467771Y-113733200D01*
X169488988Y-113681933D01*
X169530489Y-113628899D01*
X169587998Y-113589600D01*
X169662750Y-113563331D01*
X169712708Y-113554035D01*
X169769416Y-113547507D01*
X169829519Y-113542782D01*
X169880639Y-113540817D01*
X169883667Y-113540808D01*
X169959867Y-113540822D01*
X170105857Y-113540822D01*
X170105260Y-113516851D01*
X170100998Y-113470055D01*
X170092830Y-113436778D01*
X170079556Y-113414759D01*
X170059974Y-113401739D01*
X170032883Y-113395457D01*
X169997082Y-113393653D01*
X169951371Y-113394066D01*
G36*
X166103043Y-108151571D02*
G01*
X166006768Y-108175809D01*
X165920184Y-108218641D01*
X165845373Y-108278419D01*
X165784418Y-108353494D01*
X165739399Y-108442220D01*
X165713136Y-108538530D01*
X165707286Y-108635795D01*
X165722140Y-108729654D01*
X165755840Y-108817511D01*
X165806528Y-108896770D01*
X165872345Y-108964836D01*
X165951434Y-109019112D01*
X166041934Y-109057002D01*
X166093200Y-109069426D01*
X166137698Y-109076947D01*
X166171999Y-109079919D01*
X166204960Y-109078094D01*
X166245434Y-109071225D01*
X166278531Y-109064250D01*
X166371947Y-109032741D01*
X166455619Y-108981617D01*
X166527665Y-108912429D01*
X166586200Y-108826728D01*
X166600148Y-108799489D01*
X166616586Y-108763122D01*
X166626894Y-108732582D01*
X166632460Y-108700450D01*
X166634669Y-108659307D01*
X166634948Y-108613222D01*
X166630861Y-108528865D01*
X166617446Y-108459586D01*
X166592256Y-108398961D01*
X166552846Y-108340567D01*
X166514298Y-108296302D01*
X166442406Y-108230484D01*
X166367313Y-108185053D01*
X166284562Y-108157850D01*
X166206928Y-108147576D01*
X166103043Y-108151571D01*
G37*
X166103043Y-108151571D02*
X166006768Y-108175809D01*
X165920184Y-108218641D01*
X165845373Y-108278419D01*
X165784418Y-108353494D01*
X165739399Y-108442220D01*
X165713136Y-108538530D01*
X165707286Y-108635795D01*
X165722140Y-108729654D01*
X165755840Y-108817511D01*
X165806528Y-108896770D01*
X165872345Y-108964836D01*
X165951434Y-109019112D01*
X166041934Y-109057002D01*
X166093200Y-109069426D01*
X166137698Y-109076947D01*
X166171999Y-109079919D01*
X166204960Y-109078094D01*
X166245434Y-109071225D01*
X166278531Y-109064250D01*
X166371947Y-109032741D01*
X166455619Y-108981617D01*
X166527665Y-108912429D01*
X166586200Y-108826728D01*
X166600148Y-108799489D01*
X166616586Y-108763122D01*
X166626894Y-108732582D01*
X166632460Y-108700450D01*
X166634669Y-108659307D01*
X166634948Y-108613222D01*
X166630861Y-108528865D01*
X166617446Y-108459586D01*
X166592256Y-108398961D01*
X166552846Y-108340567D01*
X166514298Y-108296302D01*
X166442406Y-108230484D01*
X166367313Y-108185053D01*
X166284562Y-108157850D01*
X166206928Y-108147576D01*
X166103043Y-108151571D01*
G36*
X157643493Y-110597245D02*
G01*
X157643474Y-110831662D01*
X157643448Y-111044603D01*
X157643375Y-111237168D01*
X157643218Y-111410459D01*
X157642936Y-111565576D01*
X157642491Y-111703620D01*
X157641844Y-111825692D01*
X157640955Y-111932894D01*
X157639787Y-112026326D01*
X157638299Y-112107090D01*
X157636454Y-112176286D01*
X157634211Y-112235015D01*
X157631531Y-112284379D01*
X157628377Y-112325478D01*
X157624708Y-112359413D01*
X157620487Y-112387286D01*
X157615673Y-112410198D01*
X157610227Y-112429249D01*
X157604112Y-112445540D01*
X157597288Y-112460173D01*
X157589715Y-112474249D01*
X157581355Y-112488868D01*
X157576161Y-112497974D01*
X157541896Y-112558689D01*
X158400045Y-112558689D01*
X158400045Y-112462733D01*
X158400776Y-112419370D01*
X158402728Y-112386205D01*
X158405537Y-112368424D01*
X158406779Y-112366778D01*
X158418201Y-112373662D01*
X158440916Y-112391505D01*
X158463615Y-112410879D01*
X158518200Y-112451614D01*
X158587679Y-112492617D01*
X158664730Y-112530123D01*
X158742035Y-112560364D01*
X158772887Y-112570012D01*
X158841384Y-112584578D01*
X158924236Y-112594539D01*
X159013629Y-112599583D01*
X159101752Y-112599396D01*
X159180793Y-112593666D01*
X159218489Y-112587858D01*
X159356586Y-112549797D01*
X159483887Y-112492073D01*
X159599708Y-112415211D01*
X159703363Y-112319739D01*
X159794167Y-112206179D01*
X159860969Y-112095381D01*
X159915836Y-111978625D01*
X159957837Y-111859276D01*
X159987833Y-111733283D01*
X160006689Y-111596594D01*
X160015268Y-111445158D01*
X160015994Y-111367711D01*
X160013900Y-111310934D01*
X159184783Y-111310934D01*
X159184576Y-111404002D01*
X159181663Y-111491692D01*
X159176000Y-111568772D01*
X159167545Y-111630009D01*
X159164962Y-111642350D01*
X159133160Y-111749633D01*
X159091502Y-111836658D01*
X159039637Y-111903642D01*
X158977219Y-111950805D01*
X158903900Y-111978365D01*
X158819331Y-111986541D01*
X158723165Y-111975551D01*
X158659689Y-111959829D01*
X158610546Y-111941639D01*
X158556417Y-111915791D01*
X158515756Y-111892089D01*
X158445200Y-111845721D01*
X158445200Y-110695530D01*
X158512608Y-110651962D01*
X158591133Y-110611040D01*
X158675319Y-110584389D01*
X158760443Y-110572465D01*
X158841784Y-110575722D01*
X158914620Y-110594615D01*
X158946574Y-110610184D01*
X159004499Y-110653181D01*
X159053456Y-110709953D01*
X159094610Y-110782575D01*
X159129126Y-110873121D01*
X159158167Y-110983666D01*
X159159448Y-110989533D01*
X159169619Y-111051788D01*
X159177261Y-111129594D01*
X159182330Y-111217720D01*
X159184783Y-111310934D01*
X160013900Y-111310934D01*
X160008143Y-111154895D01*
X159986198Y-110959059D01*
X159950214Y-110780332D01*
X159900241Y-110618845D01*
X159836332Y-110474726D01*
X159758538Y-110348106D01*
X159666911Y-110239115D01*
X159561503Y-110147883D01*
X159516338Y-110116932D01*
X159415389Y-110060785D01*
X159312099Y-110021174D01*
X159202011Y-109997014D01*
X159080670Y-109987219D01*
X158988164Y-109988265D01*
X158858510Y-109999231D01*
X158745916Y-110021046D01*
X158647125Y-110054714D01*
X158558879Y-110101236D01*
X158510014Y-110135448D01*
X158480647Y-110157362D01*
X158458957Y-110172333D01*
X158450747Y-110176733D01*
X158449132Y-110165904D01*
X158447841Y-110135251D01*
X158446862Y-110087526D01*
X158446183Y-110025479D01*
X158445790Y-109951862D01*
X158445670Y-109869427D01*
X158445812Y-109780925D01*
X158446203Y-109689107D01*
X158446829Y-109596724D01*
X158447680Y-109506528D01*
X158448740Y-109421271D01*
X158449999Y-109343703D01*
X158451444Y-109276576D01*
X158453062Y-109222641D01*
X158454839Y-109184650D01*
X158455331Y-109177667D01*
X158462908Y-109107251D01*
X158474469Y-109052102D01*
X158492208Y-109004981D01*
X158518318Y-108958647D01*
X158524585Y-108949067D01*
X158549017Y-108912378D01*
X157643689Y-108912378D01*
X157643493Y-110597245D01*
G37*
X157643493Y-110597245D02*
X157643474Y-110831662D01*
X157643448Y-111044603D01*
X157643375Y-111237168D01*
X157643218Y-111410459D01*
X157642936Y-111565576D01*
X157642491Y-111703620D01*
X157641844Y-111825692D01*
X157640955Y-111932894D01*
X157639787Y-112026326D01*
X157638299Y-112107090D01*
X157636454Y-112176286D01*
X157634211Y-112235015D01*
X157631531Y-112284379D01*
X157628377Y-112325478D01*
X157624708Y-112359413D01*
X157620487Y-112387286D01*
X157615673Y-112410198D01*
X157610227Y-112429249D01*
X157604112Y-112445540D01*
X157597288Y-112460173D01*
X157589715Y-112474249D01*
X157581355Y-112488868D01*
X157576161Y-112497974D01*
X157541896Y-112558689D01*
X158400045Y-112558689D01*
X158400045Y-112462733D01*
X158400776Y-112419370D01*
X158402728Y-112386205D01*
X158405537Y-112368424D01*
X158406779Y-112366778D01*
X158418201Y-112373662D01*
X158440916Y-112391505D01*
X158463615Y-112410879D01*
X158518200Y-112451614D01*
X158587679Y-112492617D01*
X158664730Y-112530123D01*
X158742035Y-112560364D01*
X158772887Y-112570012D01*
X158841384Y-112584578D01*
X158924236Y-112594539D01*
X159013629Y-112599583D01*
X159101752Y-112599396D01*
X159180793Y-112593666D01*
X159218489Y-112587858D01*
X159356586Y-112549797D01*
X159483887Y-112492073D01*
X159599708Y-112415211D01*
X159703363Y-112319739D01*
X159794167Y-112206179D01*
X159860969Y-112095381D01*
X159915836Y-111978625D01*
X159957837Y-111859276D01*
X159987833Y-111733283D01*
X160006689Y-111596594D01*
X160015268Y-111445158D01*
X160015994Y-111367711D01*
X160013900Y-111310934D01*
X159184783Y-111310934D01*
X159184576Y-111404002D01*
X159181663Y-111491692D01*
X159176000Y-111568772D01*
X159167545Y-111630009D01*
X159164962Y-111642350D01*
X159133160Y-111749633D01*
X159091502Y-111836658D01*
X159039637Y-111903642D01*
X158977219Y-111950805D01*
X158903900Y-111978365D01*
X158819331Y-111986541D01*
X158723165Y-111975551D01*
X158659689Y-111959829D01*
X158610546Y-111941639D01*
X158556417Y-111915791D01*
X158515756Y-111892089D01*
X158445200Y-111845721D01*
X158445200Y-110695530D01*
X158512608Y-110651962D01*
X158591133Y-110611040D01*
X158675319Y-110584389D01*
X158760443Y-110572465D01*
X158841784Y-110575722D01*
X158914620Y-110594615D01*
X158946574Y-110610184D01*
X159004499Y-110653181D01*
X159053456Y-110709953D01*
X159094610Y-110782575D01*
X159129126Y-110873121D01*
X159158167Y-110983666D01*
X159159448Y-110989533D01*
X159169619Y-111051788D01*
X159177261Y-111129594D01*
X159182330Y-111217720D01*
X159184783Y-111310934D01*
X160013900Y-111310934D01*
X160008143Y-111154895D01*
X159986198Y-110959059D01*
X159950214Y-110780332D01*
X159900241Y-110618845D01*
X159836332Y-110474726D01*
X159758538Y-110348106D01*
X159666911Y-110239115D01*
X159561503Y-110147883D01*
X159516338Y-110116932D01*
X159415389Y-110060785D01*
X159312099Y-110021174D01*
X159202011Y-109997014D01*
X159080670Y-109987219D01*
X158988164Y-109988265D01*
X158858510Y-109999231D01*
X158745916Y-110021046D01*
X158647125Y-110054714D01*
X158558879Y-110101236D01*
X158510014Y-110135448D01*
X158480647Y-110157362D01*
X158458957Y-110172333D01*
X158450747Y-110176733D01*
X158449132Y-110165904D01*
X158447841Y-110135251D01*
X158446862Y-110087526D01*
X158446183Y-110025479D01*
X158445790Y-109951862D01*
X158445670Y-109869427D01*
X158445812Y-109780925D01*
X158446203Y-109689107D01*
X158446829Y-109596724D01*
X158447680Y-109506528D01*
X158448740Y-109421271D01*
X158449999Y-109343703D01*
X158451444Y-109276576D01*
X158453062Y-109222641D01*
X158454839Y-109184650D01*
X158455331Y-109177667D01*
X158462908Y-109107251D01*
X158474469Y-109052102D01*
X158492208Y-109004981D01*
X158518318Y-108958647D01*
X158524585Y-108949067D01*
X158549017Y-108912378D01*
X157643689Y-108912378D01*
X157643493Y-110597245D01*
G36*
X161156426Y-109991552D02*
G01*
X161004508Y-110011567D01*
X160869244Y-110045202D01*
X160749761Y-110092725D01*
X160645185Y-110154405D01*
X160567576Y-110217965D01*
X160498735Y-110292099D01*
X160444994Y-110371871D01*
X160402090Y-110464091D01*
X160386616Y-110507161D01*
X160373756Y-110546142D01*
X160362554Y-110582289D01*
X160352880Y-110617434D01*
X160344604Y-110653410D01*
X160337597Y-110692050D01*
X160331728Y-110735185D01*
X160326869Y-110784649D01*
X160322890Y-110842273D01*
X160319660Y-110909891D01*
X160317051Y-110989334D01*
X160314933Y-111082436D01*
X160313176Y-111191027D01*
X160311651Y-111316942D01*
X160310228Y-111462012D01*
X160308975Y-111604778D01*
X160307649Y-111760968D01*
X160306444Y-111896239D01*
X160305234Y-112012246D01*
X160303894Y-112110645D01*
X160302300Y-112193093D01*
X160300325Y-112261246D01*
X160297844Y-112316760D01*
X160294731Y-112361292D01*
X160290862Y-112396498D01*
X160286111Y-112424034D01*
X160280352Y-112445556D01*
X160273461Y-112462722D01*
X160265311Y-112477186D01*
X160255777Y-112490606D01*
X160244734Y-112504638D01*
X160240434Y-112510071D01*
X160224614Y-112532910D01*
X160217578Y-112548463D01*
X160217556Y-112548922D01*
X160228433Y-112551121D01*
X160259418Y-112553147D01*
X160308043Y-112554942D01*
X160371837Y-112556451D01*
X160448331Y-112557616D01*
X160535056Y-112558380D01*
X160629543Y-112558686D01*
X160640450Y-112558689D01*
X161063343Y-112558689D01*
X161066605Y-112462622D01*
X161069867Y-112366556D01*
X161131956Y-112417543D01*
X161229286Y-112485057D01*
X161339187Y-112539749D01*
X161425651Y-112569978D01*
X161494722Y-112584666D01*
X161578075Y-112594659D01*
X161667841Y-112599646D01*
X161756155Y-112599313D01*
X161835149Y-112593351D01*
X161871378Y-112587638D01*
X162011397Y-112549776D01*
X162137822Y-112494932D01*
X162249740Y-112423924D01*
X162346238Y-112337568D01*
X162426400Y-112236679D01*
X162489313Y-112122076D01*
X162533688Y-111995984D01*
X162546022Y-111939401D01*
X162553632Y-111877202D01*
X162557261Y-111802363D01*
X162557755Y-111768467D01*
X162557690Y-111765282D01*
X161797752Y-111765282D01*
X161788459Y-111840333D01*
X161760272Y-111904160D01*
X161711803Y-111959798D01*
X161706746Y-111964211D01*
X161658452Y-111999037D01*
X161606743Y-112021620D01*
X161546011Y-112033540D01*
X161470648Y-112036383D01*
X161452541Y-112035978D01*
X161398722Y-112033325D01*
X161358692Y-112027909D01*
X161323676Y-112017745D01*
X161284897Y-112000850D01*
X161274255Y-111995672D01*
X161213604Y-111959844D01*
X161166785Y-111917212D01*
X161154048Y-111901973D01*
X161109378Y-111845462D01*
X161109378Y-111649586D01*
X161109914Y-111570939D01*
X161111604Y-111512988D01*
X161114572Y-111473875D01*
X161118943Y-111451741D01*
X161123028Y-111445274D01*
X161138953Y-111442111D01*
X161172736Y-111439488D01*
X161219660Y-111437655D01*
X161275007Y-111436857D01*
X161283894Y-111436842D01*
X161404670Y-111442096D01*
X161507340Y-111458263D01*
X161593894Y-111485961D01*
X161666319Y-111525808D01*
X161721249Y-111572758D01*
X161765796Y-111630645D01*
X161790520Y-111693693D01*
X161797752Y-111765282D01*
X162557690Y-111765282D01*
X162555822Y-111674712D01*
X162547478Y-111595812D01*
X162531232Y-111524590D01*
X162505595Y-111453864D01*
X162481599Y-111401493D01*
X162422980Y-111306196D01*
X162344883Y-111218170D01*
X162249685Y-111139017D01*
X162139762Y-111070340D01*
X162017490Y-111013741D01*
X161885245Y-110970821D01*
X161820578Y-110955882D01*
X161684396Y-110933777D01*
X161535951Y-110919194D01*
X161384495Y-110912813D01*
X161257936Y-110914445D01*
X161096050Y-110921224D01*
X161103470Y-110862245D01*
X161122762Y-110763092D01*
X161153896Y-110682372D01*
X161197731Y-110619466D01*
X161255129Y-110573756D01*
X161326952Y-110544622D01*
X161414059Y-110531447D01*
X161517314Y-110533611D01*
X161555289Y-110537612D01*
X161696480Y-110562780D01*
X161833293Y-110603814D01*
X161927822Y-110641815D01*
X161972982Y-110661190D01*
X162011415Y-110676760D01*
X162037766Y-110686405D01*
X162045454Y-110688452D01*
X162055198Y-110679374D01*
X162071917Y-110650405D01*
X162095768Y-110601217D01*
X162126907Y-110531484D01*
X162165493Y-110440879D01*
X162172090Y-110425089D01*
X162202147Y-110352772D01*
X162229126Y-110287425D01*
X162251864Y-110231906D01*
X162269194Y-110189072D01*
X162279952Y-110161781D01*
X162283059Y-110152942D01*
X162273060Y-110148187D01*
X162246783Y-110142910D01*
X162218511Y-110139231D01*
X162188354Y-110134474D01*
X162140567Y-110125028D01*
X162079388Y-110111820D01*
X162009054Y-110095776D01*
X161933806Y-110077820D01*
X161905245Y-110070797D01*
X161800184Y-110045209D01*
X161712520Y-110025147D01*
X161637932Y-110009969D01*
X161572097Y-109999035D01*
X161510693Y-109991704D01*
X161449398Y-109987335D01*
X161383890Y-109985287D01*
X161325872Y-109984889D01*
X161156426Y-109991552D01*
G37*
X161156426Y-109991552D02*
X161004508Y-110011567D01*
X160869244Y-110045202D01*
X160749761Y-110092725D01*
X160645185Y-110154405D01*
X160567576Y-110217965D01*
X160498735Y-110292099D01*
X160444994Y-110371871D01*
X160402090Y-110464091D01*
X160386616Y-110507161D01*
X160373756Y-110546142D01*
X160362554Y-110582289D01*
X160352880Y-110617434D01*
X160344604Y-110653410D01*
X160337597Y-110692050D01*
X160331728Y-110735185D01*
X160326869Y-110784649D01*
X160322890Y-110842273D01*
X160319660Y-110909891D01*
X160317051Y-110989334D01*
X160314933Y-111082436D01*
X160313176Y-111191027D01*
X160311651Y-111316942D01*
X160310228Y-111462012D01*
X160308975Y-111604778D01*
X160307649Y-111760968D01*
X160306444Y-111896239D01*
X160305234Y-112012246D01*
X160303894Y-112110645D01*
X160302300Y-112193093D01*
X160300325Y-112261246D01*
X160297844Y-112316760D01*
X160294731Y-112361292D01*
X160290862Y-112396498D01*
X160286111Y-112424034D01*
X160280352Y-112445556D01*
X160273461Y-112462722D01*
X160265311Y-112477186D01*
X160255777Y-112490606D01*
X160244734Y-112504638D01*
X160240434Y-112510071D01*
X160224614Y-112532910D01*
X160217578Y-112548463D01*
X160217556Y-112548922D01*
X160228433Y-112551121D01*
X160259418Y-112553147D01*
X160308043Y-112554942D01*
X160371837Y-112556451D01*
X160448331Y-112557616D01*
X160535056Y-112558380D01*
X160629543Y-112558686D01*
X160640450Y-112558689D01*
X161063343Y-112558689D01*
X161066605Y-112462622D01*
X161069867Y-112366556D01*
X161131956Y-112417543D01*
X161229286Y-112485057D01*
X161339187Y-112539749D01*
X161425651Y-112569978D01*
X161494722Y-112584666D01*
X161578075Y-112594659D01*
X161667841Y-112599646D01*
X161756155Y-112599313D01*
X161835149Y-112593351D01*
X161871378Y-112587638D01*
X162011397Y-112549776D01*
X162137822Y-112494932D01*
X162249740Y-112423924D01*
X162346238Y-112337568D01*
X162426400Y-112236679D01*
X162489313Y-112122076D01*
X162533688Y-111995984D01*
X162546022Y-111939401D01*
X162553632Y-111877202D01*
X162557261Y-111802363D01*
X162557755Y-111768467D01*
X162557690Y-111765282D01*
X161797752Y-111765282D01*
X161788459Y-111840333D01*
X161760272Y-111904160D01*
X161711803Y-111959798D01*
X161706746Y-111964211D01*
X161658452Y-111999037D01*
X161606743Y-112021620D01*
X161546011Y-112033540D01*
X161470648Y-112036383D01*
X161452541Y-112035978D01*
X161398722Y-112033325D01*
X161358692Y-112027909D01*
X161323676Y-112017745D01*
X161284897Y-112000850D01*
X161274255Y-111995672D01*
X161213604Y-111959844D01*
X161166785Y-111917212D01*
X161154048Y-111901973D01*
X161109378Y-111845462D01*
X161109378Y-111649586D01*
X161109914Y-111570939D01*
X161111604Y-111512988D01*
X161114572Y-111473875D01*
X161118943Y-111451741D01*
X161123028Y-111445274D01*
X161138953Y-111442111D01*
X161172736Y-111439488D01*
X161219660Y-111437655D01*
X161275007Y-111436857D01*
X161283894Y-111436842D01*
X161404670Y-111442096D01*
X161507340Y-111458263D01*
X161593894Y-111485961D01*
X161666319Y-111525808D01*
X161721249Y-111572758D01*
X161765796Y-111630645D01*
X161790520Y-111693693D01*
X161797752Y-111765282D01*
X162557690Y-111765282D01*
X162555822Y-111674712D01*
X162547478Y-111595812D01*
X162531232Y-111524590D01*
X162505595Y-111453864D01*
X162481599Y-111401493D01*
X162422980Y-111306196D01*
X162344883Y-111218170D01*
X162249685Y-111139017D01*
X162139762Y-111070340D01*
X162017490Y-111013741D01*
X161885245Y-110970821D01*
X161820578Y-110955882D01*
X161684396Y-110933777D01*
X161535951Y-110919194D01*
X161384495Y-110912813D01*
X161257936Y-110914445D01*
X161096050Y-110921224D01*
X161103470Y-110862245D01*
X161122762Y-110763092D01*
X161153896Y-110682372D01*
X161197731Y-110619466D01*
X161255129Y-110573756D01*
X161326952Y-110544622D01*
X161414059Y-110531447D01*
X161517314Y-110533611D01*
X161555289Y-110537612D01*
X161696480Y-110562780D01*
X161833293Y-110603814D01*
X161927822Y-110641815D01*
X161972982Y-110661190D01*
X162011415Y-110676760D01*
X162037766Y-110686405D01*
X162045454Y-110688452D01*
X162055198Y-110679374D01*
X162071917Y-110650405D01*
X162095768Y-110601217D01*
X162126907Y-110531484D01*
X162165493Y-110440879D01*
X162172090Y-110425089D01*
X162202147Y-110352772D01*
X162229126Y-110287425D01*
X162251864Y-110231906D01*
X162269194Y-110189072D01*
X162279952Y-110161781D01*
X162283059Y-110152942D01*
X162273060Y-110148187D01*
X162246783Y-110142910D01*
X162218511Y-110139231D01*
X162188354Y-110134474D01*
X162140567Y-110125028D01*
X162079388Y-110111820D01*
X162009054Y-110095776D01*
X161933806Y-110077820D01*
X161905245Y-110070797D01*
X161800184Y-110045209D01*
X161712520Y-110025147D01*
X161637932Y-110009969D01*
X161572097Y-109999035D01*
X161510693Y-109991704D01*
X161449398Y-109987335D01*
X161383890Y-109985287D01*
X161325872Y-109984889D01*
X161156426Y-109991552D01*
G36*
X163501571Y-109074071D02*
G01*
X163341430Y-109095245D01*
X163177490Y-109135385D01*
X163007687Y-109194889D01*
X162829957Y-109274154D01*
X162818690Y-109279699D01*
X162760995Y-109307725D01*
X162709448Y-109331802D01*
X162667809Y-109350249D01*
X162639838Y-109361386D01*
X162630267Y-109363933D01*
X162611050Y-109368941D01*
X162606439Y-109373147D01*
X162611542Y-109383580D01*
X162627582Y-109409868D01*
X162652712Y-109449257D01*
X162685086Y-109498991D01*
X162722857Y-109556315D01*
X162764178Y-109618476D01*
X162807202Y-109682718D01*
X162850083Y-109746285D01*
X162890974Y-109806425D01*
X162928029Y-109860380D01*
X162959400Y-109905397D01*
X162983241Y-109938721D01*
X162997706Y-109957597D01*
X162999691Y-109959787D01*
X163009809Y-109955138D01*
X163032150Y-109937962D01*
X163062720Y-109911440D01*
X163078464Y-109896964D01*
X163174953Y-109821682D01*
X163281664Y-109766241D01*
X163397168Y-109731141D01*
X163520038Y-109716880D01*
X163589439Y-109718051D01*
X163710577Y-109735212D01*
X163819795Y-109771094D01*
X163917418Y-109825959D01*
X164003772Y-109900070D01*
X164079185Y-109993688D01*
X164143982Y-110107076D01*
X164181399Y-110193667D01*
X164225252Y-110329366D01*
X164257572Y-110476850D01*
X164278443Y-110632314D01*
X164287949Y-110791956D01*
X164286173Y-110951973D01*
X164273197Y-111108561D01*
X164249106Y-111257918D01*
X164213982Y-111396240D01*
X164167908Y-111519724D01*
X164151627Y-111553978D01*
X164083380Y-111668064D01*
X164002921Y-111764557D01*
X163911430Y-111842670D01*
X163810089Y-111901617D01*
X163700080Y-111940612D01*
X163582585Y-111958868D01*
X163541117Y-111960211D01*
X163419559Y-111949290D01*
X163299122Y-111916474D01*
X163181334Y-111862439D01*
X163067723Y-111787865D01*
X162976315Y-111709539D01*
X162929785Y-111665008D01*
X162748517Y-111962271D01*
X162703420Y-112036433D01*
X162662181Y-112104646D01*
X162626265Y-112164459D01*
X162597134Y-112213420D01*
X162576250Y-112249079D01*
X162565076Y-112268984D01*
X162563625Y-112272079D01*
X162571854Y-112281718D01*
X162597433Y-112298999D01*
X162637127Y-112322283D01*
X162687703Y-112349934D01*
X162745926Y-112380315D01*
X162808563Y-112411790D01*
X162872379Y-112442722D01*
X162934140Y-112471473D01*
X162990612Y-112496408D01*
X163038562Y-112515889D01*
X163062014Y-112524318D01*
X163195779Y-112562133D01*
X163333673Y-112587136D01*
X163481378Y-112600140D01*
X163608167Y-112602468D01*
X163676122Y-112601373D01*
X163741723Y-112599275D01*
X163799153Y-112596434D01*
X163842597Y-112593106D01*
X163856702Y-112591422D01*
X163995716Y-112562587D01*
X164137243Y-112517468D01*
X164274725Y-112458750D01*
X164401606Y-112389120D01*
X164479111Y-112336441D01*
X164606519Y-112228239D01*
X164724822Y-112101671D01*
X164831828Y-111959866D01*
X164925348Y-111805951D01*
X165003190Y-111643053D01*
X165047044Y-111525756D01*
X165097292Y-111342128D01*
X165130791Y-111147581D01*
X165147551Y-110946325D01*
X165147584Y-110742568D01*
X165130899Y-110540521D01*
X165097507Y-110344392D01*
X165047420Y-110158391D01*
X165043603Y-110146803D01*
X164980719Y-109984750D01*
X164903972Y-109836832D01*
X164810758Y-109698865D01*
X164698473Y-109566661D01*
X164654608Y-109521399D01*
X164518466Y-109397457D01*
X164378509Y-109294915D01*
X164232589Y-109212656D01*
X164078558Y-109149564D01*
X163914268Y-109104523D01*
X163818711Y-109087033D01*
X163659977Y-109071466D01*
X163501571Y-109074071D01*
G37*
X163501571Y-109074071D02*
X163341430Y-109095245D01*
X163177490Y-109135385D01*
X163007687Y-109194889D01*
X162829957Y-109274154D01*
X162818690Y-109279699D01*
X162760995Y-109307725D01*
X162709448Y-109331802D01*
X162667809Y-109350249D01*
X162639838Y-109361386D01*
X162630267Y-109363933D01*
X162611050Y-109368941D01*
X162606439Y-109373147D01*
X162611542Y-109383580D01*
X162627582Y-109409868D01*
X162652712Y-109449257D01*
X162685086Y-109498991D01*
X162722857Y-109556315D01*
X162764178Y-109618476D01*
X162807202Y-109682718D01*
X162850083Y-109746285D01*
X162890974Y-109806425D01*
X162928029Y-109860380D01*
X162959400Y-109905397D01*
X162983241Y-109938721D01*
X162997706Y-109957597D01*
X162999691Y-109959787D01*
X163009809Y-109955138D01*
X163032150Y-109937962D01*
X163062720Y-109911440D01*
X163078464Y-109896964D01*
X163174953Y-109821682D01*
X163281664Y-109766241D01*
X163397168Y-109731141D01*
X163520038Y-109716880D01*
X163589439Y-109718051D01*
X163710577Y-109735212D01*
X163819795Y-109771094D01*
X163917418Y-109825959D01*
X164003772Y-109900070D01*
X164079185Y-109993688D01*
X164143982Y-110107076D01*
X164181399Y-110193667D01*
X164225252Y-110329366D01*
X164257572Y-110476850D01*
X164278443Y-110632314D01*
X164287949Y-110791956D01*
X164286173Y-110951973D01*
X164273197Y-111108561D01*
X164249106Y-111257918D01*
X164213982Y-111396240D01*
X164167908Y-111519724D01*
X164151627Y-111553978D01*
X164083380Y-111668064D01*
X164002921Y-111764557D01*
X163911430Y-111842670D01*
X163810089Y-111901617D01*
X163700080Y-111940612D01*
X163582585Y-111958868D01*
X163541117Y-111960211D01*
X163419559Y-111949290D01*
X163299122Y-111916474D01*
X163181334Y-111862439D01*
X163067723Y-111787865D01*
X162976315Y-111709539D01*
X162929785Y-111665008D01*
X162748517Y-111962271D01*
X162703420Y-112036433D01*
X162662181Y-112104646D01*
X162626265Y-112164459D01*
X162597134Y-112213420D01*
X162576250Y-112249079D01*
X162565076Y-112268984D01*
X162563625Y-112272079D01*
X162571854Y-112281718D01*
X162597433Y-112298999D01*
X162637127Y-112322283D01*
X162687703Y-112349934D01*
X162745926Y-112380315D01*
X162808563Y-112411790D01*
X162872379Y-112442722D01*
X162934140Y-112471473D01*
X162990612Y-112496408D01*
X163038562Y-112515889D01*
X163062014Y-112524318D01*
X163195779Y-112562133D01*
X163333673Y-112587136D01*
X163481378Y-112600140D01*
X163608167Y-112602468D01*
X163676122Y-112601373D01*
X163741723Y-112599275D01*
X163799153Y-112596434D01*
X163842597Y-112593106D01*
X163856702Y-112591422D01*
X163995716Y-112562587D01*
X164137243Y-112517468D01*
X164274725Y-112458750D01*
X164401606Y-112389120D01*
X164479111Y-112336441D01*
X164606519Y-112228239D01*
X164724822Y-112101671D01*
X164831828Y-111959866D01*
X164925348Y-111805951D01*
X165003190Y-111643053D01*
X165047044Y-111525756D01*
X165097292Y-111342128D01*
X165130791Y-111147581D01*
X165147551Y-110946325D01*
X165147584Y-110742568D01*
X165130899Y-110540521D01*
X165097507Y-110344392D01*
X165047420Y-110158391D01*
X165043603Y-110146803D01*
X164980719Y-109984750D01*
X164903972Y-109836832D01*
X164810758Y-109698865D01*
X164698473Y-109566661D01*
X164654608Y-109521399D01*
X164518466Y-109397457D01*
X164378509Y-109294915D01*
X164232589Y-109212656D01*
X164078558Y-109149564D01*
X163914268Y-109104523D01*
X163818711Y-109087033D01*
X163659977Y-109071466D01*
X163501571Y-109074071D01*
G36*
X166776400Y-108614054D02*
G01*
X166765535Y-108727993D01*
X166733918Y-108835616D01*
X166683015Y-108934615D01*
X166614293Y-109022684D01*
X166529219Y-109097516D01*
X166432232Y-109155384D01*
X166325964Y-109195005D01*
X166218950Y-109213573D01*
X166113300Y-109212434D01*
X166011125Y-109192930D01*
X165914534Y-109156406D01*
X165825638Y-109104205D01*
X165746546Y-109037673D01*
X165679369Y-108958152D01*
X165626217Y-108866987D01*
X165589199Y-108765523D01*
X165570427Y-108655102D01*
X165568489Y-108605206D01*
X165568489Y-108517267D01*
X165516560Y-108517267D01*
X165480253Y-108520111D01*
X165453355Y-108531911D01*
X165426249Y-108555649D01*
X165387867Y-108594031D01*
X165387867Y-110785602D01*
X165387876Y-111047739D01*
X165387908Y-111288241D01*
X165387972Y-111508048D01*
X165388076Y-111708101D01*
X165388227Y-111889344D01*
X165388434Y-112052716D01*
X165388706Y-112199160D01*
X165389050Y-112329617D01*
X165389474Y-112445029D01*
X165389987Y-112546338D01*
X165390597Y-112634484D01*
X165391312Y-112710410D01*
X165392140Y-112775057D01*
X165393089Y-112829367D01*
X165394167Y-112874280D01*
X165395383Y-112910740D01*
X165396745Y-112939687D01*
X165398261Y-112962063D01*
X165399938Y-112978809D01*
X165401786Y-112990868D01*
X165403813Y-112999180D01*
X165406025Y-113004687D01*
X165407108Y-113006537D01*
X165411271Y-113013549D01*
X165414805Y-113019996D01*
X165418635Y-113025900D01*
X165423682Y-113031286D01*
X165430871Y-113036178D01*
X165441123Y-113040598D01*
X165455364Y-113044572D01*
X165474514Y-113048121D01*
X165499499Y-113051270D01*
X165531240Y-113054042D01*
X165570662Y-113056461D01*
X165618686Y-113058551D01*
X165676237Y-113060335D01*
X165744237Y-113061837D01*
X165823610Y-113063080D01*
X165915279Y-113064089D01*
X166020166Y-113064885D01*
X166139196Y-113065494D01*
X166273290Y-113065939D01*
X166423373Y-113066243D01*
X166590367Y-113066430D01*
X166775196Y-113066524D01*
X166978783Y-113066548D01*
X167202050Y-113066525D01*
X167445922Y-113066480D01*
X167711321Y-113066437D01*
X167749704Y-113066432D01*
X168016682Y-113066389D01*
X168262002Y-113066318D01*
X168486583Y-113066213D01*
X168691345Y-113066066D01*
X168877206Y-113065869D01*
X169045088Y-113065616D01*
X169195908Y-113065300D01*
X169330587Y-113064913D01*
X169450044Y-113064447D01*
X169555199Y-113063897D01*
X169646971Y-113063253D01*
X169726279Y-113062511D01*
X169794043Y-113061661D01*
X169851182Y-113060697D01*
X169898617Y-113059611D01*
X169937266Y-113058397D01*
X169968049Y-113057047D01*
X169991885Y-113055555D01*
X170009694Y-113053911D01*
X170022395Y-113052111D01*
X170030908Y-113050145D01*
X170035266Y-113048477D01*
X170043728Y-113044906D01*
X170051497Y-113042270D01*
X170058602Y-113039634D01*
X170065073Y-113036062D01*
X170070939Y-113030621D01*
X170076229Y-113022375D01*
X170080974Y-113010390D01*
X170085202Y-112993731D01*
X170088943Y-112971463D01*
X170092227Y-112942652D01*
X170095083Y-112906363D01*
X170097540Y-112861661D01*
X170099629Y-112807611D01*
X170101378Y-112743279D01*
X170102817Y-112667730D01*
X170103976Y-112580030D01*
X170104883Y-112479243D01*
X170105569Y-112364434D01*
X170106063Y-112234670D01*
X170106395Y-112089015D01*
X170106593Y-111926535D01*
X170106687Y-111746295D01*
X170106708Y-111547360D01*
X170106685Y-111328796D01*
X170106646Y-111089668D01*
X170106622Y-110829040D01*
X170106622Y-110786889D01*
X170106636Y-110523992D01*
X170106661Y-110282732D01*
X170106671Y-110062165D01*
X170106642Y-109861352D01*
X170106548Y-109679349D01*
X170106362Y-109515216D01*
X170106059Y-109368011D01*
X170105614Y-109236792D01*
X170105034Y-109126867D01*
X169802197Y-109126867D01*
X169762407Y-109184711D01*
X169751236Y-109200479D01*
X169741166Y-109214441D01*
X169732138Y-109227784D01*
X169724097Y-109241693D01*
X169716986Y-109257356D01*
X169710747Y-109275958D01*
X169705325Y-109298686D01*
X169700662Y-109326727D01*
X169696701Y-109361267D01*
X169693385Y-109403492D01*
X169690659Y-109454589D01*
X169688464Y-109515744D01*
X169686745Y-109588144D01*
X169685444Y-109672975D01*
X169684505Y-109771422D01*
X169683870Y-109884674D01*
X169683484Y-110013916D01*
X169683288Y-110160334D01*
X169683227Y-110325116D01*
X169683243Y-110509447D01*
X169683280Y-110714513D01*
X169683289Y-110837133D01*
X169683265Y-111054082D01*
X169683231Y-111249642D01*
X169683243Y-111424999D01*
X169683358Y-111581341D01*
X169683630Y-111719857D01*
X169684118Y-111841734D01*
X169684876Y-111948160D01*
X169685962Y-112040322D01*
X169687431Y-112119409D01*
X169689340Y-112186608D01*
X169691744Y-112243107D01*
X169694701Y-112290093D01*
X169698266Y-112328755D01*
X169702495Y-112360280D01*
X169707446Y-112385855D01*
X169713173Y-112406670D01*
X169719733Y-112423911D01*
X169727183Y-112438765D01*
X169735579Y-112452422D01*
X169744976Y-112466069D01*
X169755432Y-112480893D01*
X169761523Y-112489783D01*
X169800296Y-112547400D01*
X169268732Y-112547400D01*
X169145483Y-112547365D01*
X169042987Y-112547215D01*
X168959420Y-112546878D01*
X168892956Y-112546286D01*
X168841771Y-112545367D01*
X168804041Y-112544051D01*
X168777940Y-112542269D01*
X168761644Y-112539951D01*
X168753328Y-112537026D01*
X168751168Y-112533424D01*
X168753339Y-112529075D01*
X168754535Y-112527645D01*
X168779685Y-112490573D01*
X168805583Y-112437772D01*
X168829192Y-112375770D01*
X168837461Y-112349357D01*
X168842078Y-112331416D01*
X168845979Y-112310355D01*
X168849248Y-112284089D01*
X168851966Y-112250532D01*
X168854215Y-112207599D01*
X168856077Y-112153204D01*
X168857636Y-112085262D01*
X168858972Y-112001688D01*
X168860169Y-111900395D01*
X168861308Y-111779300D01*
X168861685Y-111734600D01*
X168862702Y-111609449D01*
X168863460Y-111505082D01*
X168863903Y-111419707D01*
X168863970Y-111351533D01*
X168863605Y-111298765D01*
X168862748Y-111259614D01*
X168861341Y-111232285D01*
X168859325Y-111214986D01*
X168856643Y-111205926D01*
X168853236Y-111203312D01*
X168849044Y-111205351D01*
X168844571Y-111209667D01*
X168834216Y-111222602D01*
X168812158Y-111251676D01*
X168779957Y-111294759D01*
X168739174Y-111349718D01*
X168691370Y-111414423D01*
X168638105Y-111486742D01*
X168580940Y-111564544D01*
X168521437Y-111645698D01*
X168461155Y-111728072D01*
X168401655Y-111809536D01*
X168344498Y-111887957D01*
X168291245Y-111961204D01*
X168243457Y-112027147D01*
X168202693Y-112083654D01*
X168170516Y-112128593D01*
X168148485Y-112159834D01*
X168143917Y-112166466D01*
X168120996Y-112203369D01*
X168094188Y-112251359D01*
X168068789Y-112300897D01*
X168065568Y-112307577D01*
X168043890Y-112355772D01*
X168031304Y-112393334D01*
X168025574Y-112429160D01*
X168024456Y-112471200D01*
X168025090Y-112547400D01*
X166870651Y-112547400D01*
X166961815Y-112453669D01*
X167008612Y-112403775D01*
X167058899Y-112347295D01*
X167104944Y-112293026D01*
X167125369Y-112267673D01*
X167155807Y-112228128D01*
X167195862Y-112174916D01*
X167244361Y-112109667D01*
X167300135Y-112034011D01*
X167362011Y-111949577D01*
X167428819Y-111857994D01*
X167499387Y-111760892D01*
X167572545Y-111659901D01*
X167647121Y-111556650D01*
X167721944Y-111452768D01*
X167795843Y-111349885D01*
X167867646Y-111249631D01*
X167936184Y-111153636D01*
X168000284Y-111063527D01*
X168058775Y-110980936D01*
X168110486Y-110907492D01*
X168154247Y-110844824D01*
X168188885Y-110794561D01*
X168213230Y-110758334D01*
X168226111Y-110737771D01*
X168227869Y-110733668D01*
X168219910Y-110722342D01*
X168199115Y-110695162D01*
X168166847Y-110653829D01*
X168124470Y-110600044D01*
X168073347Y-110535506D01*
X168014841Y-110461918D01*
X167950314Y-110380978D01*
X167881131Y-110294388D01*
X167808653Y-110203848D01*
X167734246Y-110111060D01*
X167674517Y-110036702D01*
X166663511Y-110036702D01*
X166657602Y-110049659D01*
X166643272Y-110071908D01*
X166642225Y-110073391D01*
X166623438Y-110103544D01*
X166603791Y-110140375D01*
X166599892Y-110148511D01*
X166596356Y-110156940D01*
X166593230Y-110167059D01*
X166590486Y-110180260D01*
X166588092Y-110197938D01*
X166586019Y-110221484D01*
X166584235Y-110252293D01*
X166582712Y-110291757D01*
X166581419Y-110341269D01*
X166580326Y-110402223D01*
X166579403Y-110476011D01*
X166578619Y-110564028D01*
X166577945Y-110667665D01*
X166577350Y-110788316D01*
X166576805Y-110927374D01*
X166576279Y-111086232D01*
X166575745Y-111265089D01*
X166575206Y-111450207D01*
X166574772Y-111614145D01*
X166574509Y-111758303D01*
X166574484Y-111884079D01*
X166574765Y-111992871D01*
X166575419Y-112086077D01*
X166576514Y-112165097D01*
X166578118Y-112231328D01*
X166580297Y-112286170D01*
X166583119Y-112331021D01*
X166586651Y-112367278D01*
X166590961Y-112396341D01*
X166596117Y-112419609D01*
X166602185Y-112438479D01*
X166609233Y-112454351D01*
X166617329Y-112468622D01*
X166626540Y-112482691D01*
X166635040Y-112495158D01*
X166652176Y-112521452D01*
X166662322Y-112539037D01*
X166663511Y-112542257D01*
X166652604Y-112543334D01*
X166621411Y-112544335D01*
X166572223Y-112545235D01*
X166507333Y-112546010D01*
X166429030Y-112546637D01*
X166339607Y-112547091D01*
X166241356Y-112547349D01*
X166172445Y-112547400D01*
X166067452Y-112547180D01*
X165970610Y-112546548D01*
X165884107Y-112545549D01*
X165810132Y-112544227D01*
X165750874Y-112542626D01*
X165708520Y-112540791D01*
X165685260Y-112538765D01*
X165681378Y-112537493D01*
X165689076Y-112522591D01*
X165697074Y-112514560D01*
X165710246Y-112497434D01*
X165727485Y-112467183D01*
X165739407Y-112442622D01*
X165766045Y-112383711D01*
X165769120Y-111206845D01*
X165772195Y-110029978D01*
X166217853Y-110029978D01*
X166315670Y-110030142D01*
X166406064Y-110030611D01*
X166486630Y-110031347D01*
X166554962Y-110032316D01*
X166608656Y-110033480D01*
X166645305Y-110034803D01*
X166662504Y-110036249D01*
X166663511Y-110036702D01*
X167674517Y-110036702D01*
X167659270Y-110017722D01*
X167585090Y-109925537D01*
X167513069Y-109836204D01*
X167444569Y-109751424D01*
X167380955Y-109672898D01*
X167323588Y-109602326D01*
X167273833Y-109541409D01*
X167233052Y-109491847D01*
X167215888Y-109471178D01*
X167129596Y-109370516D01*
X167052997Y-109287259D01*
X166984183Y-109219438D01*
X166921248Y-109165089D01*
X166911867Y-109157722D01*
X166872356Y-109127117D01*
X168004116Y-109126867D01*
X167998827Y-109174844D01*
X168002130Y-109232188D01*
X168023661Y-109300463D01*
X168063635Y-109380212D01*
X168108943Y-109452495D01*
X168125161Y-109475140D01*
X168153214Y-109512696D01*
X168191430Y-109563021D01*
X168238137Y-109623973D01*
X168291661Y-109693411D01*
X168350331Y-109769194D01*
X168412475Y-109849180D01*
X168476421Y-109931228D01*
X168540495Y-110013196D01*
X168603027Y-110092943D01*
X168662343Y-110168327D01*
X168716771Y-110237207D01*
X168764639Y-110297442D01*
X168804275Y-110346889D01*
X168834006Y-110383408D01*
X168852161Y-110404858D01*
X168855220Y-110408156D01*
X168858079Y-110400149D01*
X168860293Y-110369855D01*
X168861857Y-110317556D01*
X168862767Y-110243531D01*
X168863020Y-110148063D01*
X168862613Y-110031434D01*
X168861704Y-109911445D01*
X168860382Y-109779333D01*
X168858857Y-109667594D01*
X168856881Y-109574025D01*
X168854206Y-109496419D01*
X168850582Y-109432574D01*
X168845761Y-109380283D01*
X168839494Y-109337344D01*
X168831532Y-109301551D01*
X168821627Y-109270700D01*
X168809531Y-109242586D01*
X168794993Y-109215005D01*
X168780311Y-109189966D01*
X168742314Y-109126867D01*
X169802197Y-109126867D01*
X170105034Y-109126867D01*
X170105001Y-109120617D01*
X170104195Y-109018544D01*
X170103170Y-108929633D01*
X170101900Y-108852941D01*
X170100360Y-108787527D01*
X170098524Y-108732449D01*
X170096367Y-108686765D01*
X170093863Y-108649534D01*
X170090987Y-108619813D01*
X170087713Y-108596662D01*
X170084015Y-108579139D01*
X170079869Y-108566301D01*
X170075247Y-108557208D01*
X170070126Y-108550918D01*
X170064478Y-108546488D01*
X170058279Y-108542978D01*
X170051504Y-108539445D01*
X170045508Y-108535876D01*
X170040275Y-108533300D01*
X170032099Y-108530972D01*
X170019886Y-108528878D01*
X170002541Y-108527007D01*
X169978969Y-108525347D01*
X169948077Y-108523884D01*
X169908768Y-108522608D01*
X169859950Y-108521504D01*
X169800527Y-108520561D01*
X169729404Y-108519767D01*
X169645488Y-108519109D01*
X169547683Y-108518575D01*
X169434894Y-108518153D01*
X169306029Y-108517829D01*
X169159991Y-108517592D01*
X168995686Y-108517430D01*
X168812020Y-108517330D01*
X168607897Y-108517280D01*
X168396753Y-108517267D01*
X166776400Y-108517267D01*
X166776400Y-108614054D01*
G37*
X166776400Y-108614054D02*
X166765535Y-108727993D01*
X166733918Y-108835616D01*
X166683015Y-108934615D01*
X166614293Y-109022684D01*
X166529219Y-109097516D01*
X166432232Y-109155384D01*
X166325964Y-109195005D01*
X166218950Y-109213573D01*
X166113300Y-109212434D01*
X166011125Y-109192930D01*
X165914534Y-109156406D01*
X165825638Y-109104205D01*
X165746546Y-109037673D01*
X165679369Y-108958152D01*
X165626217Y-108866987D01*
X165589199Y-108765523D01*
X165570427Y-108655102D01*
X165568489Y-108605206D01*
X165568489Y-108517267D01*
X165516560Y-108517267D01*
X165480253Y-108520111D01*
X165453355Y-108531911D01*
X165426249Y-108555649D01*
X165387867Y-108594031D01*
X165387867Y-110785602D01*
X165387876Y-111047739D01*
X165387908Y-111288241D01*
X165387972Y-111508048D01*
X165388076Y-111708101D01*
X165388227Y-111889344D01*
X165388434Y-112052716D01*
X165388706Y-112199160D01*
X165389050Y-112329617D01*
X165389474Y-112445029D01*
X165389987Y-112546338D01*
X165390597Y-112634484D01*
X165391312Y-112710410D01*
X165392140Y-112775057D01*
X165393089Y-112829367D01*
X165394167Y-112874280D01*
X165395383Y-112910740D01*
X165396745Y-112939687D01*
X165398261Y-112962063D01*
X165399938Y-112978809D01*
X165401786Y-112990868D01*
X165403813Y-112999180D01*
X165406025Y-113004687D01*
X165407108Y-113006537D01*
X165411271Y-113013549D01*
X165414805Y-113019996D01*
X165418635Y-113025900D01*
X165423682Y-113031286D01*
X165430871Y-113036178D01*
X165441123Y-113040598D01*
X165455364Y-113044572D01*
X165474514Y-113048121D01*
X165499499Y-113051270D01*
X165531240Y-113054042D01*
X165570662Y-113056461D01*
X165618686Y-113058551D01*
X165676237Y-113060335D01*
X165744237Y-113061837D01*
X165823610Y-113063080D01*
X165915279Y-113064089D01*
X166020166Y-113064885D01*
X166139196Y-113065494D01*
X166273290Y-113065939D01*
X166423373Y-113066243D01*
X166590367Y-113066430D01*
X166775196Y-113066524D01*
X166978783Y-113066548D01*
X167202050Y-113066525D01*
X167445922Y-113066480D01*
X167711321Y-113066437D01*
X167749704Y-113066432D01*
X168016682Y-113066389D01*
X168262002Y-113066318D01*
X168486583Y-113066213D01*
X168691345Y-113066066D01*
X168877206Y-113065869D01*
X169045088Y-113065616D01*
X169195908Y-113065300D01*
X169330587Y-113064913D01*
X169450044Y-113064447D01*
X169555199Y-113063897D01*
X169646971Y-113063253D01*
X169726279Y-113062511D01*
X169794043Y-113061661D01*
X169851182Y-113060697D01*
X169898617Y-113059611D01*
X169937266Y-113058397D01*
X169968049Y-113057047D01*
X169991885Y-113055555D01*
X170009694Y-113053911D01*
X170022395Y-113052111D01*
X170030908Y-113050145D01*
X170035266Y-113048477D01*
X170043728Y-113044906D01*
X170051497Y-113042270D01*
X170058602Y-113039634D01*
X170065073Y-113036062D01*
X170070939Y-113030621D01*
X170076229Y-113022375D01*
X170080974Y-113010390D01*
X170085202Y-112993731D01*
X170088943Y-112971463D01*
X170092227Y-112942652D01*
X170095083Y-112906363D01*
X170097540Y-112861661D01*
X170099629Y-112807611D01*
X170101378Y-112743279D01*
X170102817Y-112667730D01*
X170103976Y-112580030D01*
X170104883Y-112479243D01*
X170105569Y-112364434D01*
X170106063Y-112234670D01*
X170106395Y-112089015D01*
X170106593Y-111926535D01*
X170106687Y-111746295D01*
X170106708Y-111547360D01*
X170106685Y-111328796D01*
X170106646Y-111089668D01*
X170106622Y-110829040D01*
X170106622Y-110786889D01*
X170106636Y-110523992D01*
X170106661Y-110282732D01*
X170106671Y-110062165D01*
X170106642Y-109861352D01*
X170106548Y-109679349D01*
X170106362Y-109515216D01*
X170106059Y-109368011D01*
X170105614Y-109236792D01*
X170105034Y-109126867D01*
X169802197Y-109126867D01*
X169762407Y-109184711D01*
X169751236Y-109200479D01*
X169741166Y-109214441D01*
X169732138Y-109227784D01*
X169724097Y-109241693D01*
X169716986Y-109257356D01*
X169710747Y-109275958D01*
X169705325Y-109298686D01*
X169700662Y-109326727D01*
X169696701Y-109361267D01*
X169693385Y-109403492D01*
X169690659Y-109454589D01*
X169688464Y-109515744D01*
X169686745Y-109588144D01*
X169685444Y-109672975D01*
X169684505Y-109771422D01*
X169683870Y-109884674D01*
X169683484Y-110013916D01*
X169683288Y-110160334D01*
X169683227Y-110325116D01*
X169683243Y-110509447D01*
X169683280Y-110714513D01*
X169683289Y-110837133D01*
X169683265Y-111054082D01*
X169683231Y-111249642D01*
X169683243Y-111424999D01*
X169683358Y-111581341D01*
X169683630Y-111719857D01*
X169684118Y-111841734D01*
X169684876Y-111948160D01*
X169685962Y-112040322D01*
X169687431Y-112119409D01*
X169689340Y-112186608D01*
X169691744Y-112243107D01*
X169694701Y-112290093D01*
X169698266Y-112328755D01*
X169702495Y-112360280D01*
X169707446Y-112385855D01*
X169713173Y-112406670D01*
X169719733Y-112423911D01*
X169727183Y-112438765D01*
X169735579Y-112452422D01*
X169744976Y-112466069D01*
X169755432Y-112480893D01*
X169761523Y-112489783D01*
X169800296Y-112547400D01*
X169268732Y-112547400D01*
X169145483Y-112547365D01*
X169042987Y-112547215D01*
X168959420Y-112546878D01*
X168892956Y-112546286D01*
X168841771Y-112545367D01*
X168804041Y-112544051D01*
X168777940Y-112542269D01*
X168761644Y-112539951D01*
X168753328Y-112537026D01*
X168751168Y-112533424D01*
X168753339Y-112529075D01*
X168754535Y-112527645D01*
X168779685Y-112490573D01*
X168805583Y-112437772D01*
X168829192Y-112375770D01*
X168837461Y-112349357D01*
X168842078Y-112331416D01*
X168845979Y-112310355D01*
X168849248Y-112284089D01*
X168851966Y-112250532D01*
X168854215Y-112207599D01*
X168856077Y-112153204D01*
X168857636Y-112085262D01*
X168858972Y-112001688D01*
X168860169Y-111900395D01*
X168861308Y-111779300D01*
X168861685Y-111734600D01*
X168862702Y-111609449D01*
X168863460Y-111505082D01*
X168863903Y-111419707D01*
X168863970Y-111351533D01*
X168863605Y-111298765D01*
X168862748Y-111259614D01*
X168861341Y-111232285D01*
X168859325Y-111214986D01*
X168856643Y-111205926D01*
X168853236Y-111203312D01*
X168849044Y-111205351D01*
X168844571Y-111209667D01*
X168834216Y-111222602D01*
X168812158Y-111251676D01*
X168779957Y-111294759D01*
X168739174Y-111349718D01*
X168691370Y-111414423D01*
X168638105Y-111486742D01*
X168580940Y-111564544D01*
X168521437Y-111645698D01*
X168461155Y-111728072D01*
X168401655Y-111809536D01*
X168344498Y-111887957D01*
X168291245Y-111961204D01*
X168243457Y-112027147D01*
X168202693Y-112083654D01*
X168170516Y-112128593D01*
X168148485Y-112159834D01*
X168143917Y-112166466D01*
X168120996Y-112203369D01*
X168094188Y-112251359D01*
X168068789Y-112300897D01*
X168065568Y-112307577D01*
X168043890Y-112355772D01*
X168031304Y-112393334D01*
X168025574Y-112429160D01*
X168024456Y-112471200D01*
X168025090Y-112547400D01*
X166870651Y-112547400D01*
X166961815Y-112453669D01*
X167008612Y-112403775D01*
X167058899Y-112347295D01*
X167104944Y-112293026D01*
X167125369Y-112267673D01*
X167155807Y-112228128D01*
X167195862Y-112174916D01*
X167244361Y-112109667D01*
X167300135Y-112034011D01*
X167362011Y-111949577D01*
X167428819Y-111857994D01*
X167499387Y-111760892D01*
X167572545Y-111659901D01*
X167647121Y-111556650D01*
X167721944Y-111452768D01*
X167795843Y-111349885D01*
X167867646Y-111249631D01*
X167936184Y-111153636D01*
X168000284Y-111063527D01*
X168058775Y-110980936D01*
X168110486Y-110907492D01*
X168154247Y-110844824D01*
X168188885Y-110794561D01*
X168213230Y-110758334D01*
X168226111Y-110737771D01*
X168227869Y-110733668D01*
X168219910Y-110722342D01*
X168199115Y-110695162D01*
X168166847Y-110653829D01*
X168124470Y-110600044D01*
X168073347Y-110535506D01*
X168014841Y-110461918D01*
X167950314Y-110380978D01*
X167881131Y-110294388D01*
X167808653Y-110203848D01*
X167734246Y-110111060D01*
X167674517Y-110036702D01*
X166663511Y-110036702D01*
X166657602Y-110049659D01*
X166643272Y-110071908D01*
X166642225Y-110073391D01*
X166623438Y-110103544D01*
X166603791Y-110140375D01*
X166599892Y-110148511D01*
X166596356Y-110156940D01*
X166593230Y-110167059D01*
X166590486Y-110180260D01*
X166588092Y-110197938D01*
X166586019Y-110221484D01*
X166584235Y-110252293D01*
X166582712Y-110291757D01*
X166581419Y-110341269D01*
X166580326Y-110402223D01*
X166579403Y-110476011D01*
X166578619Y-110564028D01*
X166577945Y-110667665D01*
X166577350Y-110788316D01*
X166576805Y-110927374D01*
X166576279Y-111086232D01*
X166575745Y-111265089D01*
X166575206Y-111450207D01*
X166574772Y-111614145D01*
X166574509Y-111758303D01*
X166574484Y-111884079D01*
X166574765Y-111992871D01*
X166575419Y-112086077D01*
X166576514Y-112165097D01*
X166578118Y-112231328D01*
X166580297Y-112286170D01*
X166583119Y-112331021D01*
X166586651Y-112367278D01*
X166590961Y-112396341D01*
X166596117Y-112419609D01*
X166602185Y-112438479D01*
X166609233Y-112454351D01*
X166617329Y-112468622D01*
X166626540Y-112482691D01*
X166635040Y-112495158D01*
X166652176Y-112521452D01*
X166662322Y-112539037D01*
X166663511Y-112542257D01*
X166652604Y-112543334D01*
X166621411Y-112544335D01*
X166572223Y-112545235D01*
X166507333Y-112546010D01*
X166429030Y-112546637D01*
X166339607Y-112547091D01*
X166241356Y-112547349D01*
X166172445Y-112547400D01*
X166067452Y-112547180D01*
X165970610Y-112546548D01*
X165884107Y-112545549D01*
X165810132Y-112544227D01*
X165750874Y-112542626D01*
X165708520Y-112540791D01*
X165685260Y-112538765D01*
X165681378Y-112537493D01*
X165689076Y-112522591D01*
X165697074Y-112514560D01*
X165710246Y-112497434D01*
X165727485Y-112467183D01*
X165739407Y-112442622D01*
X165766045Y-112383711D01*
X165769120Y-111206845D01*
X165772195Y-110029978D01*
X166217853Y-110029978D01*
X166315670Y-110030142D01*
X166406064Y-110030611D01*
X166486630Y-110031347D01*
X166554962Y-110032316D01*
X166608656Y-110033480D01*
X166645305Y-110034803D01*
X166662504Y-110036249D01*
X166663511Y-110036702D01*
X167674517Y-110036702D01*
X167659270Y-110017722D01*
X167585090Y-109925537D01*
X167513069Y-109836204D01*
X167444569Y-109751424D01*
X167380955Y-109672898D01*
X167323588Y-109602326D01*
X167273833Y-109541409D01*
X167233052Y-109491847D01*
X167215888Y-109471178D01*
X167129596Y-109370516D01*
X167052997Y-109287259D01*
X166984183Y-109219438D01*
X166921248Y-109165089D01*
X166911867Y-109157722D01*
X166872356Y-109127117D01*
X168004116Y-109126867D01*
X167998827Y-109174844D01*
X168002130Y-109232188D01*
X168023661Y-109300463D01*
X168063635Y-109380212D01*
X168108943Y-109452495D01*
X168125161Y-109475140D01*
X168153214Y-109512696D01*
X168191430Y-109563021D01*
X168238137Y-109623973D01*
X168291661Y-109693411D01*
X168350331Y-109769194D01*
X168412475Y-109849180D01*
X168476421Y-109931228D01*
X168540495Y-110013196D01*
X168603027Y-110092943D01*
X168662343Y-110168327D01*
X168716771Y-110237207D01*
X168764639Y-110297442D01*
X168804275Y-110346889D01*
X168834006Y-110383408D01*
X168852161Y-110404858D01*
X168855220Y-110408156D01*
X168858079Y-110400149D01*
X168860293Y-110369855D01*
X168861857Y-110317556D01*
X168862767Y-110243531D01*
X168863020Y-110148063D01*
X168862613Y-110031434D01*
X168861704Y-109911445D01*
X168860382Y-109779333D01*
X168858857Y-109667594D01*
X168856881Y-109574025D01*
X168854206Y-109496419D01*
X168850582Y-109432574D01*
X168845761Y-109380283D01*
X168839494Y-109337344D01*
X168831532Y-109301551D01*
X168821627Y-109270700D01*
X168809531Y-109242586D01*
X168794993Y-109215005D01*
X168780311Y-109189966D01*
X168742314Y-109126867D01*
X169802197Y-109126867D01*
X170105034Y-109126867D01*
X170105001Y-109120617D01*
X170104195Y-109018544D01*
X170103170Y-108929633D01*
X170101900Y-108852941D01*
X170100360Y-108787527D01*
X170098524Y-108732449D01*
X170096367Y-108686765D01*
X170093863Y-108649534D01*
X170090987Y-108619813D01*
X170087713Y-108596662D01*
X170084015Y-108579139D01*
X170079869Y-108566301D01*
X170075247Y-108557208D01*
X170070126Y-108550918D01*
X170064478Y-108546488D01*
X170058279Y-108542978D01*
X170051504Y-108539445D01*
X170045508Y-108535876D01*
X170040275Y-108533300D01*
X170032099Y-108530972D01*
X170019886Y-108528878D01*
X170002541Y-108527007D01*
X169978969Y-108525347D01*
X169948077Y-108523884D01*
X169908768Y-108522608D01*
X169859950Y-108521504D01*
X169800527Y-108520561D01*
X169729404Y-108519767D01*
X169645488Y-108519109D01*
X169547683Y-108518575D01*
X169434894Y-108518153D01*
X169306029Y-108517829D01*
X169159991Y-108517592D01*
X168995686Y-108517430D01*
X168812020Y-108517330D01*
X168607897Y-108517280D01*
X168396753Y-108517267D01*
X166776400Y-108517267D01*
X166776400Y-108614054D01*
D13*
X176082000Y-133410000D02*
X176082000Y-132080000D01*
X174752000Y-133410000D02*
X176082000Y-133410000D01*
X173482000Y-133410000D02*
X173482000Y-130750000D01*
X173482000Y-130750000D02*
X135322000Y-130750000D01*
X173482000Y-133410000D02*
X135322000Y-133410000D01*
X135322000Y-133410000D02*
X135322000Y-130750000D01*
M02*
