M48
; DRILL file {KiCad 5.1.5-52549c5~84~ubuntu18.04.1} date Fri 13 Dec 2019 14:58:59 CST
; FORMAT={3:3/ absolute / metric / suppress leading zeros}
; #@! TF.CreationDate,2019-12-13T14:58:59-06:00
; #@! TF.GenerationSoftware,Kicad,Pcbnew,5.1.5-52549c5~84~ubuntu18.04.1
FMAT,2
METRIC,TZ
T1C1.000
T2C3.000
%
G90
G05
T1
X149985Y-118872
X151130Y-116332
X151130Y-121412
X152275Y-118872
X153420Y-116332
X153420Y-121412
X154565Y-118872
X155710Y-116332
X155710Y-121412
X156855Y-118872
X158000Y-116332
X158000Y-121412
X159145Y-118872
X160290Y-116332
X160290Y-121412
X136652Y-132080
X139192Y-132080
X141732Y-132080
X144272Y-132080
X146812Y-132080
X149352Y-132080
X151892Y-132080
X154432Y-132080
X156972Y-132080
X159512Y-132080
X162052Y-132080
X164592Y-132080
X167132Y-132080
X169672Y-132080
X172212Y-132080
X174752Y-132080
T2
X143256Y-118872
X168148Y-118872
T0
M30
